<svg width="147" height="115" viewBox="0 0 147 115" fill="none" xmlns="http://www.w3.org/2000/svg">
<path d="M21.5007 102.304C50.1631 119.232 96.6522 119.232 125.315 102.304C153.977 85.3754 153.977 57.9329 125.315 41.0081C96.6522 24.0833 50.1631 24.0798 21.5007 41.0081C-7.16167 57.9364 -7.17215 85.3789 21.5007 102.304Z" fill="#FAA515"/>
<path d="M31.2737 71.7352C31.0388 71.5822 30.8435 71.3757 30.7038 71.1327C30.5641 70.8897 30.4839 70.617 30.4697 70.3371V19.8808C30.4844 19.6009 30.5649 19.3285 30.7045 19.0856C30.8442 18.8426 31.0392 18.636 31.2737 18.4826L49.2995 8.07673C49.5326 7.93125 49.8009 7.85195 50.0756 7.84734C50.3503 7.84273 50.6211 7.91299 50.8589 8.05058C51.0967 8.18817 51.2926 8.3879 51.4255 8.62835C51.5585 8.8688 51.6234 9.14091 51.6135 9.41548V12.7851C51.6135 13.2989 51.963 13.5086 52.4209 13.2499L74.9768 0.22953C75.2097 0.0842322 75.4776 0.00497065 75.752 0.000226251C76.0264 -0.00451815 76.2969 0.0654331 76.5346 0.202596C76.7723 0.339758 76.9683 0.53897 77.1014 0.778913C77.2346 1.01886 77.3001 1.2905 77.2908 1.56478V79.121L60.6666 88.7124L31.2737 71.7352Z" fill="#102551"/>
<path d="M76.535 0.205045C76.2914 0.086289 76.0231 0.0269098 75.7522 0.0317702C75.4812 0.0366306 75.2152 0.105593 74.9761 0.233009L52.4201 13.2534C51.9727 13.5121 51.6127 13.3024 51.6127 12.7885V9.41896C51.6227 9.14439 51.5577 8.87228 51.4247 8.63183C51.2918 8.39138 51.0959 8.19165 50.8581 8.05406C50.6203 7.91647 50.3495 7.84621 50.0748 7.85082C49.8001 7.85543 49.5318 7.93472 49.2987 8.08021L31.2729 18.4861C31.036 18.636 30.8402 18.8427 30.7031 19.0873L41.0426 25.0574L77.29 4.1234V1.56826C77.2801 1.2977 77.2066 1.03328 77.0754 0.796432C76.9442 0.559588 76.7591 0.356985 76.535 0.205045Z" fill="#102551"/>
<path d="M76.4876 1.10348L52.4217 14.9977C51.9742 15.2564 51.6142 15.0467 51.6142 14.5329V9.41907C51.6142 8.90524 51.2647 8.69552 50.8103 8.95418L32.7844 19.36C32.5498 19.5133 32.3546 19.7198 32.2149 19.9628C32.0752 20.2057 31.9949 20.4783 31.9805 20.7582V69.4878C31.9947 69.7681 32.0753 70.0411 32.2157 70.2841C32.3561 70.5272 32.5522 70.7335 32.7879 70.8859L62.1878 87.8597L77.2915 79.1421V1.56837C77.2915 1.05454 76.9315 0.848311 76.4876 1.10348Z" fill="#1E408C"/>
<path d="M32.2178 70.2636C32.3527 70.5097 32.549 70.7168 32.7875 70.8648L62.1875 87.8385L77.2911 79.121V44.2402L32.2178 70.2636Z" fill="#071125"/>
<path d="M35.8659 81.372L35.6457 81.2462C35.4579 81.1241 35.3015 80.9596 35.1892 80.7659C35.0768 80.5722 35.0117 80.3547 34.999 80.1311V32.7857C35.0109 32.562 35.0757 32.3442 35.1881 32.1504C35.3005 31.9565 35.4573 31.7921 35.6457 31.6707L84.197 3.63748C84.3968 3.53587 84.6177 3.48291 84.8419 3.48291C85.066 3.48291 85.287 3.53587 85.4868 3.63748L85.707 3.76681C85.8954 3.88822 86.0522 4.05261 86.1646 4.24646C86.277 4.44031 86.3418 4.65807 86.3537 4.88185V52.2168C86.341 52.4403 86.2758 52.6578 86.1635 52.8515C86.0512 53.0452 85.8948 53.2098 85.707 53.3318L37.1557 81.372C36.9559 81.4736 36.7349 81.5266 36.5108 81.5266C36.2866 81.5266 36.0657 81.4736 35.8659 81.372Z" fill="#819DA7"/>
<path d="M38.0191 33.775L35.1878 32.1392C35.0723 32.332 35.0074 32.5508 34.999 32.7753V80.1207C35.0117 80.3443 35.0768 80.5617 35.1892 80.7555C35.3015 80.9492 35.4579 81.1137 35.6457 81.2357L35.8659 81.3616C36.0657 81.4632 36.2866 81.5162 36.5108 81.5162C36.7349 81.5162 36.9559 81.4632 37.1557 81.3616L38.0191 80.8617V33.775Z" fill="#819DA7"/>
<path d="M36.5146 80.991V33.6456C36.5267 33.4223 36.5912 33.2049 36.7029 33.0112C36.8146 32.8174 36.9705 32.6528 37.1578 32.5306L85.7091 4.49732C86.0587 4.29459 86.3558 4.45887 86.3558 4.87133V52.2167C86.3431 52.4403 86.2779 52.6577 86.1656 52.8515C86.0533 53.0452 85.8969 53.2097 85.7091 53.3318L37.1578 81.372C36.8013 81.5677 36.5146 81.4034 36.5146 80.991Z" fill="#E6F6FC"/>
<path d="M44.9372 86.6153L44.7135 86.4859C44.5262 86.3637 44.3703 86.199 44.2586 86.0053C44.1468 85.8116 44.0823 85.5942 44.0703 85.3709V38.008C44.0823 37.7847 44.1468 37.5673 44.2586 37.3736C44.3703 37.1799 44.5262 37.0152 44.7135 36.893L93.2683 8.86325C93.467 8.76028 93.6876 8.70654 93.9114 8.70654C94.1353 8.70654 94.3558 8.76028 94.5546 8.86325L94.7783 8.98908C94.9656 9.1113 95.1215 9.27596 95.2332 9.4697C95.3449 9.66344 95.4094 9.88079 95.4215 10.1041V57.4495C95.4114 57.6733 95.3478 57.8914 95.2358 58.0855C95.1239 58.2795 94.967 58.4438 94.7783 58.5646L46.2165 86.6153C46.0186 86.7171 45.7993 86.7702 45.5768 86.7702C45.3543 86.7702 45.135 86.7171 44.9372 86.6153Z" fill="#819DA7"/>
<path d="M47.0845 39.0113L44.2532 37.3755C44.1382 37.5672 44.0733 37.7848 44.0645 38.0082V85.3535C44.0765 85.5769 44.141 85.7942 44.2527 85.988C44.3645 86.1817 44.5203 86.3464 44.7076 86.4686L44.9313 86.5979C45.1301 86.7009 45.3506 86.7546 45.5745 86.7546C45.7983 86.7546 46.0189 86.7009 46.2176 86.5979L47.0845 86.0981V39.0113Z" fill="#819DA7"/>
<path d="M45.5742 86.2272V38.8818C45.5865 38.6586 45.6511 38.4413 45.7628 38.2476C45.8746 38.0539 46.0303 37.8892 46.2174 37.7668L94.7722 9.73356C95.1217 9.52733 95.4153 9.69511 95.4153 10.1041V57.4495C95.4053 57.6733 95.3416 57.8914 95.2297 58.0854C95.1178 58.2794 94.9609 58.4438 94.7722 58.5645L46.2174 86.6152C45.8643 86.804 45.5742 86.6362 45.5742 86.2272Z" fill="#E6F6FC"/>
<path d="M53.9893 91.8268L53.7691 91.701C53.5818 91.5788 53.426 91.4141 53.3142 91.2204C53.2025 91.0266 53.138 90.8093 53.126 90.586V43.2406C53.1378 43.0168 53.2026 42.799 53.315 42.6052C53.4275 42.4113 53.5843 42.247 53.7726 42.1255L102.324 14.0923C102.524 13.9907 102.745 13.9377 102.969 13.9377C103.193 13.9377 103.414 13.9907 103.614 14.0923L103.834 14.2216C104.022 14.3431 104.179 14.5074 104.292 14.7013C104.404 14.8951 104.469 15.1129 104.481 15.3367V62.6821C104.468 62.9056 104.403 63.1231 104.29 63.3168C104.178 63.5105 104.022 63.6751 103.834 63.7971L55.2827 91.8268C55.0824 91.929 54.8608 91.9823 54.636 91.9823C54.4112 91.9823 54.1896 91.929 53.9893 91.8268Z" fill="#819DA7"/>
<path d="M56.1472 44.2403L53.3264 42.6045C53.211 42.7973 53.1461 43.0161 53.1377 43.2407V90.586C53.1497 90.8094 53.2142 91.0267 53.3259 91.2205C53.4377 91.4142 53.5935 91.5789 53.7809 91.7011L54.0011 91.8269C54.2008 91.9285 54.4218 91.9815 54.646 91.9815C54.8701 91.9815 55.0911 91.9285 55.2909 91.8269L56.1577 91.3271L56.1472 44.2403Z" fill="#819DA7"/>
<path d="M54.6367 91.4564V44.111C54.6487 43.8877 54.7132 43.6703 54.825 43.4766C54.9367 43.2828 55.0926 43.1182 55.2799 42.996L103.831 14.9592C104.181 14.7565 104.478 14.9208 104.478 15.3332V62.6821C104.465 62.9057 104.4 63.1232 104.288 63.3169C104.175 63.5106 104.019 63.6751 103.831 63.7972L55.2799 91.8269C54.9233 92.0331 54.6367 91.8584 54.6367 91.4564Z" fill="#E6F6FC"/>
<path d="M62.1855 87.8387L66.7156 85.2241V90.4568L62.1855 87.8387Z" fill="#071125"/>
<path d="M66.7185 51.2732V89.527C66.7185 90.0408 66.369 90.2471 65.9146 89.9919L62.1885 87.8387L60.668 88.7126L67.4141 92.6065C67.6635 92.7341 67.9397 92.8007 68.2198 92.8007C68.5 92.8007 68.7761 92.7341 69.0255 92.6065L115.756 65.6429C115.991 65.4898 116.186 65.2834 116.327 65.0404C116.467 64.7975 116.548 64.5248 116.563 64.2447V24.2432C116.572 23.9685 116.507 23.6965 116.373 23.4562C116.24 23.216 116.044 23.0164 115.806 22.879C115.568 22.7415 115.297 22.6713 115.022 22.6757C114.747 22.6802 114.479 22.7593 114.246 22.9044L67.526 49.8785C67.2909 50.0309 67.0953 50.2366 66.9549 50.479C66.8146 50.7214 66.7336 50.9935 66.7185 51.2732Z" fill="#102551"/>
<path d="M69.7539 52.0876L116.592 25.0576V24.2432C116.602 23.9685 116.536 23.6965 116.403 23.4562C116.269 23.216 116.073 23.0164 115.835 22.879C115.597 22.7415 115.326 22.6713 115.052 22.6757C114.777 22.6802 114.508 22.7593 114.275 22.9044L67.5239 49.8785C67.2853 50.0265 67.089 50.2336 66.9541 50.4798L69.7539 52.0876Z" fill="#102551"/>
<path d="M115.753 23.7781L69.033 50.7522C68.7979 50.9053 68.6022 51.1117 68.4619 51.3547C68.3216 51.5976 68.2407 51.8702 68.2256 52.1504V92.1414C68.2256 92.6552 68.5751 92.865 69.033 92.6063L115.753 65.6427C115.988 65.4896 116.184 65.2832 116.324 65.0403C116.464 64.7973 116.545 64.5247 116.56 64.2445V24.243C116.56 23.7292 116.197 23.5194 115.753 23.7781Z" fill="#1E408C"/>
</svg>
