<svg width="628" height="540" viewBox="0 0 628 540" fill="none" xmlns="http://www.w3.org/2000/svg">
<path d="M314.36 586.122C141.146 586.122 0.728516 505.048 0.728516 405.038C0.728516 305.029 141.146 223.955 314.36 223.955C487.574 223.955 627.991 305.029 627.991 405.038C627.991 505.048 487.574 586.122 314.36 586.122Z" fill="#1B3A7F"/>
<path d="M551.029 469.031L602.55 439.289C605.456 437.608 605.456 434.897 602.55 433.216L302.864 260.187C301.232 259.368 299.431 258.942 297.605 258.942C295.779 258.942 293.978 259.368 292.346 260.187L240.813 289.942C237.906 291.61 237.906 294.334 240.813 296.015L540.499 469.031C542.13 469.86 543.934 470.292 545.764 470.292C547.594 470.292 549.398 469.86 551.029 469.031Z" fill="#E0E0E0"/>
<path d="M365.828 416.025L321.515 390.415C316.94 387.808 314.659 384.315 314.659 380.862C314.659 377.408 314.659 374.71 314.659 374.71L360.614 348.787C361.897 347.95 362.964 346.822 363.73 345.495C364.495 344.168 364.937 342.679 365.02 341.149V286.54L442.385 331.244V385.853C442.3 387.383 441.857 388.87 441.092 390.197C440.327 391.524 439.261 392.652 437.98 393.491L398.88 416.025C389.77 421.291 374.964 421.291 365.828 416.025Z" fill="#142A63"/>
<path d="M423.827 395.524V401.663L438.007 393.491C439.287 392.652 440.352 391.523 441.115 390.197C441.878 388.87 442.318 387.382 442.399 385.853V331.257L427.672 322.747C427.359 326.487 427.033 330.358 426.72 334.125L437.056 340.107V382.778C436.978 384.308 436.539 385.799 435.773 387.127C435.007 388.455 433.937 389.582 432.651 390.415L423.827 395.524Z" fill="#404040"/>
<path d="M437.055 382.791C436.972 384.32 436.53 385.809 435.765 387.136C434.999 388.463 433.932 389.591 432.649 390.428L398.906 409.861C389.783 415.139 374.964 415.139 365.828 409.861L321.515 384.263C312.392 379.05 312.392 370.448 321.515 365.17L355.284 345.711C356.569 344.876 357.638 343.749 358.404 342.421C359.169 341.094 359.61 339.604 359.689 338.074V295.416L437.042 340.12L437.055 382.791Z" fill="#142A63"/>
<path d="M346.304 350.911L355.284 345.698C356.569 344.863 357.638 343.736 358.404 342.408C359.169 341.081 359.61 339.591 359.689 338.061V295.416L437.055 340.12V382.791C436.972 384.32 436.53 385.809 435.765 387.136C434.999 388.463 433.932 389.591 432.649 390.428L423.826 395.511L346.304 350.911Z" fill="#142A63"/>
<path d="M314.673 374.775V380.94C314.673 384.394 316.967 387.834 321.529 390.48L365.842 416.077C370.698 418.668 376.121 420.012 381.625 419.987V413.849C376.12 413.88 370.695 412.536 365.842 409.939L321.529 384.315C316.967 381.631 314.673 378.177 314.673 374.775Z" fill="#142A63"/>
<path d="M561.274 435.823C559.604 436.63 557.768 437.033 555.914 436.999C554.059 436.965 552.239 436.495 550.6 435.627L251.409 262.885C249.803 261.843 248.466 260.435 247.507 258.777C246.549 257.118 245.997 255.257 245.896 253.345V10.5227C245.971 8.66528 246.482 6.85156 247.388 5.22817C248.293 3.60478 249.568 2.21729 251.11 1.17788C252.779 0.37084 254.616 -0.0319794 256.47 0.00198243C258.324 0.0359442 260.145 0.505734 261.784 1.37338L560.935 174.064C562.54 175.108 563.875 176.517 564.833 178.174C565.791 179.832 566.344 181.692 566.448 183.604V426.478C566.378 428.332 565.873 430.143 564.974 431.766C564.075 433.39 562.808 434.779 561.274 435.823Z" fill="#142A63"/>
<path d="M550.6 435.615L251.409 262.885C249.805 261.841 248.469 260.432 247.511 258.775C246.553 257.117 246 255.257 245.896 253.345V10.523C245.896 7.00407 248.359 5.58345 251.409 7.34294L550.587 180.072C552.191 181.117 553.526 182.525 554.484 184.183C555.442 185.841 555.996 187.701 556.1 189.612V432.434C556.1 435.953 553.636 437.335 550.6 435.615Z" fill="#142A63"/>
<path d="M550.6 435.615L251.409 262.885C249.805 261.841 248.469 260.432 247.511 258.775C246.553 257.117 246 255.257 245.896 253.345V10.523C245.896 7.00407 248.359 5.58345 251.409 7.34294L550.587 180.072C552.191 181.117 553.526 182.525 554.484 184.183C555.442 185.841 555.996 187.701 556.1 189.612V432.434C556.1 435.953 553.636 437.335 550.6 435.615Z" fill="#000B1E"/>
<path d="M551.409 441.909C552.974 442.584 554.666 442.915 556.371 442.879C558.075 442.843 559.752 442.441 561.288 441.701C562.831 440.66 564.107 439.27 565.012 437.645C565.918 436.019 566.428 434.203 566.501 432.343V410.304L556.166 416.286V438.325C556.114 441.531 554.08 442.978 551.409 441.909Z" fill="#142A63"/>
<path d="M556.113 416.286V438.312C556.113 441.831 553.65 443.252 550.613 441.492L251.41 268.763C249.803 267.717 248.467 266.307 247.509 264.647C246.551 262.987 245.999 261.124 245.897 259.21V237.145L556.113 416.286Z" fill="#142A63"/>
<path opacity="0.2" d="M556.1 416.234V438.312C556.1 441.831 553.636 443.252 550.6 441.492L251.409 268.763C249.803 267.717 248.466 266.307 247.508 264.647C246.55 262.987 245.998 261.124 245.896 259.21V237.145L556.1 416.234Z" fill="#404040"/>
<path d="M545.765 388.629V193.053C545.702 191.904 545.37 190.786 544.794 189.79C544.219 188.794 543.418 187.947 542.454 187.318L259.555 23.986C257.717 22.9303 256.245 23.7905 256.245 25.8889V221.478C256.307 222.627 256.64 223.745 257.215 224.741C257.79 225.737 258.592 226.584 259.555 227.213L542.506 390.545C544.292 391.601 545.765 390.741 545.765 388.629Z" fill="#142A63"/>
<path opacity="0.3" d="M545.765 388.629V193.053C545.702 191.904 545.37 190.786 544.794 189.79C544.219 188.794 543.418 187.947 542.454 187.318L259.555 23.986C257.717 22.9303 256.245 23.7905 256.245 25.8889V221.478C256.307 222.627 256.64 223.745 257.215 224.741C257.79 225.737 258.592 226.584 259.555 227.213L542.506 390.545C544.292 391.601 545.765 390.741 545.765 388.629Z" fill="#404040"/>
<path d="M401.004 333.72C402.517 334.698 403.777 336.018 404.683 337.573C405.588 339.129 406.114 340.877 406.218 342.674C406.218 345.972 403.898 347.314 401.004 345.659C399.491 344.683 398.23 343.363 397.324 341.807C396.418 340.251 395.893 338.503 395.791 336.705C395.83 333.408 398.15 332.065 401.004 333.72Z" fill="#142A63"/>
<path d="M554.484 184.164C555.465 185.819 556.025 187.69 556.113 189.612V416.286L566.448 410.304V183.656C566.373 181.732 565.812 179.858 564.819 178.208L554.484 184.164Z" fill="#142A63"/>
<path d="M204.229 9.37562C204.674 9.15176 205.171 9.05405 205.668 9.09312C206.164 9.13218 206.64 9.30651 207.044 9.59718L505.231 181.805C506.364 182.532 507.309 183.517 507.988 184.679C508.668 185.841 509.063 187.147 509.141 188.491V389.529C509.187 390.181 509.061 390.833 508.775 391.421C508.489 392.009 508.053 392.512 507.512 392.878C506.886 393.217 503.602 395.146 502.585 395.68C502.234 395.86 501.841 395.943 501.447 395.92C501.053 395.897 500.672 395.769 500.344 395.55L202.118 223.277C200.984 222.55 200.039 221.566 199.359 220.404C198.68 219.241 198.285 217.935 198.208 216.591V14.5759C198.142 14.0726 198.22 13.561 198.432 13.0999C198.644 12.6388 198.982 12.2469 199.407 11.9692C200.137 11.7216 203.525 9.84481 204.229 9.37562Z" fill="#73DAF9"/>
<path d="M500.292 184.607L202.118 12.4515C199.981 11.2264 198.208 12.23 198.208 14.6932V216.708C198.286 218.052 198.68 219.359 199.36 220.521C200.04 221.683 200.985 222.668 202.118 223.394L500.292 395.55C502.43 396.775 504.202 394.781 504.202 392.318V191.293C504.125 189.949 503.73 188.643 503.05 187.481C502.371 186.318 501.426 185.334 500.292 184.607Z" fill="#FAFAFA"/>
<path d="M200.385 13.1684C199.668 13.1684 199.551 14.0808 199.551 14.6282V216.643C199.621 217.755 199.948 218.835 200.507 219.798C201.065 220.761 201.84 221.582 202.77 222.195L500.944 394.416C501.128 394.543 501.345 394.616 501.569 394.625C502.247 394.625 502.873 393.543 502.873 392.318V191.293C502.803 190.18 502.475 189.098 501.917 188.133C501.358 187.167 500.584 186.344 499.654 185.728L201.467 13.5203C201.141 13.3141 200.769 13.1931 200.385 13.1684ZM200.385 11.8651C200.998 11.8883 201.594 12.0678 202.118 12.3865L500.292 184.607C501.426 185.334 502.371 186.319 503.05 187.481C503.73 188.643 504.125 189.949 504.202 191.293V392.318C504.202 394.273 503.12 395.928 501.596 395.928C501.135 395.924 500.684 395.793 500.292 395.55L202.118 223.277C200.985 222.55 200.04 221.566 199.36 220.404C198.68 219.242 198.286 217.935 198.208 216.591V14.576C198.208 12.8165 199.081 11.813 200.346 11.813L200.385 11.8651Z" fill="#E0E0E0"/>
<path d="M507.474 392.878C507.057 393.1 504.046 394.82 502.73 395.563C503.205 395.172 503.582 394.675 503.829 394.111C504.076 393.547 504.186 392.932 504.15 392.318V203.923L509.103 201.029V389.529C509.144 390.18 509.015 390.831 508.73 391.418C508.444 392.005 508.011 392.508 507.474 392.878Z" fill="#F0F0F0"/>
<path d="M198.247 14.5891C198.247 12.1519 199.994 11.1613 202.157 12.3865L500.292 184.607C501.426 185.334 502.371 186.319 503.05 187.481C503.73 188.643 504.125 189.949 504.202 191.293V203.923L198.247 27.2704V14.5891Z" fill="#73DAF9"/>
<g opacity="0.4">
<path d="M202.117 12.4517L500.291 184.608C501.429 185.314 502.367 186.301 503.015 187.475L507.915 184.634C507.277 183.476 506.353 182.502 505.23 181.805L207.043 9.59747C206.641 9.30853 206.168 9.13411 205.675 9.09279C205.181 9.05148 204.686 9.14482 204.241 9.36287C203.55 9.79296 200.331 11.6176 199.523 12.0477C199.956 11.9015 200.418 11.8619 200.869 11.9323C201.321 12.0026 201.749 12.1808 202.117 12.4517Z" fill="white"/>
</g>
<path opacity="0.15" d="M509.102 201.042V188.492C509.053 187.107 508.644 185.76 507.916 184.582L503.002 187.41C503.71 188.566 504.105 189.886 504.149 191.241V203.871L509.102 201.042Z" fill="#142A63"/>
<path d="M504.149 203.923L504.162 226.678L198.259 50.0523V27.2703L504.149 203.923Z" fill="#EBEBEB"/>
<path d="M491.417 202.241L471.632 190.876V202.202L491.43 213.632L491.417 202.241Z" fill="#E0E0E0"/>
<path d="M466.744 187.996V192.479L456.878 186.771V182.301L466.744 187.996Z" fill="#E0E0E0"/>
<path d="M466.744 194.917V199.4L456.878 193.692V189.221L466.744 194.917Z" fill="#E0E0E0"/>
<path d="M451.938 179.446V183.929L442.072 178.234V173.75L451.938 179.446Z" fill="#E0E0E0"/>
<path d="M451.938 186.367V190.85L442.072 185.155V180.671L451.938 186.367Z" fill="#E0E0E0"/>
<path d="M437.146 170.896V175.38L427.279 169.684V165.201L437.146 170.896Z" fill="#E0E0E0"/>
<path d="M437.146 177.817V182.301L427.279 176.605V172.122L437.146 177.817Z" fill="#E0E0E0"/>
<path d="M392.74 145.26V149.743L382.874 144.048V139.564L392.74 145.26Z" fill="#E0E0E0"/>
<path d="M392.74 152.194V156.664L382.874 150.969V146.485L392.74 152.194Z" fill="#E0E0E0"/>
<path d="M377.937 136.723V141.194L368.07 135.498V131.015L377.937 136.723Z" fill="#E0E0E0"/>
<path d="M377.937 143.644V148.114L368.07 142.419V137.936L377.937 143.644Z" fill="#E0E0E0"/>
<path d="M363.143 128.174L363.13 132.657L353.263 126.961V122.478L363.143 128.174Z" fill="#E0E0E0"/>
<path d="M363.143 135.094L363.13 139.578L353.263 133.869V129.399L363.143 135.094Z" fill="#E0E0E0"/>
<path d="M422.339 162.36L397.667 148.115V159.506L422.339 173.751V162.36Z" fill="#E0E0E0"/>
<path d="M348.324 119.624L328.539 108.259V119.597L348.337 131.028L348.324 119.624Z" fill="#E0E0E0"/>
<path d="M323.665 105.379L323.652 109.862L313.786 104.167V99.6831L323.665 105.379Z" fill="#E0E0E0"/>
<path d="M323.665 112.299L323.652 116.782L313.786 111.087V106.604L323.665 112.299Z" fill="#E0E0E0"/>
<path d="M308.859 96.8418V101.325L298.993 95.6167V91.1333L308.859 96.8418Z" fill="#E0E0E0"/>
<path d="M308.859 103.763V108.246L298.993 102.537V98.054L308.859 103.763Z" fill="#E0E0E0"/>
<path d="M294.054 88.2918V92.7752L284.188 87.0667V82.5833L294.054 88.2918Z" fill="#E0E0E0"/>
<path d="M294.054 95.2126V99.696L284.188 93.9875V89.5171L294.054 95.2126Z" fill="#E0E0E0"/>
<path d="M249.649 62.6558V67.1392L239.783 61.4307V56.9473L249.649 62.6558Z" fill="#E0E0E0"/>
<path d="M249.649 69.5761V74.0596L239.783 68.351V63.8806L249.649 69.5761Z" fill="#E0E0E0"/>
<path d="M234.844 54.1059V58.5894L224.978 52.8938V48.4104L234.844 54.1059Z" fill="#E0E0E0"/>
<path d="M234.844 61.0266V65.51L224.978 59.8145V55.3311L234.844 61.0266Z" fill="#E0E0E0"/>
<path d="M220.051 45.5559V50.0393L210.172 44.3438V39.8604L220.051 45.5559Z" fill="#E0E0E0"/>
<path d="M220.051 52.4765V56.96L210.172 51.2644V46.781L220.051 52.4765Z" fill="#E0E0E0"/>
<path d="M279.247 79.7419L254.575 65.4966V76.9006L279.247 91.1329V79.7419Z" fill="#E0E0E0"/>
<path d="M504.149 203.923L509.102 201.029V223.824L504.162 226.679L504.149 203.923Z" fill="#E0E0E0"/>
<path d="M277.188 63.8807V64.7279C277.188 66.0312 276.25 66.6047 275.09 65.94L215.137 31.3368C214.526 30.9355 214.018 30.3961 213.653 29.7622C213.289 29.1283 213.078 28.4176 213.039 27.6875V26.8533C213.039 25.55 213.977 24.9635 215.137 25.6412L275.09 60.2444C275.702 60.6422 276.211 61.1789 276.575 61.8109C276.94 62.4428 277.15 63.1521 277.188 63.8807Z" fill="#F5F5F5"/>
<path d="M213.052 27.6875V26.8533C213.052 25.55 213.991 24.9635 215.151 25.6412L222.971 30.1247V35.8202L215.151 31.3368C214.54 30.9355 214.031 30.3961 213.667 29.7622C213.302 29.1283 213.092 28.4176 213.052 27.6875Z" fill="#7386A8"/>
<path d="M499.222 229.507L203.172 58.6152V69.9802L474.563 226.679V374.801L499.222 389.033V229.507Z" fill="#F0F0F0"/>
<path d="M474.563 226.679L449.905 212.447V223.812L474.563 238.07V226.679Z" fill="#73DAF9"/>
<path d="M474.563 317.82L449.905 303.588V314.953L474.563 329.211V317.82Z" fill="#73DAF9"/>
<path d="M474.563 329.211L449.905 314.979V326.344L474.563 340.602V329.211Z" fill="#73DAF9"/>
<path opacity="0.8" d="M474.563 329.211L449.905 314.979V326.344L474.563 340.602V329.211Z" fill="white"/>
<path d="M326.559 232.361L301.9 218.129V229.494L326.559 243.752V232.361Z" fill="#73DAF9"/>
<path opacity="0.3" d="M326.559 232.361L301.9 218.129V229.494L326.559 243.752V232.361Z" fill="#142A63"/>
<path d="M326.559 243.752L301.9 229.52V240.885L326.559 255.143V243.752Z" fill="#73DAF9"/>
<path opacity="0.4" d="M326.559 243.752L301.9 229.52V240.885L326.559 255.143V243.752Z" fill="#142A63"/>
<path d="M326.559 255.156L301.9 240.924V252.289L326.559 266.547V255.156Z" fill="#73DAF9"/>
<path opacity="0.5" d="M326.559 255.156L301.9 240.924V252.289L326.559 266.547V255.156Z" fill="#142A63"/>
<path d="M326.559 266.547L301.9 252.315V263.68L326.559 277.938V266.547Z" fill="#73DAF9"/>
<path opacity="0.3" d="M326.559 266.547L301.9 252.315V263.68L326.559 277.938V266.547Z" fill="#142A63"/>
<path d="M351.204 155.452L326.558 141.22V198.188L351.204 212.446V155.452Z" fill="#73DAF9"/>
<path d="M351.204 223.824L326.558 209.592V289.342L351.204 303.601V223.824Z" fill="#73DAF9"/>
<path d="M449.904 280.793L425.258 266.561V277.926L449.904 292.184V280.793Z" fill="#73DAF9"/>
<path opacity="0.3" d="M449.904 280.793L425.258 266.561V277.926L449.904 292.184V280.793Z" fill="#142A63"/>
<path d="M400.548 195.334L375.889 181.102V192.467L400.548 206.725V195.334Z" fill="#73DAF9"/>
<path opacity="0.6" d="M400.548 195.334L375.889 181.102V192.467L400.548 206.725V195.334Z" fill="white"/>
<path d="M277.188 192.48L252.543 178.247V189.612L277.188 203.871V192.48Z" fill="#73DAF9"/>
<path opacity="0.8" d="M277.188 192.48L252.543 178.247V189.612L277.188 203.871V192.48Z" fill="white"/>
<path d="M277.188 215.275L252.543 201.042V212.407L277.188 226.666V215.275Z" fill="#73DAF9"/>
<path d="M499.496 228.999L499.796 229.168V390.102L202.886 218.65L202.573 218.481V57.5466L499.496 228.999ZM203.759 206.412L227.219 219.954V209.957L203.759 196.429V206.412ZM498.61 241.263L475.15 227.721V237.718L498.61 251.259V241.263ZM351.804 224.893V234.89L375.263 248.431V238.435L351.804 224.893ZM375.263 237.027V227.031L351.804 213.489V223.486L375.263 237.027ZM350.592 224.189L327.132 210.648V220.644L350.592 234.186V224.189ZM350.592 222.782V212.798L327.132 199.244V209.253L350.592 222.782ZM350.592 211.391V201.433L327.132 187.892V197.888L350.592 211.391ZM350.592 199.987V190.003L327.132 176.449V186.445L350.592 199.987ZM351.804 200.69L375.263 214.232V204.236L351.804 190.694V200.69ZM351.804 202.098V212.095L375.263 225.636V215.64L351.804 202.098ZM376.476 226.34L399.935 239.881V229.885L376.476 216.343V226.34ZM376.476 227.734V237.731L399.935 251.272V241.276L376.476 227.734ZM376.476 239.138V249.135L399.935 262.676V252.68L376.476 239.138ZM376.476 250.53V260.526L399.935 274.068V264.071L376.476 250.53ZM375.263 249.826L351.804 236.284V246.281L375.263 259.822V249.826ZM351.804 247.688V257.685L375.263 271.226V261.23L351.804 247.688ZM350.592 246.984L327.132 233.443V243.439L350.592 256.981V246.984ZM350.592 245.577V235.58L327.132 222.039V232.035L350.592 245.577ZM325.92 221.348L302.46 207.807V217.803L325.92 231.345V221.348ZM325.92 219.941V209.944L302.46 196.403V206.399L325.92 219.941ZM325.92 208.55V198.553L302.46 185.012V195.008L325.92 208.55ZM325.92 197.145V187.097L302.46 173.555V183.552L325.92 197.145ZM325.92 185.754V175.758L302.46 162.216V172.2L325.92 185.754ZM325.92 174.35V164.354L302.46 150.812V160.809L325.92 174.35ZM327.132 175.054L350.592 188.596V178.599L327.132 165.058V175.054ZM351.804 189.299L375.263 202.841V192.844L351.804 179.303V189.299ZM376.476 203.545L399.935 217.086V207.09L376.476 193.548V203.545ZM376.476 204.939V214.936L399.935 228.477V218.481L376.476 204.939ZM401.147 229.181L424.607 242.723V232.713L401.147 219.172V229.181ZM401.147 230.589V240.533L424.607 254.088V244.091L401.147 230.589ZM401.147 241.98V251.976L424.607 265.518V255.521L401.147 241.98ZM401.147 253.384V263.367L424.607 276.922V266.925L401.147 253.384ZM401.147 264.775V274.771L424.607 288.313V278.329L401.147 264.775ZM401.147 276.179V286.149L424.607 299.704V289.707L401.147 276.179ZM399.935 275.475L376.476 261.934V271.93L399.935 285.472V275.475ZM376.476 273.325V283.321L399.935 296.863V286.866L376.476 273.325ZM375.263 272.621L351.804 259.079V269.076L375.263 282.617V272.621ZM350.592 258.376L327.132 244.834V254.87L350.592 268.411V258.376ZM325.92 244.143L302.46 230.602V240.598L325.92 254.14V244.143ZM325.92 242.736V232.713L302.46 219.172V229.168L325.92 242.736ZM301.248 218.494L277.788 204.952V214.949L301.248 228.49V218.494ZM301.248 217.099V207.103L277.788 193.561V203.558L301.248 217.099ZM301.248 205.695V195.699L277.788 182.157V192.154L301.248 205.695ZM301.248 194.304V184.308L277.788 170.766V180.763L301.248 194.304ZM301.248 182.9V172.904L277.788 159.362V169.359L301.248 182.9ZM301.248 171.509V161.513L277.788 147.971V157.968L301.248 171.509ZM301.248 160.105V150.109L277.788 136.567V146.564L301.248 160.105ZM301.248 148.714V138.718L277.788 125.176V135.172L301.248 148.714ZM302.46 149.405L325.92 162.959V152.963L302.46 139.421V149.405ZM327.132 163.637L350.592 177.179V167.195L327.132 153.641V163.637ZM351.804 177.882L375.263 191.424V181.427L351.804 167.886V177.882ZM376.476 192.128L399.935 205.669V195.673L376.476 182.131V192.128ZM401.147 206.386L424.607 219.928V209.931L401.147 196.39V206.386ZM401.147 207.794V217.777L424.607 231.332V221.335L401.147 207.794ZM425.819 232.022L449.279 245.564V235.58L425.819 222.026V232.022ZM425.819 233.43V243.426L449.279 256.968V246.971L425.819 233.43ZM425.819 244.821V254.87L449.279 268.411V258.415L425.819 244.821ZM425.819 256.225V266.222L449.279 279.763V269.767L425.819 256.225ZM425.819 267.616V277.613L449.279 291.154V281.171L425.819 267.616ZM425.819 279.02V289.017L449.279 302.558V292.562L425.819 279.02ZM425.819 290.411V300.408L449.279 313.949V303.966L425.819 290.411ZM425.819 301.815V311.812L449.279 325.353V315.357L425.819 301.815ZM424.607 301.111L401.147 287.57V297.566L424.607 311.108V301.111ZM401.147 298.974V308.97L424.607 322.512V312.516L401.147 298.974ZM399.935 298.27L376.476 284.729V294.725L399.935 308.267V298.27ZM375.263 284.025L351.804 270.483V280.48L375.263 294.021V284.025ZM350.592 269.78L327.132 256.238V266.235L350.592 279.776V269.78ZM325.92 255.534L302.46 241.993V251.989L325.92 265.531V255.534ZM301.248 241.289L277.788 227.747V237.744L301.248 251.285V241.289ZM301.248 239.894V229.898L277.788 216.356V226.353L301.248 239.894ZM276.628 215.653L253.168 202.111V212.108L276.628 225.649V215.653ZM276.628 214.245V204.249L253.168 190.707V200.704L276.628 214.245ZM276.628 202.854V192.858L253.168 179.277V189.273L276.628 202.854ZM276.628 191.45V181.453L253.168 167.912V177.974L276.628 191.45ZM276.628 180.059V170.062L253.168 156.521V166.517L276.628 180.059ZM276.628 168.655V158.658L253.168 145.117V155.113L276.628 168.655ZM276.628 157.264V147.267L253.168 133.726V143.722L276.628 157.264ZM276.628 145.86V135.863L253.168 122.322V132.357L276.628 145.86ZM276.628 134.469V124.537L253.168 110.996V120.992L276.628 134.469ZM276.628 123.065V113.068L253.168 99.5266V109.523L276.628 123.065ZM277.84 123.768L301.3 137.31V127.313L277.84 113.772V123.768ZM302.512 138.014L325.972 151.555V141.559L302.512 128.017V138.014ZM327.184 152.259L350.644 165.801V155.817L327.184 142.276V152.259ZM351.804 166.504L375.263 180.046V170.049L351.804 156.508V166.504ZM376.476 180.75L399.935 194.291V184.295L376.476 170.753V180.75ZM401.147 194.982L424.607 208.536V198.54L401.147 184.998V194.982ZM425.819 209.253L449.279 222.795V212.811L425.819 199.257V209.253ZM425.819 210.661V220.657L449.279 234.199V224.202L425.819 210.661ZM450.491 234.903L473.951 248.444V238.448L450.491 224.906V234.903ZM450.491 236.297V246.294L473.951 259.835V249.839L450.491 236.297ZM450.491 247.701V257.698L473.951 271.239V261.243L450.491 247.701ZM450.491 259.092V269.089L473.951 282.63V272.634L450.491 259.092ZM450.491 270.496V280.493L473.951 293.969V283.973L450.491 270.496ZM450.491 281.887V291.884L473.951 305.425V295.403L450.491 281.887ZM450.491 293.292V303.288L473.951 316.829V306.833L450.491 293.292ZM450.491 304.683V314.679L473.951 328.221V318.224L450.491 304.683ZM450.491 316.087V326.083L473.951 339.585V329.589L450.491 316.087ZM450.491 327.478V337.474L473.951 351.016V341.019L450.491 327.478ZM449.279 326.787L425.819 313.232V323.229L449.279 336.77V326.787ZM425.819 324.636V334.633L449.279 348.174V338.152L425.819 324.636ZM424.607 323.933L401.147 310.391V320.388L424.607 333.929V323.933ZM399.935 309.609L376.476 296.068V306.064L399.935 319.606V309.609ZM375.263 295.364L351.804 281.822V291.819L375.263 305.36V295.364ZM350.592 281.132L327.132 267.577V277.573L350.592 291.115V281.132ZM325.92 266.886L302.46 253.345V263.341L325.92 276.883V266.886ZM301.248 252.641L277.788 239.099V249.096L301.248 262.637V252.641ZM276.628 238.448L253.168 224.893V234.89L276.628 248.431V238.448ZM276.628 237.04V227.044L253.168 213.502V223.499L276.628 237.04ZM251.865 212.811L228.405 199.257V209.253L251.865 222.795V212.811ZM251.865 211.404V201.433L228.405 187.892V197.888L251.865 211.404ZM251.865 200V190.016L228.405 176.462V186.458L251.865 200ZM251.865 188.609V178.612L228.405 165.071V175.067L251.865 188.609ZM251.865 177.205V167.221L228.405 153.667V163.637L251.865 177.205ZM251.865 165.814V155.817L228.405 142.276V152.272L251.865 165.814ZM251.865 154.41V144.426L228.405 130.872V140.868L251.865 154.41ZM251.865 143.018V133.022L228.405 119.48V129.477L251.865 143.018ZM251.865 131.614V121.631L228.405 108.076V118.021L251.865 131.614ZM251.865 120.223V110.201L228.405 96.6593V106.656L251.865 120.223ZM251.865 108.819V98.8359L228.405 85.2813V95.2778L251.865 108.819ZM251.865 97.4283V87.4318L228.405 73.8903V83.8868L251.865 97.4283ZM253.09 98.1321L276.55 111.674V101.677L253.09 88.1356V98.1321ZM277.749 112.377L301.209 125.919V115.922L277.749 102.381V112.377ZM302.421 126.61L325.881 140.164V130.168L302.421 116.626V126.61ZM327.093 140.855L350.553 154.396V144.413L327.093 130.872V140.855ZM351.765 155.1L375.224 168.642V158.658L351.765 145.117V155.1ZM376.436 169.346L399.896 182.887V172.904L376.436 159.362V169.346ZM401.108 183.591L424.568 197.132V187.097L401.108 173.555V183.591ZM425.78 197.836L449.24 211.378V201.433L425.78 187.879V197.836ZM450.491 212.082L473.951 225.623V215.627L450.491 202.085V212.082ZM450.491 213.476V223.473L473.951 237.014V227.018L450.491 213.476ZM498.61 252.667L475.15 239.125V249.122L498.61 262.663V252.667ZM498.61 264.058L475.15 250.516V260.513L498.61 274.054V264.058ZM498.61 275.462L475.15 261.921V271.917L498.61 285.459V275.462ZM498.61 286.853L475.15 273.312V283.308L498.61 296.85V286.853ZM498.61 298.257L475.15 284.716V294.712L498.61 308.254V298.257ZM498.61 309.648L475.15 296.107V306.103L498.61 319.645V309.648ZM498.61 321.052L475.15 307.511V317.507L498.61 331.049V321.052ZM498.61 332.443L475.15 318.902V328.898L498.61 342.44V332.443ZM498.61 343.847L475.15 330.306V340.302L498.61 353.844V343.847ZM498.61 355.238L475.15 341.697V351.693L498.61 365.235V355.238ZM498.61 366.642L475.15 353.101V363.045L498.61 376.587V366.642ZM473.951 352.397L450.491 338.856V348.852L473.951 362.394V352.397ZM450.491 350.247V360.204L473.951 373.759V363.788L450.491 350.247ZM449.279 349.543L425.819 336.001V345.972L449.279 359.513V349.543ZM424.607 335.311L401.147 321.769V331.766L424.607 345.307V335.311ZM399.935 321.065L376.476 307.524V317.429L399.935 330.971V321.065ZM375.263 306.82L351.804 293.278V303.236L375.263 316.777V306.82ZM350.592 292.575L327.132 279.033V288.991L350.592 302.532V292.575ZM325.92 278.329L302.46 264.788V274.745L325.92 288.287V278.329ZM301.248 264.084L277.788 250.543V260.5L301.248 274.041V264.084ZM276.628 249.839L253.168 236.297V246.255L276.628 259.796V249.839ZM251.865 235.606L228.405 222.052V232.009L251.865 245.551V235.606ZM251.865 234.199V224.202L228.405 210.661V220.657L251.865 234.199ZM203.746 195.021L227.206 208.563V198.566L203.746 185.025V195.021ZM203.746 183.617L227.206 197.158V187.162L203.746 173.634V183.617ZM203.746 172.226L227.232 185.794V175.797L203.772 162.256L203.746 172.226ZM203.746 160.822L227.206 174.363V164.367L203.746 150.825V160.822ZM203.746 149.431L227.206 162.972V152.976L203.746 139.434V149.431ZM203.746 138.027L227.206 151.568V141.572L203.746 128.03V138.027ZM203.746 126.636L227.232 140.177V130.181L203.772 116.639L203.746 126.636ZM203.746 115.232L227.206 128.773V118.777L203.746 105.235V115.232ZM203.746 103.841L227.206 117.382V107.386L203.746 93.8441V103.841ZM203.746 92.4366L227.206 105.978V95.9816L203.746 82.4401V92.4366ZM203.746 81.0455L227.232 94.561V84.5906L203.772 71.049L203.746 81.0455ZM203.746 69.6415L227.206 83.183V73.1995L203.746 59.658V69.6415ZM475.163 216.33V226.327L498.623 239.855V229.872L475.163 216.33ZM498.623 378.033L475.163 364.492V374.449L498.623 387.991V378.033ZM227.232 231.319V221.361L203.772 207.82V217.777L227.232 231.319Z" fill="#E0E0E0"/>
<path d="M301.899 126.948L203.173 69.9932V126.987L301.899 183.917V126.948Z" fill="#FAFAFA"/>
<path d="M302.563 185.05V126.57L302.238 126.388L202.534 68.8723V127.365L302.563 185.05ZM301.26 127.326V182.796L203.837 126.609V71.101L301.26 127.326Z" fill="#E0E0E0"/>
<path d="M296.921 170.153H297.077C297.2 170.107 297.3 170.014 297.356 169.895C297.412 169.776 297.42 169.639 297.377 169.515L284.031 133.022C284.005 132.956 283.965 132.897 283.914 132.848C283.863 132.799 283.802 132.762 283.736 132.738C283.669 132.715 283.598 132.706 283.528 132.712C283.457 132.718 283.389 132.739 283.327 132.774L268.9 141.48L254.341 126.649C254.253 126.577 254.143 126.537 254.029 126.537C253.915 126.537 253.804 126.577 253.716 126.649L239.379 136.072L224.821 100.204C224.795 100.142 224.756 100.086 224.707 100.04C224.657 99.993 224.599 99.9571 224.536 99.9339C224.472 99.9107 224.405 99.9007 224.337 99.9046C224.27 99.9085 224.204 99.9262 224.144 99.9566L209.351 107.542C209.294 107.571 209.244 107.611 209.203 107.659C209.162 107.708 209.131 107.764 209.112 107.825C209.092 107.885 209.085 107.949 209.09 108.012C209.095 108.075 209.113 108.137 209.142 108.194C209.171 108.25 209.211 108.3 209.26 108.341C209.308 108.382 209.364 108.413 209.425 108.433C209.485 108.452 209.549 108.459 209.612 108.454C209.676 108.449 209.737 108.431 209.794 108.402L224.13 101.064L238.728 136.997C238.755 137.064 238.798 137.123 238.852 137.17C238.906 137.218 238.971 137.252 239.04 137.271C239.103 137.303 239.172 137.319 239.243 137.319C239.313 137.319 239.382 137.303 239.445 137.271L253.911 127.743L268.456 142.562C268.534 142.64 268.634 142.689 268.743 142.703C268.851 142.717 268.961 142.695 269.056 142.64L283.301 134.117L296.439 169.997C296.498 170.063 296.574 170.112 296.659 170.14C296.744 170.167 296.834 170.172 296.921 170.153Z" fill="#FAA515"/>
<path d="M283.576 131.549C284.013 131.834 284.375 132.22 284.634 132.673C284.892 133.126 285.039 133.635 285.062 134.156C285.062 135.107 284.397 135.459 283.576 135.016C283.14 134.73 282.777 134.345 282.519 133.892C282.261 133.438 282.114 132.93 282.09 132.409C282.09 131.458 282.755 131.054 283.576 131.549Z" fill="#FAA515"/>
<path d="M268.809 140.36C269.244 140.647 269.605 141.033 269.863 141.486C270.121 141.939 270.269 142.446 270.295 142.966C270.295 143.918 269.63 144.27 268.809 143.827C268.374 143.539 268.013 143.153 267.755 142.7C267.497 142.248 267.349 141.74 267.323 141.22C267.297 140.282 267.962 139.891 268.809 140.36Z" fill="#FAA515"/>
<path d="M253.99 125.254C254.425 125.542 254.785 125.927 255.044 126.38C255.302 126.833 255.45 127.34 255.476 127.861C255.476 128.812 254.811 129.164 253.99 128.721C253.554 128.435 253.192 128.049 252.933 127.596C252.675 127.143 252.528 126.635 252.504 126.114C252.504 125.176 253.169 124.785 253.99 125.254Z" fill="#FAA515"/>
<path d="M239.197 134.964C239.634 135.249 239.996 135.634 240.255 136.087C240.513 136.541 240.66 137.049 240.683 137.57C240.683 138.522 240.018 138.874 239.197 138.43C238.76 138.145 238.397 137.76 238.139 137.307C237.88 136.853 237.734 136.345 237.711 135.824C237.711 134.964 238.376 134.534 239.197 134.964Z" fill="#FAA515"/>
<path d="M224.404 98.5881C224.841 98.8733 225.203 99.2585 225.462 99.7118C225.72 100.165 225.867 100.673 225.89 101.195C225.89 102.146 225.225 102.498 224.404 102.055C223.968 101.769 223.606 101.384 223.347 100.93C223.089 100.477 222.942 99.9693 222.918 99.4483C222.918 98.4708 223.583 98.1059 224.404 98.5881Z" fill="#FAA515"/>
<path d="M209.611 106.174C210.048 106.459 210.41 106.844 210.669 107.297C210.927 107.751 211.074 108.259 211.097 108.78C211.097 109.732 210.432 110.084 209.611 109.64C209.174 109.355 208.811 108.97 208.553 108.517C208.295 108.063 208.148 107.555 208.125 107.034C208.125 106.082 208.79 105.691 209.611 106.174Z" fill="#FAA515"/>
<path d="M162.106 279.88L188.354 295.038L162.106 310.195L135.857 295.038L162.106 279.88Z" fill="#FAA515"/>
<path d="M135.858 295.012V355.29L162.106 370.448V310.208L135.858 295.012Z" fill="#A16B0F"/>
<path d="M162.106 310.208V370.448L188.354 355.29V295.012L162.106 310.208Z" fill="#D58C12"/>
<path d="M196.644 325.966L222.893 341.123L196.644 356.281L170.395 341.123L196.644 325.966Z" fill="#0473EA"/>
<path opacity="0.3" d="M196.644 325.966L222.893 341.123L196.644 356.281L170.395 341.123L196.644 325.966Z" fill="white"/>
<path d="M170.396 341.084V375.231L196.645 390.389V356.281L170.396 341.084Z" fill="#0473EA"/>
<path d="M196.644 356.281V390.389L222.893 375.231V341.097L196.644 356.281Z" fill="#0473EA"/>
<path opacity="0.1" d="M196.644 356.281V390.389L222.893 375.231V341.097L196.644 356.281Z" fill="black"/>
<path d="M231.182 331.726L257.431 346.884L231.182 362.042L204.933 346.884L231.182 331.726Z" fill="#142A63"/>
<path opacity="0.88" d="M231.182 331.726L257.431 346.884L231.182 362.042L204.933 346.884L231.182 331.726Z" fill="white"/>
<path d="M204.934 346.858V395.172L231.183 410.33V362.042L204.934 346.858Z" fill="#142A63"/>
<path opacity="0.75" d="M204.934 346.858V395.172L231.183 410.33V362.042L204.934 346.858Z" fill="white"/>
<path d="M231.182 362.042V410.33L257.431 395.172V346.858L231.182 362.042Z" fill="#142A63"/>
<path opacity="0.6" d="M231.182 362.042V410.33L257.431 395.172V346.858L231.182 362.042Z" fill="white"/>
<path d="M265.72 382.921L291.969 398.079L265.72 413.236L239.471 398.079L265.72 382.921Z" fill="#142A63"/>
<path opacity="0.3" d="M265.72 382.921L291.969 398.079L265.72 413.236L239.471 398.079L265.72 382.921Z" fill="black"/>
<path d="M239.472 398.039V415.113L265.721 430.27V413.236L239.472 398.039Z" fill="#142A63"/>
<path opacity="0.4" d="M239.472 398.039V415.113L265.721 430.27V413.236L239.472 398.039Z" fill="black"/>
<path d="M265.72 413.236V430.27L291.969 415.113V398.039L265.72 413.236Z" fill="#142A63"/>
<path opacity="0.55" d="M265.72 413.236V430.27L291.969 415.113V398.039L265.72 413.236Z" fill="black"/>
<path d="M408.718 488.946V498.89L418.532 472.211V462.293L408.718 488.946Z" fill="#B17002"/>
<path d="M408.706 488.959V498.891L368.225 484.841V474.909L408.706 488.959Z" fill="#B17002"/>
<path d="M418.532 462.28L408.705 488.959L368.224 474.909C379.341 465.212 398.67 460.364 418.532 462.28Z" fill="#FAA515"/>
<path d="M460.826 490.771C460.833 490.87 460.833 490.97 460.826 491.07V490.771Z" fill="#142A63"/>
<path d="M412.747 501.484L418.69 529.766C443.231 527.368 460.969 514.96 460.761 500.767V491.096C460.761 505.172 443.075 517.463 418.677 519.835L414.558 500.402L412.747 501.484Z" fill="#142A63"/>
<path opacity="0.4" d="M412.747 501.484L418.69 529.766C443.231 527.368 460.969 514.96 460.761 500.767V491.096C460.761 505.172 443.075 517.463 418.677 519.835L414.558 500.402L412.747 501.484Z" fill="#536791"/>
<path d="M414.154 520.16V530.092C404.023 530.662 393.878 529.259 384.282 525.96C372.709 521.946 364.537 515.533 361.265 508.013C360.306 505.825 359.792 503.468 359.754 501.08C359.754 500.128 359.754 490.809 359.754 490.809C359.754 490.809 362.556 490.588 365.84 487.095L373.425 489.702L408.133 501.744L414.154 520.16Z" fill="#142A63"/>
<path opacity="0.6" d="M414.154 520.16V530.092C404.023 530.662 393.878 529.259 384.282 525.96C372.709 521.946 364.537 515.533 361.265 508.013C360.306 505.825 359.792 503.468 359.754 501.08C359.754 500.128 359.754 490.809 359.754 490.809C359.754 490.809 362.556 490.588 365.84 487.095L373.425 489.702L408.133 501.744L414.154 520.16Z" fill="white"/>
<path d="M444.365 479.445L414.206 496.857V486.926L444.365 469.513V479.445Z" fill="#142A63"/>
<path opacity="0.1" d="M444.365 479.445L414.206 496.857V486.926L444.365 469.513V479.445Z" fill="black"/>
<path d="M460.395 487.512C463.692 503.035 445.133 517.254 418.689 519.834L412.68 491.552L447.583 471.403C454.934 475.978 459.092 481.256 460.395 487.512Z" fill="#142A63"/>
<path opacity="0.3" d="M460.395 487.512C463.692 503.035 445.133 517.254 418.689 519.834L412.68 491.552L447.583 471.403C454.934 475.978 459.092 481.256 460.395 487.512Z" fill="#E6F6FC"/>
<path d="M413.985 519.339L414.154 520.161C404.027 520.748 393.882 519.362 384.282 516.081C372.709 512.067 364.537 505.655 361.265 498.134C358.19 491.005 359.819 483.628 365.84 477.281L373.425 479.888L408.133 491.931L413.985 519.339Z" fill="#142A63"/>
<path opacity="0.75" d="M413.985 519.339L414.154 520.161C404.027 520.748 393.882 519.362 384.282 516.081C372.709 512.067 364.537 505.655 361.265 498.134C358.19 491.005 359.819 483.628 365.84 477.281L373.425 479.888L408.133 491.931L413.985 519.339Z" fill="white"/>
<path d="M444.365 469.514L414.206 486.926L423.069 462.841C430.514 463.753 437.731 466.015 444.365 469.514Z" fill="#142A63"/>
<path d="M412.747 501.484V491.553L418.769 519.835V529.766L412.747 501.484Z" fill="#142A63"/>
<path opacity="0.55" d="M412.747 501.484V491.553L418.769 519.835V529.766L412.747 501.484Z" fill="#536791"/>
<path d="M374.272 447.383L380.841 451.176L374.272 454.968L367.703 451.176L374.272 447.383Z" fill="#142A63"/>
<path opacity="0.3" d="M374.272 447.383L380.841 451.176L374.272 454.968L367.703 451.176L374.272 447.383Z" fill="black"/>
<path d="M367.704 451.176V454.981L374.272 458.774V454.968L367.704 451.176Z" fill="#142A63"/>
<path opacity="0.4" d="M367.704 451.176V454.981L374.272 458.774V454.968L367.704 451.176Z" fill="black"/>
<path d="M374.272 454.968V458.774L380.841 454.981V451.176L374.272 454.968Z" fill="#142A63"/>
<path opacity="0.55" d="M374.272 454.968V458.774L380.841 454.981V451.176L374.272 454.968Z" fill="black"/>
<path d="M364.238 444.437L339.892 430.388C339.109 429.973 338.24 429.748 337.354 429.732C336.469 429.716 335.592 429.91 334.796 430.296C333.492 431.078 333.492 432.395 334.965 433.242L359.311 447.292C360.094 447.704 360.963 447.926 361.848 447.942C362.733 447.958 363.609 447.767 364.407 447.383C365.763 446.601 365.697 445.285 364.238 444.437Z" fill="#E0E0E0"/>
<path d="M359.467 455.933L366.036 459.726L359.467 463.518L352.899 459.726L359.467 455.933Z" fill="#142A63"/>
<path opacity="0.88" d="M359.467 455.933L366.036 459.726L359.467 463.518L352.899 459.726L359.467 455.933Z" fill="#3674FE"/>
<path d="M352.898 459.712V463.518L359.467 467.311V463.518L352.898 459.712Z" fill="#142A63"/>
<path opacity="0.75" d="M352.898 459.712V463.518L359.467 467.311V463.518L352.898 459.712Z" fill="#326BEB"/>
<path d="M359.467 463.518V467.311L366.036 463.518V459.712L359.467 463.518Z" fill="#326BEB"/>
<path opacity="0.6" d="M359.467 463.518V467.311L366.036 463.518V459.712L359.467 463.518Z" fill="#1A336D"/>
<path d="M349.431 452.974L325.098 438.924C324.317 438.508 323.448 438.281 322.562 438.263C321.677 438.245 320.8 438.436 320.002 438.82C318.633 439.615 318.699 440.932 320.158 441.766L344.504 455.842C345.288 456.254 346.157 456.476 347.042 456.492C347.926 456.508 348.803 456.316 349.6 455.933C350.917 455.138 350.917 453.821 349.431 452.974Z" fill="#E0E0E0"/>
<path d="M344.673 464.483L351.242 468.275L344.66 472.068L338.092 468.275L344.673 464.483Z" fill="#73DAF9"/>
<path opacity="0.3" d="M344.673 464.483L351.242 468.275L344.66 472.068L338.092 468.275L344.673 464.483Z" fill="white"/>
<path d="M338.092 468.262V472.068L344.661 475.861V472.068L338.092 468.262Z" fill="#73DAF9"/>
<path d="M344.66 472.068V475.861L351.242 472.068V468.262L344.66 472.068Z" fill="#73DAF9"/>
<path opacity="0.1" d="M344.66 472.068V475.861L351.242 472.068V468.262L344.66 472.068Z" fill="black"/>
<path d="M334.639 461.537L310.293 447.474C309.509 447.062 308.64 446.84 307.755 446.824C306.871 446.808 305.994 446.999 305.197 447.383C303.828 448.178 303.893 449.494 305.353 450.328L329.699 464.378C330.48 464.795 331.349 465.022 332.235 465.04C333.12 465.058 333.997 464.867 334.795 464.483C336.164 463.688 336.085 462.371 334.639 461.537Z" fill="#E0E0E0"/>
<path d="M329.869 473.019L336.438 476.812L329.869 480.605L323.3 476.812L329.869 473.019Z" fill="#FAA515"/>
<path d="M323.3 476.812V480.618L329.869 484.411V480.605L323.3 476.812Z" fill="#A26B0F"/>
<path d="M329.869 480.605V484.411L336.438 480.618V476.812L329.869 480.605Z" fill="#D58C12"/>
<path d="M319.832 470.087L295.486 456.024C294.703 455.612 293.834 455.389 292.949 455.373C292.064 455.357 291.188 455.549 290.39 455.933C289.022 456.715 289.087 458.031 290.559 458.878L314.892 472.928C315.675 473.343 316.544 473.567 317.43 473.583C318.315 473.599 319.192 473.406 319.988 473.019C321.357 472.237 321.279 470.921 319.832 470.087Z" fill="#E0E0E0"/>
</svg>
