<svg width="732" height="540" viewBox="0 0 732 540" fill="none" xmlns="http://www.w3.org/2000/svg">
<path d="M365.82 624C164.091 624 0.557312 530.302 0.557312 414.719C0.557312 299.136 164.091 205.438 365.82 205.438C567.549 205.438 731.082 299.136 731.082 414.719C731.082 530.302 567.549 624 365.82 624Z" fill="#1B3A7F"/>
<g opacity="0.15">
<path d="M260.411 39.7243L581.451 224.23L580.643 225.636L259.603 41.1299L260.411 39.7243Z" fill="white"/>
<path d="M262.122 77.2791L581.566 262.008L580.758 263.407L261.313 78.6777L262.122 77.2791Z" fill="white"/>
<path d="M262.089 116.03L581.599 300.648L580.79 302.047L261.281 117.429L262.089 116.03Z" fill="white"/>
<path d="M260.402 156.257L581.442 340.763L580.635 342.168L259.594 157.662L260.402 156.257Z" fill="white"/>
<path d="M262.089 193.505L581.598 378.122L580.789 379.521L261.28 194.904L262.089 193.505Z" fill="white"/>
<path d="M262.077 232.249L581.586 416.866L580.778 418.265L261.269 233.647L262.077 232.249Z" fill="white"/>
<path d="M551.357 168.471H552.973V439.617H551.357V168.471Z" fill="white"/>
<path d="M522.306 151.69H523.922V422.836H522.306V151.69Z" fill="white"/>
<path d="M493.256 134.924H494.872V406.07H493.256V134.924Z" fill="white"/>
<path d="M464.207 118.143H465.822V389.289H464.207V118.143Z" fill="white"/>
<path d="M435.156 101.378H436.771V372.524H435.156V101.378Z" fill="white"/>
<path d="M406.105 84.5964H407.721V355.743H406.105V84.5964Z" fill="white"/>
<path d="M377.055 67.8311H378.671V338.977H377.055V67.8311Z" fill="white"/>
<path d="M348.005 51.0503H349.621V322.196H348.005V51.0503Z" fill="white"/>
<path d="M318.939 34.2847H320.555V305.431H318.939V34.2847Z" fill="white"/>
<path d="M289.889 17.5034H291.505V288.65H289.889V17.5034Z" fill="white"/>
<path d="M581.23 457.068C581.369 457.064 581.504 457.027 581.627 456.962C581.749 456.889 581.851 456.787 581.923 456.664C581.995 456.542 582.035 456.403 582.038 456.261V185.236C582.035 185.094 581.995 184.955 581.923 184.833C581.851 184.71 581.749 184.608 581.627 184.535L262.058 0.113173C261.936 0.0391493 261.797 0 261.654 0C261.512 0 261.372 0.0391493 261.25 0.113173C261.129 0.185162 261.028 0.28779 260.959 0.410818C260.889 0.533845 260.853 0.672965 260.854 0.81428V271.747C260.853 271.888 260.889 272.027 260.959 272.151C261.028 272.274 261.129 272.376 261.25 272.448L580.819 456.962C580.946 457.027 581.087 457.064 581.23 457.068ZM580.422 185.77V454.858L262.454 271.29V2.12505L580.422 185.77Z" fill="white"/>
<path d="M233.145 287.719L552.654 472.336L551.846 473.735L232.337 289.117L233.145 287.719Z" fill="white"/>
<path d="M204.085 304.467L523.594 489.084L522.785 490.483L203.276 305.865L204.085 304.467Z" fill="white"/>
<path d="M175.033 321.274L494.542 505.891L493.734 507.29L174.225 322.673L175.033 321.274Z" fill="white"/>
<path d="M145.987 338.037L465.496 522.655L464.688 524.054L145.179 339.436L145.987 338.037Z" fill="white"/>
<path d="M551.765 438.786L552.573 440.186L407.313 524.052L406.505 522.653L551.765 438.786Z" fill="white"/>
<path d="M522.71 422.011L523.518 423.41L378.257 507.276L377.449 505.877L522.71 422.011Z" fill="white"/>
<path d="M493.666 405.243L494.474 406.642L349.213 490.509L348.405 489.109L493.666 405.243Z" fill="white"/>
<path d="M464.611 388.468L465.419 389.867L320.158 473.733L319.35 472.334L464.611 388.468Z" fill="white"/>
<path d="M435.568 371.7L436.376 373.099L291.115 456.965L290.307 455.566L435.568 371.7Z" fill="white"/>
<path d="M406.513 354.924L407.32 356.323L262.06 440.19L261.252 438.791L406.513 354.924Z" fill="white"/>
<path d="M377.462 338.143L378.27 339.542L233.009 423.409L232.201 422.01L377.462 338.143Z" fill="white"/>
<path d="M348.39 321.368L349.198 322.767L203.938 406.633L203.13 405.234L348.39 321.368Z" fill="white"/>
<path d="M319.347 304.585L320.155 305.984L174.895 389.85L174.087 388.451L319.347 304.585Z" fill="white"/>
<path d="M290.292 287.825L291.1 289.224L145.839 373.09L145.031 371.691L290.292 287.825Z" fill="white"/>
<path d="M436.07 540.866C436.21 540.869 436.347 540.832 436.467 540.76L581.627 456.931C581.75 456.861 581.853 456.759 581.924 456.636C581.996 456.512 582.033 456.373 582.033 456.23C582.033 456.088 581.996 455.948 581.924 455.825C581.853 455.702 581.75 455.6 581.627 455.529L262.058 271.107C261.937 271.033 261.797 270.994 261.654 270.994C261.512 270.994 261.372 271.033 261.25 271.107L116.09 354.935C115.971 355.009 115.872 355.112 115.803 355.235C115.735 355.358 115.699 355.496 115.699 355.636C115.699 355.777 115.735 355.915 115.803 356.038C115.872 356.161 115.971 356.264 116.09 356.338L435.659 540.76C435.784 540.831 435.926 540.867 436.07 540.866ZM579.615 456.261L436.07 539.129L118.102 355.56L261.647 272.677L579.615 456.261Z" fill="white"/>
</g>
<path d="M501.426 193.863C501.426 211.391 511.378 231.753 523.648 239.359C535.917 246.965 545.854 238.887 545.854 221.359C545.854 203.831 535.902 183.468 523.648 175.878V209.516L502.508 184.734C501.756 187.718 501.392 190.786 501.426 193.863Z" fill="#B7DBFD"/>
<path d="M500.526 179.841C503.422 168.898 511.79 164.874 521.666 170.986V204.624L500.526 179.841Z" fill="#73DAF9"/>
<path d="M450.641 166.413L437.579 184.017C440.788 189.669 445.258 194.504 450.641 198.146C462.834 205.767 472.848 197.689 472.848 180.161C472.848 162.633 462.91 142.271 450.641 134.665V166.413Z" fill="#B7DBFD"/>
<path d="M434.21 182.645C428.479 173.177 425.326 162.373 425.066 151.309C425.066 133.766 435.018 125.718 447.272 133.309V165.041L434.21 182.645Z" fill="#73DAF9"/>
<path d="M307.737 51.218V82.9203L328.877 86.2735C325.981 71.6721 317.613 57.3146 307.737 51.218Z" fill="#B7DBFD"/>
<path d="M325.128 89.84C325.83 93.2865 326.192 96.7936 326.21 100.311C326.21 117.839 316.257 125.901 303.988 118.311C291.718 110.721 281.781 90.3582 281.781 72.8305C281.781 55.3027 291.734 47.24 303.988 54.8303V86.5783L325.128 89.84Z" fill="#73DAF9"/>
<path d="M378.107 91.2271V122.975L391.154 156.735C396.702 154.403 400.299 147.27 400.299 136.708C400.314 119.195 390.377 98.8173 378.107 91.2271Z" fill="#B7DBFD"/>
<path d="M387.587 157.741C383.929 159.265 379.417 158.747 374.54 155.729C362.271 148.108 352.318 127.776 352.318 110.248C352.318 92.7205 362.271 84.6577 374.54 92.248V123.981L387.587 157.741Z" fill="#73DAF9"/>
<path d="M537.121 281.532V271.153C537.115 271.021 537.077 270.893 537.011 270.779C536.944 270.665 536.851 270.568 536.74 270.498L510.57 255.165C510.357 255.043 510.189 255.165 510.189 255.378V265.742C510.196 265.876 510.234 266.007 510.3 266.123C510.366 266.24 510.459 266.339 510.57 266.413L536.74 281.746C536.953 281.868 537.121 281.776 537.121 281.532Z" fill="#B7DBFD"/>
<path d="M464.357 239.725V229.361C464.351 229.227 464.313 229.096 464.247 228.98C464.181 228.863 464.088 228.764 463.976 228.69L437.746 213.357C437.532 213.235 437.365 213.357 437.365 213.586V223.95C437.371 224.084 437.409 224.214 437.475 224.331C437.541 224.447 437.634 224.546 437.746 224.62L463.976 239.953C464.19 240.075 464.357 239.969 464.357 239.725Z" fill="#B7DBFD"/>
<path d="M391.596 197.933V187.568C391.589 187.435 391.551 187.304 391.485 187.188C391.419 187.071 391.326 186.972 391.215 186.898L364.984 171.626C364.771 171.504 364.603 171.626 364.603 171.854V182.219C364.609 182.35 364.647 182.479 364.714 182.593C364.78 182.707 364.873 182.803 364.984 182.874L391.215 198.222C391.428 198.283 391.596 198.176 391.596 197.933Z" fill="#B7DBFD"/>
<path d="M318.832 156.14V145.715C318.828 145.581 318.791 145.449 318.725 145.332C318.659 145.215 318.564 145.117 318.451 145.044L292.22 129.712C292.007 129.59 291.839 129.712 291.839 129.925V140.289C291.843 140.424 291.88 140.555 291.946 140.672C292.013 140.789 292.107 140.888 292.22 140.96L318.451 156.384C318.664 156.476 318.832 156.384 318.832 156.14Z" fill="#B7DBFD"/>
<path d="M210.19 109.547L239.241 159.493L268.291 245.166L297.341 229.269L326.407 309.195L355.457 293.299L384.507 310.704L413.558 350.942L442.608 348.839L471.658 408.479L500.709 406.832L529.759 447.238V485.966L523.22 489.746L203.652 305.202V113.327L210.19 109.547Z" fill="#3150A2"/>
<path d="M523.221 451.017L494.17 410.612L465.12 412.258L436.07 352.618L407.02 354.722L377.969 314.484L348.904 297.078L319.853 312.975L290.803 233.049L261.753 248.946L232.703 163.273L203.652 113.327V305.202L523.221 489.746V451.017Z" fill="#2854C6"/>
<path d="M529.759 447.238L523.22 451.018L494.17 410.612L500.709 406.833L529.759 447.238Z" fill="#001E6C"/>
<path d="M442.607 348.838L436.068 352.618L465.119 412.258L471.657 408.478L442.607 348.838Z" fill="#001E6C"/>
<path d="M413.558 350.942L407.019 354.722L377.969 314.484L384.507 310.704L413.558 350.942Z" fill="#001E6C"/>
<path d="M297.342 229.269L290.803 233.049L319.853 312.975L326.407 309.195L297.342 229.269Z" fill="#001E6C"/>
<path d="M239.241 159.493L232.702 163.273L261.752 248.946L268.291 245.166L239.241 159.493Z" fill="#001E6C"/>
<path d="M234.379 125.048C234.502 125.054 234.624 125.025 234.731 124.964C234.839 124.904 234.927 124.814 234.986 124.706C235.045 124.598 235.072 124.476 235.064 124.353C235.057 124.23 235.014 124.111 234.943 124.011L210.114 86.5477C210.012 86.4084 209.86 86.3139 209.689 86.2842C209.519 86.2544 209.344 86.2916 209.2 86.388C209.057 86.4843 208.956 86.6325 208.919 86.8014C208.882 86.9703 208.912 87.147 209.002 87.2945L233.83 124.758C233.891 124.847 233.973 124.92 234.069 124.97C234.164 125.021 234.271 125.047 234.379 125.048Z" fill="#7386A8"/>
<path d="M264.587 210.126C264.657 210.14 264.73 210.14 264.8 210.126C264.885 210.098 264.963 210.054 265.03 209.996C265.097 209.938 265.152 209.868 265.192 209.788C265.232 209.709 265.255 209.622 265.261 209.534C265.267 209.445 265.256 209.356 265.227 209.272L240.383 136.113C240.356 136.029 240.312 135.951 240.254 135.883C240.196 135.816 240.125 135.761 240.046 135.721C239.966 135.682 239.88 135.658 239.791 135.652C239.703 135.646 239.614 135.658 239.53 135.686C239.362 135.745 239.225 135.868 239.147 136.028C239.07 136.188 239.06 136.372 239.118 136.54L263.947 209.73C264.003 209.851 264.094 209.953 264.208 210.023C264.321 210.094 264.453 210.129 264.587 210.126Z" fill="#7386A8"/>
<path d="M269.983 214.546C270.096 214.544 270.206 214.512 270.303 214.454L290.498 203.419C290.574 203.378 290.642 203.322 290.697 203.254C290.751 203.186 290.792 203.108 290.816 203.024C290.84 202.941 290.847 202.853 290.837 202.766C290.827 202.68 290.8 202.596 290.757 202.52C290.715 202.442 290.659 202.372 290.59 202.316C290.521 202.26 290.442 202.217 290.357 202.192C290.272 202.166 290.183 202.158 290.094 202.167C290.006 202.177 289.92 202.203 289.842 202.246L269.647 213.281C269.57 213.324 269.502 213.381 269.447 213.451C269.393 213.52 269.352 213.599 269.328 213.684C269.304 213.769 269.297 213.858 269.307 213.946C269.318 214.033 269.345 214.118 269.388 214.195C269.448 214.301 269.534 214.389 269.638 214.451C269.743 214.512 269.862 214.545 269.983 214.546Z" fill="#7386A8"/>
<path d="M320.249 275.451C320.325 275.465 320.402 275.465 320.478 275.451C320.646 275.392 320.783 275.269 320.86 275.109C320.937 274.949 320.948 274.765 320.889 274.597L296.335 207.047C296.273 206.878 296.148 206.741 295.985 206.664C295.823 206.587 295.636 206.577 295.467 206.636C295.383 206.666 295.307 206.713 295.241 206.773C295.176 206.834 295.124 206.906 295.087 206.987C295.05 207.068 295.029 207.155 295.027 207.244C295.024 207.333 295.039 207.421 295.07 207.504L319.624 275.055C319.676 275.176 319.764 275.279 319.876 275.349C319.987 275.42 320.117 275.456 320.249 275.451Z" fill="#7386A8"/>
<path d="M325.781 279.841C325.902 279.868 326.027 279.868 326.147 279.841L348.628 267.525C348.784 267.439 348.899 267.293 348.947 267.122C348.996 266.95 348.974 266.767 348.887 266.611C348.8 266.455 348.655 266.341 348.484 266.292C348.312 266.243 348.129 266.265 347.973 266.352L325.492 278.652C325.414 278.695 325.347 278.752 325.292 278.822C325.237 278.891 325.196 278.97 325.172 279.055C325.148 279.14 325.141 279.229 325.151 279.317C325.162 279.404 325.189 279.489 325.233 279.566C325.295 279.653 325.377 279.724 325.473 279.772C325.568 279.819 325.674 279.843 325.781 279.841Z" fill="#7386A8"/>
<path d="M376.322 280.572C376.436 280.574 376.549 280.545 376.648 280.488C376.747 280.432 376.829 280.35 376.886 280.252C376.933 280.176 376.964 280.092 376.978 280.003C376.992 279.915 376.988 279.825 376.967 279.739C376.946 279.652 376.907 279.571 376.854 279.499C376.801 279.428 376.734 279.367 376.657 279.322L356.203 267.129C356.05 267.038 355.866 267.012 355.693 267.056C355.52 267.1 355.372 267.211 355.281 267.365C355.19 267.519 355.164 267.702 355.208 267.875C355.253 268.048 355.364 268.196 355.518 268.287L375.972 280.48C376.078 280.541 376.199 280.573 376.322 280.572Z" fill="#7386A8"/>
<path d="M405.876 318.142C405.998 318.138 406.117 318.102 406.221 318.037C406.324 317.971 406.408 317.879 406.464 317.77C406.52 317.662 406.546 317.54 406.539 317.417C406.532 317.295 406.492 317.177 406.424 317.075L384.614 286.867C384.509 286.721 384.35 286.623 384.173 286.595C383.996 286.566 383.814 286.609 383.669 286.714C383.523 286.819 383.425 286.978 383.397 287.155C383.368 287.332 383.411 287.514 383.516 287.659L405.327 317.853C405.386 317.944 405.468 318.018 405.564 318.068C405.66 318.119 405.767 318.144 405.876 318.142Z" fill="#7386A8"/>
<path d="M413.634 323.096L434.789 321.572C434.878 321.566 434.964 321.543 435.043 321.504C435.122 321.464 435.193 321.41 435.251 321.343C435.309 321.277 435.353 321.199 435.381 321.116C435.409 321.032 435.421 320.943 435.414 320.855C435.411 320.766 435.389 320.679 435.35 320.599C435.312 320.519 435.257 320.448 435.19 320.389C435.123 320.331 435.045 320.286 434.961 320.259C434.876 320.232 434.787 320.222 434.698 320.23L413.543 321.755C413.455 321.76 413.369 321.784 413.289 321.823C413.21 321.862 413.14 321.916 413.082 321.983C413.023 322.049 412.979 322.127 412.951 322.211C412.923 322.294 412.912 322.383 412.918 322.471C412.933 322.647 413.017 322.811 413.15 322.928C413.284 323.044 413.457 323.104 413.634 323.096Z" fill="#7386A8"/>
<path d="M464.769 374.764C464.864 374.785 464.963 374.785 465.059 374.764C465.139 374.727 465.211 374.674 465.271 374.608C465.33 374.542 465.375 374.464 465.404 374.38C465.432 374.296 465.443 374.207 465.436 374.118C465.43 374.03 465.405 373.944 465.363 373.865L442.273 326.449C442.191 326.292 442.052 326.172 441.884 326.116C441.717 326.059 441.534 326.069 441.373 326.144C441.294 326.183 441.223 326.237 441.165 326.303C441.107 326.37 441.063 326.447 441.034 326.53C441.006 326.614 440.994 326.702 441 326.79C441.006 326.878 441.029 326.964 441.068 327.043L464.159 374.338C464.207 374.461 464.291 374.567 464.4 374.643C464.508 374.719 464.637 374.761 464.769 374.764Z" fill="#7386A8"/>
<path d="M471.735 380.693L492.92 379.489C493.098 379.489 493.269 379.419 493.394 379.293C493.52 379.167 493.591 378.996 493.591 378.819C493.591 378.641 493.52 378.47 493.394 378.344C493.269 378.219 493.098 378.148 492.92 378.148L471.735 379.352C471.557 379.352 471.386 379.423 471.26 379.548C471.135 379.674 471.064 379.845 471.064 380.023C471.064 380.201 471.135 380.371 471.26 380.497C471.386 380.623 471.557 380.693 471.735 380.693Z" fill="#7386A8"/>
<path d="M525.811 419.681C525.955 419.68 526.094 419.632 526.208 419.544C526.35 419.44 526.446 419.284 526.475 419.11C526.503 418.936 526.462 418.758 526.36 418.614L500.983 383.315C500.874 383.175 500.716 383.081 500.54 383.052C500.365 383.024 500.185 383.063 500.038 383.163C499.894 383.269 499.798 383.428 499.77 383.604C499.741 383.781 499.783 383.961 499.886 384.108L525.324 419.392C525.38 419.472 525.452 419.539 525.536 419.589C525.62 419.639 525.714 419.67 525.811 419.681Z" fill="#7386A8"/>
<path d="M498.528 385.54C499.062 385.56 499.591 385.428 500.053 385.159C500.686 384.699 501.189 384.082 501.509 383.368C501.83 382.654 501.959 381.868 501.882 381.089C501.872 379.364 501.453 377.665 500.658 376.133C499.863 374.601 498.715 373.281 497.309 372.28C496.8 371.928 496.205 371.72 495.588 371.68C494.97 371.64 494.354 371.768 493.804 372.051C493.171 372.511 492.671 373.13 492.353 373.844C492.035 374.558 491.909 375.343 491.99 376.121C492.009 377.853 492.44 379.556 493.249 381.088C494.057 382.62 495.219 383.937 496.638 384.93C497.208 385.288 497.857 385.498 498.528 385.54ZM495.099 373.011C495.589 373.04 496.065 373.186 496.486 373.438C497.692 374.314 498.678 375.459 499.365 376.782C500.053 378.104 500.424 379.569 500.449 381.059C500.52 381.601 500.453 382.153 500.253 382.662C500.053 383.171 499.727 383.621 499.306 383.97C498.958 384.121 498.578 384.179 498.201 384.139C497.824 384.099 497.465 383.962 497.157 383.742C495.946 382.869 494.956 381.725 494.266 380.402C493.575 379.079 493.203 377.613 493.179 376.121C493.106 375.577 493.174 375.024 493.377 374.514C493.58 374.004 493.911 373.555 494.337 373.21C494.569 373.078 494.832 373.01 495.099 373.011Z" fill="#7386A8"/>
<path d="M440.459 327.729C440.993 327.749 441.521 327.617 441.983 327.348C442.615 326.888 443.115 326.27 443.434 325.556C443.752 324.841 443.877 324.056 443.797 323.278C443.778 321.544 443.346 319.839 442.538 318.305C441.73 316.77 440.568 315.45 439.148 314.454C438.639 314.109 438.047 313.906 437.434 313.866C436.82 313.826 436.207 313.95 435.658 314.225C435.031 314.691 434.533 315.309 434.213 316.022C433.893 316.734 433.761 317.516 433.829 318.295C433.839 320.022 434.259 321.723 435.054 323.257C435.848 324.791 436.996 326.115 438.401 327.119C439.02 327.502 439.731 327.713 440.459 327.729ZM437.029 315.2C437.516 315.218 437.99 315.366 438.401 315.627C439.612 316.5 440.602 317.644 441.292 318.967C441.983 320.29 442.355 321.756 442.379 323.248C442.45 323.792 442.381 324.345 442.178 324.854C441.976 325.364 441.646 325.813 441.221 326.159C440.873 326.31 440.493 326.368 440.116 326.328C439.74 326.288 439.38 326.151 439.072 325.93C437.868 325.053 436.883 323.908 436.196 322.585C435.508 321.263 435.136 319.8 435.109 318.31C435.039 317.77 435.107 317.221 435.307 316.714C435.507 316.208 435.832 315.76 436.252 315.414C436.478 315.279 436.736 315.206 436.999 315.2H437.029Z" fill="#7386A8"/>
<path d="M469.418 386.882C469.949 386.911 470.477 386.789 470.942 386.531C471.576 386.072 472.078 385.454 472.399 384.74C472.72 384.026 472.848 383.241 472.771 382.462C472.752 380.729 472.321 379.027 471.512 377.495C470.704 375.962 469.542 374.645 468.122 373.652C467.614 373.3 467.019 373.092 466.401 373.052C465.784 373.012 465.167 373.14 464.617 373.423C463.985 373.884 463.485 374.502 463.166 375.216C462.848 375.93 462.723 376.715 462.803 377.493C462.812 379.219 463.232 380.917 464.027 382.449C464.822 383.981 465.97 385.302 467.376 386.302C467.994 386.672 468.698 386.872 469.418 386.882ZM465.989 374.353C466.475 374.376 466.947 374.523 467.36 374.78C468.571 375.653 469.561 376.796 470.252 378.119C470.942 379.442 471.314 380.908 471.338 382.401C471.41 382.943 471.343 383.495 471.143 384.004C470.943 384.513 470.617 384.963 470.195 385.312C469.848 385.462 469.467 385.52 469.091 385.48C468.714 385.44 468.354 385.303 468.046 385.083C466.836 384.21 465.846 383.067 465.155 381.744C464.465 380.421 464.092 378.955 464.068 377.462C463.997 376.92 464.064 376.368 464.264 375.859C464.464 375.35 464.79 374.9 465.211 374.551C465.467 374.406 465.756 374.332 466.05 374.338L465.989 374.353Z" fill="#7386A8"/>
<path d="M411.379 329.299C411.913 329.319 412.441 329.187 412.903 328.918C413.535 328.458 414.035 327.84 414.353 327.126C414.672 326.412 414.797 325.626 414.717 324.849C414.699 323.116 414.268 321.413 413.459 319.881C412.651 318.349 411.488 317.032 410.068 316.039C409.562 315.687 408.97 315.479 408.355 315.439C407.739 315.399 407.125 315.527 406.578 315.811C405.944 316.27 405.442 316.887 405.121 317.601C404.8 318.315 404.671 319.101 404.749 319.88C404.759 321.606 405.179 323.304 405.974 324.836C406.769 326.367 407.916 327.688 409.321 328.69C409.94 329.073 410.651 329.283 411.379 329.299ZM407.949 316.771C408.435 316.796 408.907 316.943 409.321 317.198C410.532 318.071 411.522 319.214 412.212 320.537C412.903 321.86 413.275 323.326 413.299 324.818C413.372 325.362 413.303 325.915 413.1 326.425C412.898 326.935 412.567 327.384 412.141 327.729C411.794 327.883 411.413 327.943 411.036 327.903C410.658 327.862 410.298 327.724 409.992 327.501C408.786 326.625 407.8 325.48 407.112 324.157C406.425 322.835 406.054 321.37 406.029 319.88C405.957 319.338 406.025 318.786 406.225 318.277C406.425 317.768 406.751 317.318 407.172 316.969C407.411 316.839 407.678 316.771 407.949 316.771Z" fill="#7386A8"/>
<path d="M382.327 288.772C382.83 288.776 383.325 288.644 383.76 288.391C384.396 287.934 384.9 287.317 385.221 286.602C385.542 285.888 385.669 285.101 385.589 284.322C385.57 282.589 385.138 280.887 384.33 279.355C383.522 277.823 382.359 276.505 380.94 275.512C380.434 275.16 379.842 274.952 379.227 274.912C378.612 274.871 377.997 275 377.45 275.283C376.816 275.743 376.314 276.36 375.993 277.074C375.672 277.788 375.544 278.574 375.621 279.353C375.63 281.079 376.049 282.778 376.844 284.309C377.639 285.841 378.787 287.162 380.193 288.163C380.835 288.559 381.573 288.77 382.327 288.772ZM378.898 276.244C379.384 276.269 379.855 276.416 380.27 276.67C381.48 277.543 382.47 278.687 383.161 280.01C383.851 281.333 384.223 282.799 384.248 284.291C384.316 284.835 384.245 285.387 384.043 285.896C383.84 286.405 383.512 286.854 383.089 287.202C382.742 287.353 382.361 287.411 381.985 287.371C381.608 287.331 381.248 287.194 380.94 286.974C379.73 286.101 378.74 284.957 378.049 283.634C377.359 282.311 376.986 280.845 376.962 279.353C376.894 278.809 376.964 278.257 377.167 277.748C377.369 277.239 377.698 276.79 378.121 276.442C378.359 276.312 378.626 276.244 378.898 276.244Z" fill="#7386A8"/>
<path d="M353.277 272.007C353.78 272.011 354.275 271.879 354.71 271.626C355.344 271.166 355.846 270.549 356.167 269.835C356.488 269.121 356.616 268.335 356.539 267.556C356.52 265.822 356.088 264.117 355.28 262.583C354.472 261.048 353.31 259.728 351.89 258.731C351.383 258.382 350.791 258.176 350.176 258.136C349.562 258.096 348.948 258.223 348.4 258.503C347.773 258.968 347.275 259.587 346.955 260.299C346.635 261.012 346.503 261.794 346.571 262.572C346.581 264.3 347.001 266.001 347.796 267.535C348.591 269.069 349.738 270.392 351.143 271.397C351.785 271.793 352.523 272.004 353.277 272.007ZM349.848 259.463C350.336 259.486 350.809 259.639 351.219 259.905C352.43 260.778 353.42 261.922 354.111 263.245C354.801 264.568 355.173 266.034 355.197 267.526C355.266 268.067 355.196 268.617 354.993 269.124C354.79 269.63 354.462 270.077 354.039 270.422C353.694 270.579 353.313 270.642 352.936 270.605C352.558 270.567 352.198 270.43 351.89 270.208C350.681 269.334 349.693 268.19 349.002 266.867C348.312 265.544 347.939 264.079 347.912 262.588C347.844 262.046 347.914 261.496 348.117 260.99C348.319 260.483 348.647 260.036 349.07 259.692C349.304 259.547 349.573 259.468 349.848 259.463Z" fill="#7386A8"/>
<path d="M324.212 287.903C324.746 287.923 325.274 287.791 325.736 287.522C326.37 287.063 326.872 286.445 327.193 285.731C327.514 285.017 327.642 284.231 327.565 283.453C327.556 281.727 327.137 280.028 326.342 278.496C325.547 276.964 324.399 275.644 322.993 274.643C322.487 274.291 321.894 274.083 321.279 274.043C320.664 274.002 320.05 274.131 319.502 274.414C318.869 274.874 318.366 275.491 318.045 276.205C317.725 276.919 317.596 277.705 317.673 278.484C317.684 280.209 318.103 281.908 318.898 283.439C319.693 284.971 320.841 286.292 322.246 287.293C322.838 287.662 323.515 287.872 324.212 287.903ZM320.798 275.375C321.284 275.4 321.755 275.547 322.17 275.801C323.369 276.685 324.351 277.831 325.04 279.151C325.73 280.472 326.108 281.933 326.148 283.422C326.216 283.966 326.145 284.518 325.943 285.027C325.74 285.536 325.412 285.985 324.989 286.333C324.642 286.484 324.261 286.542 323.885 286.502C323.508 286.462 323.148 286.325 322.84 286.105C321.63 285.232 320.64 284.088 319.949 282.765C319.259 281.442 318.886 279.976 318.862 278.484C318.794 277.94 318.864 277.388 319.067 276.879C319.27 276.37 319.598 275.921 320.021 275.573C320.257 275.438 320.526 275.37 320.798 275.375Z" fill="#7386A8"/>
<path d="M295.161 207.977C295.695 207.997 296.224 207.865 296.685 207.596C297.319 207.136 297.821 206.519 298.142 205.805C298.463 205.091 298.591 204.305 298.514 203.526C298.504 201.799 298.084 200.098 297.289 198.564C296.495 197.03 295.347 195.706 293.942 194.701C293.433 194.355 292.841 194.152 292.226 194.114C291.612 194.076 290.999 194.206 290.452 194.488C289.818 194.944 289.315 195.559 288.994 196.27C288.673 196.982 288.545 197.766 288.623 198.542C288.642 200.277 289.073 201.982 289.881 203.516C290.69 205.051 291.852 206.371 293.271 207.367C293.841 207.723 294.491 207.933 295.161 207.977ZM291.747 195.448C292.234 195.469 292.706 195.616 293.119 195.875C294.329 196.748 295.319 197.892 296.01 199.215C296.701 200.538 297.073 202.004 297.097 203.496C297.164 204.039 297.093 204.591 296.89 205.1C296.688 205.608 296.36 206.058 295.938 206.407C295.591 206.558 295.21 206.616 294.834 206.575C294.457 206.535 294.098 206.399 293.789 206.178C292.581 205.304 291.592 204.16 290.902 202.837C290.211 201.515 289.838 200.049 289.811 198.558C289.744 198.016 289.816 197.467 290.018 196.961C290.221 196.454 290.548 196.007 290.97 195.662C291.203 195.517 291.473 195.443 291.747 195.448Z" fill="#7386A8"/>
<path d="M268.413 222.609C268.92 222.604 269.417 222.473 269.861 222.228C270.492 221.766 270.991 221.148 271.309 220.434C271.627 219.72 271.753 218.936 271.674 218.158C271.655 216.424 271.224 214.719 270.416 213.184C269.607 211.65 268.445 210.33 267.026 209.333C266.52 208.981 265.928 208.773 265.312 208.733C264.697 208.693 264.083 208.821 263.535 209.105C262.902 209.564 262.399 210.182 262.078 210.896C261.758 211.61 261.629 212.395 261.706 213.174C261.717 214.902 262.137 216.603 262.931 218.137C263.726 219.671 264.873 220.994 266.279 221.999C266.923 222.388 267.66 222.599 268.413 222.609ZM264.983 210.065C265.469 210.09 265.941 210.237 266.355 210.492C267.564 211.366 268.553 212.51 269.243 213.833C269.933 215.156 270.307 216.621 270.333 218.112C270.402 218.654 270.331 219.204 270.129 219.71C269.926 220.217 269.598 220.664 269.175 221.008C268.828 221.162 268.447 221.222 268.07 221.181C267.693 221.141 267.332 221.003 267.026 220.78C265.815 219.907 264.825 218.763 264.135 217.44C263.444 216.117 263.072 214.651 263.048 213.159C262.981 212.616 263.052 212.064 263.254 211.555C263.457 211.046 263.784 210.597 264.206 210.248C264.446 210.123 264.713 210.061 264.983 210.065Z" fill="#7386A8"/>
<path d="M239.363 136.921C239.863 136.934 240.358 136.813 240.796 136.57C241.429 136.111 241.932 135.493 242.253 134.779C242.574 134.065 242.702 133.28 242.625 132.501C242.606 130.769 242.174 129.066 241.366 127.534C240.557 126.002 239.395 124.685 237.976 123.691C237.47 123.339 236.878 123.131 236.263 123.091C235.648 123.051 235.033 123.179 234.486 123.463C233.852 123.922 233.35 124.54 233.029 125.254C232.708 125.968 232.58 126.753 232.657 127.532C232.666 129.258 233.085 130.957 233.88 132.489C234.675 134.02 235.823 135.341 237.229 136.342C237.874 136.727 238.612 136.928 239.363 136.921ZM235.934 124.392C236.419 124.418 236.891 124.565 237.305 124.819C238.516 125.692 239.506 126.836 240.196 128.159C240.887 129.482 241.259 130.948 241.283 132.44C241.352 132.983 241.281 133.535 241.079 134.044C240.876 134.553 240.548 135.003 240.125 135.351C239.779 135.506 239.397 135.567 239.02 135.527C238.642 135.486 238.282 135.347 237.976 135.122C236.777 134.239 235.795 133.093 235.105 131.772C234.416 130.452 234.037 128.991 233.998 127.502C233.93 126.958 234 126.406 234.203 125.897C234.405 125.388 234.733 124.939 235.156 124.591C235.392 124.451 235.66 124.377 235.934 124.377V124.392Z" fill="#7386A8"/>
<path d="M208.011 88.2546C208.518 88.25 209.015 88.119 209.459 87.8736C210.093 87.4141 210.595 86.7967 210.916 86.0827C211.237 85.3687 211.365 84.5831 211.288 83.8041C211.269 82.0698 210.837 80.3649 210.029 78.8304C209.221 77.2959 208.059 75.9758 206.639 74.9793C206.129 74.6302 205.534 74.4247 204.918 74.3845C204.301 74.3443 203.685 74.4708 203.134 74.7507C202.5 75.2101 201.997 75.8276 201.677 76.5416C201.356 77.2556 201.227 78.0412 201.305 78.8201C201.324 80.5544 201.755 82.2593 202.563 83.7938C203.372 85.3284 204.534 86.6485 205.953 87.645C206.575 88.0214 207.284 88.2313 208.011 88.2546ZM204.581 75.7109C205.068 75.7337 205.54 75.8806 205.953 76.1376C207.161 77.0131 208.149 78.1572 208.839 79.4796C209.53 80.8021 209.904 82.2668 209.931 83.7584C210.003 84.2985 209.936 84.8479 209.736 85.3547C209.535 85.8614 209.209 86.3088 208.788 86.6543C208.442 86.8085 208.062 86.8699 207.685 86.8325C207.308 86.795 206.948 86.6601 206.639 86.4409C205.431 85.5654 204.443 84.4214 203.753 83.0989C203.062 81.7764 202.689 80.3117 202.661 78.8201C202.589 78.2801 202.657 77.7306 202.857 77.2238C203.057 76.7171 203.383 76.2698 203.804 75.9243C204.039 75.7847 204.308 75.711 204.581 75.7109Z" fill="#7386A8"/>
<path d="M178.092 122.472C178.198 122.47 178.303 122.444 178.397 122.396C178.477 122.355 178.548 122.3 178.606 122.231C178.664 122.163 178.707 122.084 178.734 121.999C178.761 121.914 178.771 121.824 178.763 121.735C178.755 121.646 178.729 121.56 178.687 121.481L155.733 77.6313C155.652 77.4742 155.511 77.3556 155.343 77.3013C155.175 77.2471 154.992 77.2616 154.834 77.3417C154.754 77.382 154.683 77.4378 154.625 77.5058C154.567 77.5739 154.523 77.6528 154.496 77.738C154.469 77.8232 154.46 77.913 154.468 78.002C154.476 78.0909 154.502 78.1774 154.544 78.2562L177.498 122.106C177.554 122.216 177.639 122.308 177.744 122.372C177.849 122.437 177.969 122.471 178.092 122.472Z" fill="#FAA515"/>
<path d="M208.27 216.283C208.336 216.297 208.403 216.297 208.469 216.283C208.638 216.231 208.78 216.113 208.863 215.955C208.946 215.798 208.963 215.615 208.911 215.445L183.716 133.705C183.66 133.534 183.54 133.392 183.38 133.309C183.22 133.227 183.035 133.21 182.863 133.263C182.693 133.315 182.551 133.433 182.468 133.59C182.386 133.748 182.368 133.931 182.421 134.101L207.63 215.826C207.673 215.961 207.759 216.079 207.874 216.161C207.99 216.244 208.129 216.287 208.27 216.283Z" fill="#FAA515"/>
<path d="M213.24 220.231C213.389 220.23 213.533 220.182 213.652 220.094L236.606 202.749C236.749 202.642 236.844 202.482 236.87 202.305C236.896 202.128 236.85 201.948 236.743 201.804C236.636 201.661 236.476 201.566 236.299 201.54C236.122 201.514 235.941 201.56 235.798 201.667L212.844 219.027C212.773 219.08 212.712 219.146 212.667 219.222C212.621 219.299 212.591 219.383 212.578 219.471C212.565 219.559 212.57 219.648 212.592 219.734C212.614 219.821 212.653 219.901 212.707 219.972C212.772 220.052 212.853 220.116 212.945 220.161C213.037 220.206 213.138 220.23 213.24 220.231Z" fill="#FAA515"/>
<path d="M266.036 274.064H266.264C266.433 274.002 266.571 273.876 266.648 273.714C266.725 273.551 266.735 273.365 266.676 273.195L242.137 205.889C242.074 205.721 241.948 205.585 241.785 205.511C241.622 205.436 241.436 205.43 241.268 205.492C241.101 205.555 240.965 205.682 240.89 205.845C240.816 206.008 240.809 206.193 240.872 206.361L265.411 273.652C265.461 273.777 265.547 273.882 265.659 273.956C265.771 274.03 265.902 274.067 266.036 274.064Z" fill="#FAA515"/>
<path d="M271.95 279.337H272.117L293.867 273.744C294.038 273.694 294.183 273.581 294.273 273.428C294.364 273.275 294.393 273.094 294.355 272.921C294.334 272.834 294.295 272.753 294.242 272.681C294.189 272.61 294.122 272.549 294.046 272.504C293.969 272.459 293.884 272.429 293.796 272.417C293.708 272.405 293.618 272.41 293.532 272.433L271.782 277.981C271.611 278.024 271.463 278.133 271.372 278.284C271.281 278.436 271.253 278.617 271.294 278.789C271.325 278.941 271.407 279.078 271.526 279.177C271.645 279.277 271.795 279.333 271.95 279.337Z" fill="#FAA515"/>
<path d="M324.03 349.677H324.258C324.426 349.618 324.563 349.495 324.64 349.335C324.718 349.175 324.728 348.991 324.67 348.824L300.146 278.21C300.084 278.041 299.958 277.903 299.796 277.826C299.633 277.749 299.447 277.739 299.277 277.798C299.11 277.857 298.972 277.98 298.895 278.14C298.818 278.3 298.807 278.484 298.866 278.652L323.405 349.266C323.456 349.388 323.543 349.493 323.654 349.567C323.766 349.64 323.896 349.678 324.03 349.677Z" fill="#FAA515"/>
<path d="M329.532 353.7C329.694 353.695 329.849 353.636 329.974 353.533L353.141 332.865C353.213 332.809 353.272 332.739 353.316 332.659C353.359 332.578 353.386 332.49 353.395 332.399C353.403 332.309 353.393 332.217 353.365 332.13C353.336 332.044 353.291 331.963 353.231 331.895C353.17 331.826 353.097 331.771 353.014 331.732C352.932 331.693 352.843 331.671 352.751 331.667C352.66 331.664 352.569 331.679 352.484 331.712C352.399 331.745 352.322 331.795 352.257 331.859L329.074 352.527C329.011 352.588 328.96 352.661 328.926 352.742C328.891 352.824 328.873 352.911 328.873 352.999C328.873 353.087 328.891 353.175 328.926 353.256C328.96 353.337 329.011 353.411 329.074 353.472C329.13 353.54 329.2 353.596 329.279 353.635C329.357 353.674 329.444 353.697 329.532 353.7Z" fill="#FAA515"/>
<path d="M359.222 329.619H359.39L381.018 324.041C381.111 324.027 381.2 323.995 381.279 323.945C381.359 323.895 381.427 323.829 381.479 323.752C381.532 323.674 381.567 323.586 381.583 323.494C381.6 323.402 381.597 323.307 381.574 323.216C381.552 323.125 381.51 323.04 381.453 322.965C381.395 322.891 381.323 322.83 381.24 322.786C381.158 322.742 381.067 322.715 380.973 322.708C380.88 322.701 380.786 322.714 380.698 322.745L359.116 328.232C358.951 328.267 358.806 328.362 358.709 328.5C358.611 328.637 358.569 328.805 358.59 328.972C358.611 329.139 358.694 329.292 358.822 329.4C358.951 329.509 359.115 329.565 359.283 329.558L359.222 329.619Z" fill="#FAA515"/>
<path d="M410.876 385.205C410.962 385.224 411.05 385.224 411.135 385.205C411.216 385.172 411.289 385.122 411.351 385.061C411.412 384.999 411.461 384.925 411.493 384.844C411.526 384.763 411.542 384.677 411.541 384.589C411.54 384.502 411.521 384.416 411.486 384.336L387.77 328.537C387.74 328.451 387.692 328.372 387.63 328.304C387.568 328.237 387.493 328.184 387.41 328.146C387.326 328.109 387.236 328.09 387.144 328.089C387.053 328.088 386.962 328.106 386.878 328.141C386.794 328.177 386.718 328.229 386.654 328.295C386.591 328.361 386.542 328.439 386.51 328.524C386.478 328.61 386.463 328.701 386.468 328.792C386.472 328.884 386.495 328.973 386.536 329.055L410.251 384.854C410.31 384.967 410.401 385.06 410.512 385.122C410.623 385.185 410.749 385.213 410.876 385.205Z" fill="#FAA515"/>
<path d="M438.525 394.914C438.687 394.911 438.844 394.849 438.964 394.74C439.085 394.631 439.161 394.481 439.18 394.319C439.195 394.233 439.192 394.144 439.172 394.059C439.151 393.974 439.113 393.893 439.06 393.823C439.007 393.753 438.941 393.695 438.864 393.652C438.788 393.609 438.703 393.582 438.616 393.572L417.796 390.753C417.626 390.74 417.458 390.793 417.325 390.9C417.192 391.007 417.106 391.161 417.082 391.33C417.059 391.499 417.101 391.67 417.2 391.809C417.298 391.949 417.446 392.045 417.613 392.079L438.433 394.898L438.525 394.914Z" fill="#FAA515"/>
<path d="M471.659 450.972C471.765 450.993 471.874 450.993 471.979 450.972C472.058 450.93 472.127 450.874 472.184 450.805C472.24 450.736 472.282 450.657 472.308 450.572C472.333 450.487 472.342 450.398 472.332 450.309C472.323 450.221 472.296 450.135 472.254 450.058L446.252 400.248C446.217 400.162 446.164 400.084 446.097 400.019C446.031 399.955 445.951 399.904 445.864 399.872C445.777 399.84 445.684 399.826 445.591 399.831C445.498 399.837 445.407 399.861 445.324 399.904C445.241 399.946 445.168 400.006 445.11 400.078C445.051 400.15 445.008 400.234 444.984 400.323C444.959 400.413 444.953 400.507 444.967 400.599C444.981 400.691 445.013 400.779 445.063 400.858L471.065 450.545C471.112 450.666 471.193 450.771 471.299 450.847C471.404 450.923 471.529 450.966 471.659 450.972Z" fill="#FAA515"/>
<path d="M444.331 401.772C444.834 401.776 445.329 401.645 445.763 401.391C446.397 400.932 446.9 400.314 447.22 399.6C447.541 398.886 447.67 398.101 447.592 397.322C447.575 395.589 447.144 393.886 446.335 392.354C445.527 390.822 444.364 389.505 442.944 388.512C442.438 388.16 441.846 387.952 441.23 387.912C440.615 387.872 440.001 388 439.453 388.284C438.82 388.743 438.317 389.361 437.997 390.075C437.676 390.789 437.547 391.574 437.625 392.353C437.643 394.085 438.075 395.788 438.883 397.32C439.692 398.852 440.854 400.17 442.273 401.163C442.892 401.546 443.603 401.756 444.331 401.772ZM440.901 389.244C441.387 389.269 441.859 389.416 442.273 389.671C443.484 390.544 444.474 391.687 445.164 393.01C445.855 394.333 446.227 395.799 446.251 397.291C446.32 397.848 446.245 398.412 446.031 398.93C445.817 399.449 445.473 399.903 445.032 400.248C444.684 400.399 444.304 400.457 443.927 400.417C443.551 400.377 443.191 400.24 442.883 400.02C441.672 399.147 440.682 398.003 439.992 396.68C439.301 395.357 438.929 393.891 438.905 392.399C438.837 391.855 438.907 391.303 439.11 390.794C439.312 390.285 439.64 389.836 440.063 389.488C440.308 389.31 440.599 389.209 440.901 389.198V389.244Z" fill="#FAA515"/>
<path d="M386.216 329.634C386.75 329.654 387.278 329.522 387.74 329.253C388.374 328.794 388.876 328.176 389.197 327.462C389.518 326.748 389.646 325.962 389.569 325.184C389.55 323.449 389.119 321.744 388.31 320.21C387.502 318.675 386.34 317.355 384.92 316.359C384.411 316.014 383.82 315.811 383.206 315.771C382.593 315.731 381.98 315.855 381.43 316.13C380.795 316.588 380.292 317.206 379.971 317.92C379.65 318.634 379.522 319.42 379.601 320.2C379.611 321.927 380.031 323.628 380.826 325.162C381.621 326.696 382.768 328.02 384.174 329.024C384.788 329.405 385.493 329.616 386.216 329.634ZM382.802 317.09C383.29 317.116 383.763 317.268 384.174 317.532C385.384 318.405 386.374 319.549 387.065 320.872C387.755 322.195 388.127 323.661 388.152 325.153C388.218 325.696 388.147 326.248 387.945 326.757C387.742 327.266 387.415 327.715 386.993 328.064C386.646 328.215 386.265 328.273 385.889 328.233C385.512 328.193 385.152 328.056 384.844 327.836C383.635 326.961 382.647 325.817 381.956 324.494C381.266 323.172 380.893 321.707 380.866 320.215C380.798 319.673 380.868 319.124 381.071 318.617C381.273 318.11 381.602 317.664 382.024 317.319C382.256 317.169 382.526 317.09 382.802 317.09Z" fill="#FAA515"/>
<path d="M415.265 397.49C415.773 397.496 416.273 397.364 416.713 397.109C417.346 396.649 417.849 396.032 418.17 395.318C418.491 394.604 418.619 393.818 418.542 393.039C418.523 391.305 418.091 389.6 417.283 388.066C416.475 386.531 415.313 385.211 413.893 384.214C413.386 383.865 412.794 383.659 412.179 383.619C411.565 383.579 410.951 383.706 410.403 383.986C409.776 384.451 409.278 385.07 408.958 385.782C408.638 386.495 408.506 387.277 408.574 388.055C408.584 389.783 409.004 391.484 409.799 393.018C410.593 394.552 411.741 395.875 413.146 396.88C413.783 397.274 414.516 397.485 415.265 397.49ZM411.851 384.946C412.339 384.969 412.812 385.122 413.222 385.388C414.424 386.269 415.408 387.414 416.098 388.736C416.787 390.057 417.165 391.519 417.2 393.009C417.267 393.552 417.196 394.104 416.994 394.612C416.791 395.121 416.464 395.571 416.042 395.92C415.695 396.07 415.314 396.128 414.937 396.088C414.561 396.048 414.201 395.912 413.893 395.691C412.694 394.808 411.712 393.662 411.022 392.341C410.333 391.02 409.954 389.56 409.915 388.07C409.847 387.529 409.917 386.979 410.12 386.473C410.322 385.966 410.65 385.519 411.073 385.175C411.313 385.051 411.581 384.993 411.851 385.007V384.946Z" fill="#FAA515"/>
<path d="M357.165 336.508C357.699 336.528 358.228 336.396 358.689 336.127C359.323 335.668 359.825 335.05 360.146 334.336C360.467 333.622 360.595 332.837 360.518 332.058C360.499 330.323 360.068 328.619 359.259 327.084C358.451 325.55 357.289 324.229 355.87 323.233C355.362 322.884 354.77 322.678 354.156 322.638C353.541 322.597 352.928 322.724 352.379 323.004C351.738 323.461 351.229 324.08 350.905 324.798C350.581 325.515 350.454 326.306 350.535 327.089C350.545 328.817 350.965 330.517 351.76 332.051C352.555 333.585 353.702 334.909 355.107 335.914C355.73 336.287 356.439 336.492 357.165 336.508ZM353.736 324.041C354.226 324.069 354.701 324.216 355.123 324.467C356.32 325.352 357.3 326.498 357.987 327.819C358.673 329.14 359.049 330.6 359.086 332.088C359.157 332.628 359.09 333.178 358.89 333.684C358.69 334.191 358.364 334.639 357.942 334.984C357.596 335.137 357.216 335.197 356.84 335.16C356.463 335.123 356.103 334.989 355.793 334.771C354.585 333.895 353.597 332.751 352.907 331.429C352.217 330.106 351.843 328.642 351.815 327.15C351.742 326.608 351.811 326.057 352.014 325.55C352.217 325.042 352.547 324.596 352.974 324.254C353.202 324.112 353.467 324.038 353.736 324.041Z" fill="#FAA515"/>
<path d="M328.115 362.145C328.649 362.164 329.178 362.032 329.639 361.763C330.273 361.304 330.776 360.687 331.096 359.973C331.417 359.259 331.546 358.473 331.468 357.694C331.449 355.96 331.018 354.255 330.21 352.72C329.401 351.186 328.239 349.866 326.82 348.869C326.31 348.52 325.715 348.315 325.098 348.274C324.482 348.234 323.865 348.361 323.314 348.641C322.683 349.102 322.184 349.72 321.866 350.434C321.548 351.148 321.422 351.932 321.5 352.71C321.511 354.438 321.931 356.138 322.725 357.672C323.52 359.206 324.667 360.53 326.073 361.535C326.687 361.918 327.392 362.129 328.115 362.145ZM324.686 349.616C325.178 349.634 325.656 349.781 326.073 350.043C327.273 350.925 328.254 352.071 328.941 353.392C329.628 354.713 330.003 356.175 330.036 357.664C330.106 358.206 330.038 358.757 329.838 359.266C329.638 359.775 329.313 360.225 328.893 360.575C328.545 360.725 328.165 360.783 327.788 360.743C327.411 360.703 327.052 360.566 326.744 360.346C325.535 359.471 324.546 358.328 323.856 357.005C323.165 355.682 322.792 354.217 322.766 352.725C322.694 352.184 322.763 351.633 322.966 351.126C323.169 350.619 323.499 350.172 323.924 349.829C324.131 349.686 324.373 349.602 324.625 349.586L324.686 349.616Z" fill="#FAA515"/>
<path d="M299.065 279.124C299.598 279.144 300.127 279.012 300.589 278.743C301.222 278.283 301.725 277.666 302.046 276.952C302.367 276.238 302.495 275.452 302.418 274.673C302.409 272.948 301.989 271.249 301.194 269.717C300.399 268.185 299.251 266.865 297.845 265.864C297.336 265.512 296.742 265.304 296.124 265.264C295.507 265.224 294.89 265.352 294.34 265.635C293.706 266.095 293.204 266.712 292.883 267.426C292.562 268.14 292.434 268.926 292.511 269.705C292.521 271.43 292.941 273.129 293.736 274.66C294.531 276.192 295.678 277.513 297.083 278.514C297.68 278.885 298.363 279.095 299.065 279.124ZM295.635 266.595C296.123 266.611 296.597 266.759 297.007 267.022C298.209 267.903 299.193 269.049 299.882 270.37C300.572 271.691 300.949 273.153 300.985 274.643C301.056 275.185 300.989 275.737 300.789 276.246C300.589 276.755 300.263 277.205 299.842 277.554C299.494 277.705 299.114 277.763 298.737 277.723C298.361 277.683 298.001 277.546 297.693 277.325C296.491 276.444 295.507 275.299 294.817 273.978C294.128 272.657 293.751 271.195 293.715 269.705C293.643 269.162 293.711 268.611 293.911 268.102C294.111 267.592 294.436 267.142 294.858 266.794C295.105 266.659 295.384 266.591 295.666 266.595H295.635Z" fill="#FAA515"/>
<path d="M270.014 286.531C270.521 286.527 271.019 286.396 271.462 286.15C272.093 285.689 272.593 285.071 272.911 284.357C273.229 283.643 273.355 282.858 273.276 282.081C273.257 280.346 272.826 278.641 272.017 277.107C271.209 275.572 270.047 274.252 268.627 273.256C268.12 272.907 267.528 272.701 266.914 272.661C266.299 272.62 265.685 272.747 265.137 273.027C264.503 273.487 264.001 274.104 263.68 274.818C263.359 275.532 263.231 276.318 263.308 277.097C263.327 278.831 263.758 280.536 264.567 282.07C265.375 283.605 266.537 284.925 267.957 285.922C268.579 286.298 269.288 286.508 270.014 286.531ZM266.585 273.987C267.071 274.013 267.542 274.16 267.957 274.414C269.165 275.289 270.154 276.433 270.845 277.755C271.535 279.078 271.908 280.543 271.935 282.035C272.008 282.577 271.939 283.128 271.736 283.635C271.533 284.143 271.203 284.589 270.776 284.931C270.43 285.084 270.048 285.144 269.671 285.104C269.294 285.064 268.934 284.925 268.627 284.702C267.421 283.826 266.436 282.681 265.748 281.359C265.06 280.036 264.689 278.572 264.665 277.081C264.595 276.539 264.663 275.988 264.862 275.479C265.062 274.97 265.387 274.52 265.808 274.17C266.048 274.046 266.315 273.983 266.585 273.987Z" fill="#FAA515"/>
<path d="M240.963 206.849C241.47 206.844 241.968 206.713 242.411 206.468C243.042 206.007 243.542 205.388 243.86 204.675C244.178 203.961 244.304 203.176 244.225 202.398C244.206 200.664 243.775 198.959 242.966 197.425C242.158 195.89 240.996 194.57 239.577 193.574C239.071 193.221 238.478 193.014 237.863 192.973C237.248 192.933 236.634 193.062 236.086 193.345C235.452 193.804 234.95 194.422 234.629 195.136C234.308 195.85 234.18 196.635 234.257 197.414C234.276 199.149 234.708 200.854 235.516 202.388C236.324 203.923 237.486 205.243 238.906 206.239C239.528 206.616 240.237 206.826 240.963 206.849ZM237.534 194.305C238.02 194.331 238.492 194.477 238.906 194.732C240.108 195.613 241.092 196.758 241.781 198.08C242.471 199.401 242.848 200.863 242.884 202.353C242.957 202.894 242.888 203.446 242.686 203.953C242.483 204.46 242.152 204.907 241.726 205.249C241.379 205.402 240.998 205.462 240.621 205.422C240.243 205.382 239.883 205.243 239.577 205.02C238.377 204.138 237.395 202.992 236.708 201.671C236.021 200.35 235.647 198.888 235.614 197.399C235.544 196.857 235.612 196.306 235.812 195.797C236.011 195.288 236.337 194.838 236.757 194.488C236.997 194.364 237.264 194.301 237.534 194.305Z" fill="#FAA515"/>
<path d="M211.838 228.812C212.34 228.809 212.833 228.677 213.271 228.431C213.898 227.965 214.395 227.347 214.715 226.634C215.035 225.922 215.168 225.139 215.1 224.361C215.081 222.627 214.649 220.922 213.841 219.388C213.033 217.853 211.871 216.533 210.451 215.536C209.945 215.184 209.353 214.976 208.738 214.936C208.123 214.896 207.508 215.024 206.961 215.308C206.327 215.767 205.825 216.385 205.504 217.099C205.183 217.813 205.055 218.598 205.132 219.377C205.151 221.112 205.582 222.817 206.391 224.351C207.199 225.886 208.361 227.206 209.78 228.202C210.403 228.579 211.111 228.789 211.838 228.812ZM208.409 216.268C208.894 216.294 209.366 216.44 209.78 216.695C210.989 217.569 211.978 218.713 212.668 220.036C213.359 221.359 213.732 222.824 213.759 224.316C213.827 224.857 213.757 225.407 213.554 225.913C213.351 226.42 213.023 226.867 212.6 227.211C212.254 227.367 211.872 227.427 211.495 227.387C211.117 227.347 210.757 227.207 210.451 226.983C209.241 226.11 208.251 224.966 207.56 223.643C206.869 222.32 206.497 220.854 206.473 219.362C206.406 218.819 206.477 218.267 206.68 217.758C206.882 217.25 207.21 216.8 207.631 216.451C207.892 216.308 208.189 216.245 208.485 216.268H208.409Z" fill="#FAA515"/>
<path d="M182.879 134.558C183.387 134.564 183.887 134.432 184.327 134.177C184.961 133.718 185.463 133.1 185.784 132.386C186.105 131.672 186.233 130.887 186.156 130.108C186.138 128.375 185.707 126.672 184.899 125.14C184.09 123.608 182.927 122.291 181.507 121.298C181.002 120.946 180.409 120.738 179.794 120.698C179.179 120.658 178.564 120.786 178.017 121.07C177.383 121.529 176.881 122.147 176.56 122.861C176.239 123.574 176.111 124.36 176.188 125.139C176.207 126.871 176.638 128.574 177.447 130.106C178.255 131.638 179.417 132.955 180.837 133.949C181.451 134.33 182.156 134.54 182.879 134.558ZM179.465 122.03C179.951 122.055 180.422 122.202 180.837 122.457C182.047 123.33 183.037 124.473 183.728 125.796C184.418 127.119 184.791 128.585 184.815 130.077C184.883 130.621 184.812 131.173 184.61 131.682C184.407 132.191 184.079 132.64 183.656 132.988C183.309 133.139 182.928 133.197 182.552 133.157C182.175 133.117 181.815 132.98 181.507 132.76C180.297 131.887 179.307 130.743 178.616 129.42C177.926 128.097 177.553 126.631 177.529 125.139C177.461 124.595 177.531 124.044 177.734 123.535C177.937 123.025 178.265 122.576 178.688 122.228C178.915 122.099 179.173 122.031 179.434 122.03H179.465Z" fill="#FAA515"/>
<path d="M153.798 79.049C154.306 79.0548 154.806 78.9232 155.246 78.668C155.88 78.2085 156.382 77.5911 156.703 76.8771C157.024 76.1631 157.152 75.3775 157.075 74.5985C157.054 72.8634 156.618 71.1585 155.804 69.626C154.99 68.0935 153.822 66.7779 152.396 65.7889C151.89 65.4365 151.298 65.2289 150.682 65.1886C150.067 65.1483 149.453 65.2769 148.905 65.5603C148.272 66.0198 147.769 66.6372 147.448 67.3512C147.128 68.0652 146.999 68.8508 147.076 69.6298C147.095 71.362 147.527 73.0647 148.335 74.5968C149.144 76.1289 150.306 77.4461 151.725 78.4394C152.348 78.8256 153.065 79.0363 153.798 79.049ZM150.384 66.4596C150.87 66.485 151.341 66.6317 151.756 66.8863C152.966 67.7593 153.956 68.9028 154.647 70.2258C155.337 71.5488 155.709 73.0148 155.734 74.5071C155.802 75.0506 155.731 75.6026 155.529 76.1116C155.326 76.6206 154.998 77.0701 154.575 77.4182C154.228 77.5687 153.847 77.6268 153.471 77.5867C153.094 77.5467 152.734 77.4098 152.426 77.1896C151.216 76.3166 150.226 75.1731 149.535 73.8501C148.845 72.527 148.472 71.0611 148.448 69.5688C148.38 69.0253 148.45 68.4733 148.653 67.9643C148.855 67.4553 149.184 67.0058 149.607 66.6577C149.843 66.5234 150.112 66.455 150.384 66.4596Z" fill="#FAA515"/>
<path opacity="0.4" d="M152.091 102.597L181.141 158.106L209.902 251.4L232.703 234.161L239.242 230.382L268.292 310.064L297.342 302.672L325.859 384.717L348.904 364.171L355.458 360.392L384.508 352.984L413.559 421.327L442.609 425.275L471.659 480.784V519.513L465.121 523.293L145.537 338.794V106.377L152.091 102.597Z" fill="#73DAF9"/>
<path opacity="0.3" d="M465.121 484.549L436.071 429.039L407.021 425.107L377.97 356.764L348.905 364.171L319.854 390.067L290.804 306.452L261.754 313.844L232.704 234.161L203.653 256.124L174.603 161.886L145.537 106.377V338.794L465.121 523.293V484.549Z" fill="#7386A8"/>
<path d="M471.659 480.784L465.121 484.549V523.293L471.659 519.513V480.784Z" fill="#142A63"/>
<path opacity="0.05" d="M471.659 480.784L465.121 484.549V523.293L471.659 519.513V480.784Z" fill="black"/>
<path opacity="0.3" d="M413.559 421.327L407.02 425.107L377.97 356.764L384.508 352.984L413.559 421.327Z" fill="#142A63"/>
<path opacity="0.15" d="M413.559 421.327L407.02 425.107L377.97 356.764L384.508 352.984L413.559 421.327Z" fill="black"/>
<path opacity="0.3" d="M442.609 425.275L436.07 429.039L465.121 484.549L471.659 480.784L442.609 425.275Z" fill="#142A63"/>
<path opacity="0.15" d="M442.609 425.275L436.07 429.039L465.121 484.549L471.659 480.784L442.609 425.275Z" fill="black"/>
<path opacity="0.3" d="M290.803 306.452L297.342 302.672L325.858 384.717L319.853 390.067L290.803 306.452Z" fill="#142A63"/>
<path opacity="0.15" d="M290.803 306.452L297.342 302.672L325.858 384.717L319.853 390.067L290.803 306.452Z" fill="black"/>
<path opacity="0.3" d="M268.292 310.064L261.753 313.844L232.703 234.162L239.242 230.382L268.292 310.064Z" fill="#142A63"/>
<path opacity="0.15" d="M268.292 310.064L261.753 313.844L232.703 234.162L239.242 230.382L268.292 310.064Z" fill="black"/>
<path opacity="0.3" d="M174.603 161.886L181.142 158.106L209.902 251.4L203.653 256.124L174.603 161.886Z" fill="#142A63"/>
<path opacity="0.15" d="M174.603 161.886L181.142 158.106L209.902 251.4L203.653 256.124L174.603 161.886Z" fill="black"/>
<path d="M119.23 55.1045L125.769 51.3398L142.123 89.1083L135.584 92.8881L132.308 90.9982V324.361L125.769 328.141L112.676 320.596V79.6738L102.861 74.0039L119.23 55.1045Z" fill="#FAA515"/>
<path d="M102.86 74.0034L119.23 55.104L135.584 92.8877L125.768 87.2178V328.14L112.676 320.596V79.6733L102.86 74.0034Z" fill="#FAA515"/>
<path opacity="0.15" d="M142.123 89.1083L135.584 92.8881L119.23 55.1045L125.769 51.3398L142.123 89.1083Z" fill="black"/>
<path opacity="0.15" d="M132.308 324.36L125.769 328.14V87.218L132.308 90.9979V324.36Z" fill="black"/>
</svg>
