<svg width="147" height="115" viewBox="0 0 147 115" fill="none" xmlns="http://www.w3.org/2000/svg">
<path d="M21.5632 102.304C50.2256 119.232 96.7147 119.232 125.377 102.304C154.039 85.3757 154.039 57.9332 125.377 41.0084C96.7147 24.0836 50.2256 24.0801 21.5632 41.0084C-7.09917 57.9367 -7.10965 85.3792 21.5632 102.304Z" fill="#FAA515"/>
<path d="M95.2799 0.312366L46.4947 28.5291C46.1709 28.7448 45.9018 29.0329 45.7085 29.3705C45.5152 29.7082 45.403 30.0861 45.3809 30.4745V90.9473C45.4023 91.3356 45.5159 91.7132 45.7121 92.0489C45.9084 92.3846 46.1817 92.6688 46.5095 92.878L50.5193 95.1204C50.8668 95.2966 51.2509 95.3884 51.6405 95.3884C52.0301 95.3884 52.4142 95.2966 52.7618 95.1204L101.547 66.9038C101.873 66.6938 102.144 66.4091 102.338 66.0733C102.531 65.7375 102.642 65.3604 102.661 64.9731V4.47061C102.64 4.08596 102.528 3.71175 102.334 3.37872C102.141 3.04569 101.871 2.76334 101.547 2.55485L97.5223 0.297514C97.1724 0.12816 96.7882 0.0414262 96.3994 0.044001C96.0106 0.0465758 95.6276 0.138391 95.2799 0.312366Z" fill="#142A63"/>
<path opacity="0.1" d="M102.647 4.23329C102.573 3.66896 102.112 3.46105 101.548 3.78777L52.7627 32.0045C52.4355 32.2185 52.1653 32.509 51.9756 32.851L45.7383 29.2867C45.9192 28.9551 46.1859 28.6781 46.5105 28.4848L95.2808 0.268104C95.631 0.0918212 96.0175 0 96.4095 0C96.8015 0 97.188 0.0918212 97.5382 0.268104L101.548 2.51059C101.844 2.70247 102.095 2.95554 102.284 3.25272C102.474 3.54989 102.598 3.88427 102.647 4.23329Z" fill="white"/>
<path d="M51.6055 94.4671V33.9349C51.6276 33.5464 51.7398 33.1685 51.9331 32.8309C52.1264 32.4932 52.3955 32.2052 52.7193 31.9894L101.504 3.77271C102.128 3.41629 102.618 3.69846 102.618 4.4113V65.0178C102.6 65.405 102.489 65.7822 102.295 66.118C102.101 66.4538 101.83 66.7385 101.504 66.9484L52.7193 95.1651C52.155 95.477 51.6055 95.1799 51.6055 94.4671Z" fill="#142A63"/>
<path opacity="0.5" d="M52.7618 95.1206C52.412 95.289 52.0287 95.3765 51.6405 95.3765C51.2523 95.3765 50.8691 95.289 50.5193 95.1206L46.5095 92.8632C46.1809 92.655 45.9069 92.371 45.7105 92.0351C45.5141 91.6992 45.4011 91.3212 45.3809 90.9326V30.4152C45.3938 30.0088 45.517 29.6135 45.7373 29.2717L51.9747 32.8359C51.7541 33.1621 51.6258 33.5418 51.6034 33.9349V94.4671C51.6034 95.1206 52.1083 95.4918 52.7618 95.1206Z" fill="black"/>
<path d="M72.1284 37.1428C72.1284 38.316 72.2175 39.3555 72.2175 40.2763C72.2175 41.1971 72.2175 42.2218 72.1284 43.3653C72.0158 45.9127 71.3251 48.4011 70.1087 50.6422C69.0329 52.7188 67.3969 54.4526 65.3861 55.647C63.4406 56.7608 61.8665 56.9241 60.6635 56.0925C59.4606 55.2608 58.7775 53.6272 58.6438 51.1471C58.6438 50.063 58.5547 49.068 58.5547 48.177C58.5547 47.2859 58.5547 46.1869 58.6438 44.9543C58.704 42.4082 59.344 39.9093 60.515 37.6477C61.6052 35.5319 63.2805 33.774 65.3416 32.5835C67.391 31.3955 69.0097 31.2321 70.1681 32.0638C71.3265 32.8954 72.0096 34.6033 72.1284 37.1428ZM84.0091 23.5839C84.1763 23.1515 84.3799 22.7342 84.618 22.3364C84.8431 21.991 85.1489 21.7055 85.5091 21.5048L89.7861 19.0841C90.0831 18.9059 90.3207 18.8762 90.5138 19.0098C90.6158 19.1086 90.6931 19.2299 90.7395 19.3641C90.7859 19.4982 90.8002 19.6414 90.7811 19.7821C90.793 19.8956 90.793 20.0101 90.7811 20.1236C90.7811 20.2721 90.7811 20.4207 90.6623 20.584L70.0493 74.0324C69.8896 74.4606 69.6908 74.8733 69.4553 75.265C69.2335 75.6224 68.9209 75.9145 68.5494 76.1115L64.2277 78.6064C64.1194 78.6768 63.993 78.7142 63.8639 78.7142C63.7348 78.7142 63.6084 78.6768 63.5 78.6064C63.4 78.5063 63.3239 78.3848 63.2776 78.251C63.2313 78.1173 63.216 77.9747 63.2327 77.8342C63.2217 77.7156 63.2217 77.5963 63.2327 77.4778C63.2532 77.3248 63.2931 77.1751 63.3515 77.0322L84.0091 23.5839ZM64.0941 48.3849C64.0876 48.9351 64.2096 49.4792 64.4505 49.9739C64.6436 50.3303 64.9703 50.3749 65.4455 50.1076C65.9381 49.8116 66.2993 49.3389 66.4554 48.7859C66.6742 48.1444 66.7944 47.4734 66.8118 46.7958C66.9158 44.3454 66.9158 42.0436 66.8118 39.8753C66.8026 39.3602 66.681 38.8534 66.4554 38.3902C66.2623 38.0338 65.9356 37.9893 65.4604 38.2714C64.9773 38.5539 64.6211 39.0111 64.4654 39.5486C64.2479 40.1904 64.1277 40.8612 64.1089 41.5386C63.9307 43.7514 63.9307 46.0533 64.0347 48.3849H64.0941ZM95.9195 46.1424C95.9195 47.3008 96.0086 48.3552 96.0086 49.2611C96.0086 50.167 96.0086 51.2214 95.9195 52.3649C95.8121 54.9132 95.1211 57.4028 93.8998 59.6419C92.824 61.7185 91.188 63.4522 89.1772 64.6466C87.2466 65.7654 85.6724 65.9139 84.4546 65.0921C83.2517 64.2753 82.5834 62.6269 82.4349 60.1468C82.4349 59.0627 82.3607 58.0677 82.3607 57.1766C82.3607 56.2856 82.3607 55.1866 82.4349 53.954C82.4934 51.4064 83.1227 48.9045 84.2764 46.6325C85.371 44.5236 87.0456 42.7717 89.103 41.5832C91.1673 40.3951 92.7711 40.2169 93.9295 41.0634C95.0879 41.9099 95.7562 43.6029 95.8601 46.1424H95.9195ZM87.8258 57.3845C87.8342 57.9331 87.9556 58.474 88.1822 58.9736C88.3753 59.33 88.7169 59.3745 89.1772 59.0924C89.6601 58.806 90.0198 58.3511 90.1871 57.8152C90.3923 57.1708 90.5073 56.5011 90.5287 55.8252C90.6476 53.5199 90.6476 51.21 90.5287 48.9047C90.5316 48.3565 90.4151 47.8142 90.1871 47.3156C89.9792 46.9592 89.6525 46.9146 89.1772 47.182C88.7009 47.4788 88.3476 47.9376 88.1822 48.474C87.9776 49.119 87.8577 49.788 87.8258 50.464C87.6624 52.751 87.6625 55.0529 87.7664 57.3845H87.8258Z" fill="#FAFAFA"/>
</svg>
