<svg width="54" height="62" viewBox="0 0 54 62" fill="none" xmlns="http://www.w3.org/2000/svg">
<path d="M41.8828 0.625L41.958 0.632812C42.129 0.667654 42.2578 0.818681 42.2578 1L42.2598 34.7656L50.6836 42.6582L50.6855 42.6602L50.9248 42.8984C52.0885 44.1194 52.7489 45.7429 52.7637 47.4375L52.7588 47.7725C52.6972 49.3311 52.095 50.8215 51.0557 51.9844L50.8262 52.2285C49.5674 53.5029 47.8499 54.2188 46.0586 54.2188H45.9609C44.6277 54.1953 43.3403 53.7714 42.2607 53.0117V54.1504C42.2606 54.2449 42.2245 54.336 42.1602 54.4053L35.7861 61.2559C35.7152 61.3319 35.6157 61.375 35.5117 61.375H1.13574C0.955164 61.375 0.804161 61.2473 0.768555 61.0771L0.760742 61.001L0.625 25.7217V1L0.632812 0.924805C0.667654 0.75376 0.818666 0.625 1 0.625H41.8828ZM2.55078 25.7188L2.68262 59.4482H34.293V53.332C34.293 53.1249 34.4609 52.957 34.668 52.957H40.334V51.1982L31.5801 41.71C31.4437 41.5621 31.4485 41.3327 31.5908 41.1904L32.6162 40.1641L30.2666 37.8145C25.6957 40.3836 20.1897 40.6724 15.3828 38.6035L14.9111 38.3926C10.0647 36.1252 6.59311 31.6893 5.5498 26.4639L5.45605 25.9561C4.53867 20.5082 6.35567 14.958 10.3174 11.1074H10.3184L10.6943 10.7529C14.6297 7.15894 20.0476 5.6356 25.2988 6.67578L25.8047 6.78418C30.9992 7.97781 35.332 11.573 37.4561 16.4863L37.6543 16.9639C39.5855 21.8257 39.1394 27.3153 36.4453 31.8066L38.708 34.0693L39.8115 32.9678L39.8682 32.9199C40.0103 32.8251 40.2038 32.8378 40.333 32.959H40.334V2.55176H2.55371L2.55078 25.7188ZM36.2188 57.9629L39.0859 54.8828H36.2188V57.9629ZM34.0039 41.498L42.583 50.7969H42.584C43.8522 52.1367 45.7672 52.621 47.5049 52.0674L47.8506 51.9424C49.6724 51.2029 50.8588 49.4247 50.8369 47.459V47.458C50.8259 46.1698 50.2921 44.9443 49.3613 44.0586L40.1104 35.3906L34.0039 41.498ZM35.3418 33.4277C34.376 34.7025 33.2275 35.8243 31.9297 36.7588L33.9727 38.8037L37.3457 35.4307L35.3418 33.4277ZM31.1006 11.3994C27.5488 8.67586 22.9662 7.70166 18.627 8.72852L18.208 8.83398C13.8835 9.99292 10.3209 13.037 8.49609 17.1074L8.3252 17.5039C6.55517 21.7725 6.87317 26.6182 9.18262 30.6201L9.4043 30.9912C11.7477 34.7885 15.6774 37.3374 20.1133 37.9238L20.543 37.9746C24.9813 38.4276 29.3984 36.8634 32.5605 33.6982L32.5615 33.6973L32.8203 33.4336C35.4544 30.6812 36.9241 27.0122 36.9131 23.1914V23.1904L36.9062 22.7578C36.7809 18.4441 34.7848 14.3947 31.4395 11.667L31.1006 11.3994Z" fill="#142A63" stroke="#142A63" stroke-width="0.75" stroke-linejoin="round"/>
<path fill-rule="evenodd" clip-rule="evenodd" d="M28.8109 29.8229L28.8109 29.823C30.6342 28.0226 31.6616 25.5652 31.6616 23C31.6616 20.4352 30.6342 17.9777 28.8108 16.177L28.8041 16.1703L28.8041 16.1703C26.9953 14.3587 24.541 13.3404 21.9843 13.3404C19.4277 13.3404 16.9735 14.3587 15.1644 16.1704L15.1644 16.1704C13.3553 17.9818 12.3384 20.4394 12.3384 23C12.3384 25.5602 13.3555 28.0179 15.1645 29.8297C16.9733 31.6413 19.4276 32.6596 21.9843 32.6596C24.5409 32.6596 26.9951 31.6413 28.8042 29.8296L28.8109 29.8229ZM29.7506 15.2226C31.8289 17.275 33 20.0762 33 23C33 25.9242 31.8289 28.7253 29.7506 30.7774C27.6907 32.8403 24.8962 34 21.9843 34C19.0725 34 16.2777 32.8403 14.218 30.7774C12.1584 28.7145 11 25.916 11 23C11 20.0837 12.1581 17.2852 14.218 15.2226C16.2779 13.1597 19.0725 12 21.9843 12C24.8962 12 27.6909 13.1597 29.7506 15.2226Z" fill="#FAA515" stroke="#FAA515"/>
</svg>
