<svg width="65" height="61" viewBox="0 0 65 61" fill="none" xmlns="http://www.w3.org/2000/svg">
<circle cx="28.8222" cy="28.8222" r="26.6874" stroke="#142A63" stroke-width="2.5" stroke-linecap="round" stroke-linejoin="round" stroke-dasharray="7 7"/>
<circle cx="11.7425" cy="11.7425" r="11.7425" fill="#FAA515"/>
<path d="M50.1732 28.8228L37.3633 36.829V51.2402L50.1732 59.2464L64.0507 51.2402V36.829L50.1732 28.8228Z" fill="white"/>
<path d="M49.7646 27.5088C49.8859 27.5089 50.0057 27.5412 50.1113 27.6035L64.082 35.8711L64.1553 35.9219C64.225 35.9768 64.2833 36.0452 64.3271 36.123C64.3648 36.1898 64.3898 36.2621 64.4033 36.3369H64.4189V51.3018H64.4033C64.3892 51.3758 64.3639 51.4478 64.3262 51.5137C64.2821 51.5905 64.2236 51.6577 64.1543 51.7119L64.082 51.7617L50.1113 60.0303C50.0061 60.0924 49.8859 60.125 49.7637 60.125C49.6721 60.125 49.5818 60.1067 49.498 60.0713L49.416 60.0303L35.4414 51.7617L35.4404 51.7607C35.3651 51.7149 35.2994 51.6552 35.2471 51.585L35.1992 51.5117C35.1625 51.4463 35.1386 51.375 35.125 51.3018H35.1045V36.3369H35.1201C35.1337 36.2621 35.1587 36.1898 35.1963 36.123C35.2548 36.0194 35.3391 35.932 35.4414 35.8711L44.8848 30.2842L44.9102 30.2432L44.9736 30.1348L45.0557 30.1836L49.416 27.6035H49.417L49.5264 27.5518C49.5643 27.5377 49.6036 27.5267 49.6436 27.5195L49.7646 27.5088ZM55.5283 48.4404C55.5271 48.4411 55.5254 48.4424 55.5234 48.4434C55.5214 48.4444 55.5181 48.4457 55.5146 48.4473L55.4795 48.3965L55.502 48.4502C55.4995 48.4512 55.4966 48.4512 55.4941 48.4521L55.4951 48.4541C55.4921 48.4549 55.4883 48.4544 55.4854 48.4551C55.4714 48.4603 55.4576 48.4654 55.4434 48.4697L55.4443 48.4707C55.4373 48.473 55.43 48.4754 55.4229 48.4775L55.4062 48.4824H55.4004C55.3795 48.4871 55.3582 48.4914 55.3369 48.4941L55.3359 48.4932C55.3343 48.4934 55.3327 48.4949 55.3311 48.4951H55.3252C55.32 48.4956 55.3148 48.4967 55.3096 48.4971L55.3086 48.4961C55.2907 48.498 55.2729 48.4996 55.2549 48.5L55.2451 48.501V48.5C55.2386 48.4997 55.2321 48.4995 55.2256 48.499V48.498C55.2191 48.4978 55.2126 48.4985 55.2061 48.498V48.4971L55.1279 48.4883L55.0332 48.4648C55.0013 48.4543 54.9704 48.4409 54.9404 48.4258L54.9385 48.4248C54.911 48.4104 54.8846 48.394 54.8594 48.376V48.377C54.8328 48.3584 54.8079 48.3375 54.7842 48.3154H54.7832C54.7593 48.2931 54.7373 48.2687 54.7168 48.2432V48.2422C54.6983 48.2193 54.6804 48.1959 54.665 48.1709V48.1699C54.6639 48.1681 54.6632 48.1659 54.6621 48.1641L54.6553 48.1543V48.1533C54.6545 48.1518 54.6541 48.15 54.6533 48.1484V48.1475L54.6182 48.0742C54.6063 48.0445 54.5964 48.0135 54.5889 47.9824V47.9834C54.5808 47.9518 54.5747 47.919 54.5713 47.8877V47.8887C54.5683 47.8654 54.567 47.8419 54.5664 47.8184V42.6777L50.4453 45.1162V58.2441L63.0518 50.7842V37.6562L59.3887 39.8242V45.7285L59.3877 45.8242C59.3856 45.8495 59.3809 45.8745 59.376 45.8994V45.9082L59.373 45.9219C59.3673 45.9462 59.36 45.9706 59.3516 45.9941L59.3506 45.9932L59.3389 46.0283C59.3368 46.0335 59.3343 46.0388 59.332 46.0439L59.3301 46.0488C59.3271 46.0551 59.3235 46.0612 59.3203 46.0674C59.2893 46.1311 59.2482 46.1891 59.1992 46.2402L59.1943 46.2471L59.1855 46.2578L59.1846 46.2568C59.1783 46.263 59.1715 46.2685 59.165 46.2744L59.166 46.2754C59.1573 46.2836 59.1478 46.2911 59.1387 46.2988L59.1279 46.3086L59.1221 46.3105C59.1181 46.3137 59.1144 46.3173 59.1104 46.3203L59.1025 46.3262C59.0935 46.3326 59.0836 46.3378 59.0742 46.3438L59.0752 46.3447C59.0699 46.3483 59.064 46.351 59.0586 46.3545L59.0527 46.3594L58.9912 46.25L59.0518 46.3594C59.0481 46.3614 59.0438 46.3623 59.04 46.3643L59.041 46.3652L55.5986 48.4043H55.5977C55.5811 48.4139 55.5641 48.4235 55.5469 48.4316L55.5459 48.4307C55.5404 48.4333 55.5349 48.436 55.5293 48.4385L55.5283 48.4404ZM36.4707 50.7832L49.0781 58.2422V45.1133L36.4707 37.6553V50.7832ZM55.9326 41.8691V46.6182L58.0225 45.3818V40.6318L55.9326 41.8691ZM37.1309 36.4609L49.7627 43.9326L53.958 41.4512L41.3271 33.9775L37.1309 36.4609ZM42.6719 33.1826L55.3008 40.6562L57.6885 39.2441L45.0566 31.7705L42.6719 33.1826ZM46.3975 30.9775L59.0283 38.4512L62.3916 36.4609L49.7637 28.9844L46.3975 30.9775Z" fill="#142A63" stroke="#142A63" stroke-width="0.25"/>
<path d="M6.40527 8.69931C6.40527 8.38621 6.46481 8.09101 6.58388 7.8137C6.7121 7.53639 6.88155 7.29486 7.09221 7.08912C7.31203 6.87442 7.56848 6.70893 7.86158 6.59264C8.15467 6.4674 8.47524 6.40479 8.82328 6.40479C9.17133 6.40479 9.4919 6.4674 9.78499 6.59264C10.0872 6.70893 10.3437 6.87442 10.5544 7.08912C10.7742 7.29486 10.9436 7.53639 11.0627 7.8137C11.1909 8.09101 11.255 8.38621 11.255 8.69931C11.255 9.0124 11.1909 9.31207 11.0627 9.59833C10.9436 9.87564 10.7742 10.1172 10.5544 10.3229C10.3437 10.5287 10.0872 10.6942 9.78499 10.8194C9.4919 10.9357 9.17133 10.9938 8.82328 10.9938C8.47524 10.9938 8.15467 10.9357 7.86158 10.8194C7.56848 10.6942 7.31203 10.5287 7.09221 10.3229C6.88155 10.1172 6.7121 9.87564 6.58388 9.59833C6.46481 9.31207 6.40527 9.0124 6.40527 8.69931ZM7.87531 8.69931C7.87531 8.99451 7.96691 9.23156 8.15009 9.41047C8.33327 9.58938 8.55767 9.67884 8.82328 9.67884C9.0889 9.67884 9.3133 9.58938 9.49648 9.41047C9.67966 9.23156 9.77125 8.99451 9.77125 8.69931C9.77125 8.4041 9.67966 8.16705 9.49648 7.98814C9.3133 7.80923 9.0889 7.71977 8.82328 7.71977C8.55767 7.71977 8.33327 7.80923 8.15009 7.98814C7.96691 8.16705 7.87531 8.4041 7.87531 8.69931ZM8.15009 15.3011L14.2501 6.40479L15.3354 7.11595L9.23545 16.0123L8.15009 15.3011ZM12.2305 13.7177C12.2305 13.4046 12.29 13.1094 12.4091 12.8321C12.5373 12.5548 12.7068 12.3133 12.9174 12.1075C13.1372 11.8929 13.3937 11.7274 13.6868 11.6111C13.9799 11.4858 14.3004 11.4232 14.6485 11.4232C14.9965 11.4232 15.3171 11.4858 15.6102 11.6111C15.9125 11.7274 16.1689 11.8929 16.3796 12.1075C16.5994 12.3133 16.7688 12.5548 16.8879 12.8321C17.0161 13.1094 17.0802 13.4046 17.0802 13.7177C17.0802 14.0308 17.0161 14.3305 16.8879 14.6168C16.7688 14.8941 16.5994 15.1356 16.3796 15.3413C16.1689 15.5471 15.9125 15.7081 15.6102 15.8244C15.3171 15.9496 14.9965 16.0123 14.6485 16.0123C14.3004 16.0123 13.9799 15.9496 13.6868 15.8244C13.3937 15.7081 13.1372 15.5471 12.9174 15.3413C12.7068 15.1356 12.5373 14.8941 12.4091 14.6168C12.29 14.3305 12.2305 14.0308 12.2305 13.7177ZM13.7005 13.7177C13.7005 14.0129 13.7921 14.25 13.9753 14.4289C14.1585 14.6078 14.3829 14.6973 14.6485 14.6973C14.9141 14.6973 15.1385 14.6078 15.3217 14.4289C15.5049 14.25 15.5965 14.0129 15.5965 13.7177C15.5965 13.4225 15.5049 13.1855 15.3217 13.0066C15.1385 12.8277 14.9141 12.7382 14.6485 12.7382C14.3829 12.7382 14.1585 12.8277 13.9753 13.0066C13.7921 13.1855 13.7005 13.4225 13.7005 13.7177Z" fill="white"/>
</svg>
