<svg width="62" height="62" viewBox="0 0 62 62" fill="none" xmlns="http://www.w3.org/2000/svg">
<path d="M57.8699 52.3699H56.2238C55.9003 50.2481 54.083 48.6211 51.8756 48.6211H43.9688C41.7614 48.6211 39.9441 50.2576 39.6206 52.3699H37.965C36.005 52.3699 34.416 53.9589 34.416 55.9189V60.2862C34.416 60.6763 34.7395 60.9998 35.1296 60.9998H60.7052C61.0954 60.9998 61.4189 60.6763 61.4189 60.2862V55.9189C61.4189 53.9589 59.8299 52.3699 57.8699 52.3699ZM43.9688 50.0388H51.8756C53.2742 50.0388 54.4636 51.0093 54.7776 52.3128H41.0573C41.3808 51.0093 42.5606 50.0388 43.9688 50.0388ZM59.9916 59.563H35.8432V55.9094C35.8432 54.7391 36.7947 53.7876 37.965 53.7876H57.8699C59.0402 53.7876 59.9916 54.7391 59.9916 55.9094V59.563Z" fill="#142A63" stroke="#142A63" stroke-width="0.5"/>
<path d="M17.1596 44.2673C16.8456 43.5535 16.4886 42.7465 15.7562 42.3182C15.0421 41.9024 14.2112 41.9831 13.411 42.07C12.777 42.132 12.2353 42.132 11.5952 42.07C10.795 41.9893 9.96402 41.9024 9.25 42.3245C8.51136 42.7527 8.16051 43.5597 7.84659 44.2735C7.71733 44.559 7.60038 44.8321 7.46496 45.0742C7.3357 45.3039 7.16335 45.5335 6.98485 45.7756C6.5232 46.4025 6 47.1163 6 48.0102C6 48.904 6.5232 49.6116 6.98485 50.2447C7.16335 50.493 7.3357 50.7227 7.46496 50.9461C7.59422 51.1758 7.71733 51.4427 7.84044 51.7344C8.15436 52.4482 8.51136 53.2551 9.24384 53.6834C9.66856 53.9317 10.1302 54 10.6042 54C10.9304 54 11.2628 53.969 11.589 53.9317C12.223 53.8697 12.7708 53.8697 13.4048 53.9317C14.205 54.0124 15.036 54.0993 15.75 53.6772C16.4886 53.2489 16.8395 52.442 17.1534 51.7282C17.2827 51.4427 17.3996 51.1696 17.535 50.9337C17.6643 50.704 17.8366 50.4744 18.0152 50.2323C18.4768 49.6054 19 48.8916 19 47.9977C19 47.1039 18.4768 46.3963 18.0152 45.7632C17.8366 45.5211 17.6643 45.2852 17.535 45.0618C17.4058 44.8259 17.2888 44.5528 17.1596 44.2673Z" fill="#FAA515"/>
<path d="M38.7077 6.38525H20.4109C20.0208 6.38525 19.6973 6.70876 19.6973 7.09886C19.6973 7.48896 20.0208 7.81247 20.4109 7.81247H38.7077C39.0978 7.81247 39.4213 7.48896 39.4213 7.09886C39.4213 6.70876 39.0978 6.38525 38.7077 6.38525Z" fill="#142A63" stroke="#142A63" stroke-width="0.5"/>
<path d="M38.7077 11.7705H20.4109C20.0208 11.7705 19.6973 12.094 19.6973 12.4841C19.6973 12.8742 20.0208 13.1977 20.4109 13.1977H38.7077C39.0978 13.1977 39.4213 12.8742 39.4213 12.4841C39.4213 12.094 39.0978 11.7705 38.7077 11.7705Z" fill="#142A63" stroke="#142A63" stroke-width="0.5"/>
<path d="M38.7064 17.1465H7.17454C6.78444 17.1465 6.46094 17.47 6.46094 17.8601C6.46094 18.2502 6.78444 18.5737 7.17454 18.5737H38.7064C39.0965 18.5737 39.42 18.2502 39.42 17.8601C39.42 17.47 39.0965 17.1465 38.7064 17.1465Z" fill="#142A63" stroke="#142A63" stroke-width="0.5"/>
<path d="M38.7064 22.5225H7.17454C6.78444 22.5225 6.46094 22.846 6.46094 23.2361C6.46094 23.6262 6.78444 23.9497 7.17454 23.9497H38.7064C39.0965 23.9497 39.42 23.6262 39.42 23.2361C39.42 22.846 39.0965 22.5225 38.7064 22.5225Z" fill="#142A63" stroke="#142A63" stroke-width="0.5"/>
<path d="M38.7064 27.9077H7.17454C6.78444 27.9077 6.46094 28.2312 6.46094 28.6213C6.46094 29.0114 6.78444 29.3349 7.17454 29.3349H38.7064C39.0965 29.3349 39.42 29.0114 39.42 28.6213C39.42 28.2312 39.0965 27.9077 38.7064 27.9077Z" fill="#142A63" stroke="#142A63" stroke-width="0.5"/>
<path d="M39.42 33.9973C39.42 33.6072 39.0965 33.2837 38.7064 33.2837H7.17454C6.78444 33.2837 6.46094 33.6072 6.46094 33.9973C6.46094 34.3874 6.78444 34.7109 7.17454 34.7109H38.7064C39.0965 34.7109 39.42 34.3874 39.42 33.9973Z" fill="#142A63" stroke="#142A63" stroke-width="0.5"/>
<path d="M32.275 59.5632H3.60704C2.96004 59.5632 2.42721 59.0399 2.42721 58.3834V13.1884H10.5813C12.0181 13.1884 13.1884 12.0181 13.1884 10.5813V2.43673H42.1513C42.7983 2.43673 43.3311 2.96004 43.3311 3.61655V27.9172C43.3311 28.3073 43.6546 28.6308 44.0447 28.6308C44.4348 28.6308 44.7583 28.3073 44.7583 27.9172V3.60704C44.7583 2.17031 43.588 1 42.1513 1H12.4748C12.2845 1 12.1037 1.07612 11.9705 1.20932L1.20932 11.9705C1.07612 12.1037 1 12.2845 1 12.4748V58.3834C1 59.8201 2.17031 60.9904 3.60704 60.9904H32.2845C32.6746 60.9904 32.9981 60.6669 32.9981 60.2768C32.9981 59.8867 32.6746 59.5632 32.275 59.5632ZM10.5813 11.7707H3.43577L11.7612 3.44529V10.5909C11.7612 11.2379 11.2283 11.7707 10.5813 11.7707Z" fill="#142A63" stroke="#142A63" stroke-width="0.5"/>
<path d="M42.3889 33.5501C42.1986 34.5301 42.2652 35.5387 42.5887 36.4521C43.6163 39.4302 44.2728 42.7318 44.6059 46.5282C44.6344 46.8993 44.9484 47.1752 45.3195 47.1752C45.3385 47.1752 45.3575 47.1752 45.3861 47.1752C45.7762 47.1372 46.0711 46.7946 46.0331 46.4045C45.6905 42.4845 45.0055 39.0782 43.9398 35.9859C43.702 35.2913 43.6544 34.5587 43.7971 33.8165C44.1016 32.1895 45.3956 30.8765 47.0036 30.5339C48.2785 30.2675 49.5821 30.572 50.5716 31.3712C51.5611 32.1705 52.132 33.3598 52.132 34.6348C52.132 35.101 52.0559 35.5577 51.9037 35.9954C50.8285 39.0782 50.1434 42.4749 49.8009 46.4045C49.7628 46.7946 50.0578 47.1467 50.4479 47.1752C50.838 47.2038 51.1901 46.9183 51.2186 46.5282C51.5516 42.7223 52.2081 39.4397 53.2452 36.4711C53.4546 35.8812 53.5592 35.2628 53.5592 34.6348C53.5592 32.9317 52.798 31.3332 51.4755 30.258C50.153 29.1828 48.4118 28.7737 46.7181 29.1258C44.5393 29.592 42.8076 31.3712 42.3889 33.5501Z" fill="#142A63" stroke="#142A63" stroke-width="0.5"/>
</svg>
