<svg width="54" height="60" viewBox="0 0 54 60" fill="none" xmlns="http://www.w3.org/2000/svg">
<path d="M34.2861 23.6963C34.984 23.0651 36.0561 23.1116 36.7012 23.791L36.7314 23.8242C37.3322 24.4883 37.3206 25.493 36.7324 26.1445L36.6074 26.2695L25.042 36.7168C24.7117 37.0144 24.2986 37.163 23.8818 37.1631C23.5216 37.1631 23.1613 37.0513 22.8574 36.8291L22.7314 36.7275L16.9473 31.5977V31.5967C16.2783 31.0033 16.1769 30.0034 16.6904 29.29L16.8018 29.1514C17.4377 28.4372 18.5307 28.3724 19.248 29.0059V29.0049L23.7031 32.9561L23.8711 33.1045L24.0371 32.9541L34.2861 23.6963Z" fill="#FAA515" stroke="white" stroke-width="0.5"/>
<path fill-rule="evenodd" clip-rule="evenodd" d="M42.0372 4.05138C41.9665 3.514 41.9286 2.97282 41.9238 2.43083H11.2629C11.2629 2.6334 11.2629 2.83597 11.2629 3.03044C11.217 5.11715 10.4134 7.11589 9.00223 8.65376C7.60692 10.2169 5.68701 11.2144 3.60581 11.4573C3.21688 11.4951 2.81174 11.5275 2.39039 11.5545V23.8221C2.39088 25.1758 2.46664 26.5283 2.6173 27.8735C2.76696 29.214 3.00511 30.543 3.33029 31.852C4.31805 35.9915 6.05948 39.9138 8.46747 43.4227C10.8418 46.7973 13.8464 49.6808 17.3157 51.9144C19.6169 53.4134 21.9829 54.7828 24.3408 56.1441L26.6096 57.4567C27.4199 56.9787 28.2949 56.4601 29.1619 55.9496C30.507 55.1393 31.8521 54.3291 33.2863 53.5188C35.0595 52.5288 36.7528 51.4018 38.3505 50.148C39.9339 48.9055 41.3888 47.5076 42.6936 45.9751C45.1303 43.1412 47.0873 39.9279 48.4871 36.4625C49.8348 33.0164 50.5909 29.3674 50.7234 25.6696C50.8531 22.2259 50.8369 18.7822 50.8207 15.3466C50.8207 14.0988 50.8207 12.851 50.8207 11.6032H50.4641C48.941 11.5459 47.4563 11.1086 46.1453 10.331C44.8584 9.52696 43.7941 8.41249 43.0501 7.08992C42.5116 6.15546 42.1672 5.12202 42.0372 4.05138ZM44.3871 1.27213C44.3398 2.08279 44.3615 2.89598 44.4518 3.70297C44.5446 4.4337 44.7815 5.13875 45.1487 5.77727C45.6822 6.76481 46.4571 7.6011 47.4013 8.2081C48.3766 8.76975 49.4767 9.07891 50.6019 9.10751C50.9098 9.10751 51.1934 9.10751 51.5013 9.10751H53.0327L53.1948 10.1447V10.3229C53.2242 10.4861 53.2404 10.6514 53.2434 10.8172C53.2434 12.3081 53.2434 13.799 53.2434 15.298C53.2434 18.7741 53.2839 22.2583 53.1461 25.7182C53.0127 29.6882 52.2044 33.6065 50.7558 37.3051C49.2649 41.0424 47.1678 44.5083 44.5491 47.5632C43.1404 49.221 41.5686 50.733 39.8576 52.0765C38.1583 53.406 36.3596 54.6034 34.4773 55.6579C33.1566 56.4115 31.771 57.2299 30.426 58.0887L27.6548 59.7093C27.4054 59.8534 27.1301 59.947 26.8445 59.9848C26.4843 60.0333 26.118 59.9651 25.7993 59.7903L23.1821 58.267C20.7512 56.8733 18.3204 55.4796 16.0435 53.9644C12.3126 51.5601 9.08237 48.4564 6.5309 44.8245C3.96023 41.0846 2.09816 36.9045 1.03725 32.4921C0.674926 31.0714 0.404276 29.6288 0.22697 28.1733C0.0731549 26.7308 -0.00260513 25.281 6.83481e-05 23.8302V10.9874C6.83481e-05 10.882 6.83481e-05 10.7119 6.83481e-05 10.5336V10.3391L0.0649043 9.25336L1.14259 9.18854L1.87992 9.14802C2.36608 9.14802 2.84414 9.0913 3.3384 9.03459C4.82053 8.85282 6.18722 8.14214 7.18722 7.0332C8.19995 5.92339 8.77574 4.48391 8.80777 2.98182C8.80777 2.59289 8.80777 2.17154 8.80777 1.81502V0H44.46L44.3871 1.27213Z" fill="#142A63"/>
</svg>
