<svg width="61" height="64" viewBox="0 0 61 64" fill="none" xmlns="http://www.w3.org/2000/svg">
<path d="M38.7077 6.38525H20.4109C20.0208 6.38525 19.6973 6.70876 19.6973 7.09886C19.6973 7.48896 20.0208 7.81247 20.4109 7.81247H38.7077C39.0978 7.81247 39.4213 7.48896 39.4213 7.09886C39.4213 6.70876 39.0978 6.38525 38.7077 6.38525Z" fill="#142A63" stroke="#142A63" stroke-width="0.5"/>
<path d="M38.7077 11.7705H20.4109C20.0208 11.7705 19.6973 12.094 19.6973 12.4841C19.6973 12.8742 20.0208 13.1977 20.4109 13.1977H38.7077C39.0978 13.1977 39.4213 12.8742 39.4213 12.4841C39.4213 12.094 39.0978 11.7705 38.7077 11.7705Z" fill="#142A63" stroke="#142A63" stroke-width="0.5"/>
<path d="M38.7064 17.1465H7.17454C6.78444 17.1465 6.46094 17.47 6.46094 17.8601C6.46094 18.2502 6.78444 18.5737 7.17454 18.5737H38.7064C39.0965 18.5737 39.42 18.2502 39.42 17.8601C39.42 17.47 39.0965 17.1465 38.7064 17.1465Z" fill="#142A63" stroke="#142A63" stroke-width="0.5"/>
<path d="M38.7064 22.5225H7.17454C6.78444 22.5225 6.46094 22.846 6.46094 23.2361C6.46094 23.6262 6.78444 23.9497 7.17454 23.9497H38.7064C39.0965 23.9497 39.42 23.6262 39.42 23.2361C39.42 22.846 39.0965 22.5225 38.7064 22.5225Z" fill="#142A63" stroke="#142A63" stroke-width="0.5"/>
<path d="M38.7064 27.9077H7.17454C6.78444 27.9077 6.46094 28.2312 6.46094 28.6213C6.46094 29.0114 6.78444 29.3349 7.17454 29.3349H38.7064C39.0965 29.3349 39.42 29.0114 39.42 28.6213C39.42 28.2312 39.0965 27.9077 38.7064 27.9077Z" fill="#142A63" stroke="#142A63" stroke-width="0.5"/>
<path d="M39.42 33.9973C39.42 33.6072 39.0965 33.2837 38.7064 33.2837H7.17454C6.78444 33.2837 6.46094 33.6072 6.46094 33.9973C6.46094 34.3874 6.78444 34.7109 7.17454 34.7109H38.7064C39.0965 34.7109 39.42 34.3874 39.42 33.9973Z" fill="#142A63" stroke="#142A63" stroke-width="0.5"/>
<path d="M32.275 59.5632H3.60704C2.96004 59.5632 2.42721 59.0399 2.42721 58.3834V13.1884H10.5813C12.0181 13.1884 13.1884 12.0181 13.1884 10.5813V2.43673H42.1513C42.7983 2.43673 43.3311 2.96004 43.3311 3.61655V27.9172C43.3311 28.3073 43.6546 28.6308 44.0447 28.6308C44.4348 28.6308 44.7583 28.3073 44.7583 27.9172V3.60704C44.7583 2.17031 43.588 1 42.1513 1H12.4748C12.2845 1 12.1037 1.07612 11.9705 1.20932L1.20932 11.9705C1.07612 12.1037 1 12.2845 1 12.4748V58.3834C1 59.8201 2.17031 60.9904 3.60704 60.9904H32.2845C32.6746 60.9904 32.9981 60.6669 32.9981 60.2768C32.9981 59.8867 32.6746 59.5632 32.275 59.5632ZM10.5813 11.7707H3.43577L11.7612 3.44529V10.5909C11.7612 11.2379 11.2283 11.7707 10.5813 11.7707Z" fill="#142A63" stroke="#142A63" stroke-width="0.5"/>
<circle cx="43" cy="46" r="16.5" fill="#FAA515" stroke="white" stroke-width="3"/>
<path d="M49.5312 40.6074C50.0676 40.101 50.8906 40.1385 51.3857 40.6895L51.4033 40.71C51.8702 41.2486 51.8602 42.0664 51.4043 42.5938L51.3076 42.6953L42.083 51.3926C41.8287 51.632 41.5125 51.7499 41.1953 51.75C40.8821 51.75 40.5667 51.6342 40.3145 51.4014H40.3154L35.7012 47.1299C35.1485 46.6184 35.0939 45.7263 35.5879 45.1445L35.5889 45.1455C36.0776 44.5725 36.9116 44.521 37.4609 45.0264V45.0273L41.0146 48.3164L41.1865 48.4756L41.3564 48.3154L49.5312 40.6074Z" fill="white" stroke="#FAA515" stroke-width="0.5"/>
</svg>
