<svg width="60" height="64" viewBox="0 0 60 64" fill="none" xmlns="http://www.w3.org/2000/svg">
<path d="M38.7077 6.38525H20.4109C20.0208 6.38525 19.6973 6.70876 19.6973 7.09886C19.6973 7.48896 20.0208 7.81247 20.4109 7.81247H38.7077C39.0978 7.81247 39.4213 7.48896 39.4213 7.09886C39.4213 6.70876 39.0978 6.38525 38.7077 6.38525Z" fill="#142A63" stroke="#142A63" stroke-width="0.5"/>
<path d="M38.7077 11.7705H20.4109C20.0208 11.7705 19.6973 12.094 19.6973 12.4841C19.6973 12.8742 20.0208 13.1977 20.4109 13.1977H38.7077C39.0978 13.1977 39.4213 12.8742 39.4213 12.4841C39.4213 12.094 39.0978 11.7705 38.7077 11.7705Z" fill="#142A63" stroke="#142A63" stroke-width="0.5"/>
<path d="M38.7064 17.1465H7.17454C6.78444 17.1465 6.46094 17.47 6.46094 17.8601C6.46094 18.2502 6.78444 18.5737 7.17454 18.5737H38.7064C39.0965 18.5737 39.42 18.2502 39.42 17.8601C39.42 17.47 39.0965 17.1465 38.7064 17.1465Z" fill="#142A63" stroke="#142A63" stroke-width="0.5"/>
<path d="M38.7064 22.5225H7.17454C6.78444 22.5225 6.46094 22.846 6.46094 23.2361C6.46094 23.6262 6.78444 23.9497 7.17454 23.9497H38.7064C39.0965 23.9497 39.42 23.6262 39.42 23.2361C39.42 22.846 39.0965 22.5225 38.7064 22.5225Z" fill="#142A63" stroke="#142A63" stroke-width="0.5"/>
<path d="M38.7064 27.9077H7.17454C6.78444 27.9077 6.46094 28.2312 6.46094 28.6213C6.46094 29.0114 6.78444 29.3349 7.17454 29.3349H38.7064C39.0965 29.3349 39.42 29.0114 39.42 28.6213C39.42 28.2312 39.0965 27.9077 38.7064 27.9077Z" fill="#142A63" stroke="#142A63" stroke-width="0.5"/>
<path d="M39.42 33.9973C39.42 33.6072 39.0965 33.2837 38.7064 33.2837H7.17454C6.78444 33.2837 6.46094 33.6072 6.46094 33.9973C6.46094 34.3874 6.78444 34.7109 7.17454 34.7109H38.7064C39.0965 34.7109 39.42 34.3874 39.42 33.9973Z" fill="#142A63" stroke="#142A63" stroke-width="0.5"/>
<path d="M32.275 59.5632H3.60704C2.96004 59.5632 2.42721 59.0399 2.42721 58.3834V13.1884H10.5813C12.0181 13.1884 13.1884 12.0181 13.1884 10.5813V2.43673H42.1513C42.7983 2.43673 43.3311 2.96004 43.3311 3.61655V27.9172C43.3311 28.3073 43.6546 28.6308 44.0447 28.6308C44.4348 28.6308 44.7583 28.3073 44.7583 27.9172V3.60704C44.7583 2.17031 43.588 1 42.1513 1H12.4748C12.2845 1 12.1037 1.07612 11.9705 1.20932L1.20932 11.9705C1.07612 12.1037 1 12.2845 1 12.4748V58.3834C1 59.8201 2.17031 60.9904 3.60704 60.9904H32.2845C32.6746 60.9904 32.9981 60.6669 32.9981 60.2768C32.9981 59.8867 32.6746 59.5632 32.275 59.5632ZM10.5813 11.7707H3.43577L11.7612 3.44529V10.5909C11.7612 11.2379 11.2283 11.7707 10.5813 11.7707Z" fill="#142A63" stroke="#142A63" stroke-width="0.5"/>
<mask id="path-8-outside-1_1_3297" maskUnits="userSpaceOnUse" x="28" y="13" width="32" height="51" fill="black">
<rect fill="white" x="28" y="13" width="32" height="51"/>
<path d="M32.6947 61H32.6877H32.6818L32.6753 60.9994H32.6688L32.6629 60.9988L32.6441 60.9976L32.6376 60.9965L32.6311 60.9959L32.6253 60.9953L32.6188 60.9941L32.6129 60.9929L32.6064 60.9923L32.5999 60.9906L32.5876 60.9882L32.5705 60.9841L32.5646 60.9829L32.5582 60.9811C32.079 60.8689 31.7446 60.6161 31.558 60.3155L32.4033 59.7887C32.4557 59.8738 32.5711 59.9517 32.7524 59.9996H55.2476C55.4289 59.9517 55.5443 59.8738 55.5967 59.7887C55.6173 59.7557 55.6285 59.7202 55.6285 59.6889C55.6279 59.6618 55.619 59.6322 55.6025 59.6027L55.5931 59.5897C55.5384 59.5082 55.4295 59.4373 55.2664 59.4001H32.7336C32.5705 59.4373 32.4616 59.5082 32.4069 59.5897L32.3975 59.6027C32.381 59.6322 32.3721 59.6618 32.3716 59.6883L32.4381 59.3287C32.4016 59.3062 32.368 59.2797 32.3386 59.2495C32.1855 59.1096 32.0454 58.9684 31.9189 58.8267L31.5816 59.031C31.6516 58.9265 31.7399 58.8296 31.8459 58.7434C31.282 58.0861 31 57.4105 31 56.7172C31 56.0191 31.2867 55.3305 31.86 54.6531C31.7346 54.5527 31.634 54.4381 31.558 54.3153L32.4033 53.7885C32.4557 53.8735 32.5711 53.9515 32.7524 53.9993H55.2476C55.4289 53.9515 55.5443 53.8735 55.5967 53.7885C55.6173 53.7554 55.6285 53.72 55.6285 53.6887C55.6279 53.6615 55.619 53.632 55.6025 53.6025L55.5931 53.5895C55.5384 53.508 55.4295 53.4371 55.2664 53.3999H32.7336C32.5705 53.4371 32.4616 53.508 32.4069 53.5895L32.3975 53.6025C32.381 53.632 32.3721 53.6615 32.3716 53.6881L32.4381 53.3284C32.2933 53.2404 32.1961 53.0816 32.1961 52.8997C32.1961 52.7857 32.2344 52.6806 32.2986 52.5967L31.5816 53.0308C31.7735 52.7449 32.1014 52.5134 32.5546 52.4195L32.5623 52.4178C32.6047 52.4066 32.6488 52.3995 32.6947 52.3995H33.5212C34.9698 49.3173 36.0559 46.2226 36.7746 43.1168C37.4775 40.0801 37.833 37.0292 37.8389 33.9712H37.2303C37.192 33.9712 37.1549 33.9665 37.1196 33.9582L37.1078 33.9552L37.0478 33.9363L37.0413 33.9334L37.0254 33.9269C36.661 33.7792 36.4238 33.4781 36.3143 33.1314L36.3055 33.1048C36.259 32.9495 36.2396 32.7829 36.2437 32.6199C36.2478 32.4516 36.279 32.2851 36.3332 32.1363C36.4532 31.8079 36.6887 31.5327 37.0366 31.4104C37.0902 31.388 37.1514 31.3738 37.2132 31.3715L36.6334 30.4283H35.5302C35.4661 30.4283 35.4043 30.4159 35.3478 30.3935L35.3383 30.3899C34.991 30.2742 34.742 30.0509 34.5919 29.7834C34.4724 29.5679 34.4147 29.3257 34.42 29.0889C34.4253 28.8621 34.4877 28.6365 34.6031 28.4393L34.6196 28.4103C34.7815 28.1493 35.0387 27.9414 35.3819 27.8505L35.3937 27.8469L35.406 27.844L35.4154 27.8422L35.4531 27.8345L35.4655 27.8327L35.5302 27.828H36.8082C37.0813 27.5245 37.3021 27.2121 37.4681 26.8926C37.5658 26.7048 37.6464 26.5116 37.7094 26.3144H36.2737C36.2048 26.3144 36.1395 26.3002 36.08 26.2748C35.7675 26.1614 35.5332 25.9459 35.3913 25.689C35.2701 25.4693 35.213 25.2189 35.2177 24.9761C35.2236 24.7257 35.2942 24.4783 35.4249 24.2686C35.5738 24.0295 35.7998 23.8381 36.0971 23.7466L36.1042 23.7442C36.1577 23.7253 36.2142 23.7141 36.2737 23.7141H36.581V16.5132V16.5002C36.581 16.2244 36.8047 16 37.0796 16H37.0925H39.2317H39.2446C39.5195 16 39.7432 16.2244 39.7432 16.5002V16.5132V19.1041C39.775 19.2783 39.8633 19.397 39.9739 19.4619L40.0004 19.4785C40.0675 19.5121 40.1452 19.5305 40.2229 19.5322C40.3136 19.534 40.4078 19.5139 40.4937 19.4714C40.6291 19.4047 40.7433 19.2741 40.7957 19.0804V16.5132V16.5002C40.7957 16.2244 41.0194 16 41.2943 16H41.3072H46.6922H46.7051C46.98 16 47.2037 16.2244 47.2037 16.5002V16.5132V19.0804C47.2561 19.2741 47.3703 19.4047 47.5057 19.4714C47.5916 19.5139 47.6858 19.534 47.7765 19.5322C47.8542 19.5305 47.9319 19.5121 47.999 19.4785L48.0255 19.4619C48.1361 19.397 48.2244 19.2783 48.2562 19.1041V16.5132V16.5002C48.2562 16.2244 48.4799 16 48.7548 16H48.7678H50.9069H50.9199C51.1948 16 51.4184 16.2244 51.4184 16.5002V16.5132V23.7141H51.7263C51.7816 23.7141 51.8358 23.7235 51.8858 23.7407L51.8964 23.7442C52.1949 23.8357 52.4256 24.0265 52.5757 24.2657L52.5987 24.3058C52.7146 24.5072 52.7776 24.7405 52.7823 24.9732C52.7876 25.2165 52.7311 25.4687 52.6093 25.689C52.4656 25.947 52.2355 26.1626 51.9176 26.276C51.8582 26.3008 51.794 26.3144 51.7263 26.3144H50.469C50.6491 26.8831 50.9452 27.388 51.3555 27.828H52.4698L52.5333 27.8322L52.5457 27.8339L52.5728 27.8392L52.5822 27.841L52.594 27.844L52.6016 27.8463L52.6181 27.8505C52.9601 27.9408 53.2156 28.1481 53.3786 28.4074C53.507 28.6117 53.5747 28.8497 53.58 29.0883C53.5853 29.3251 53.5276 29.5667 53.4087 29.7799C53.2586 30.0498 53.009 30.2742 52.6623 30.3899L52.6528 30.3935C52.5963 30.4159 52.5345 30.4283 52.4704 30.4283H51.5038L50.8998 31.388L50.9299 31.3975L50.9528 31.4057L50.964 31.4099C51.3107 31.5321 51.5474 31.8073 51.6674 32.1357C51.7216 32.2845 51.7528 32.451 51.7569 32.6199C51.761 32.7829 51.741 32.9507 51.6951 33.1048C51.5891 33.4615 51.3531 33.7739 50.9781 33.9257L50.964 33.9316L50.9416 33.9399L50.8945 33.9552L50.8828 33.9582C50.8475 33.9665 50.8086 33.9712 50.7703 33.9712H50.2841C50.3495 37.2725 50.7486 40.4492 51.4814 43.496C52.2261 46.5929 53.3174 49.5629 54.7537 52.3995H55.3053C55.3512 52.3995 55.3953 52.4066 55.4377 52.4178L55.4454 52.4195C55.8986 52.5134 56.2271 52.7449 56.4184 53.0308L56.4408 53.0674C56.5556 53.2528 56.6162 53.4595 56.6209 53.668C56.6239 53.8936 56.565 54.1145 56.442 54.3135C56.366 54.4369 56.2648 54.5521 56.14 54.6525C56.7127 55.3305 57 56.0185 57 56.7172C57 57.4105 56.7175 58.0867 56.1541 58.7434C56.2601 58.8296 56.3484 58.9265 56.4184 59.031L56.4408 59.0676C56.5556 59.2531 56.6162 59.4598 56.6209 59.6683C56.6239 59.8939 56.565 60.1147 56.442 60.3138C56.2554 60.6161 55.921 60.8683 55.4418 60.9811L55.4354 60.9829L55.4295 60.9841L55.4177 60.987L55.4054 60.99L55.3936 60.9923L55.3871 60.9929L55.3812 60.9941L55.3747 60.9953L55.3689 60.9959L55.3624 60.9965L55.3559 60.9976L55.3371 60.9988L55.3312 60.9994H55.3247L55.3182 61H55.3053H32.6947ZM31.3791 53.668C31.3838 53.4595 31.4444 53.2528 31.5592 53.0674L31.3791 53.668ZM31.558 54.3153C31.435 54.1163 31.3761 53.8883 31.3791 53.668L31.558 54.3153ZM31.3791 59.6683C31.3838 59.4598 31.4444 59.2531 31.5592 59.0676L31.3791 59.6683ZM31.558 60.3155C31.435 60.1165 31.3761 59.8885 31.3791 59.6683L31.558 60.3155Z"/>
</mask>
<path d="M32.6947 61H32.6877H32.6818L32.6753 60.9994H32.6688L32.6629 60.9988L32.6441 60.9976L32.6376 60.9965L32.6311 60.9959L32.6253 60.9953L32.6188 60.9941L32.6129 60.9929L32.6064 60.9923L32.5999 60.9906L32.5876 60.9882L32.5705 60.9841L32.5646 60.9829L32.5582 60.9811C32.079 60.8689 31.7446 60.6161 31.558 60.3155L32.4033 59.7887C32.4557 59.8738 32.5711 59.9517 32.7524 59.9996H55.2476C55.4289 59.9517 55.5443 59.8738 55.5967 59.7887C55.6173 59.7557 55.6285 59.7202 55.6285 59.6889C55.6279 59.6618 55.619 59.6322 55.6025 59.6027L55.5931 59.5897C55.5384 59.5082 55.4295 59.4373 55.2664 59.4001H32.7336C32.5705 59.4373 32.4616 59.5082 32.4069 59.5897L32.3975 59.6027C32.381 59.6322 32.3721 59.6618 32.3716 59.6883L32.4381 59.3287C32.4016 59.3062 32.368 59.2797 32.3386 59.2495C32.1855 59.1096 32.0454 58.9684 31.9189 58.8267L31.5816 59.031C31.6516 58.9265 31.7399 58.8296 31.8459 58.7434C31.282 58.0861 31 57.4105 31 56.7172C31 56.0191 31.2867 55.3305 31.86 54.6531C31.7346 54.5527 31.634 54.4381 31.558 54.3153L32.4033 53.7885C32.4557 53.8735 32.5711 53.9515 32.7524 53.9993H55.2476C55.4289 53.9515 55.5443 53.8735 55.5967 53.7885C55.6173 53.7554 55.6285 53.72 55.6285 53.6887C55.6279 53.6615 55.619 53.632 55.6025 53.6025L55.5931 53.5895C55.5384 53.508 55.4295 53.4371 55.2664 53.3999H32.7336C32.5705 53.4371 32.4616 53.508 32.4069 53.5895L32.3975 53.6025C32.381 53.632 32.3721 53.6615 32.3716 53.6881L32.4381 53.3284C32.2933 53.2404 32.1961 53.0816 32.1961 52.8997C32.1961 52.7857 32.2344 52.6806 32.2986 52.5967L31.5816 53.0308C31.7735 52.7449 32.1014 52.5134 32.5546 52.4195L32.5623 52.4178C32.6047 52.4066 32.6488 52.3995 32.6947 52.3995H33.5212C34.9698 49.3173 36.0559 46.2226 36.7746 43.1168C37.4775 40.0801 37.833 37.0292 37.8389 33.9712H37.2303C37.192 33.9712 37.1549 33.9665 37.1196 33.9582L37.1078 33.9552L37.0478 33.9363L37.0413 33.9334L37.0254 33.9269C36.661 33.7792 36.4238 33.4781 36.3143 33.1314L36.3055 33.1048C36.259 32.9495 36.2396 32.7829 36.2437 32.6199C36.2478 32.4516 36.279 32.2851 36.3332 32.1363C36.4532 31.8079 36.6887 31.5327 37.0366 31.4104C37.0902 31.388 37.1514 31.3738 37.2132 31.3715L36.6334 30.4283H35.5302C35.4661 30.4283 35.4043 30.4159 35.3478 30.3935L35.3383 30.3899C34.991 30.2742 34.742 30.0509 34.5919 29.7834C34.4724 29.5679 34.4147 29.3257 34.42 29.0889C34.4253 28.8621 34.4877 28.6365 34.6031 28.4393L34.6196 28.4103C34.7815 28.1493 35.0387 27.9414 35.3819 27.8505L35.3937 27.8469L35.406 27.844L35.4154 27.8422L35.4531 27.8345L35.4655 27.8327L35.5302 27.828H36.8082C37.0813 27.5245 37.3021 27.2121 37.4681 26.8926C37.5658 26.7048 37.6464 26.5116 37.7094 26.3144H36.2737C36.2048 26.3144 36.1395 26.3002 36.08 26.2748C35.7675 26.1614 35.5332 25.9459 35.3913 25.689C35.2701 25.4693 35.213 25.2189 35.2177 24.9761C35.2236 24.7257 35.2942 24.4783 35.4249 24.2686C35.5738 24.0295 35.7998 23.8381 36.0971 23.7466L36.1042 23.7442C36.1577 23.7253 36.2142 23.7141 36.2737 23.7141H36.581V16.5132V16.5002C36.581 16.2244 36.8047 16 37.0796 16H37.0925H39.2317H39.2446C39.5195 16 39.7432 16.2244 39.7432 16.5002V16.5132V19.1041C39.775 19.2783 39.8633 19.397 39.9739 19.4619L40.0004 19.4785C40.0675 19.5121 40.1452 19.5305 40.2229 19.5322C40.3136 19.534 40.4078 19.5139 40.4937 19.4714C40.6291 19.4047 40.7433 19.2741 40.7957 19.0804V16.5132V16.5002C40.7957 16.2244 41.0194 16 41.2943 16H41.3072H46.6922H46.7051C46.98 16 47.2037 16.2244 47.2037 16.5002V16.5132V19.0804C47.2561 19.2741 47.3703 19.4047 47.5057 19.4714C47.5916 19.5139 47.6858 19.534 47.7765 19.5322C47.8542 19.5305 47.9319 19.5121 47.999 19.4785L48.0255 19.4619C48.1361 19.397 48.2244 19.2783 48.2562 19.1041V16.5132V16.5002C48.2562 16.2244 48.4799 16 48.7548 16H48.7678H50.9069H50.9199C51.1948 16 51.4184 16.2244 51.4184 16.5002V16.5132V23.7141H51.7263C51.7816 23.7141 51.8358 23.7235 51.8858 23.7407L51.8964 23.7442C52.1949 23.8357 52.4256 24.0265 52.5757 24.2657L52.5987 24.3058C52.7146 24.5072 52.7776 24.7405 52.7823 24.9732C52.7876 25.2165 52.7311 25.4687 52.6093 25.689C52.4656 25.947 52.2355 26.1626 51.9176 26.276C51.8582 26.3008 51.794 26.3144 51.7263 26.3144H50.469C50.6491 26.8831 50.9452 27.388 51.3555 27.828H52.4698L52.5333 27.8322L52.5457 27.8339L52.5728 27.8392L52.5822 27.841L52.594 27.844L52.6016 27.8463L52.6181 27.8505C52.9601 27.9408 53.2156 28.1481 53.3786 28.4074C53.507 28.6117 53.5747 28.8497 53.58 29.0883C53.5853 29.3251 53.5276 29.5667 53.4087 29.7799C53.2586 30.0498 53.009 30.2742 52.6623 30.3899L52.6528 30.3935C52.5963 30.4159 52.5345 30.4283 52.4704 30.4283H51.5038L50.8998 31.388L50.9299 31.3975L50.9528 31.4057L50.964 31.4099C51.3107 31.5321 51.5474 31.8073 51.6674 32.1357C51.7216 32.2845 51.7528 32.451 51.7569 32.6199C51.761 32.7829 51.741 32.9507 51.6951 33.1048C51.5891 33.4615 51.3531 33.7739 50.9781 33.9257L50.964 33.9316L50.9416 33.9399L50.8945 33.9552L50.8828 33.9582C50.8475 33.9665 50.8086 33.9712 50.7703 33.9712H50.2841C50.3495 37.2725 50.7486 40.4492 51.4814 43.496C52.2261 46.5929 53.3174 49.5629 54.7537 52.3995H55.3053C55.3512 52.3995 55.3953 52.4066 55.4377 52.4178L55.4454 52.4195C55.8986 52.5134 56.2271 52.7449 56.4184 53.0308L56.4408 53.0674C56.5556 53.2528 56.6162 53.4595 56.6209 53.668C56.6239 53.8936 56.565 54.1145 56.442 54.3135C56.366 54.4369 56.2648 54.5521 56.14 54.6525C56.7127 55.3305 57 56.0185 57 56.7172C57 57.4105 56.7175 58.0867 56.1541 58.7434C56.2601 58.8296 56.3484 58.9265 56.4184 59.031L56.4408 59.0676C56.5556 59.2531 56.6162 59.4598 56.6209 59.6683C56.6239 59.8939 56.565 60.1147 56.442 60.3138C56.2554 60.6161 55.921 60.8683 55.4418 60.9811L55.4354 60.9829L55.4295 60.9841L55.4177 60.987L55.4054 60.99L55.3936 60.9923L55.3871 60.9929L55.3812 60.9941L55.3747 60.9953L55.3689 60.9959L55.3624 60.9965L55.3559 60.9976L55.3371 60.9988L55.3312 60.9994H55.3247L55.3182 61H55.3053H32.6947ZM31.3791 53.668C31.3838 53.4595 31.4444 53.2528 31.5592 53.0674L31.3791 53.668ZM31.558 54.3153C31.435 54.1163 31.3761 53.8883 31.3791 53.668L31.558 54.3153ZM31.3791 59.6683C31.3838 59.4598 31.4444 59.2531 31.5592 59.0676L31.3791 59.6683ZM31.558 60.3155C31.435 60.1165 31.3761 59.8885 31.3791 59.6683L31.558 60.3155Z" fill="#FAA515"/>
<path d="M41.7929 17.0004V15.5004H40.2929V17.0004H41.7929ZM41.7705 19.2789L40.3384 18.8328L40.3216 18.8866L40.3089 18.9416L41.7705 19.2789ZM40.934 20.3655L41.6024 21.7084L41.6026 21.7083L40.934 20.3655ZM40.1994 20.5279L40.2348 19.0284L40.2334 19.0283L40.1994 20.5279ZM39.5207 20.3508L40.2303 19.0292L40.2182 19.0227L40.206 19.0165L39.5207 20.3508ZM39.4712 20.3254L38.7121 21.6191L38.7485 21.6404L38.786 21.6597L39.4712 20.3254ZM38.7584 19.2399L40.2407 19.0104L40.2321 18.9548L40.2194 18.9001L38.7584 19.2399ZM38.746 17.0004H40.246V15.5004H38.746V17.0004ZM50.4213 17.0004H51.9213V15.5004H50.4213V17.0004ZM49.2534 17.0004V15.5004H47.7534V17.0004H49.2534ZM49.241 19.2399L47.78 18.9001L47.7673 18.9548L47.7587 19.0104L49.241 19.2399ZM48.5282 20.3254L49.2135 21.6597L49.2509 21.6404L49.2873 21.6191L48.5282 20.3254ZM48.4787 20.3508L47.7934 19.0165L47.7812 19.0227L47.7691 19.0292L48.4787 20.3508ZM47.8 20.5279L47.766 19.0283L47.7646 19.0284L47.8 20.5279ZM47.0654 20.3655L46.3969 21.7083L46.397 21.7084L47.0654 20.3655ZM46.2289 19.2789L47.6905 18.9416L47.6778 18.8866L47.6611 18.8328L46.2289 19.2789ZM46.2065 17.0004H47.7065V15.5004H46.2065V17.0004ZM38.0667 27.828L36.8188 26.9957L35.2631 29.328H38.0667V27.828ZM50.0928 27.828V29.328H52.8657L51.3483 27.0072L50.0928 27.828ZM35.6115 29.4279L34.9882 30.7923L35.2851 30.9279H35.6115V29.4279ZM52.3891 29.4279V30.9279H52.715L53.0115 30.7927L52.3891 29.4279ZM52.5422 29.2926L51.2511 28.529L51.2431 28.5426L51.2353 28.5564L52.5422 29.2926ZM52.5875 29.1119L54.0872 29.0837L54.0872 29.0829L52.5875 29.1119ZM52.5357 28.9365L53.8129 28.1498L53.8098 28.1449L52.5357 28.9365ZM36.3673 25.3139L35.6316 26.6211L35.9742 26.8139H36.3673V25.3139ZM51.6333 25.3139V26.8139H52.0264L52.369 26.6211L51.6333 25.3139ZM51.7416 25.2047L53.0547 25.9298L53.055 25.9292L51.7416 25.2047ZM51.7899 24.9933L53.2897 24.9695L53.2896 24.9658L51.7899 24.9933ZM51.7457 24.8137L53.0664 24.1026L53.0394 24.0524L53.0086 24.0044L51.7457 24.8137ZM51.7351 24.7972L50.4595 25.5864L50.4658 25.5965L50.4722 25.6066L51.7351 24.7972ZM51.648 24.7145L52.3546 23.3914L52.0234 23.2145H51.648V24.7145ZM50.7415 32.8201L52.1783 33.2512L52.1807 33.2429L50.7415 32.8201ZM50.7645 32.6436L52.2642 32.6134L52.2641 32.6107L50.7645 32.6436ZM50.7327 32.4794L52.1415 31.9645L52.1407 31.9623L50.7327 32.4794ZM55.111 58.3997V59.8997H55.7188L56.1551 59.4767L55.111 58.3997ZM40.2929 17.0004V19.1295H43.2929V17.0004H40.2929ZM40.2929 19.1295C40.2929 19.0336 40.3071 18.9333 40.3384 18.8328L43.2026 19.725C43.2634 19.53 43.2929 19.3292 43.2929 19.1295H40.2929ZM40.3089 18.9416C40.3028 18.9682 40.2959 18.9849 40.2915 18.9941C40.2871 19.0033 40.2836 19.0082 40.2818 19.0104C40.2789 19.014 40.2747 19.0182 40.2655 19.0227L41.6026 21.7083C42.3822 21.3202 43.0062 20.5951 43.2321 19.6162L40.3089 18.9416ZM40.2656 19.0227C40.2649 19.023 40.2609 19.0249 40.2539 19.0264C40.2468 19.0279 40.24 19.0285 40.2348 19.0284L40.164 22.0275C40.6505 22.039 41.1485 21.9343 41.6024 21.7084L40.2656 19.0227ZM40.2334 19.0283C40.2315 19.0283 40.2289 19.0279 40.2267 19.0274C40.2246 19.0268 40.2258 19.0268 40.2303 19.0292L38.8111 21.6723C39.2357 21.9003 39.7038 22.0171 40.1654 22.0275L40.2334 19.0283ZM40.206 19.0165L40.1565 18.9911L38.786 21.6597L38.8354 21.6851L40.206 19.0165ZM40.2303 19.0316C40.2312 19.0321 40.2342 19.034 40.2383 19.0378C40.2426 19.0418 40.2464 19.0463 40.2493 19.0505C40.2523 19.0549 40.2523 19.0561 40.2507 19.052C40.2491 19.0478 40.2445 19.0348 40.2407 19.0104L37.276 19.4694C37.4252 20.433 37.9705 21.1839 38.7121 21.6191L40.2303 19.0316ZM40.2194 18.9001C40.2384 18.982 40.246 19.0592 40.246 19.1295H37.246C37.246 19.2753 37.2618 19.4269 37.2974 19.5797L40.2194 18.9001ZM40.246 19.1295V17.0004H37.246V19.1295H40.246ZM38.746 15.5004H37.5781V18.5004H38.746V15.5004ZM51.9213 23.7141V17.0004H48.9213V23.7141H51.9213ZM50.4213 15.5004H49.2534V18.5004H50.4213V15.5004ZM47.7534 17.0004V19.1295H50.7534V17.0004H47.7534ZM47.7534 19.1295C47.7534 19.0592 47.761 18.982 47.78 18.9001L50.702 19.5797C50.7376 19.4269 50.7534 19.2753 50.7534 19.1295H47.7534ZM47.7587 19.0104C47.7549 19.0348 47.7503 19.0478 47.7487 19.052C47.7471 19.0561 47.7471 19.0549 47.7501 19.0505C47.753 19.0463 47.7569 19.0418 47.7611 19.0378C47.7652 19.034 47.7682 19.0321 47.7691 19.0316L49.2873 21.6191C50.0289 21.1839 50.5742 20.433 50.7234 19.4694L47.7587 19.0104ZM47.8429 18.9911L47.7934 19.0165L49.164 21.6851L49.2135 21.6597L47.8429 18.9911ZM47.7691 19.0292C47.7736 19.0268 47.7748 19.0268 47.7727 19.0274C47.7705 19.0279 47.7679 19.0283 47.766 19.0283L47.834 22.0275C48.2956 22.0171 48.7637 21.9003 49.1883 21.6723L47.7691 19.0292ZM47.7646 19.0284C47.7595 19.0285 47.7526 19.0279 47.7455 19.0264C47.7385 19.0249 47.7345 19.023 47.7338 19.0227L46.397 21.7084C46.851 21.9343 47.3489 22.039 47.8354 22.0275L47.7646 19.0284ZM47.7339 19.0227C47.7247 19.0182 47.7205 19.014 47.7176 19.0104C47.7159 19.0082 47.7123 19.0033 47.7079 18.9941C47.7035 18.9849 47.6967 18.9682 47.6905 18.9416L44.7673 19.6162C44.9933 20.5951 45.6172 21.3202 46.3969 21.7083L47.7339 19.0227ZM47.6611 18.8328C47.6923 18.9332 47.7065 19.0336 47.7065 19.1295H44.7065C44.7065 19.3292 44.7361 19.53 44.7968 19.725L47.6611 18.8328ZM47.7065 19.1295V17.0004H44.7065V19.1295H47.7065ZM46.2065 15.5004H41.7929V18.5004H46.2065V15.5004ZM37.0158 26.6628C36.9583 26.7739 36.8928 26.8848 36.8188 26.9957L39.3146 28.6604C39.4479 28.4606 39.5696 28.255 39.6792 28.0436L37.0158 26.6628ZM38.0667 29.328H50.0928V26.328H38.0667V29.328ZM51.3483 27.0072C51.1407 26.6897 50.987 26.34 50.8891 25.9495L47.9792 26.6793C48.1567 27.3873 48.4433 28.0462 48.8373 28.6489L51.3483 27.0072ZM51.0051 32.1706L51.5991 31.228L49.061 29.6286L48.467 30.5712L51.0051 32.1706ZM34.1566 30.0428C34.3578 30.3905 34.6582 30.6415 34.9882 30.7923L36.2347 28.0635C36.42 28.1481 36.6155 28.3023 36.7531 28.5401L34.1566 30.0428ZM35.6115 30.9279H52.3891V27.9279H35.6115V30.9279ZM53.0115 30.7927C53.3514 30.6377 53.652 30.3787 53.849 30.0289L51.2353 28.5564C51.3712 28.3152 51.5693 28.1531 51.7667 28.0631L53.0115 30.7927ZM53.8332 30.0563C54.0246 29.7328 54.0929 29.3872 54.0872 29.0837L51.0878 29.1401C51.0844 28.9619 51.1234 28.745 51.2511 28.529L53.8332 30.0563ZM54.0872 29.0829C54.0808 28.7517 53.9845 28.4284 53.8129 28.1499L51.2585 29.7232C51.1517 29.5497 51.0918 29.3505 51.0878 29.141L54.0872 29.0829ZM53.8098 28.1449C53.5966 27.8018 53.2837 27.5639 52.9501 27.4326L51.8517 30.2243C51.6382 30.1403 51.4183 29.9803 51.2616 29.7282L53.8098 28.1449ZM34.9459 25.9298C35.0969 26.2032 35.3268 26.4496 35.6316 26.6211L37.103 24.0068C37.3113 24.124 37.4694 24.2936 37.5721 24.4796L34.9459 25.9298ZM36.3673 26.8139H51.6333V23.8139H36.3673V26.8139ZM52.369 26.6211C52.6738 26.4496 52.9037 26.2032 53.0547 25.9298L50.4285 24.4796C50.5312 24.2936 50.6893 24.124 50.8976 24.0068L52.369 26.6211ZM53.055 25.9292C53.2383 25.5969 53.2942 25.252 53.2897 24.9695L50.2901 25.017C50.288 24.8833 50.312 24.6908 50.4282 24.4802L53.055 25.9292ZM53.2896 24.9658C53.2847 24.6976 53.2229 24.3932 53.0664 24.1026L50.425 25.5249C50.3239 25.3371 50.2927 25.1602 50.2901 25.0207L53.2896 24.9658ZM53.0086 24.0044L52.998 23.9878L50.4722 25.6066L50.4828 25.6231L53.0086 24.0044ZM53.0107 24.008C52.8616 23.7669 52.6427 23.5452 52.3546 23.3914L50.9414 26.0377C50.7263 25.9228 50.5663 25.759 50.4595 25.5864L53.0107 24.008ZM51.648 23.2145H50.9328V26.2145H51.648V23.2145ZM50.9328 23.2145H50.9199V26.2145H50.9328V23.2145ZM50.9199 23.2145H50.9069V26.2145H50.9199V23.2145ZM51.6206 34.1161C51.9613 33.828 52.1114 33.474 52.1782 33.2512L49.3048 32.3891C49.3241 32.3248 49.3556 32.2424 49.4086 32.1512C49.4608 32.0615 49.5469 31.9408 49.6835 31.8254L51.6206 34.1161ZM52.1807 33.2429C52.2433 33.0299 52.2682 32.8143 52.2641 32.6134L49.2648 32.6738C49.2631 32.5897 49.2727 32.4982 49.3023 32.3974L52.1807 33.2429ZM52.2641 32.6107C52.2591 32.3814 52.2136 32.1616 52.1415 31.9645L49.3238 32.9943C49.2906 32.9035 49.2675 32.7982 49.2648 32.6764L52.2641 32.6107ZM52.1407 31.9623C52.0831 31.8055 51.949 31.4999 51.6522 31.241L49.68 33.5016C49.546 33.3847 49.4649 33.268 49.4206 33.1948C49.3735 33.1171 49.3437 33.0484 49.3246 32.9965L52.1407 31.9623ZM32.889 59.8997H55.111V56.8997H32.889V59.8997ZM56.1551 59.4767C56.8911 58.7632 57.5028 57.8374 57.5028 56.7172H54.5028C54.5028 56.6871 54.5189 56.8846 54.0669 57.3227L56.1551 59.4767ZM57.5028 56.7172C57.5028 55.601 56.8967 54.6677 56.1672 53.9387L54.0466 56.0608C54.2682 56.2823 54.388 56.4538 54.4488 56.5705C54.4782 56.6268 54.4915 56.6657 54.4974 56.688C54.5004 56.6991 54.5017 56.7067 54.5023 56.7109C54.5028 56.7151 54.5028 56.7171 54.5028 56.7172H57.5028ZM32.8393 53.8493L32.8616 53.8127L30.3015 52.2488L30.2792 52.2855L32.8393 53.8493ZM32.8393 59.8495L32.8617 59.8129L30.3015 58.2491L30.2791 58.2858L32.8393 59.8495ZM33.8334 59.3359L33.8016 59.2355L30.9415 60.1411L30.9733 60.2415L33.8334 59.3359ZM32.6818 61L32.4089 63.9876L32.5451 64H32.6818V61ZM32.6753 60.9994L32.9481 58.0118L32.812 57.9994H32.6753V60.9994ZM32.6688 60.9994L32.369 63.9844L32.5185 63.9994H32.6688V60.9994ZM32.6629 60.9988L32.9628 58.0138L32.9069 58.0082L32.8509 58.0047L32.6629 60.9988ZM32.6441 60.9976L32.1068 63.9491L32.2802 63.9807L32.4561 63.9917L32.6441 60.9976ZM32.6376 60.9965L33.1749 58.045L33.0443 58.0212L32.9122 58.009L32.6376 60.9965ZM32.6311 60.9959L32.3351 63.9812L32.3459 63.9823L32.3566 63.9833L32.6311 60.9959ZM32.6253 60.9953L32.0846 63.9462L32.2062 63.9684L32.3292 63.9806L32.6253 60.9953ZM32.6188 60.9941L32.0297 63.9357L32.0539 63.9405L32.0781 63.945L32.6188 60.9941ZM32.6129 60.9929L33.202 58.0513L33.0459 58.0201L32.8874 58.0055L32.6129 60.9929ZM32.6064 60.9923L31.8168 63.8866L32.0703 63.9557L32.3319 63.9797L32.6064 60.9923ZM32.5999 60.9906L33.3895 58.0963L33.2776 58.0658L33.1637 58.044L32.5999 60.9906ZM32.5876 60.9882L31.882 63.904L31.9525 63.9211L32.0238 63.9347L32.5876 60.9882ZM32.5705 60.9841L33.2761 58.0682L33.219 58.0544L33.1614 58.0428L32.5705 60.9841ZM32.5646 60.9829L31.7736 63.8767L31.8728 63.9038L31.9737 63.9241L32.5646 60.9829ZM32.5582 60.9811L33.3492 58.0873L33.2959 58.0727L33.2422 58.0601L32.5582 60.9811ZM31.558 60.3155L29.0062 61.8929L29.0092 61.8977L31.558 60.3155ZM32.4033 59.7887L34.9576 58.2152L33.3759 55.6477L30.8166 57.2427L32.4033 59.7887ZM32.7524 59.9996L31.9871 62.9003L32.3633 62.9996H32.7524V59.9996ZM55.2476 59.9996V62.9996H55.6367L56.0129 62.9003L55.2476 59.9996ZM55.5967 59.7887L53.0503 58.2025L53.0464 58.2088L53.0424 58.2152L55.5967 59.7887ZM55.6285 59.6889H58.6285V59.6564L58.6277 59.6239L55.6285 59.6889ZM55.6025 59.6027L58.2221 58.1405L58.1357 57.9857L58.0316 57.8421L55.6025 59.6027ZM55.5931 59.5897L53.1028 61.2625L53.1327 61.307L53.1641 61.3503L55.5931 59.5897ZM55.2664 59.4001L55.9338 56.4753L55.6044 56.4001H55.2664V59.4001ZM32.7336 59.4001V56.4001H32.3956L32.0662 56.4753L32.7336 59.4001ZM32.4069 59.5897L34.8357 61.3506L34.8672 61.3071L34.8972 61.2625L32.4069 59.5897ZM32.3975 59.6027L29.9686 57.8418L29.8644 57.9855L29.7779 58.1405L32.3975 59.6027ZM32.3716 59.6883L29.3723 59.6219L35.3215 60.2339L32.3716 59.6883ZM32.4381 59.3287L35.388 59.8742L35.7622 57.8509L34.0095 56.7732L32.4381 59.3287ZM32.3386 59.2495L34.4842 57.1528L34.4253 57.0926L34.3632 57.0357L32.3386 59.2495ZM31.9189 58.8267L34.1566 56.8286L32.4964 54.9692L30.3644 56.2608L31.9189 58.8267ZM31.5816 59.031L29.0894 57.361L33.136 61.5969L31.5816 59.031ZM31.8459 58.7434L33.7394 61.0703L36.1276 59.1269L34.1228 56.79L31.8459 58.7434ZM31.86 54.6531L34.1499 56.5913L36.1415 54.2382L33.7351 52.3113L31.86 54.6531ZM31.558 54.3153L29.0062 55.8927L29.0062 55.8927L31.558 54.3153ZM32.4033 53.7885L34.9576 52.215L33.3759 49.6475L30.8166 51.2425L32.4033 53.7885ZM32.7524 53.9993L31.9871 56.9001L32.3633 56.9993H32.7524V53.9993ZM55.2476 53.9993V56.9993H55.6367L56.0129 56.9001L55.2476 53.9993ZM55.5967 53.7885L53.0503 52.2022L53.0464 52.2086L53.0424 52.215L55.5967 53.7885ZM55.6285 53.6887H58.6285V53.6562L58.6277 53.6237L55.6285 53.6887ZM55.6025 53.6025L58.2221 52.1403L58.1358 51.9856L58.0318 51.8422L55.6025 53.6025ZM55.5931 53.5895L53.1028 55.2623L53.1325 55.3065L53.1638 55.3497L55.5931 53.5895ZM55.2664 53.3999L55.9338 50.4751L55.6044 50.3999H55.2664V53.3999ZM32.7336 53.3999V50.3999H32.3956L32.0662 50.4751L32.7336 53.3999ZM32.4069 53.5895L34.8359 55.35L34.8674 55.3067L34.8972 55.2623L32.4069 53.5895ZM32.3975 53.6025L29.9684 51.8419L29.8643 51.9855L29.7779 52.1403L32.3975 53.6025ZM32.3716 53.6881L29.3723 53.6217L35.3215 54.2337L32.3716 53.6881ZM32.4381 53.3284L35.388 53.874L35.7644 51.8393L33.996 50.7647L32.4381 53.3284ZM32.2986 52.5967L34.6812 54.4197L30.7449 50.0304L32.2986 52.5967ZM31.5816 53.0308L29.0908 51.3586L33.1353 55.5971L31.5816 53.0308ZM32.5546 52.4195L33.1632 55.3572L33.1977 55.35L33.232 55.3421L32.5546 52.4195ZM32.5623 52.4178L33.2397 55.3403L33.285 55.3298L33.3301 55.3179L32.5623 52.4178ZM33.5212 52.3995V55.3995H35.426L36.2362 53.6756L33.5212 52.3995ZM36.7746 43.1168L33.8519 42.4404L33.8519 42.4404L36.7746 43.1168ZM37.8389 33.9712L40.8389 33.977L40.8447 30.9712H37.8389V33.9712ZM37.1196 33.9582L36.3902 36.8682L36.4129 36.8739L36.4358 36.8792L37.1196 33.9582ZM37.1078 33.9552L36.2071 36.8168L36.292 36.8436L36.3784 36.8652L37.1078 33.9552ZM37.0478 33.9363L35.8032 36.666L35.971 36.7425L36.147 36.7979L37.0478 33.9363ZM37.0413 33.9334L38.2859 31.2037L38.2315 31.1789L38.1761 31.1563L37.0413 33.9334ZM37.0254 33.9269L38.1602 31.1498L38.152 31.1465L37.0254 33.9269ZM36.3143 33.1314L39.175 32.2279L39.1683 32.2067L39.1613 32.1856L36.3143 33.1314ZM36.3055 33.1048L33.4315 33.9653L33.4444 34.0081L33.4585 34.0506L36.3055 33.1048ZM36.2437 32.6199L39.2427 32.6958L39.2428 32.6934L36.2437 32.6199ZM36.3332 32.1363L33.5156 31.1059L33.514 31.1104L36.3332 32.1363ZM37.0366 31.4104L38.0312 34.2408L38.1144 34.2115L38.1958 34.1774L37.0366 31.4104ZM37.2132 31.3715L37.3278 34.3693L42.4572 34.1732L39.7689 29.8003L37.2132 31.3715ZM36.6334 30.4283L39.189 28.8572L38.3106 27.4283H36.6334V30.4283ZM35.3478 30.3935L36.455 27.6053L36.4295 27.5951L36.4037 27.5855L35.3478 30.3935ZM35.3383 30.3899L36.3943 27.5819L36.341 27.5619L36.2869 27.5438L35.3383 30.3899ZM34.5919 29.7834L31.9681 31.2379L31.9718 31.2447L31.9756 31.2514L34.5919 29.7834ZM34.42 29.0889L31.4209 29.0188L31.4208 29.0218L34.42 29.0889ZM34.6031 28.4393L37.1927 29.9539L37.2014 29.939L37.21 29.924L34.6031 28.4393ZM34.6196 28.4103L32.0701 26.8292L32.0405 26.8769L32.0128 26.9256L34.6196 28.4103ZM35.3819 27.8505L36.1504 30.7504L36.1987 30.7376L36.2465 30.7232L35.3819 27.8505ZM35.3937 27.8469L34.6965 24.9291L34.6122 24.9492L34.5291 24.9742L35.3937 27.8469ZM35.406 27.844L34.8517 24.8956L34.7799 24.9091L34.7089 24.9261L35.406 27.844ZM35.4154 27.8422L35.9698 30.7905L35.9922 30.7863L36.0145 30.7818L35.4154 27.8422ZM35.4531 27.8345L35.027 24.8649L34.9401 24.8774L34.8541 24.8949L35.4531 27.8345ZM35.4655 27.8327L35.2472 24.8407L35.1429 24.8483L35.0394 24.8632L35.4655 27.8327ZM35.5302 27.828V24.828H35.421L35.312 24.836L35.5302 27.828ZM36.8082 27.828V30.828H38.1445L39.0383 29.8346L36.8082 27.828ZM37.4681 26.8926L34.8068 25.5078L34.8059 25.5094L37.4681 26.8926ZM37.7094 26.3144L40.5673 27.2269L41.8166 23.3144H37.7094V26.3144ZM36.08 26.2748L37.2584 23.5159L37.1816 23.4831L37.1031 23.4546L36.08 26.2748ZM35.3913 25.689L32.7648 27.1387L32.7651 27.1392L35.3913 25.689ZM35.2177 24.9761L32.2185 24.9056L32.2182 24.9179L35.2177 24.9761ZM35.4249 24.2686L37.9708 25.8555L37.9715 25.8543L35.4249 24.2686ZM36.0971 23.7466L36.98 26.6137L37.0144 26.6031L37.0486 26.5917L36.0971 23.7466ZM36.1042 23.7442L37.0557 26.5893L37.079 26.5815L37.1023 26.5733L36.1042 23.7442ZM36.581 23.7141V26.7141H39.581V23.7141H36.581ZM39.7432 19.1041H36.7432V19.3755L36.7919 19.6425L39.7432 19.1041ZM39.9739 19.4619L41.5626 16.9171L41.5279 16.8955L41.4927 16.8748L39.9739 19.4619ZM40.0004 19.4785L38.4118 22.0233L38.5304 22.0973L38.6553 22.16L40.0004 19.4785ZM40.2229 19.5322L40.1546 22.5315L40.1643 22.5317L40.2229 19.5322ZM40.4937 19.4714L39.1674 16.7805L39.1634 16.7825L40.4937 19.4714ZM40.7957 19.0804L43.6916 19.8637L43.7957 19.479V19.0804H40.7957ZM47.2037 19.0804H44.2037V19.479L44.3078 19.8637L47.2037 19.0804ZM47.5057 19.4714L48.8361 16.7825L48.8321 16.7805L47.5057 19.4714ZM47.7765 19.5322L47.8351 22.5317L47.8449 22.5314L47.7765 19.5322ZM47.999 19.4785L49.3441 22.16L49.469 22.0974L49.5876 22.0234L47.999 19.4785ZM48.0255 19.4619L46.5067 16.8748L46.4715 16.8954L46.4369 16.9171L48.0255 19.4619ZM48.2562 19.1041L51.2075 19.6425L51.2562 19.3755V19.1041H48.2562ZM51.4184 23.7141H48.4184V26.7141H51.4184V23.7141ZM51.8858 23.7407L50.9143 26.579L50.9243 26.5824L50.9343 26.5857L51.8858 23.7407ZM51.8964 23.7442L50.9449 26.5893L50.9806 26.6013L51.0167 26.6123L51.8964 23.7442ZM52.5757 24.2657L55.1802 22.7769L55.1496 22.7233L55.1168 22.671L52.5757 24.2657ZM52.5987 24.3058L49.9941 25.7946L49.9989 25.8029L52.5987 24.3058ZM52.7823 24.9732L49.7829 25.0339L49.7831 25.0385L52.7823 24.9732ZM52.6093 25.689L55.2307 27.1479L55.2344 27.1411L52.6093 25.689ZM51.9176 26.276L50.9097 23.4504L50.8353 23.4769L50.7625 23.5073L51.9176 26.276ZM50.469 26.3144V23.3144H46.3719L47.609 27.2202L50.469 26.3144ZM51.3555 27.828L49.1614 29.874L50.051 30.828H51.3555V27.828ZM52.4698 27.828L52.6644 24.8343L52.5672 24.828H52.4698V27.828ZM52.5333 27.8322L52.9591 24.8625L52.844 24.846L52.728 24.8385L52.5333 27.8322ZM52.5457 27.8339L53.1235 24.8901L53.0478 24.8752L52.9714 24.8643L52.5457 27.8339ZM52.5728 27.8392L51.995 30.7831L52.0065 30.7853L52.018 30.7875L52.5728 27.8392ZM52.5822 27.841L53.3119 24.9311L53.225 24.9093L53.137 24.8928L52.5822 27.841ZM52.594 27.844L53.4787 24.9774L53.4018 24.9536L53.3237 24.9341L52.594 27.844ZM52.6016 27.8463L51.7169 30.7129L51.7937 30.7366L51.8717 30.7562L52.6016 27.8463ZM52.6181 27.8505L53.3844 24.95L53.3662 24.9452L53.348 24.9406L52.6181 27.8505ZM53.3786 28.4074L55.9192 26.8119L55.9181 26.8102L53.3786 28.4074ZM53.58 29.0883L50.5807 29.1549L50.5807 29.1554L53.58 29.0883ZM53.4087 29.7799L50.7886 28.3186L50.7869 28.3217L53.4087 29.7799ZM52.6623 30.3899L51.7122 27.5443L51.659 27.5621L51.6065 27.5819L52.6623 30.3899ZM52.6528 30.3935L51.597 27.5854L51.5712 27.5951L51.5456 27.6053L52.6528 30.3935ZM51.5038 30.4283V27.4283H49.8471L48.9647 28.8304L51.5038 30.4283ZM50.8998 31.388L48.3608 29.7901L46.2891 33.082L49.9992 34.2496L50.8998 31.388ZM50.9299 31.3975L51.9463 28.5749L51.8888 28.5542L51.8305 28.5358L50.9299 31.3975ZM50.9528 31.4057L51.9931 28.5919L51.9812 28.5875L51.9693 28.5832L50.9528 31.4057ZM50.964 31.4099L49.9237 34.2237L49.945 34.2316L49.9664 34.2391L50.964 31.4099ZM51.6674 32.1357L54.4866 31.1098L54.4849 31.1053L51.6674 32.1357ZM51.7569 32.6199L48.7578 32.6931L48.7579 32.6958L51.7569 32.6199ZM51.6951 33.1048L48.82 32.2484L48.8193 32.2506L51.6951 33.1048ZM50.9781 33.9257L49.8525 31.1449L49.8369 31.1512L49.8213 31.1577L50.9781 33.9257ZM50.964 33.9316L52.0041 36.7455L52.0629 36.7238L52.1208 36.6996L50.964 33.9316ZM50.9416 33.9399L51.8717 36.7921L51.9271 36.774L51.9817 36.7538L50.9416 33.9399ZM50.8945 33.9552L51.6239 36.8652L51.7253 36.8398L51.8246 36.8074L50.8945 33.9552ZM50.8828 33.9582L51.5666 36.8792L51.5894 36.8739L51.6122 36.8682L50.8828 33.9582ZM50.2841 33.9712V30.9712H47.2241L47.2847 34.0305L50.2841 33.9712ZM51.4814 43.496L54.3983 42.7946L54.3982 42.7944L51.4814 43.496ZM54.7537 52.3995L52.0773 53.7547L52.9101 55.3995H54.7537V52.3995ZM55.4377 52.4178L54.6699 55.3179L54.715 55.3298L54.7604 55.3403L55.4377 52.4178ZM55.4454 52.4195L54.7681 55.3421L54.8024 55.35L54.8368 55.3572L55.4454 52.4195ZM56.4184 53.0308L58.9784 51.4667L58.9461 51.4137L58.9115 51.3621L56.4184 53.0308ZM56.4408 53.0674L53.8808 54.6315L53.8853 54.6389L53.8899 54.6464L56.4408 53.0674ZM56.6209 53.668L59.6207 53.6289L59.6205 53.6146L59.6201 53.6003L56.6209 53.668ZM56.442 54.3135L53.8901 52.7361L53.8868 52.7415L56.442 54.3135ZM56.14 54.6525L54.2595 52.3151L51.8653 54.2412L53.8483 56.5885L56.14 54.6525ZM56.1541 58.7434L53.8771 56.7902L51.8725 59.127L54.2606 61.0703L56.1541 58.7434ZM56.4184 59.031L58.9785 57.4671L58.9457 57.4133L58.9106 57.361L56.4184 59.031ZM56.4408 59.0676L53.8807 60.6316L53.8853 60.6391L53.8899 60.6466L56.4408 59.0676ZM56.6209 59.6683L59.6207 59.6291L59.6205 59.6148L59.6201 59.6005L56.6209 59.6683ZM56.442 60.3138L53.8901 58.7363L53.889 58.7382L56.442 60.3138ZM55.4418 60.9811L54.7544 58.0609L54.7023 58.0732L54.6506 58.0873L55.4418 60.9811ZM55.4354 60.9829L56.0263 63.9241L56.1273 63.9038L56.2266 63.8767L55.4354 60.9829ZM55.4295 60.9841L54.8386 58.0428L54.7687 58.0569L54.6997 58.0742L55.4295 60.9841ZM55.4177 60.987L56.1146 63.905L56.1311 63.901L56.1475 63.8969L55.4177 60.987ZM55.4054 60.99L55.9944 63.9316L56.0485 63.9207L56.1022 63.9079L55.4054 60.99ZM55.3936 60.9923L55.668 63.9797L55.8266 63.9652L55.9827 63.9339L55.3936 60.9923ZM55.3871 60.9929L55.1126 58.0055L54.9539 58.0201L54.7977 58.0514L55.3871 60.9929ZM55.3812 60.9941L55.9215 63.945L55.9461 63.9405L55.9707 63.9356L55.3812 60.9941ZM55.3747 60.9953L55.6709 63.9806L55.7937 63.9684L55.9151 63.9462L55.3747 60.9953ZM55.3689 60.9959L55.6432 63.9833L55.6541 63.9823L55.665 63.9812L55.3689 60.9959ZM55.3624 60.9965L55.088 58.009L54.9557 58.0212L54.825 58.045L55.3624 60.9965ZM55.3559 60.9976L55.5439 63.9917L55.7199 63.9807L55.8933 63.9491L55.3559 60.9976ZM55.3371 60.9988L55.1491 58.0047L55.0931 58.0082L55.0373 58.0138L55.3371 60.9988ZM55.3312 60.9994V63.9994H55.4814L55.6309 63.9844L55.3312 60.9994ZM55.3247 60.9994V57.9994H55.1881L55.052 58.0118L55.3247 60.9994ZM55.3182 61V64H55.4549L55.591 63.9876L55.3182 61ZM31.5592 53.0674L34.4328 53.9292L29.0084 51.4884L31.5592 53.0674ZM31.3791 53.668L28.3799 53.6003L28.3795 53.6141L28.3794 53.6279L31.3791 53.668ZM31.5592 59.0676L34.4328 59.9294L29.0084 57.4887L31.5592 59.0676ZM31.3791 59.6683L28.3799 59.6005L28.3795 59.6143L28.3794 59.6282L31.3791 59.6683ZM32.6947 58H32.6877V64H32.6947V58ZM32.6877 58H32.6818V64H32.6877V58ZM32.9546 58.0124L32.9481 58.0118L32.4024 63.987L32.4089 63.9876L32.9546 58.0124ZM32.6753 57.9994H32.6688V63.9994H32.6753V57.9994ZM32.9687 58.0144L32.9628 58.0138L32.3631 63.9838L32.369 63.9844L32.9687 58.0144ZM32.8509 58.0047L32.8321 58.0035L32.4561 63.9917L32.475 63.9929L32.8509 58.0047ZM33.1814 58.0461L33.1749 58.045L32.1004 63.948L32.1068 63.9491L33.1814 58.0461ZM32.9122 58.009L32.9057 58.0084L32.3566 63.9833L32.3631 63.9839L32.9122 58.009ZM32.9272 58.0105L32.9213 58.0099L32.3292 63.9806L32.3351 63.9812L32.9272 58.0105ZM33.1659 58.0444L33.1594 58.0432L32.0781 63.945L32.0846 63.9462L33.1659 58.0444ZM33.2079 58.0525L33.202 58.0513L32.0238 63.9345L32.0297 63.9357L33.2079 58.0525ZM32.8874 58.0055L32.881 58.0049L32.3319 63.9797L32.3384 63.9803L32.8874 58.0055ZM33.396 58.0981L33.3895 58.0963L31.8104 63.8848L31.8168 63.8866L33.396 58.0981ZM33.1637 58.044L33.1513 58.0416L32.0238 63.9347L32.0362 63.9371L33.1637 58.044ZM33.2932 58.0724L33.2761 58.0682L31.8649 63.8999L31.882 63.904L33.2932 58.0724ZM33.1614 58.0428L33.1555 58.0416L31.9737 63.9241L31.9796 63.9253L33.1614 58.0428ZM33.3557 58.089L33.3492 58.0873L31.7671 63.8749L31.7736 63.8767L33.3557 58.089ZM33.2422 58.0601C33.4517 58.1092 33.8296 58.2867 34.1069 58.7333L29.0092 61.8977C29.6597 62.9456 30.7063 63.6286 31.8741 63.9021L33.2422 58.0601ZM33.1447 62.8616L33.99 62.3348L30.8166 57.2427L29.9713 57.7695L33.1447 62.8616ZM29.8491 61.3622C30.4715 62.3725 31.4375 62.7553 31.9871 62.9003L33.5178 57.0988C33.6554 57.1352 33.8696 57.2087 34.1137 57.3605C34.3524 57.5089 34.6863 57.7749 34.9576 58.2152L29.8491 61.3622ZM32.7524 62.9996H55.2476V56.9996H32.7524V62.9996ZM56.0129 62.9003C56.5625 62.7553 57.5285 62.3725 58.1509 61.3622L53.0424 58.2152C53.3137 57.7749 53.6476 57.5089 53.8863 57.3605C54.1304 57.2087 54.3446 57.1351 54.4822 57.0988L56.0129 62.9003ZM58.143 61.375C58.3929 60.9739 58.6285 60.3958 58.6285 59.6889H52.6285C52.6285 59.0446 52.8417 58.5374 53.0503 58.2025L58.143 61.375ZM58.6277 59.6239C58.6143 59.0049 58.422 58.4987 58.2221 58.1405L52.983 61.0649C52.816 60.7658 52.6414 60.3186 52.6292 59.7539L58.6277 59.6239ZM58.0316 57.8421L58.0222 57.8291L53.1641 61.3503L53.1735 61.3633L58.0316 57.8421ZM58.0835 57.9169C57.4638 56.9943 56.557 56.6175 55.9338 56.4753L54.599 62.325C54.302 62.2572 53.613 62.0221 53.1028 61.2625L58.0835 57.9169ZM55.2664 56.4001H32.7336V62.4001H55.2664V56.4001ZM32.0662 56.4753C31.443 56.6175 30.5362 56.9943 29.9165 57.9169L34.8972 61.2625C34.387 62.0221 33.698 62.2572 33.401 62.325L32.0662 56.4753ZM29.978 57.8288L29.9686 57.8418L34.8263 61.3636L34.8357 61.3506L29.978 57.8288ZM29.7779 58.1405C29.5807 58.4939 29.3861 58.9999 29.3723 59.6219L35.3708 59.7548C35.3582 60.3236 35.1813 60.7706 35.017 61.0649L29.7779 58.1405ZM35.3215 60.2339L35.388 59.8742L29.4881 58.7831L29.4216 59.1428L35.3215 60.2339ZM34.0095 56.7732C34.1733 56.8739 34.3344 56.9995 34.4842 57.1528L30.1929 61.3462C30.4016 61.5598 30.6298 61.7386 30.8667 61.8842L34.0095 56.7732ZM34.3632 57.0357C34.2781 56.9579 34.21 56.8884 34.1566 56.8286L29.6811 60.8248C29.8808 61.0485 30.093 61.2612 30.314 61.4634L34.3632 57.0357ZM30.3644 56.2608L30.0271 56.4651L33.136 61.5969L33.4733 61.3926L30.3644 56.2608ZM34.0738 60.7011C33.971 60.8545 33.8545 60.9767 33.7394 61.0703L29.9523 56.4165C29.6253 56.6826 29.3323 56.9985 29.0894 57.361L34.0738 60.7011ZM34.1228 56.79C34.0091 56.6575 33.9801 56.5884 33.98 56.5881C33.9799 56.588 33.9814 56.5916 33.9836 56.5987C33.9858 56.6059 33.9886 56.616 33.9912 56.6286C33.9966 56.655 34 56.6856 34 56.7172H28C28 58.2919 28.6583 59.6353 29.569 60.6968L34.1228 56.79ZM34 56.7172C34 56.7496 33.9965 56.7791 33.9916 56.8029C33.9868 56.8261 33.9822 56.836 33.9843 56.831C33.9891 56.8194 34.0258 56.7378 34.1499 56.5913L29.5701 52.7149C28.6651 53.7842 28 55.1351 28 56.7172H34ZM33.7351 52.3113C33.8689 52.4184 33.9999 52.5601 34.1098 52.7378L29.0062 55.8927C29.268 56.3162 29.6004 56.687 29.9849 56.9949L33.7351 52.3113ZM33.1447 56.8613L33.99 56.3345L30.8166 51.2425L29.9713 51.7692L33.1447 56.8613ZM29.8491 55.362C30.4715 56.3723 31.4375 56.7551 31.9871 56.9001L33.5178 51.0986C33.6554 51.1349 33.8696 51.2084 34.1137 51.3602C34.3524 51.5087 34.6863 51.7746 34.9576 52.215L29.8491 55.362ZM32.7524 56.9993H55.2476V50.9993H32.7524V56.9993ZM56.0129 56.9001C56.5624 56.7551 57.5285 56.3723 58.1509 55.362L53.0424 52.215C53.3137 51.7746 53.6476 51.5086 53.8864 51.3602C54.1304 51.2084 54.3446 51.1349 54.4822 51.0986L56.0129 56.9001ZM58.143 55.3748C58.3929 54.9736 58.6285 54.3955 58.6285 53.6887H52.6285C52.6285 53.0445 52.8416 52.5373 53.0503 52.2022L58.143 55.3748ZM58.6277 53.6237C58.6143 53.0047 58.422 52.4985 58.2221 52.1403L52.983 55.0646C52.816 54.7655 52.6414 54.3184 52.6292 53.7537L58.6277 53.6237ZM58.0318 51.8422L58.0224 51.8292L53.1638 55.3497L53.1733 55.3627L58.0318 51.8422ZM58.0835 51.9167C57.4637 50.9941 56.5569 50.6173 55.9338 50.4751L54.599 56.3247C54.3021 56.257 53.613 56.0219 53.1028 55.2623L58.0835 51.9167ZM55.2664 50.3999H32.7336V56.3999H55.2664V50.3999ZM32.0662 50.4751C31.4431 50.6173 30.5363 50.9941 29.9165 51.9167L34.8972 55.2623C34.387 56.0219 33.698 56.257 33.401 56.3247L32.0662 50.4751ZM29.9778 51.8289L29.9684 51.8419L34.8265 55.363L34.8359 55.35L29.9778 51.8289ZM29.7779 52.1403C29.5807 52.4935 29.3861 52.9996 29.3723 53.6217L35.3708 53.7545C35.3582 54.3235 35.1812 54.7704 35.017 55.0646L29.7779 52.1403ZM35.3215 54.2337L35.388 53.874L29.4881 52.7829L29.4216 53.1425L35.3215 54.2337ZM33.996 50.7647C34.7032 51.1944 35.1961 51.984 35.1961 52.8997H29.1961C29.1961 54.1792 29.8833 55.2865 30.8801 55.8922L33.996 50.7647ZM35.1961 52.8997C35.1961 53.4675 35.0034 53.9986 34.6812 54.4197L29.9159 50.7738C29.4654 51.3626 29.1961 52.1039 29.1961 52.8997H35.1961ZM30.7449 50.0304L30.0279 50.4645L33.1353 55.5971L33.8523 55.163L30.7449 50.0304ZM34.0723 54.703C33.7863 55.129 33.405 55.3071 33.1632 55.3572L31.946 49.4819C30.7978 49.7198 29.7606 50.3609 29.0908 51.3586L34.0723 54.703ZM33.232 55.3421L33.2397 55.3403L31.8849 49.4953L31.8772 49.497L33.232 55.3421ZM33.3301 55.3179C33.1769 55.3584 32.9593 55.3995 32.6947 55.3995V49.3995C32.3383 49.3995 32.0324 49.4547 31.7945 49.5177L33.3301 55.3179ZM32.6947 55.3995H33.5212V49.3995H32.6947V55.3995ZM36.2362 53.6756C37.7685 50.4155 38.9274 47.1204 39.6974 43.7932L33.8519 42.4404C33.1844 45.3249 32.1712 48.219 30.8061 51.1234L36.2362 53.6756ZM39.6974 43.7933C40.45 40.5414 40.8326 37.2655 40.8389 33.977L34.8389 33.9654C34.8335 36.7928 34.5049 39.6188 33.8519 42.4404L39.6974 43.7933ZM37.8389 30.9712H37.2303V36.9712H37.8389V30.9712ZM37.2303 30.9712C37.4396 30.9712 37.6321 30.9971 37.8034 31.0372L36.4358 36.8792C36.6777 36.9358 36.9444 36.9712 37.2303 36.9712V30.9712ZM37.849 31.0482L37.8372 31.0453L36.3784 36.8652L36.3902 36.8682L37.849 31.0482ZM38.0086 31.0937L37.9485 31.0748L36.147 36.7979L36.2071 36.8168L38.0086 31.0937ZM38.2924 31.2067L38.2859 31.2037L35.7967 36.663L35.8032 36.666L38.2924 31.2067ZM38.1761 31.1563L38.1602 31.1498L35.8906 36.704L35.9065 36.7105L38.1761 31.1563ZM38.152 31.1465C38.7466 31.3874 39.0605 31.8652 39.175 32.2279L33.4536 34.0349C33.7871 35.0909 34.5754 36.1711 35.8988 36.7073L38.152 31.1465ZM39.1613 32.1856L39.1525 32.159L33.4585 34.0506L33.4673 34.0772L39.1613 32.1856ZM39.1794 32.2443C39.2337 32.4256 39.2457 32.5784 39.2427 32.6958L33.2446 32.5441C33.2334 32.9875 33.2843 33.4734 33.4315 33.9653L39.1794 32.2443ZM39.2428 32.6934C39.2393 32.8369 39.2138 32.9931 39.1523 33.1621L33.514 31.1104C33.3442 31.5771 33.2563 32.0663 33.2446 32.5465L39.2428 32.6934ZM39.1507 33.1667C39.0233 33.5148 38.683 34.0118 38.0312 34.2408L36.042 28.5801C34.6944 29.0536 33.8832 30.101 33.5157 31.1059L39.1507 33.1667ZM38.1958 34.1774C37.9269 34.2901 37.635 34.3575 37.3278 34.3693L37.0986 28.3737C36.6678 28.3901 36.2534 28.4859 35.8774 28.6435L38.1958 34.1774ZM39.7689 29.8003L39.189 28.8572L34.0777 31.9995L34.6575 32.9426L39.7689 29.8003ZM36.6334 27.4283H35.5302V33.4283H36.6334V27.4283ZM35.5302 27.4283C35.8535 27.4283 36.1669 27.4909 36.455 27.6053L34.2405 33.1817C34.6416 33.341 35.0786 33.4283 35.5302 33.4283V27.4283ZM36.4037 27.5855L36.3943 27.5819L34.2824 33.1979L34.2918 33.2015L36.4037 27.5855ZM36.2869 27.5438C36.6649 27.6698 37.0022 27.9483 37.2082 28.3155L31.9756 31.2514C32.4818 32.1536 33.3171 32.8785 34.3898 33.236L36.2869 27.5438ZM37.2157 28.3289C37.3571 28.5839 37.4257 28.8677 37.4193 29.156L31.4208 29.0218C31.4038 29.7837 31.5878 30.5518 31.9681 31.2379L37.2157 28.3289ZM37.4192 29.159C37.4129 29.4287 37.34 29.702 37.1927 29.9539L32.0136 26.9246C31.6354 27.5711 31.4378 28.2955 31.4209 29.0188L37.4192 29.159ZM37.21 29.924L37.2264 29.8951L32.0128 26.9256L31.9963 26.9545L37.21 29.924ZM37.1691 29.9914C36.9459 30.3514 36.5807 30.6363 36.1504 30.7504L34.6134 24.9506C33.4968 25.2465 32.6171 25.9472 32.0701 26.8292L37.1691 29.9914ZM36.2465 30.7232L36.2582 30.7196L34.5291 24.9742L34.5173 24.9777L36.2465 30.7232ZM36.0908 30.7648L36.1032 30.7618L34.7089 24.9261L34.6965 24.9291L36.0908 30.7648ZM35.9604 30.7923L35.9698 30.7905L34.8611 24.8939L34.8517 24.8956L35.9604 30.7923ZM36.0145 30.7818L36.0521 30.7741L34.8541 24.8949L34.8164 24.9026L36.0145 30.7818ZM35.8792 30.8041L35.8916 30.8023L35.0394 24.8632L35.027 24.8649L35.8792 30.8041ZM35.6838 30.8248L35.7485 30.8201L35.312 24.836L35.2472 24.8407L35.6838 30.8248ZM35.5302 30.828H36.8082V24.828H35.5302V30.828ZM39.0383 29.8346C39.4573 29.369 39.8317 28.8502 40.1302 28.2757L34.8059 25.5094C34.7724 25.5739 34.7054 25.6799 34.5781 25.8214L39.0383 29.8346ZM40.1294 28.2773C40.304 27.9417 40.451 27.5909 40.5673 27.2269L34.8516 25.4018C34.8418 25.4324 34.8276 25.4678 34.8068 25.5078L40.1294 28.2773ZM37.7094 23.3144H36.2737V29.3144H37.7094V23.3144ZM36.2737 23.3144C36.6211 23.3144 36.9558 23.3867 37.2584 23.5159L34.9016 29.0337C35.3232 29.2137 35.7886 29.3144 36.2737 29.3144V23.3144ZM37.1031 23.4546C37.5044 23.6002 37.8248 23.8898 38.0175 24.2387L32.7651 27.1392C33.2415 28.0019 34.0305 28.7226 35.057 29.095L37.1031 23.4546ZM38.0178 24.2393C38.1656 24.507 38.222 24.7812 38.2171 25.0343L32.2182 24.9179C32.2039 25.6565 32.3745 26.4315 32.7648 27.1387L38.0178 24.2393ZM38.2168 25.0466C38.2108 25.3024 38.14 25.584 37.9708 25.8555L32.8789 22.6817C32.4483 23.3726 32.2363 24.149 32.2185 24.9056L38.2168 25.0466ZM37.9715 25.8543C37.7727 26.1737 37.4332 26.4742 36.98 26.6137L35.2142 20.8794C34.1665 21.202 33.3749 21.8852 32.8782 22.6829L37.9715 25.8543ZM37.0486 26.5917L37.0557 26.5893L35.1527 20.8991L35.1456 20.9015L37.0486 26.5917ZM37.1023 26.5733C36.8799 26.6517 36.5986 26.7141 36.2737 26.7141V20.7141C35.8299 20.7141 35.4355 20.7989 35.1061 20.9151L37.1023 26.5733ZM36.2737 26.7141H36.581V20.7141H36.2737V26.7141ZM39.581 23.7141V16.5132H33.581V23.7141H39.581ZM39.581 16.5132V16.5002H33.581V16.5132H39.581ZM39.581 16.5002C39.581 17.872 38.4707 19 37.0796 19V13C35.1386 13 33.581 14.5768 33.581 16.5002H39.581ZM37.0796 19H37.0925V13H37.0796V19ZM37.0925 19H39.2317V13H37.0925V19ZM39.2317 19H39.2446V13H39.2317V19ZM39.2446 19C37.8534 19 36.7432 17.872 36.7432 16.5002H42.7432C42.7432 14.5768 41.1856 13 39.2446 13V19ZM36.7432 16.5002V16.5132H42.7432V16.5002H36.7432ZM36.7432 16.5132V19.1041H42.7432V16.5132H36.7432ZM36.7919 19.6425C36.964 20.5857 37.5164 21.498 38.4552 22.0491L41.4927 16.8748C42.2102 17.296 42.586 17.9708 42.6945 18.5656L36.7919 19.6425ZM38.3853 22.0068L38.4118 22.0233L41.5891 16.9336L41.5626 16.9171L38.3853 22.0068ZM38.6553 22.16C39.1492 22.4078 39.6678 22.5203 40.1546 22.5314L40.2913 16.533C40.6227 16.5406 40.9859 16.6165 41.3456 16.797L38.6553 22.16ZM40.1643 22.5317C40.7288 22.5427 41.3002 22.4195 41.8241 22.1603L39.1634 16.7825C39.5154 16.6083 39.8984 16.5253 40.2816 16.5328L40.1643 22.5317ZM41.8201 22.1623C42.7861 21.6861 43.4317 20.8249 43.6916 19.8637L37.8997 18.2972C38.0549 17.7234 38.4721 17.1232 39.1674 16.7805L41.8201 22.1623ZM43.7957 19.0804V16.5132H37.7957V19.0804H43.7957ZM43.7957 16.5132V16.5002H37.7957V16.5132H43.7957ZM43.7957 16.5002C43.7957 17.872 42.6855 19 41.2943 19V13C39.3533 13 37.7957 14.5768 37.7957 16.5002H43.7957ZM41.2943 19H41.3072V13H41.2943V19ZM41.3072 19H46.6922V13H41.3072V19ZM46.6922 19H46.7051V13H46.6922V19ZM46.7051 19C45.3139 19 44.2037 17.872 44.2037 16.5002H50.2037C50.2037 14.5768 48.6461 13 46.7051 13V19ZM44.2037 16.5002V16.5132H50.2037V16.5002H44.2037ZM44.2037 16.5132V19.0804H50.2037V16.5132H44.2037ZM44.3078 19.8637C44.5677 20.8249 45.2133 21.6861 46.1793 22.1623L48.8321 16.7805C49.5273 17.1232 49.9445 17.7234 50.0997 18.2972L44.3078 19.8637ZM46.1753 22.1603C46.6992 22.4195 47.2706 22.5427 47.8351 22.5317L47.7179 16.5328C48.101 16.5253 48.4841 16.6083 48.8361 16.7825L46.1753 22.1603ZM47.8449 22.5314C48.3316 22.5203 48.8502 22.4078 49.3441 22.16L46.6538 16.797C47.0135 16.6165 47.3767 16.5406 47.7081 16.533L47.8449 22.5314ZM49.5876 22.0234L49.6141 22.0068L46.4369 16.9171L46.4104 16.9336L49.5876 22.0234ZM49.5442 22.0491C50.4831 21.498 51.0354 20.5857 51.2075 19.6425L45.3049 18.5656C45.4134 17.9709 45.7892 17.296 46.5067 16.8748L49.5442 22.0491ZM51.2562 19.1041V16.5132H45.2562V19.1041H51.2562ZM51.2562 16.5132V16.5002H45.2562V16.5132H51.2562ZM51.2562 16.5002C51.2562 17.872 50.146 19 48.7548 19V13C46.8138 13 45.2562 14.5768 45.2562 16.5002H51.2562ZM48.7548 19H48.7678V13H48.7548V19ZM48.7678 19H50.9069V13H48.7678V19ZM50.9069 19H50.9199V13H50.9069V19ZM50.9199 19C49.5287 19 48.4184 17.872 48.4184 16.5002H54.4184C54.4184 14.5768 52.8608 13 50.9199 13V19ZM48.4184 16.5002V16.5132H54.4184V16.5002H48.4184ZM48.4184 16.5132V23.7141H54.4184V16.5132H48.4184ZM51.4184 26.7141H51.7263V20.7141H51.4184V26.7141ZM51.7263 26.7141C51.4425 26.7141 51.1687 26.6661 50.9143 26.579L52.8574 20.9023C52.5028 20.781 52.1208 20.7141 51.7263 20.7141V26.7141ZM50.9343 26.5857L50.9449 26.5893L52.848 20.8991L52.8374 20.8956L50.9343 26.5857ZM51.0167 26.6123C50.5859 26.4802 50.2443 26.1944 50.0347 25.8604L55.1168 22.671C54.6069 21.8586 53.8039 21.1913 52.7761 20.8761L51.0167 26.6123ZM49.9712 25.7545L49.9942 25.7946L55.2032 22.8171L55.1802 22.7769L49.9712 25.7545ZM49.9989 25.8029C49.8547 25.5524 49.7881 25.2892 49.783 25.0339L55.7817 24.9125C55.7671 24.1918 55.5746 23.462 55.1985 22.8088L49.9989 25.8029ZM49.7831 25.0385C49.7776 24.7892 49.8319 24.5121 49.9841 24.2369L55.2344 27.1411C55.6304 26.4253 55.7977 25.6438 55.7816 24.9079L49.7831 25.0385ZM49.9879 24.2301C50.1697 23.9034 50.4881 23.6008 50.9097 23.4504L52.9256 29.1016C53.9829 28.7244 54.7616 27.9906 55.2307 27.1478L49.9879 24.2301ZM50.7625 23.5073C51.0574 23.3843 51.385 23.3144 51.7263 23.3144V29.3144C52.203 29.3144 52.659 29.2173 53.0727 29.0447L50.7625 23.5073ZM51.7263 23.3144H50.469V29.3144H51.7263V23.3144ZM47.609 27.2202C47.9253 28.219 48.451 29.1122 49.1614 29.874L53.5495 25.782C53.4394 25.6639 53.3729 25.5473 53.3289 25.4086L47.609 27.2202ZM51.3555 30.828H52.4698V24.828H51.3555V30.828ZM52.2751 30.8217L52.3387 30.8258L52.728 24.8385L52.6644 24.8343L52.2751 30.8217ZM52.1076 30.8018L52.12 30.8036L52.9714 24.8643L52.9591 24.8625L52.1076 30.8018ZM51.9679 30.7778L51.995 30.7831L53.1506 24.8954L53.1235 24.8901L51.9679 30.7778ZM52.018 30.7875L52.0274 30.7893L53.137 24.8928L53.1276 24.891L52.018 30.7875ZM51.8525 30.7509L51.8643 30.7539L53.3237 24.9341L53.3119 24.9311L51.8525 30.7509ZM51.7093 30.7106L51.7169 30.7129L53.4863 24.9797L53.4787 24.9774L51.7093 30.7106ZM51.8717 30.7562L51.8882 30.7603L53.348 24.9406L53.3315 24.9365L51.8717 30.7562ZM51.8518 30.7509C51.4137 30.6352 51.0551 30.3479 50.8391 30.0045L55.9181 26.8102C55.3761 25.9483 54.5065 25.2464 53.3844 24.95L51.8518 30.7509ZM50.8381 30.0029C50.6637 29.7251 50.5868 29.4299 50.5807 29.1549L56.5792 29.0217C56.5625 28.2695 56.3503 27.4983 55.9192 26.8119L50.8381 30.0029ZM50.5807 29.1554C50.5743 28.8687 50.6422 28.5812 50.7886 28.3186L56.0287 31.2412C56.413 30.5522 56.5962 29.7816 56.5792 29.0212L50.5807 29.1554ZM50.7869 28.3217C50.9913 27.9541 51.329 27.6723 51.7122 27.5443L53.6123 33.2355C54.6889 32.8761 55.5258 32.1454 56.0305 31.238L50.7869 28.3217ZM51.6065 27.5819L51.597 27.5854L53.7086 33.2016L53.7181 33.198L51.6065 27.5819ZM51.5456 27.6053C51.8337 27.4909 52.1471 27.4283 52.4704 27.4283V33.4283C52.9219 33.4283 53.359 33.341 53.7601 33.1817L51.5456 27.6053ZM52.4704 27.4283H51.5038V33.4283H52.4704V27.4283ZM48.9647 28.8304L48.3608 29.7901L53.4389 32.9859L54.0428 32.0262L48.9647 28.8304ZM49.9992 34.2496L50.0293 34.2591L51.8305 28.5358L51.8004 28.5264L49.9992 34.2496ZM49.9134 34.22L49.9363 34.2283L51.9693 28.5832L51.9463 28.5749L49.9134 34.22ZM49.9126 34.2196L49.9237 34.2237L52.0043 28.596L51.9931 28.5919L49.9126 34.2196ZM49.9664 34.2391C49.3194 34.011 48.9788 33.5184 48.8499 33.1661L54.4849 31.1053C54.1159 30.0962 53.3021 29.0532 51.9616 28.5806L49.9664 34.2391ZM48.8483 33.1615C48.7866 32.992 48.7613 32.8357 48.7578 32.6931L54.756 32.5468C54.7443 32.0664 54.6566 31.577 54.4866 31.1098L48.8483 33.1615ZM48.7579 32.6958C48.7548 32.574 48.7675 32.4245 48.82 32.2484L54.5703 33.9612C54.7146 33.4768 54.7673 32.9919 54.756 32.5441L48.7579 32.6958ZM48.8193 32.2506C48.923 31.9015 49.2302 31.3968 49.8525 31.1449L52.1037 36.7065C53.476 36.1511 54.2553 35.0215 54.5709 33.959L48.8193 32.2506ZM49.8213 31.1577L49.8072 31.1636L52.1208 36.6996L52.1349 36.6937L49.8213 31.1577ZM49.9239 31.1177L49.9015 31.126L51.9817 36.7538L52.0041 36.7455L49.9239 31.1177ZM50.0115 31.0877L49.9645 31.1031L51.8246 36.8074L51.8717 36.7921L50.0115 31.0877ZM50.1652 31.0453L50.1534 31.0482L51.6122 36.8682L51.6239 36.8652L50.1652 31.0453ZM50.199 31.0372C50.3814 30.9945 50.5719 30.9712 50.7703 30.9712V36.9712C51.0453 36.9712 51.3135 36.9384 51.5666 36.8792L50.199 31.0372ZM50.7703 30.9712H50.2841V36.9712H50.7703V30.9712ZM47.2847 34.0305C47.3541 37.5365 47.7784 40.9292 48.5646 44.1976L54.3982 42.7944C53.7187 39.9692 53.3448 37.0085 53.2835 33.9118L47.2847 34.0305ZM48.5646 44.1973C49.3635 47.5202 50.5354 50.7097 52.0773 53.7547L57.4302 51.0442C56.0994 48.4161 55.0886 45.6656 54.3983 42.7946L48.5646 44.1973ZM54.7537 55.3995H55.3053V49.3995H54.7537V55.3995ZM55.3053 55.3995C55.0407 55.3995 54.8231 55.3584 54.6699 55.3179L56.2055 49.5177C55.9676 49.4547 55.6617 49.3995 55.3053 49.3995V55.3995ZM54.7604 55.3403L54.7681 55.3421L56.1227 49.497L56.115 49.4952L54.7604 55.3403ZM54.8368 55.3572C54.5977 55.3076 54.2138 55.1305 53.9253 54.6994L58.9115 51.3621C58.2404 50.3594 57.1996 49.7193 56.054 49.4819L54.8368 55.3572ZM53.8584 54.5948L53.8808 54.6315L59.0008 51.5034L58.9784 51.4667L53.8584 54.5948ZM53.8899 54.6464C53.7263 54.382 53.6292 54.0677 53.6217 53.7358L59.6201 53.6003C59.6032 52.8514 59.3849 52.1237 58.9916 51.4884L53.8899 54.6464ZM53.6212 53.7072C53.6168 53.3724 53.7079 53.0309 53.8902 52.7361L58.9938 55.8909C59.4221 55.1981 59.6309 54.4149 59.6207 53.6289L53.6212 53.7072ZM53.8868 52.7415C53.9981 52.5607 54.129 52.42 54.2595 52.3151L58.0205 56.99C58.4006 56.6842 58.734 56.3132 58.9971 55.8855L53.8868 52.7415ZM53.8483 56.5885C53.9734 56.7367 54.0106 56.8191 54.0157 56.8312C54.0178 56.8364 54.0133 56.8266 54.0084 56.8032C54.0035 56.7794 54 56.7497 54 56.7172H60C60 55.1331 59.3331 53.7836 58.4317 52.7165L53.8483 56.5885ZM54 56.7172C54 56.6852 54.0034 56.6545 54.0089 56.6281C54.0115 56.6155 54.0142 56.6055 54.0164 56.5984C54.0186 56.5913 54.0201 56.5878 54.02 56.5881C54.0196 56.5888 53.9905 56.658 53.8771 56.7902L58.4311 60.6967C59.3407 59.6363 60 58.2923 60 56.7172H54ZM54.2606 61.0703C54.1455 60.9766 54.029 60.8545 53.9262 60.7011L58.9106 57.361C58.6677 56.9985 58.3747 56.6826 58.0477 56.4165L54.2606 61.0703ZM53.8583 60.595L53.8807 60.6316L59.0009 57.5037L58.9785 57.4671L53.8583 60.595ZM53.8899 60.6466C53.7263 60.3822 53.6292 60.068 53.6217 59.736L59.6201 59.6005C59.6032 58.8516 59.3849 58.124 58.9916 57.4887L53.8899 60.6466ZM53.6212 59.7074C53.6168 59.3726 53.7079 59.0311 53.8902 58.7363L58.9938 61.8912C59.4221 61.1983 59.6309 60.4151 59.6207 59.6291L53.6212 59.7074ZM53.889 58.7382C54.1679 58.2863 54.5494 58.1092 54.7544 58.0609L56.1293 63.9013C57.2926 63.6274 58.3428 62.946 58.995 61.8893L53.889 58.7382ZM54.6506 58.0873L54.6441 58.0891L56.2266 63.8767L56.2331 63.8749L54.6506 58.0873ZM54.8445 58.0416L54.8386 58.0428L56.0204 63.9253L56.0263 63.9241L54.8445 58.0416ZM54.6997 58.0742L54.6879 58.0771L56.1475 63.8969L56.1593 63.8939L54.6997 58.0742ZM54.7209 58.0691L54.7085 58.072L56.1022 63.9079L56.1146 63.905L54.7209 58.0691ZM54.8163 58.0484L54.8045 58.0507L55.9827 63.9339L55.9944 63.9316L54.8163 58.0484ZM55.1191 58.0049L55.1126 58.0055L55.6616 63.9803L55.668 63.9797L55.1191 58.0049ZM54.7977 58.0514L54.7918 58.0526L55.9707 63.9356L55.9766 63.9344L54.7977 58.0514ZM54.8409 58.0432L54.8344 58.0443L55.9151 63.9462L55.9215 63.945L54.8409 58.0432ZM55.0786 58.0099L55.0727 58.0105L55.665 63.9812L55.6709 63.9806L55.0786 58.0099ZM55.0945 58.0084L55.088 58.009L55.6368 63.9839L55.6432 63.9833L55.0945 58.0084ZM54.825 58.045L54.8185 58.0462L55.8933 63.9491L55.8998 63.9479L54.825 58.045ZM55.1679 58.0035L55.1491 58.0047L55.5251 63.9929L55.5439 63.9917L55.1679 58.0035ZM55.0373 58.0138L55.0314 58.0144L55.6309 63.9844L55.6368 63.9838L55.0373 58.0138ZM55.3312 57.9994H55.3247V63.9994H55.3312V57.9994ZM55.052 58.0118L55.0455 58.0124L55.591 63.9876L55.5974 63.987L55.052 58.0118ZM55.3182 58H55.3053V64H55.3182V58ZM55.3053 58H32.6947V64H55.3053V58ZM34.3783 53.7358C34.3708 54.0678 34.2737 54.382 34.1101 54.6464L29.0084 51.4884C28.6151 52.1237 28.3968 52.8513 28.3799 53.6003L34.3783 53.7358ZM28.6857 52.2056L28.5055 52.8062L34.2526 54.5298L34.4328 53.9292L28.6857 52.2056ZM34.1099 52.7379C34.2975 53.0414 34.3832 53.3779 34.3788 53.7081L28.3794 53.6279C28.3691 54.3987 28.5725 55.1911 29.0062 55.8927L34.1099 52.7379ZM28.4876 54.4674L28.6665 55.1147L34.4496 53.5159L34.2706 52.8686L28.4876 54.4674ZM34.3783 59.736C34.3708 60.068 34.2737 60.3822 34.1101 60.6466L29.0084 57.4887C28.6151 58.1239 28.3968 58.8515 28.3799 59.6005L34.3783 59.736ZM28.6857 58.2058L28.5055 58.8065L34.2526 60.5301L34.4328 59.9294L28.6857 58.2058ZM34.1099 58.7381C34.2975 59.0417 34.3832 59.3782 34.3788 59.7083L28.3794 59.6282C28.3691 60.3989 28.5725 61.1913 29.0062 61.8929L34.1099 58.7381ZM28.4876 60.4677L28.6665 61.1149L34.4496 59.5161L34.2706 58.8688L28.4876 60.4677Z" fill="white" mask="url(#path-8-outside-1_1_3297)"/>
</svg>
