<svg width="62" height="54" viewBox="0 0 62 54" fill="none" xmlns="http://www.w3.org/2000/svg">
<path fill-rule="evenodd" clip-rule="evenodd" d="M19.7262 29.3058C19.7262 19.5968 27.5968 11.7262 37.3058 11.7262C47.0147 11.7262 54.8854 19.5968 54.8854 29.3058C54.8854 39.0147 47.0147 46.8854 37.3058 46.8854C27.5968 46.8854 19.7262 39.0147 19.7262 29.3058ZM18.1975 29.3058C18.1975 18.7526 26.7526 10.1975 37.3058 10.1975C47.859 10.1975 56.4141 18.7526 56.4141 29.3058C56.4141 39.859 47.859 48.4141 37.3058 48.4141C26.7526 48.4141 18.1975 39.859 18.1975 29.3058Z" fill="#FAA515" stroke="#FAA515"/>
<path fill-rule="evenodd" clip-rule="evenodd" d="M60.5447 33.9282C61.459 29.332 60.9897 24.5679 59.1964 20.2383C57.403 15.9088 54.3661 12.2082 50.4696 9.60467C46.5731 7.00111 41.992 5.61147 37.3057 5.61147H3.60959L7.16897 2.05209C7.46746 1.7536 7.46746 1.26965 7.16897 0.971157C6.87048 0.672668 6.38653 0.672668 6.08804 0.971157L1.22387 5.83533C0.925377 6.13382 0.925377 6.61777 1.22387 6.91626L6.08804 11.7804C6.38653 12.0789 6.87048 12.0789 7.16897 11.7804C7.46746 11.4819 7.46746 10.998 7.16897 10.6995L3.60959 7.14013H37.3057C41.6897 7.14013 45.9752 8.44012 49.6203 10.8757C53.2654 13.3113 56.1064 16.7731 57.7841 20.8233C59.4617 24.8736 59.9007 29.3303 59.0454 33.63C58.1902 37.9297 56.0791 41.8793 52.9792 44.9792C49.8793 48.0791 45.9297 50.1902 41.63 51.0454C37.3303 51.9007 32.8736 51.4617 28.8233 49.7841C24.7731 48.1064 21.3113 45.2654 18.8757 41.6203C16.4401 37.9752 15.1401 33.6897 15.1401 29.3057C15.1401 28.8836 14.7979 28.5414 14.3758 28.5414C13.9537 28.5414 13.6115 28.8836 13.6115 29.3057C13.6115 33.992 15.0011 38.5731 17.6047 42.4696C20.2082 46.3661 23.9088 49.403 28.2383 51.1964C32.5679 52.9897 37.332 53.459 41.9282 52.5447C46.5245 51.6305 50.7464 49.3738 54.0601 46.0601C57.3738 42.7464 59.6305 38.5245 60.5447 33.9282Z" fill="#142A63" stroke="#142A63"/>
</svg>
