<svg width="84" height="101" viewBox="0 0 84 101" fill="none" xmlns="http://www.w3.org/2000/svg">
<path d="M12.2344 94.6076C28.5469 103.131 54.9979 103.131 71.3105 94.6076C87.623 86.0846 87.623 72.2696 71.3105 63.7466C54.9979 55.2236 28.5469 55.2266 12.2344 63.7466C-4.07813 72.2666 -4.07813 86.0725 12.2344 94.6076Z" fill="#FAA515"/>
<path d="M29.6815 19.0252L57.9633 2.69748C58.6755 2.28527 59.2666 2.53987 59.3848 3.2582C59.3188 2.80707 59.158 2.37502 58.913 1.99052C58.668 1.60602 58.3443 1.27779 57.9633 1.02743L56.7873 0.345469C56.3397 0.11836 55.8449 0 55.343 0C54.8411 0 54.3463 0.11836 53.8988 0.345469L25.614 16.6731C25.1884 16.9414 24.8371 17.3125 24.5926 17.7522L28.6601 20.1011C28.9025 19.6607 29.2542 19.2901 29.6815 19.0252Z" fill="#0D1E42"/>
<path d="M24.1718 86.2665C24.1987 86.7678 24.3437 87.2555 24.595 87.6901C24.8462 88.1246 25.1966 88.4936 25.6175 88.7671L26.7935 89.4551C27.2011 89.6595 27.6472 89.7754 28.1027 89.7953C28.5582 89.8151 29.0128 89.7384 29.4365 89.5703C28.7546 89.8279 28.2241 89.443 28.2241 88.6185V21.5256C28.2423 21.0234 28.3883 20.5341 28.6485 20.1041L24.581 17.7551C24.322 18.1866 24.177 18.6768 24.1597 19.1797L24.1718 86.2665Z" fill="#0D1E42"/>
<path d="M29.6818 19.0252L57.9635 2.69747C58.7607 2.23676 59.4062 2.60957 59.4062 3.53098V70.6178C59.3789 71.1186 59.2341 71.6059 58.9835 72.0404C58.7328 72.4748 58.3834 72.8441 57.9635 73.1184L29.6818 89.4551C28.8816 89.9128 28.2391 89.54 28.2391 88.6186V21.5257C28.2657 21.0247 28.4102 20.5371 28.6609 20.1026C28.9116 19.6681 29.2614 19.2989 29.6818 19.0252ZM29.5939 79.1075C29.5939 79.6622 29.9788 79.8865 30.4608 79.6076L57.1846 64.1771C57.4397 64.0119 57.6517 63.7883 57.803 63.5247C57.9543 63.2611 58.0405 62.9652 58.0544 62.6616V13.036C58.0544 12.4813 57.6665 12.2571 57.1846 12.5359L56.1207 13.1421L30.4608 27.9604C30.206 28.1257 29.9944 28.3494 29.8437 28.613C29.6929 28.8766 29.6073 29.1724 29.5939 29.4758V79.1075Z" fill="#1E408C"/>
<path d="M43.8239 13.4057C43.6755 13.5014 43.552 13.6311 43.4634 13.7839C43.3749 13.9367 43.3239 14.1083 43.3147 14.2847C43.3147 14.609 43.542 14.7424 43.8239 14.5878C43.9714 14.4913 44.0941 14.3615 44.182 14.2088C44.27 14.0561 44.3207 13.8848 44.3301 13.7088C44.3301 13.3784 44.1028 13.242 43.8239 13.4057Z" fill="#0D1E42"/>
<path d="M43.8243 74.2761C43.242 74.6583 42.7578 75.1721 42.4109 75.776C42.0639 76.38 41.8638 77.057 41.8269 77.7526C41.8269 79.0316 42.7362 79.5529 43.8334 78.9104C44.4171 78.5297 44.9029 78.0168 45.2515 77.4133C45.6001 76.8099 45.8017 76.1328 45.8398 75.4369C45.8308 74.1548 44.9306 73.6366 43.8243 74.2761Z" fill="#0D1E42"/>
<path d="M39.0237 18.5705C38.7279 18.7631 38.4816 19.0225 38.3047 19.3279C38.1278 19.6333 38.0252 19.9761 38.0053 20.3285C38.0053 20.9771 38.463 21.2377 39.0237 20.9165C39.3193 20.7233 39.5653 20.4632 39.7417 20.1572C39.9181 19.8513 40.02 19.5081 40.0391 19.1555C40.0391 18.5069 39.5844 18.2462 39.0237 18.5705Z" fill="#0D1E42"/>
<path d="M41.5086 18.3491C41.5086 18.7826 41.8299 18.9553 42.23 18.7159L48.9162 14.8545C49.1244 14.7243 49.2987 14.5465 49.4247 14.3357C49.5506 14.1249 49.6246 13.8871 49.6406 13.6421C49.6406 13.2087 49.3163 13.0359 48.9162 13.2754L42.23 17.1368C42.022 17.2669 41.8481 17.4448 41.7226 17.6557C41.5971 17.8665 41.5238 18.1043 41.5086 18.3491Z" fill="#0D1E42"/>
<path d="M53.9872 14.3817L57.1878 12.5359C57.6667 12.257 58.0547 12.4813 58.0547 13.036V62.6768C58.0406 62.98 57.9547 63.2755 57.804 63.539C57.6532 63.8025 57.4421 64.0264 57.1878 64.1922L53.9872 66.0411V14.3817Z" fill="#0D1E42"/>
<path d="M29.5908 79.1075V75.4158L53.9869 61.3311L57.7998 63.5285C57.6566 63.793 57.4478 64.0163 57.1936 64.1771L30.4637 79.6076C29.9818 79.8865 29.5908 79.6622 29.5908 79.1075Z" fill="#0D1E42"/>
</svg>
