<svg width="64" height="61" viewBox="0 0 64 61" fill="none" xmlns="http://www.w3.org/2000/svg">
<path d="M4.31055 0.125H24.4287C27.381 0.12502 29.9871 1.63997 31.5098 3.93457L31.6133 4.0918L31.7178 3.93457C33.1928 1.71175 35.6842 0.220997 38.5225 0.129883L38.7988 0.125H58.916C61.225 0.125 63.1023 2.00156 63.1025 4.31055V47.4199C63.1025 49.7291 61.2252 51.6064 58.916 51.6064H55.917V57.4795C55.9169 57.9905 55.6142 58.457 55.1543 58.6738C54.9774 58.7519 54.7878 58.791 54.6055 58.791C54.2984 58.791 53.9958 58.6806 53.752 58.4766H53.7529L49.6572 54.9629L49.5762 54.8936L49.4941 54.9629L45.3994 58.4766H45.3984C45.0133 58.8094 44.4704 58.8835 43.9961 58.6738C43.5362 58.457 43.2345 57.9905 43.2344 57.4795V51.6064H4.31055C2.00156 51.6062 0.125 49.729 0.125 47.4199V4.31055C0.125206 2.07375 1.88641 0.243161 4.0957 0.130859L4.31055 0.125ZM45.8584 54.625L46.0645 54.4482L48.7227 52.1709H48.7236C48.9655 51.9617 49.274 51.8564 49.5762 51.8564C49.8403 51.8565 50.109 51.9367 50.334 52.0967L50.4277 52.1709H50.4287L53.0869 54.4482L53.293 54.625V44.4209H45.8584V54.625ZM2.74902 47.4199C2.74902 48.2792 3.45135 48.9822 4.31055 48.9824H30.1582L30.1182 48.8262C29.4648 46.2935 27.1598 44.4209 24.4287 44.4209H2.74902V47.4199ZM38.7988 44.4209C36.0677 44.4209 33.7627 46.2935 33.1094 48.8262L33.0684 48.9824H43.2344V44.4209H38.7988ZM55.917 48.9824H58.916C59.7754 48.9824 60.4785 48.2793 60.4785 47.4199V44.4209H55.917V48.9824ZM4.31055 2.74902C3.45148 2.74924 2.74924 3.45148 2.74902 4.31055V41.7979H24.4287C26.6019 41.7979 28.5841 42.6257 30.0928 43.9785L30.3018 44.165V8.62207C30.3018 5.38451 27.6663 2.74906 24.4287 2.74902H4.31055ZM38.7988 2.74902C35.5613 2.74902 32.9258 5.38449 32.9258 8.62207V44.165L33.1338 43.9785C34.6425 42.6256 36.6184 41.7979 38.7988 41.7979H60.4785V4.31055C60.4783 3.45135 59.7753 2.74902 58.916 2.74902H38.7988Z" fill="#142A63" stroke="#E6F6FC" stroke-width="0.25"/>
<path d="M38.7979 31.7383H54.6055C55.3264 31.7385 55.9167 32.3288 55.917 33.0498C55.917 33.771 55.3266 34.3621 54.6055 34.3623H38.7979C38.0768 34.3621 37.4863 33.771 37.4863 33.0498C37.4866 32.3289 38.0769 31.7385 38.7979 31.7383ZM38.7979 24.5537H54.6055C55.3266 24.5539 55.9169 25.1441 55.917 25.8652C55.917 26.5864 55.3266 27.1775 54.6055 27.1777H38.7979C38.0768 27.1775 37.4863 26.5864 37.4863 25.8652C37.4864 25.1441 38.0768 24.554 38.7979 24.5537ZM38.7979 17.3682H54.6055C55.3266 17.3684 55.917 17.9595 55.917 18.6807C55.9169 19.4018 55.3265 19.992 54.6055 19.9922H38.7979C38.0768 19.9919 37.4864 19.4017 37.4863 18.6807C37.4863 17.9595 38.0768 17.3684 38.7979 17.3682ZM38.7979 10.1836H54.6055C55.3264 10.1838 55.9167 10.7741 55.917 11.4951C55.917 12.2163 55.3266 12.8074 54.6055 12.8076H38.7979C38.0768 12.8074 37.4863 12.2163 37.4863 11.4951C37.4866 10.7742 38.0769 10.1838 38.7979 10.1836Z" fill="#142A63" stroke="#E6F6FC" stroke-width="0.25"/>
<path d="M55.7256 43.9253H43.9375V60L50.1122 54.8331L55.7256 60V43.9253Z" fill="#FAA515" stroke="#FAA515" stroke-linejoin="round"/>
</svg>
