<svg width="49" height="62" viewBox="0 0 49 62" fill="none" xmlns="http://www.w3.org/2000/svg">
<path d="M4.46483 0.723398V3.16559H0.715364C0.320483 3.16559 0 3.48967 0 3.88899V61.0066C0 61.4059 0.320483 61.73 0.715364 61.73H43.6992C44.0941 61.73 44.4146 61.4059 44.4146 61.0066V58.5567H48.1583C48.5532 58.5567 48.8737 58.2326 48.8737 57.8333V0.723398C48.8737 0.324082 48.5532 0 48.1583 0H5.17924C4.78436 0 4.46483 0.324082 4.46483 0.723398ZM42.9839 60.2832H1.43073V4.61239H28.4648V12.9373C28.4648 16.4424 31.2853 19.2945 34.7524 19.2945H42.9848L42.9839 60.2832ZM29.8955 12.9373V5.63576C30.588 6.33601 41.1916 17.0587 41.9728 17.8477H34.7524C32.0741 17.8477 29.8955 15.6447 29.8955 12.9373ZM5.89556 1.4468H47.4439V57.1099H44.4203V22.1263H45.0928C45.4876 22.1263 45.8081 21.8023 45.8081 21.4029C45.8081 21.0036 45.4876 20.6796 45.0928 20.6796H44.4194V18.5672C44.4194 18.4332 44.3192 18.1669 44.2095 18.056L43.1222 16.9574H45.0918C45.4867 16.9574 45.8072 16.6333 45.8072 16.234C45.8072 15.8347 45.4867 15.5106 45.0918 15.5106H41.6914L38.0068 11.7875H45.0908C45.4857 11.7875 45.8062 11.4635 45.8062 11.0641C45.8062 10.6648 45.4857 10.3407 45.0908 10.3407H36.5751L32.8905 6.61765H45.0908C45.4857 6.61765 45.8062 6.29357 45.8062 5.89425C45.8062 5.49493 45.4857 5.17085 45.0908 5.17085H31.4589C30.98 4.68666 30.2389 3.93722 29.6848 3.37779C29.5789 3.27169 29.4148 3.1897 29.2326 3.17524C29.2145 3.17331 29.1964 3.16366 29.1773 3.16366H5.89556V1.4468Z" fill="#142A63"/>
<path d="M22.7527 35.6778C22.5638 35.699 22.3912 35.7945 22.2729 35.944L15.02 45.0935C14.7587 45.4244 14.8331 45.9095 15.1765 46.1449C17.2892 47.5936 19.7548 48.3585 22.3063 48.3585C26.2036 48.3585 29.8386 46.5924 32.2794 43.5136C34.1594 41.1428 35.1552 38.1528 35.0855 35.0962C35.076 34.6747 34.7116 34.3467 34.292 34.393L22.7527 35.6778Z" fill="#FAA515"/>
<path d="M23.1533 34.5216C23.1791 34.5216 23.2058 34.5206 23.2315 34.5177L34.1699 33.314C34.582 33.2686 34.872 32.878 34.7956 32.4603C34.2367 29.4655 32.6257 26.759 30.2555 24.8396C27.9453 22.9665 25.1735 21.9643 21.9315 22.001C21.5118 22.0106 21.1894 22.381 21.2371 22.8035L22.4437 33.8782C22.4837 34.2467 22.7937 34.5216 23.1533 34.5216Z" fill="#FAA515"/>
<path d="M14.0185 44.2634L21.2704 35.1139C21.3887 34.9644 21.444 34.7734 21.423 34.5834L20.1688 22.927C20.1239 22.5065 19.7348 22.2161 19.3218 22.2952C16.3497 22.8768 13.6732 24.5069 11.7885 26.8845C7.65464 32.0997 8.17352 39.7658 12.9693 44.3377C13.2765 44.629 13.76 44.5894 14.0185 44.2634Z" fill="#FAA515"/>
</svg>
