<svg width="49" height="62" viewBox="0 0 49 62" fill="none" xmlns="http://www.w3.org/2000/svg">
<path d="M41.8294 1H6.93753C3.66404 1 1 3.66336 1 6.93753V60.1751C1 60.4819 1.1699 60.7632 1.4416 60.9056C1.7133 61.048 2.04141 61.028 2.29385 60.854L9.345 55.9902L16.3962 60.854C16.6782 61.0487 17.051 61.0487 17.333 60.854L24.3835 55.9895L31.4346 60.8533C31.7167 61.048 32.0895 61.048 32.3715 60.8533L39.422 55.9895L46.4731 60.8533C46.6134 60.9503 46.7771 60.9991 46.9415 60.9991C47.0729 60.9991 47.2043 60.9675 47.3247 60.9049C47.5964 60.7625 47.7663 60.4812 47.7663 60.1744V6.93684C47.7663 3.66336 45.1029 1 41.8294 1ZM46.1161 58.6034L39.8904 54.3084C39.6084 54.1138 39.2355 54.1138 38.9535 54.3084L31.9031 59.1722L24.8519 54.3084C24.7109 54.2114 24.5472 54.1626 24.3835 54.1626C24.2198 54.1626 24.0561 54.2114 23.9151 54.3084L16.8646 59.1722L9.81343 54.3084C9.53141 54.1138 9.1586 54.1138 8.87658 54.3084L2.65084 58.6034V6.93684C2.65084 4.57338 4.57407 2.65015 6.93753 2.65015H41.8294C44.1936 2.65015 46.1161 4.57338 46.1161 6.93684V58.6034ZM8.94134 15.5866C8.94134 15.1305 9.31072 14.7611 9.76676 14.7611H38.3193C38.7754 14.7611 39.1448 15.1305 39.1448 15.5866C39.1448 16.0426 38.7754 16.412 38.3193 16.412H9.76608C9.31072 16.412 8.94134 16.0426 8.94134 15.5866ZM8.94134 9.97232C8.94134 9.51628 9.31072 9.1469 9.76676 9.1469H38.3193C38.7754 9.1469 39.1448 9.51628 39.1448 9.97232C39.1448 10.4284 38.7754 10.7977 38.3193 10.7977H9.76608C9.31072 10.7977 8.94134 10.4284 8.94134 9.97232ZM39.0175 47.249C39.0175 47.7051 38.6481 48.0744 38.1921 48.0744H9.63882C9.18278 48.0744 8.8134 47.7051 8.8134 47.249C8.8134 46.793 9.18278 46.4236 9.63882 46.4236H38.1921C38.6481 46.4236 39.0175 46.793 39.0175 47.249ZM39.0175 41.6341C39.0175 42.0901 38.6481 42.4595 38.1921 42.4595H9.63882C9.18278 42.4595 8.8134 42.0901 8.8134 41.6341C8.8134 41.178 9.18278 40.8087 9.63882 40.8087H38.1921C38.6481 40.8094 39.0175 41.1787 39.0175 41.6341Z" fill="#142A63" stroke="#142A63" stroke-width="0.5"/>
<path d="M38.574 32.2426C39.03 32.2426 39.3994 31.8732 39.3994 31.4172C39.3994 30.9618 39.03 30.5925 38.574 30.5918H10.0207C9.56469 30.5918 9.19531 30.9612 9.19531 31.4172C9.19531 31.8732 9.56469 32.2426 10.0207 32.2426H38.574Z" fill="#FAA515"/>
<path d="M38.574 26.6284C39.03 26.6284 39.3994 26.259 39.3994 25.803C39.3994 25.3476 39.03 24.9782 38.574 24.9775H10.0207C9.56469 24.9775 9.19531 25.3469 9.19531 25.803C9.19531 26.259 9.56469 26.6284 10.0207 26.6284H38.574Z" fill="#FAA515"/>
<path d="M38.574 32.2426C39.03 32.2426 39.3994 31.8732 39.3994 31.4172C39.3994 30.9618 39.03 30.5925 38.574 30.5918H10.0207C9.56469 30.5918 9.19531 30.9612 9.19531 31.4172C9.19531 31.8732 9.56469 32.2426 10.0207 32.2426H38.574Z" stroke="#FAA515" stroke-width="0.5"/>
<path d="M38.574 26.6284C39.03 26.6284 39.3994 26.259 39.3994 25.803C39.3994 25.3476 39.03 24.9782 38.574 24.9775H10.0207C9.56469 24.9775 9.19531 25.3469 9.19531 25.803C9.19531 26.259 9.56469 26.6284 10.0207 26.6284H38.574Z" stroke="#FAA515" stroke-width="0.5"/>
</svg>
