<svg width="62" height="62" viewBox="0 0 62 62" fill="none" xmlns="http://www.w3.org/2000/svg">
<path fill-rule="evenodd" clip-rule="evenodd" d="M33.4304 3.73702L28.6989 8.46853L32.4528 8.46592C32.9782 8.46592 33.407 8.04243 33.4096 7.51698V3.73702L33.4304 3.73702ZM25.9621 16.9459V9.27071C25.9595 9.05636 26.0457 8.84984 26.2026 8.70084L33.6582 1.2405C33.8098 1.08627 34.0164 1 34.2333 1H58.6728C60.0871 1.00261 61.2294 2.14756 61.2294 3.5618V44.9664C61.2294 45.6434 60.9602 46.2944 60.4818 46.7727C60.0008 47.2537 59.3499 47.523 58.6728 47.523H50.7701L47.845 58.5515C47.4372 59.9527 46.1798 60.9382 44.7185 60.9983H3.22756C2.63938 61.0218 2.06688 60.7996 1.64601 60.3892C1.22514 59.9762 0.989875 59.409 1.00033 58.8181V14.1223C1.00033 12.6428 2.19762 11.4455 3.67717 11.4455H21.8448C22.1376 11.4455 22.4069 11.605 22.5481 11.8585L25.9621 16.9459ZM25.9621 26.0143V19.8241L21.424 13.0718H3.67662C3.09106 13.0666 2.61271 13.5371 2.60482 14.1227V52.5005L9.03029 28.4692C9.43809 27.0707 10.6929 26.0877 12.1489 26.0276L25.9621 26.0143ZM30.3119 16.3028H56.8788C57.3232 16.3028 57.6814 15.9446 57.6814 15.5002C57.6814 15.0558 57.3232 14.6977 56.8788 14.6977H30.3119C29.8675 14.6977 29.5094 15.0559 29.5094 15.5002C29.5094 15.9446 29.8675 16.3028 30.3119 16.3028ZM30.3119 22.54H56.8788C57.1037 22.5609 57.3259 22.4851 57.4932 22.3335C57.6605 22.1819 57.7546 21.9675 57.7546 21.7401C57.7546 21.5153 57.6605 21.3009 57.4932 21.1467C57.3259 20.9951 57.1037 20.9192 56.8788 20.9402H30.3119C30.0871 20.9192 29.8623 20.9951 29.6976 21.1467C29.5303 21.3009 29.4362 21.5153 29.4362 21.7401C29.4362 21.9675 29.5303 22.1819 29.6976 22.3335C29.8623 22.4851 30.0871 22.5609 30.3119 22.54ZM52.8716 39.6992L54.116 35.0147H56.879C57.3234 35.0147 57.6816 34.654 57.6816 34.2122C57.6816 33.7678 57.3234 33.4097 56.879 33.4097H54.5368L55.7602 28.8585C55.985 28.1841 55.8648 27.4417 55.4387 26.8718C55.0126 26.3019 54.3382 25.9778 53.6271 26.0013H27.528V10.0734H32.453C33.8646 10.0682 35.0069 8.92587 35.0095 7.51685V2.60499H58.6721C59.1975 2.6076 59.6236 3.03631 59.6236 3.56176V44.9664C59.6236 45.4918 59.1975 45.9179 58.6721 45.9231H51.1903L52.4294 41.2779H56.8786C57.1034 41.2988 57.3256 41.223 57.4929 41.0714C57.6602 40.9198 57.7543 40.7054 57.7543 40.478C57.7543 40.2532 57.6602 40.0388 57.4929 39.8846C57.3256 39.733 57.1034 39.6572 56.8786 39.6781L52.8716 39.6992ZM51.0444 40.3684C51.0417 40.3396 51.0417 40.3109 51.0444 40.2821L52.6912 34.1259H52.6886C52.686 34.0972 52.686 34.071 52.6886 34.0449L54.1681 28.5239C54.2962 28.0429 54.1002 27.6796 53.58 27.6796H12.089C11.357 27.7397 10.735 28.2364 10.5153 28.9396L2.63873 58.552C2.51064 59.033 2.69886 59.3964 3.22167 59.3964H44.7126V59.3938C45.4446 59.3336 46.0693 58.837 46.2915 58.1364L51.0623 40.316L51.0444 40.3684ZM38.9986 10.1262H56.8792C57.3236 10.1262 57.6817 9.76803 57.6817 9.32364C57.6817 8.87926 57.3236 8.52113 56.8792 8.52113H39.0173C38.5756 8.52113 38.2148 8.87926 38.2148 9.32364C38.2148 9.76803 38.5756 10.1262 39.0173 10.1262H38.9986Z" fill="#142A63" stroke="#142A63"/>
<path d="M43.777 56.0819H30.2984L30.3299 56.0819C29.9169 56.0427 29.6006 55.6976 29.6006 55.282C29.6006 54.8664 29.9169 54.5213 30.3299 54.4821H43.777C44.0018 54.4612 44.224 54.537 44.3913 54.6886C44.556 54.8402 44.6527 55.0572 44.6527 55.282C44.6527 55.5068 44.556 55.7238 44.3913 55.8754C44.224 56.027 44.0018 56.1028 43.777 56.0819Z" fill="#FAA515"/>
<path d="M45.1075 51.0759H35.5632C35.3384 51.0968 35.1162 51.021 34.9489 50.8694C34.7842 50.7178 34.6875 50.5008 34.6875 50.276C34.6875 50.0512 34.7842 49.8342 34.9489 49.6826C35.1162 49.531 35.3384 49.4552 35.5632 49.4761H45.1075C45.3323 49.4552 45.5545 49.531 45.7218 49.6826C45.8891 49.8342 45.9832 50.0512 45.9832 50.276C45.9832 50.5008 45.8891 50.7178 45.7218 50.8694C45.5545 51.021 45.3323 51.0968 45.1075 51.0759Z" fill="#FAA515"/>
<path d="M36 8H58V24H29V15L36 8Z" fill="white"/>
<path d="M56 28L52 43H58.5V33.5L56 28Z" fill="white"/>
</svg>
