<svg width="58" height="60" viewBox="0 0 58 60" fill="none" xmlns="http://www.w3.org/2000/svg">
<path d="M40.666 0.25C41.6239 0.250049 42.3974 1.02355 42.3975 1.98145V4.88184H51.6025C54.7432 4.88209 57.2979 7.43648 57.2979 10.5771V54.0547C57.2979 57.1956 54.7434 59.75 51.6025 59.75H5.94531C2.80444 59.75 0.25 57.1956 0.25 54.0547V10.5771C0.25 7.43628 2.80444 4.88184 5.94531 4.88184H15.168V1.98145C15.1681 1.02352 15.9415 0.25 16.8994 0.25C17.8573 0.250105 18.6308 1.02359 18.6309 1.98145V4.88184H38.9346V1.98145C38.9347 1.02352 39.7081 0.25 40.666 0.25ZM3.71289 54.0547C3.71289 55.2857 4.71426 56.2871 5.94531 56.2871H51.6025C52.8336 56.2871 53.835 55.2857 53.835 54.0547V22.7959H3.71289V54.0547ZM5.94531 8.3457C4.71454 8.34588 3.71289 9.34608 3.71289 10.5771V19.332H53.835V10.5771C53.835 9.3461 52.8336 8.3457 51.6025 8.3457H42.3984V11.2461C42.3983 12.2038 41.6248 12.9774 40.667 12.9775C39.7091 12.9775 38.9357 12.2039 38.9355 11.2461V8.3457H18.6318V11.2461C18.6317 12.2038 17.8581 12.9773 16.9004 12.9775C15.9425 12.9775 15.1682 12.2039 15.168 11.2461V8.3457H5.94531Z" fill="#142A63" stroke="white" stroke-width="0.5"/>
<path d="M36.2861 32.1143C36.984 31.4831 38.0561 31.5296 38.7012 32.209L38.7314 32.2422C39.3322 32.9063 39.3206 33.9109 38.7324 34.5625L38.6074 34.6875L27.042 45.1348C26.7117 45.4324 26.2986 45.581 25.8818 45.5811C25.5216 45.5811 25.1613 45.4693 24.8574 45.2471L24.7314 45.1455L18.9473 40.0156V40.0146C18.2783 39.4212 18.1769 38.4214 18.6904 37.708L18.8018 37.5693C19.4377 36.8552 20.5307 36.7904 21.248 37.4238V37.4229L25.7031 41.374L25.8711 41.5225L26.0371 41.3721L36.2861 32.1143Z" fill="#FAA515" stroke="white" stroke-width="0.5"/>
</svg>
