<svg width="184" height="54" viewBox="0 0 184 54" fill="none" xmlns="http://www.w3.org/2000/svg">
<path d="M159.958 40.5725L159.921 40.6459C159.921 38.6271 160.215 36.7918 160.802 35.14C161.352 33.525 162.197 32.1302 163.298 30.9189C164.362 29.7443 165.647 28.8633 167.115 28.2026C168.583 27.5786 170.199 27.2483 171.924 27.2483C173.612 27.2483 175.227 27.5786 176.732 28.2026C178.237 28.8633 179.522 29.7443 180.55 30.8822C181.614 32.0568 182.458 33.4883 183.082 35.1033C183.67 36.7184 184 38.5537 184 40.6092C184 42.6647 183.67 44.5 183.082 46.1151C182.458 47.7668 181.614 49.1617 180.55 50.3362C179.522 51.5108 178.237 52.3918 176.732 53.0158C175.191 53.6398 173.575 53.9334 171.96 53.9334C170.272 53.9334 168.657 53.6398 167.152 53.0158C165.684 52.3918 164.399 51.4741 163.335 50.2995C162.233 49.125 161.389 47.6934 160.839 46.0784C160.251 44.4633 159.958 42.628 159.958 40.5725ZM165.207 40.4624L165.133 40.5725C165.133 41.8572 165.28 43.0318 165.647 44.0963C165.941 45.124 166.418 46.005 167.042 46.7391C167.629 47.4732 168.327 48.0238 169.207 48.3908C170.015 48.7579 170.969 48.9414 172.034 48.9414C173.098 48.9414 174.053 48.7579 174.86 48.3541C175.741 47.9504 176.439 47.3998 177.026 46.6657C177.613 45.9316 178.09 45.0506 178.421 44.0228C178.751 42.9584 178.934 41.7838 178.934 40.4991C178.934 37.8196 178.311 35.7273 177.063 34.2591C175.815 32.7909 174.126 32.0568 172.071 32.0568C169.978 32.0568 168.327 32.7909 167.079 34.2591C165.831 35.7273 165.207 37.8196 165.207 40.4624Z" fill="white"/>
<path d="M138.469 27.6155H158.18V32.3505H150.765V53.3095H145.773V32.3505H138.469V27.6155Z" fill="white"/>
<path d="M136.697 33.9655L131.962 35.2502L132.109 35.2135C131.742 33.9655 131.155 33.0111 130.31 32.3871C129.393 31.7631 128.438 31.4328 127.411 31.4328C126.346 31.4328 125.502 31.6897 124.878 32.1669C124.254 32.6441 123.96 33.2681 123.96 34.0389C123.96 34.5528 124.107 34.9565 124.401 35.3236C124.694 35.6906 125.098 36.021 125.612 36.3146C126.089 36.6083 126.713 36.9019 127.447 37.1956C127.594 37.269 127.925 37.4158 128.438 37.636C128.952 37.8563 129.356 38.0031 129.65 38.1132C130.567 38.5537 131.448 38.9575 132.256 39.3245C133.137 39.765 133.908 40.3156 134.642 40.9396C135.339 41.6003 135.926 42.2977 136.367 43.1052C136.807 43.9127 137.028 44.8671 137.028 45.9683C137.028 47.0694 136.807 48.0972 136.367 49.0516C135.926 50.0059 135.302 50.8134 134.495 51.5108C133.687 52.245 132.696 52.7955 131.595 53.1626C130.421 53.5297 129.173 53.7132 127.851 53.7132C126.566 53.7132 125.355 53.5664 124.217 53.1993C123.116 52.8323 122.162 52.3184 121.318 51.6577C120.51 51.0337 119.776 50.2261 119.189 49.2718C118.601 48.3541 118.161 47.3264 117.867 46.1885L122.639 44.9038C122.712 45.4544 122.933 46.005 123.263 46.5923C123.557 47.1796 123.924 47.6567 124.364 48.0238C124.805 48.4643 125.318 48.7579 125.906 48.9781C126.493 49.1984 127.154 49.3085 127.888 49.3085C129.062 49.3085 129.98 49.0516 130.678 48.4643C131.338 47.9504 131.669 47.253 131.669 46.372C131.669 45.7847 131.485 45.2709 131.118 44.8304C130.751 44.4266 130.274 44.0596 129.686 43.7292C128.989 43.3622 128.328 43.0318 127.668 42.7749C126.86 42.4812 126.053 42.1509 125.245 41.7838L122.896 40.6092C122.125 40.2422 121.428 39.765 120.767 39.1043C120.143 38.517 119.629 37.8563 119.225 37.0488C118.822 36.3146 118.638 35.397 118.638 34.2958C118.638 33.3782 118.858 32.4972 119.299 31.653C119.739 30.7721 120.363 30.0379 121.097 29.3772C121.905 28.7165 122.822 28.1659 123.887 27.7622C124.988 27.3584 126.199 27.1382 127.521 27.1382C128.622 27.1382 129.686 27.3217 130.714 27.6521C131.669 27.9824 132.586 28.4596 133.43 29.0469C134.238 29.6342 134.899 30.3683 135.486 31.2125C136.037 32.0568 136.44 32.9744 136.697 33.9655Z" fill="white"/>
<path d="M102.795 48.5745H114.725V53.3095H97.8032V27.6155H114.504V32.3505H102.795V37.8564H111.935V42.3345H102.795V48.5745Z" fill="white"/>
<path d="M87.511 27.6155H92.503L92.4663 42.8851C92.4663 44.7204 92.2094 46.262 91.7689 47.5834C91.255 48.9783 90.5943 50.1161 89.7501 51.0338C88.8691 51.9881 87.768 52.7223 86.52 53.1627C85.2353 53.6032 83.8037 53.8234 82.2254 53.8234C78.9953 53.8234 76.4993 52.9058 74.7007 50.9971C72.8654 49.0884 71.9478 46.3722 71.9478 42.8117V27.6155H76.9764V42.8117C76.9764 44.9773 77.4169 46.5557 78.2979 47.5834C79.1788 48.6112 80.4635 49.1251 82.2254 49.1251C83.9873 49.1251 85.3087 48.6112 86.1896 47.5834C87.0706 46.5557 87.511 44.9773 87.511 42.8117V27.6155Z" fill="white"/>
<path d="M50.7739 27.5789H59.2163H59.1429C60.6111 27.5789 61.9325 27.7991 63.1071 28.1661C64.2817 28.6066 65.2727 29.1572 66.0803 29.8546C66.8878 30.5887 67.5118 31.5064 67.9522 32.5341C68.3927 33.6353 68.613 34.8466 68.613 36.168C68.613 37.5261 68.3927 38.7374 67.9522 39.8019C67.5118 40.8664 66.8878 41.7473 66.0803 42.4814C65.2727 43.2155 64.2817 43.7661 63.1071 44.1699C61.9325 44.5737 60.6478 44.7572 59.2163 44.7572H55.7659V53.2729H50.7739V27.5789ZM55.7659 40.0955H59.1429V40.0588C60.501 40.0588 61.5654 39.7285 62.3363 39.0311C63.0704 38.3704 63.4741 37.416 63.4741 36.168C63.4741 34.92 63.0704 33.9657 62.3363 33.305C61.5654 32.6443 60.501 32.3139 59.1429 32.3139H55.7659V40.0955Z" fill="white"/>
<path d="M40.3833 27.6155H45.0816L44.8614 53.3095H39.9795V45.014C39.9795 44.0597 39.9795 42.8117 40.0529 41.3435C40.0896 40.2056 40.1263 39.2512 40.1631 38.5171C40.1998 37.7096 40.2365 37.1223 40.2732 36.6818L40.3099 36.0211H40.2365L39.9795 36.4983C39.8327 36.7185 39.6492 37.1223 39.3922 37.6362L38.7315 38.9576C38.6581 39.1044 38.5847 39.2879 38.4746 39.5082L38.2176 40.022L34.5838 46.9227H32.0511L28.3805 40.022L28.1235 39.5082C27.9767 39.2879 27.9033 39.1044 27.8666 38.9576L27.2059 37.6362C26.9123 37.1223 26.7287 36.7185 26.6186 36.4983L26.3617 36.0211H26.2883L26.325 36.6818C26.325 37.1223 26.3617 37.7096 26.4351 38.5171C26.4351 39.2512 26.4718 40.2056 26.5452 41.3435C26.5819 42.8117 26.6186 44.0597 26.6186 45.014V53.3095H21.7734V27.6155H26.4718L31.3537 36.4983C31.8675 37.526 32.1979 38.1868 32.3447 38.407C32.3814 38.5538 32.4548 38.7006 32.5649 38.8842C32.6384 39.0677 32.7118 39.2145 32.7852 39.3246L32.9687 39.655C33.0421 39.8752 33.1522 40.1322 33.2991 40.3524L33.4092 40.5726H33.4459L33.5193 40.3524C33.5193 40.3157 33.6294 40.0955 33.8129 39.655L34.4369 38.407C34.5471 38.1868 34.9141 37.526 35.5014 36.4983L40.3833 27.6155Z" fill="white"/>
<path d="M16.1209 53.3095H11.1289V27.6155H16.1209V53.3095Z" fill="white"/>
<path d="M16.4079 25.0244V25.7151C16.4079 25.7753 16.4047 25.8355 16.3982 25.8954C16.3536 26.2926 16.1643 26.6594 15.8664 26.9258C15.5685 27.1923 15.1829 27.3396 14.7833 27.3398H12.2917C12.0782 27.3402 11.8667 27.2985 11.6694 27.217C11.4721 27.1355 11.2928 27.0159 11.1419 26.8649C10.9909 26.714 10.8713 26.5347 10.7898 26.3374C10.7083 26.1401 10.6666 25.9286 10.667 25.7151V25.0244C10.8886 25.123 11.1285 25.1738 11.3711 25.1734H15.7038C15.9464 25.1738 16.1863 25.123 16.4079 25.0244Z" fill="#C3C9D7"/>
<path d="M13.4564 3.6303C13.403 3.63035 13.3502 3.61987 13.3008 3.59946C13.2515 3.57906 13.2067 3.54912 13.1689 3.51137C13.1312 3.47362 13.1012 3.42879 13.0808 3.37946C13.0604 3.33012 13.0499 3.27725 13.05 3.22386V0.485646C13.0483 0.43126 13.0576 0.377096 13.0773 0.326367C13.097 0.275638 13.1266 0.229376 13.1645 0.190324C13.2024 0.151271 13.2478 0.120224 13.2979 0.0990215C13.348 0.0778194 13.4018 0.0668945 13.4563 0.0668945C13.5107 0.0668945 13.5645 0.0778194 13.6146 0.0990215C13.6647 0.120224 13.7101 0.151271 13.748 0.190324C13.7859 0.229376 13.8155 0.275638 13.8352 0.326367C13.8549 0.377096 13.8642 0.43126 13.8625 0.485646V3.22386C13.8626 3.27721 13.8521 3.33006 13.8317 3.37937C13.8113 3.42868 13.7814 3.47349 13.7437 3.51124C13.706 3.54898 13.6612 3.57893 13.6119 3.59936C13.5626 3.61979 13.5098 3.6303 13.4564 3.6303Z" fill="#FFE7C9"/>
<path d="M6.16474 6.65047C6.11137 6.65051 6.05852 6.64 6.00922 6.61954C5.95993 6.59908 5.91517 6.56908 5.87751 6.53126L3.94027 4.59402C3.90109 4.55662 3.86978 4.51178 3.84818 4.46211C3.82658 4.41244 3.81512 4.35896 3.81448 4.3048C3.81384 4.25064 3.82403 4.19691 3.84446 4.14674C3.86488 4.09658 3.89512 4.051 3.93341 4.01269C3.97169 3.97438 4.01725 3.94411 4.0674 3.92366C4.11755 3.9032 4.17128 3.89298 4.22544 3.89358C4.27959 3.89418 4.33308 3.90561 4.38277 3.92718C4.43245 3.94875 4.47731 3.98003 4.51474 4.01918L6.45197 5.95642C6.50875 6.01326 6.5474 6.08565 6.56306 6.16445C6.57871 6.24325 6.57067 6.32492 6.53993 6.39915C6.50919 6.47337 6.45715 6.53683 6.39037 6.58149C6.3236 6.62616 6.24508 6.65003 6.16474 6.6501" fill="#FFE7C9"/>
<path d="M3.14466 13.9415H0.406075C0.298377 13.9415 0.19509 13.8988 0.118937 13.8226C0.0427828 13.7465 0 13.6432 0 13.5355C0 13.4278 0.0427828 13.3245 0.118937 13.2483C0.19509 13.1722 0.298377 13.1294 0.406075 13.1294H3.14466C3.25236 13.1294 3.35564 13.1722 3.4318 13.2483C3.50795 13.3245 3.55073 13.4278 3.55073 13.5355C3.55073 13.6432 3.50795 13.7465 3.4318 13.8226C3.35564 13.8988 3.25236 13.9415 3.14466 13.9415Z" fill="#FFE7C9"/>
<path d="M4.22838 23.1696C4.14804 23.1695 4.06952 23.1456 4.00274 23.101C3.93596 23.0563 3.88392 22.9928 3.85319 22.9186C3.82245 22.8444 3.8144 22.7627 3.83006 22.6839C3.84571 22.6051 3.88437 22.5327 3.94114 22.4759L5.87838 20.5387C5.95456 20.4625 6.05788 20.4197 6.16561 20.4197C6.27335 20.4197 6.37667 20.4625 6.45285 20.5387C6.52903 20.6148 6.57182 20.7182 6.57182 20.8259C6.57182 20.9336 6.52903 21.0369 6.45285 21.1131L4.51561 23.0504C4.47795 23.0882 4.43319 23.1182 4.38389 23.1386C4.3346 23.1591 4.28175 23.1696 4.22838 23.1696Z" fill="#FFE7C9"/>
<path d="M22.6838 23.1696C22.6304 23.1696 22.5776 23.1591 22.5283 23.1386C22.479 23.1182 22.4342 23.0882 22.3965 23.0504L20.4593 21.1131C20.4216 21.0754 20.3917 21.0306 20.3713 20.9813C20.3508 20.9321 20.3403 20.8792 20.3403 20.8259C20.3403 20.7725 20.3508 20.7197 20.3713 20.6704C20.3917 20.6212 20.4216 20.5764 20.4593 20.5387C20.497 20.5009 20.5418 20.471 20.5911 20.4506C20.6404 20.4302 20.6932 20.4197 20.7465 20.4197C20.7999 20.4197 20.8527 20.4302 20.902 20.4506C20.9513 20.471 20.9961 20.5009 21.0338 20.5387L22.971 22.4759C23.0278 22.5327 23.0664 22.6051 23.0821 22.6839C23.0978 22.7627 23.0897 22.8444 23.059 22.9186C23.0282 22.9928 22.9762 23.0563 22.9094 23.101C22.8426 23.1456 22.7641 23.1695 22.6838 23.1696Z" fill="#FFE7C9"/>
<path d="M26.5062 13.9415H23.7684C23.6607 13.9415 23.5574 13.8988 23.4812 13.8226C23.4051 13.7465 23.3623 13.6432 23.3623 13.5355C23.3623 13.4278 23.4051 13.3245 23.4812 13.2483C23.5574 13.1722 23.6607 13.1294 23.7684 13.1294H26.507C26.6147 13.1294 26.7179 13.1722 26.7941 13.2483C26.8703 13.3245 26.913 13.4278 26.913 13.5355C26.913 13.6432 26.8703 13.7465 26.7941 13.8226C26.7179 13.8988 26.6147 13.9415 26.507 13.9415" fill="#FFE7C9"/>
<path d="M20.7474 6.65059C20.6671 6.65052 20.5886 6.62665 20.5218 6.58198C20.455 6.53732 20.403 6.47386 20.3722 6.39963C20.3415 6.32541 20.3334 6.24374 20.3491 6.16494C20.3648 6.08614 20.4034 6.01375 20.4602 5.95691L22.3974 4.01967C22.4348 3.98051 22.4797 3.94923 22.5294 3.92766C22.5791 3.9061 22.6326 3.89467 22.6867 3.89407C22.7409 3.89346 22.7946 3.90369 22.8448 3.92414C22.8949 3.9446 22.9405 3.97487 22.9788 4.01318C23.017 4.05149 23.0473 4.09707 23.0677 4.14723C23.0881 4.19739 23.0983 4.25113 23.0977 4.30529C23.097 4.35945 23.0856 4.41293 23.064 4.4626C23.0424 4.51226 23.0111 4.55711 22.9719 4.59451L21.0347 6.53174C20.997 6.56956 20.9522 6.59956 20.9029 6.62002C20.8536 6.64048 20.8008 6.651 20.7474 6.65096" fill="#FFE7C9"/>
<path d="M13.5375 24.6318C13.5375 24.6318 10.882 25.1202 10.667 25.0245V25.7152C10.667 25.7754 10.6703 25.8356 10.6767 25.8955C10.7213 26.2927 10.9106 26.6595 11.2085 26.9259C11.5064 27.1923 11.892 27.3397 12.2917 27.3399H12.9958C12.6602 27.3399 12.3329 27.236 12.0587 27.0426C11.7844 26.8492 11.5768 26.5756 11.4642 26.2595C11.4553 26.2349 11.4525 26.2085 11.4559 26.1826C11.4593 26.1567 11.4689 26.132 11.4839 26.1105C11.4989 26.0891 11.5188 26.0716 11.5419 26.0594C11.5651 26.0473 11.5908 26.0409 11.617 26.0408H15.7038C15.9428 26.0414 16.1792 25.9923 16.3982 25.8966C16.4047 25.8367 16.4079 25.7765 16.4079 25.7163V25.0245C16.193 25.1202 13.5375 24.6318 13.5375 24.6318Z" fill="#9DA3B1"/>
<path d="M17.4368 23.4404C17.437 23.668 17.3923 23.8935 17.3053 24.1038C17.2183 24.3142 17.0906 24.5053 16.9297 24.6663C16.7687 24.8273 16.5776 24.9549 16.3672 25.0419C16.1569 25.129 15.9314 25.1737 15.7038 25.1735H11.3711C11.1434 25.1737 10.918 25.129 10.7076 25.0419C10.4972 24.9549 10.3061 24.8273 10.1451 24.6663C9.98417 24.5053 9.85652 24.3142 9.76949 24.1038C9.68247 23.8935 9.63777 23.668 9.63797 23.4404C9.63797 23.4404 9.61226 20.9071 9.60742 20.8426V20.8408L13.5374 20.2991L17.4223 20.8408L17.4368 23.4404Z" fill="#C3C9D7"/>
<path d="M12.2916 25.1735H11.3711C11.1434 25.1737 10.918 25.129 10.7076 25.042C10.4972 24.955 10.3061 24.8273 10.1451 24.6664C9.98417 24.5054 9.85652 24.3143 9.76949 24.1039C9.68247 23.8935 9.63777 23.6681 9.63797 23.4404C9.63797 23.4404 9.61226 20.9071 9.60742 20.8427V20.8408H10.5284V20.8427C10.5332 20.909 10.5585 23.4404 10.5585 23.4404C10.5583 23.6681 10.603 23.8935 10.6901 24.1039C10.7771 24.3143 10.9047 24.5054 11.0657 24.6664C11.2267 24.8273 11.4178 24.955 11.6282 25.042C11.8385 25.129 12.064 25.1737 12.2916 25.1735Z" fill="#9DA3B1"/>
<path d="M17.437 23.4131H16.0567C15.9511 23.4099 15.8509 23.3657 15.7773 23.2899C15.7037 23.214 15.6626 23.1125 15.6626 23.0068C15.6626 22.9012 15.7037 22.7997 15.7773 22.7238C15.8509 22.648 15.9511 22.6038 16.0567 22.6006H17.4333L17.4355 23.007L17.437 23.4131Z" fill="#9DA3B1"/>
<path d="M14.5664 23.007C14.5664 23.1147 14.5236 23.218 14.4475 23.2942C14.3713 23.3703 14.268 23.4131 14.1603 23.4131H9.63724L9.62793 22.6006H14.1603C14.2681 22.6007 14.3713 22.6435 14.4475 22.7198C14.5236 22.796 14.5664 22.8993 14.5664 23.007Z" fill="#9DA3B1"/>
<path d="M13.4634 4.98082C9.28042 4.91637 5.76285 8.5621 5.8381 12.7145C5.83289 14.7437 6.62179 16.6944 8.03612 18.1496C8.83709 18.9733 9.5304 19.7347 9.60714 20.8408L17.422 20.8535C17.466 19.7154 18.1131 18.9461 18.9193 18.1041C20.307 16.6535 21.0793 14.722 21.0741 12.7145C21.0741 8.4455 17.6672 4.98492 13.463 4.98082" fill="#FAD207"/>
<path d="M17.4225 20.8518L9.60761 20.8391C9.53087 19.733 8.83756 18.9716 8.03658 18.1479C6.62226 16.6927 5.83336 14.742 5.83857 12.7128C5.76406 8.5604 9.28089 4.91466 13.4638 4.97911C13.5987 4.97911 13.7328 4.98321 13.8662 4.98992C9.91459 5.22015 6.68685 8.73475 6.75875 12.7143C6.75355 14.7435 7.54245 16.6942 8.95677 18.1494C9.75775 18.973 10.4511 19.7345 10.5282 20.8406L17.4225 20.8518Z" fill="#FAA515"/>
<path d="M13.6474 16.5854C13.5673 16.6885 13.4656 16.7728 13.3495 16.8324C13.2333 16.892 13.1055 16.9255 12.975 16.9304H12.9415C12.8166 16.9303 12.6931 16.9041 12.5789 16.8534C12.4648 16.8027 12.3625 16.7287 12.2787 16.6361L9.73311 13.8196C9.64988 13.7334 9.58484 13.6312 9.54187 13.5194C9.49889 13.4075 9.47885 13.2881 9.48294 13.1683C9.48704 13.0485 9.51517 12.9307 9.56569 12.822C9.6162 12.7133 9.68805 12.6159 9.77697 12.5355C9.8659 12.4551 9.97008 12.3934 10.0833 12.3541C10.1966 12.3148 10.3165 12.2987 10.4361 12.3067C10.5557 12.3147 10.6725 12.3466 10.7795 12.4006C10.8865 12.4547 10.9816 12.5296 11.059 12.6211L12.8901 14.6459L15.8108 10.8832C15.8811 10.7859 15.9702 10.7037 16.0729 10.6416C16.1757 10.5794 16.2898 10.5386 16.4087 10.5215C16.5275 10.5045 16.6485 10.5115 16.7646 10.5422C16.8806 10.5729 16.9893 10.6267 17.0841 10.7003C17.1789 10.774 17.258 10.8659 17.3165 10.9707C17.375 11.0756 17.4118 11.1911 17.4247 11.3104C17.4376 11.4298 17.4263 11.5505 17.3916 11.6654C17.3568 11.7803 17.2993 11.8871 17.2224 11.9792L13.6474 16.5854Z" fill="#FAA515"/>
</svg>
