<svg width="58" height="56" viewBox="0 0 58 56" fill="none" xmlns="http://www.w3.org/2000/svg">
<path d="M10.1162 40.1826C13.7054 40.1826 16.6991 42.6465 17.5605 45.9736L17.6328 46.2549H20.9072C21.8168 46.255 22.5555 46.993 22.5557 47.9033C22.5557 48.8137 21.8169 49.5526 20.9072 49.5527H17.6328L17.5605 49.834C16.699 53.161 13.7054 55.625 10.1162 55.625C5.85384 55.625 2.39844 52.1679 2.39844 47.9033C2.39859 43.6389 5.85394 40.1827 10.1162 40.1826ZM31.6973 46.2549H34.3955C35.3051 46.255 36.0438 46.993 36.0439 47.9033C36.0439 48.8138 35.3052 49.5527 34.3955 49.5527H31.6973C30.7877 49.5525 30.0498 48.8137 30.0498 47.9033C30.05 46.9931 30.7878 46.2551 31.6973 46.2549ZM45.1865 46.2549H47.8838C48.7934 46.2549 49.5321 46.993 49.5322 47.9033C49.5322 48.8138 48.7935 49.5527 47.8838 49.5527H45.1865C44.2768 49.5527 43.5381 48.8138 43.5381 47.9033C43.5383 46.993 44.2769 46.2549 45.1865 46.2549ZM55.9766 37.3887C56.8863 37.3887 57.625 38.1276 57.625 39.0381V39.8076C57.625 40.5818 57.5335 41.3532 57.3535 42.1016C57.1712 42.8569 56.4953 43.3642 55.7529 43.3643C55.6245 43.3643 55.493 43.3495 55.3633 43.3193H55.3643C54.4778 43.1046 53.9343 42.2139 54.1465 41.3291C54.2667 40.8315 54.3281 40.3197 54.3281 39.8076V39.0381C54.3281 38.1276 55.0669 37.3888 55.9766 37.3887ZM49.0928 27.4443L49.2607 27.4629L49.2695 27.4648C50.2127 27.5981 51.1244 27.867 51.9863 28.2686L52.3525 28.4492H52.3535C53.1092 28.8393 53.436 29.7392 53.1289 30.5176L53.0596 30.6719H53.0586C52.7675 31.2371 52.1912 31.5625 51.5928 31.5625C51.4027 31.5625 51.2098 31.5294 51.0234 31.46L50.8389 31.3789L50.8379 31.3779L50.5967 31.2588C50.11 31.0321 49.599 30.8691 49.0713 30.7715L48.8057 30.7285L48.6396 30.6963C47.8834 30.5103 47.36 29.8129 47.3916 29.0332L47.4062 28.8643H47.4072C47.5273 28.0093 48.2593 27.394 49.0928 27.4443ZM27.835 0.858398C28.4386 0.254477 29.3926 0.216624 30.04 0.745117L30.165 0.858398L35.5605 6.25586C36.1643 6.85991 36.2023 7.81507 35.6738 8.46289L35.5605 8.58789L30.165 13.9854C29.843 14.3075 29.4221 14.4687 29 14.4688C28.6307 14.4688 28.2621 14.3453 27.96 14.0986L27.835 13.9854C27.2312 13.3813 27.1932 12.4262 27.7217 11.7783L27.835 11.6533L29.7764 9.71094L30.416 9.07031H12.8145C7.77302 9.07031 3.67192 13.1737 3.67188 18.2168C3.67188 23.26 7.773 27.3633 12.8145 27.3633H39.791C40.7005 27.3635 41.4383 28.1015 41.4385 29.0117C41.4385 29.9221 40.7006 30.6609 39.791 30.6611H12.8135C5.95536 30.6609 0.375 25.0782 0.375 18.2168C0.375056 11.3554 5.9554 5.77272 12.8135 5.77246H30.416L29.7764 5.13281L27.835 3.19043C27.2312 2.58643 27.1934 1.63124 27.7217 0.983398L27.835 0.858398ZM50.5811 2.39941C53.3535 2.39941 55.6016 4.64772 55.6016 7.42188C55.6014 10.1958 53.3534 12.4443 50.5811 12.4443C47.8088 12.4442 45.5616 10.1957 45.5615 7.42188C45.5615 4.64784 47.8087 2.3996 50.5811 2.39941Z" fill="#142A63" stroke="white" stroke-width="0.75"/>
<circle cx="50" cy="7" r="7" fill="#FAA515"/>
<circle cx="10" cy="48" r="5" fill="white"/>
</svg>
