<svg width="60" height="60" viewBox="0 0 60 60" fill="none" xmlns="http://www.w3.org/2000/svg">
<path d="M24.2207 0.944336C29.7878 -0.162986 35.5519 0.352905 40.8281 2.4248L41.3369 2.62988C46.5811 4.80209 51.0872 8.43375 54.3232 13.0879L54.6318 13.541C57.8871 18.4128 59.625 24.1407 59.625 30C59.625 37.857 56.504 45.3925 50.9482 50.9482C45.3925 56.504 37.857 59.625 30 59.625C24.3236 59.625 18.7708 57.9942 14 54.9326L13.541 54.6318C8.82152 51.4783 5.11052 47.0377 2.84473 41.8418L2.62988 41.3369C0.45776 36.0929 -0.160892 30.3388 0.841797 24.7598L0.944336 24.2207C2.08742 18.474 4.90863 13.1949 9.05176 9.05176C13.0653 5.03823 18.1447 2.26535 23.6826 1.05664L24.2207 0.944336ZM30 3.91113C25.0013 3.91114 20.1115 5.34694 15.9102 8.04297L15.5059 8.30762C11.3496 11.0848 8.08137 14.9955 6.08594 19.5713L5.89648 20.0156C3.9835 24.634 3.43912 29.7019 4.32227 34.6152L4.41211 35.0898C5.38732 39.9925 7.75003 44.5079 11.2139 48.1025L11.5518 48.4482C15.0865 51.983 19.5602 54.4249 24.4375 55.4893L24.9102 55.5879C29.8127 56.5631 34.8887 56.1086 39.5352 54.2842L39.9844 54.1035C44.6025 52.1906 48.5702 48.9921 51.4199 44.8936L51.6924 44.4941C54.559 40.2038 56.0889 35.1599 56.0889 30C56.0889 23.2969 53.5098 16.8596 48.9004 12.0156L48.4482 11.5518C43.5556 6.65908 36.9193 3.91113 30 3.91113Z" fill="#142A63" stroke="white" stroke-width="0.75"/>
<path d="M45.8857 23.002L26.8789 39.8984C26.5972 40.1464 26.245 40.2977 25.874 40.332L25.7139 40.3389H25.7119C25.4793 40.3402 25.2485 40.296 25.0332 40.208C24.8715 40.142 24.7209 40.0522 24.5859 39.9424L24.457 39.8262L14.0088 29.3779L16.5186 26.8672L25.4473 35.8994L25.6973 36.1514L25.9629 35.916L43.5518 20.3516L45.8857 23.002Z" fill="#FAA515" stroke="white" stroke-width="0.75"/>
</svg>
