<svg width="54" height="60" viewBox="0 0 54 60" fill="none" xmlns="http://www.w3.org/2000/svg">
<path d="M5.85938 0.25H40.1436C41.5389 0.250106 42.8811 0.771198 43.9102 1.70605L44.1113 1.89844H44.1123C45.1664 2.95092 45.7556 4.38317 45.7529 5.87305V34.6289L45.9014 34.6953C49.4708 36.2872 52.1373 39.3852 53.1826 43.1387L53.2783 43.5039C54.2183 47.3009 53.4132 51.3111 51.0977 54.4424L50.8691 54.7422L50.8682 54.7432C48.3777 57.9183 44.5635 59.7662 40.5312 59.75L40.1543 59.7432C36.2626 59.6154 32.6208 57.7588 30.2314 54.667L30.1562 54.5703H5.85938C4.46426 54.5703 3.12454 54.0496 2.0957 53.1172L1.89355 52.9248C0.83929 51.8723 0.250061 50.4432 0.25 48.9531V5.86426C0.250081 2.76352 2.76166 0.250073 5.85938 0.25ZM40.5742 35.9844C37.9236 35.9844 35.3768 36.9714 33.4209 38.7441L33.0381 39.1094C31.038 41.1085 29.9151 43.8221 29.915 46.6514C29.915 49.3039 30.9015 51.8558 32.6729 53.8115L33.0381 54.1943C35.0382 56.1958 37.747 57.3193 40.5742 57.3193C43.225 57.3193 45.7742 56.3316 47.7305 54.5586L48.1133 54.1943C50.1105 52.1953 51.2363 49.4808 51.2363 46.6514L51.2217 46.1221C51.0954 43.6618 50.1258 41.32 48.4727 39.4951L48.1074 39.1123C46.2351 37.2385 43.7378 36.1315 41.1035 35.998L40.5742 35.9844ZM5.85938 2.68359C4.10348 2.68367 2.67879 4.10679 2.67871 5.86426V48.9531C2.67883 50.6555 4.01583 52.0477 5.69629 52.1328L5.85938 52.1367H28.6758L28.5283 51.7891C26.8648 47.8656 27.2125 43.3882 29.4414 39.7764L29.6631 39.4287C32.0864 35.7602 36.188 33.5541 40.5811 33.5508C41.4008 33.5562 42.2212 33.6368 43.0283 33.7881L43.3242 33.8438V5.86426C43.3242 5.07222 43.0281 4.31191 42.5 3.72852L42.3916 3.61426C41.7953 3.01744 40.987 2.68371 40.1436 2.68359H5.85938ZM9.16992 44.5186H20.3125C20.9845 44.5186 21.5292 45.0633 21.5293 45.7363C21.5293 46.0167 21.4307 46.2898 21.2529 46.5068L21.1719 46.5967C20.9441 46.8247 20.6363 46.9521 20.3125 46.9521H9.16992C8.50078 46.9519 7.95605 46.4066 7.95605 45.7363C7.9562 45.0631 8.50117 44.5188 9.16992 44.5186ZM9.16992 37.1885H23.2441C23.5652 37.1885 23.8749 37.3163 24.1025 37.5439C24.3302 37.7718 24.458 38.0825 24.458 38.4043C24.4579 38.7259 24.3301 39.0359 24.1025 39.2637C23.875 39.4914 23.5654 39.6191 23.2441 39.6191H9.16992C8.50058 39.6189 7.95623 39.0769 7.95605 38.4043C7.95605 37.7316 8.50047 37.1887 9.16992 37.1885ZM9.1709 29.8555H27.3008C27.9732 29.8555 28.5176 30.4012 28.5176 31.0713C28.5176 31.7445 27.9729 32.2891 27.3008 32.2891H9.1709C8.50185 32.2891 7.95605 31.7448 7.95605 31.0713C7.95606 30.4009 8.50155 29.8555 9.1709 29.8555ZM9.1709 22.5234H36.8252C37.4966 22.5234 38.0389 23.0675 38.0391 23.7412C38.0391 24.4119 37.497 24.957 36.8252 24.957H9.1709C8.50155 24.957 7.95605 24.4116 7.95605 23.7412C7.95617 23.0678 8.50192 22.5234 9.1709 22.5234ZM9.1709 15.1934H36.8252C37.4973 15.1934 38.0391 15.736 38.0391 16.4092C38.0389 17.0822 37.4972 17.624 36.8252 17.624H9.1709C8.50137 17.624 7.95626 17.0819 7.95605 16.4092C7.95605 15.7363 8.50124 15.1934 9.1709 15.1934ZM9.1709 7.86035H36.8252C37.497 7.86036 38.0391 8.40545 38.0391 9.07617C38.0391 9.74994 37.4967 10.2939 36.8252 10.2939H9.1709C8.50185 10.2939 7.95605 9.74965 7.95605 9.07617C7.95606 8.40576 8.50155 7.86035 9.1709 7.86035Z" fill="#142A63" stroke="white" stroke-width="0.5"/>
<circle cx="40.4343" cy="46.5217" r="13.4783" fill="#FAA515"/>
<path d="M45.3877 41.2456C45.6776 41.23 45.9579 41.3184 46.1758 41.4829L46.2656 41.5581C46.4628 41.7424 46.5706 41.9812 46.5801 42.2251L46.5781 42.3296C46.5562 42.6114 46.4049 42.8803 46.1475 43.062L46.127 43.0767L46.1084 43.0942L37.0957 51.4897C36.8856 51.6841 36.5943 51.7993 36.2861 51.7993C35.8701 51.7992 35.5084 51.5974 35.3115 51.2954L35.2373 51.1597C35.0746 50.7902 35.1625 50.3624 35.4805 50.0718L36.1846 49.4282L36.1533 49.4272L44.5234 41.6821L44.54 41.6665L44.5547 41.6489C44.7522 41.4162 45.0515 41.267 45.3887 41.2466L45.3877 41.2456ZM43.7148 48.3521C44.405 48.0877 45.189 48.212 45.7402 48.6509L45.8467 48.7427L45.8486 48.7437C46.2103 49.0743 46.4082 49.5234 46.4082 49.9829C46.4082 50.385 46.2568 50.7787 45.9766 51.0923L45.8486 51.2212L45.8467 51.2231C45.2933 51.7355 44.4508 51.8948 43.7148 51.6128H43.7158C42.9822 51.3294 42.5284 50.6795 42.5283 49.9829C42.5283 49.2863 42.9822 48.6364 43.7158 48.353L43.7148 48.3521ZM35.7383 41.9507C36.4633 41.3081 37.5908 41.2673 38.3662 41.8296L38.5156 41.9507C38.8753 42.2841 39.0713 42.7285 39.0713 43.188C39.0712 43.5892 38.9203 43.981 38.6396 44.2964L38.5107 44.4272L38.5088 44.4292C38.1475 44.7658 37.6516 44.9594 37.126 44.9595C36.6684 44.9595 36.231 44.8112 35.8867 44.5483L35.7451 44.4292L35.7441 44.4282L35.6143 44.2944C35.0082 43.6054 35.049 42.5995 35.7383 41.9507Z" fill="white" stroke="#FAA515" stroke-width="0.75"/>
</svg>
