<svg width="51" height="64" viewBox="0 0 51 64" fill="none" xmlns="http://www.w3.org/2000/svg">
<path d="M5.46483 1.7234V4.16559H1.71536C1.32048 4.16559 1 4.48967 1 4.88899V62.0066C1 62.4059 1.32048 62.73 1.71536 62.73H44.6992C45.0941 62.73 45.4146 62.4059 45.4146 62.0066V59.5567H49.1583C49.5532 59.5567 49.8737 59.2326 49.8737 58.8333V1.7234C49.8737 1.32408 49.5532 1 49.1583 1H6.17924C5.78436 1 5.46483 1.32408 5.46483 1.7234ZM43.9839 61.2832H2.43073V5.61239H29.4648V13.9373C29.4648 17.4424 32.2853 20.2945 35.7524 20.2945H43.9848L43.9839 61.2832ZM30.8955 13.9373V6.63576C31.588 7.33601 42.1916 18.0587 42.9728 18.8477H35.7524C33.0741 18.8477 30.8955 16.6447 30.8955 13.9373ZM6.89556 2.4468H48.4439V58.1099H45.4203V23.1263H46.0928C46.4876 23.1263 46.8081 22.8023 46.8081 22.4029C46.8081 22.0036 46.4876 21.6796 46.0928 21.6796H45.4194V19.5672C45.4194 19.4332 45.3192 19.1669 45.2095 19.056L44.1222 17.9574H46.0918C46.4867 17.9574 46.8072 17.6333 46.8072 17.234C46.8072 16.8347 46.4867 16.5106 46.0918 16.5106H42.6914L39.0068 12.7875H46.0908C46.4857 12.7875 46.8062 12.4635 46.8062 12.0641C46.8062 11.6648 46.4857 11.3407 46.0908 11.3407H37.5751L33.8905 7.61765H46.0908C46.4857 7.61765 46.8062 7.29357 46.8062 6.89425C46.8062 6.49493 46.4857 6.17085 46.0908 6.17085H32.4589C31.98 5.68666 31.2389 4.93722 30.6848 4.37779C30.5789 4.27169 30.4148 4.1897 30.2326 4.17524C30.2145 4.17331 30.1964 4.16366 30.1773 4.16366H6.89556V2.4468Z" fill="#142A63" stroke="#142A63"/>
<path d="M23.7527 36.6778C23.5638 36.699 23.3912 36.7945 23.2729 36.944L16.02 46.0935C15.7587 46.4244 15.8331 46.9095 16.1765 47.1449C18.2892 48.5936 20.7548 49.3585 23.3063 49.3585C27.2036 49.3585 30.8386 47.5924 33.2794 44.5136C35.1594 42.1428 36.1552 39.1528 36.0855 36.0962C36.076 35.6747 35.7116 35.3467 35.292 35.393L23.7527 36.6778Z" fill="#FAA515"/>
<path d="M24.1533 35.5216C24.1791 35.5216 24.2058 35.5206 24.2315 35.5177L35.1699 34.314C35.582 34.2686 35.872 33.878 35.7956 33.4603C35.2367 30.4655 33.6257 27.759 31.2555 25.8396C28.9453 23.9665 26.1735 22.9643 22.9315 23.001C22.5118 23.0106 22.1894 23.381 22.2371 23.8035L23.4437 34.8782C23.4837 35.2467 23.7937 35.5216 24.1533 35.5216Z" fill="#FAA515"/>
<path d="M15.0185 45.2634L22.2704 36.1139C22.3887 35.9644 22.444 35.7734 22.423 35.5834L21.1688 23.927C21.1239 23.5065 20.7348 23.2161 20.3218 23.2952C17.3497 23.8768 14.6732 25.5069 12.7885 27.8845C8.65464 33.0997 9.17352 40.7658 13.9693 45.3377C14.2765 45.629 14.76 45.5894 15.0185 45.2634Z" fill="#FAA515"/>
</svg>
