<svg width="60" height="62" viewBox="0 0 60 62" fill="none" xmlns="http://www.w3.org/2000/svg">
<path d="M30.3699 12.7856C25.9266 12.7109 21.6529 14.3685 18.4556 17.5183C15.2611 20.668 13.498 24.8853 13.498 29.3967C13.498 34.18 15.5394 38.7256 19.0972 41.8675C21.1067 43.64 22.2175 45.9248 22.2917 48.3165H22.2785C21.6926 48.3165 21.218 48.7943 21.218 49.3842V52.7155C21.218 54.5519 21.7907 56.3537 22.8167 57.7657C22.822 57.7711 22.8273 57.7791 22.8326 57.7844C22.8326 57.7844 22.8326 57.7871 22.8352 57.7871L22.8379 57.7897C24.4709 60.1494 27.1459 61.5587 30.0014 61.5587C32.8646 61.5587 35.5501 60.1414 37.1648 57.7897C38.2068 56.3563 38.7794 54.5546 38.7794 52.7181V49.3868C38.7794 48.821 38.3366 48.3672 37.7825 48.3325C38.0317 45.7886 39.1187 43.4504 40.9453 41.8301C44.6198 38.563 46.6399 33.8433 46.4914 28.8816C46.2316 20.1985 38.9967 12.9804 30.3673 12.7911L30.3699 12.7856ZM36.6609 50.4517V51.6475H23.3445V50.4517H36.6609ZM36.539 53.9244C36.4806 54.2474 36.3985 54.5624 36.2951 54.8693C36.2526 54.9975 36.1943 55.1202 36.1439 55.243C36.0512 55.4699 35.9504 55.6888 35.8338 55.9023C35.7993 55.9664 35.7569 56.0278 35.7198 56.0892H24.2853C24.2509 56.0305 24.2138 55.9744 24.1793 55.9157C24.052 55.6888 23.9433 55.4539 23.8453 55.211C23.8002 55.0989 23.7498 54.9922 23.71 54.8774C23.6014 54.5624 23.5192 54.2367 23.4608 53.9057C23.4529 53.863 23.4396 53.823 23.4317 53.783H36.573C36.565 53.831 36.5491 53.8764 36.5412 53.9244L36.539 53.9244ZM26.3112 58.2273H33.6973C32.6156 58.9693 31.3485 59.4231 30.0017 59.4231C28.6602 59.4231 27.3956 58.972 26.3112 58.2273ZM39.5428 40.2283C37.2655 42.2542 35.8604 45.1584 35.6006 48.319H24.4424C24.3708 45.3026 22.9763 42.4519 20.5002 40.2631C17.3984 37.5271 15.6195 33.5659 15.6195 29.3995C15.6195 25.4703 17.1545 21.7919 19.9408 19.0483C22.7272 16.3017 26.4599 14.8762 30.3226 14.9243C37.8411 15.0898 44.1426 21.3786 44.3707 28.9436C44.5006 33.2704 42.7403 37.3841 39.5404 40.2268L39.5428 40.2283Z" fill="#142A63"/>
<path d="M6.48206 28.7204C7.17612 28.7204 7.73828 28.1568 7.73828 27.461C7.73828 26.7652 7.17612 26.2016 6.48206 26.2016H1.25621C0.562157 26.2016 0 26.7652 0 27.461C0 28.1568 0.562157 28.7204 1.25621 28.7204H6.48206Z" fill="#FAA515"/>
<path d="M58.7438 28.7204C59.4378 28.7204 60 28.1568 60 27.461C60 26.7652 59.4378 26.2016 58.7438 26.2016H53.5179C52.8239 26.2016 52.2617 26.7652 52.2617 27.461C52.2617 28.1568 52.8239 28.7204 53.5179 28.7204H58.7438Z" fill="#FAA515"/>
<path d="M8.79068 6.1898C8.30076 6.68404 8.30076 7.48063 8.79068 7.9718L12.487 11.6776C12.732 11.9231 13.0555 12.0459 13.3758 12.0459C13.6993 12.0459 14.0197 11.9231 14.2646 11.6776C14.7546 11.1833 14.7546 10.3867 14.2646 9.89557L10.5682 6.1898C10.0752 5.69864 9.2806 5.69864 8.79068 6.1898Z" fill="#FAA515"/>
<path d="M51.2133 48.7225C51.7033 48.2283 51.7033 47.4317 51.2133 46.9405L47.5168 43.2348C47.0238 42.7436 46.2292 42.7436 45.7393 43.2348C45.2494 43.729 45.2494 44.5256 45.7393 45.0168L49.4357 48.7225C49.6807 48.9681 50.0042 49.0909 50.3245 49.0909C50.648 49.0909 50.9684 48.9681 51.2133 48.7225Z" fill="#FAA515"/>
<path d="M51.2133 7.97171C51.7033 7.47747 51.7033 6.68088 51.2133 6.18972C50.7203 5.69855 49.9257 5.69855 49.4357 6.18972L45.7393 9.89549C45.2494 10.3897 45.2494 11.1863 45.7393 11.6775C45.9843 11.9231 46.3078 12.0459 46.6281 12.0459C46.9516 12.0459 47.2719 11.9231 47.5169 11.6775L51.2133 7.97171Z" fill="#FAA515"/>
<path d="M28.7462 1.25938V6.49842C28.7462 7.19423 29.3084 7.7578 30.0024 7.7578C30.6965 7.7578 31.2586 7.19423 31.2586 6.49842V1.25938C31.2586 0.563575 30.6965 0 30.0024 0C29.3084 0 28.7462 0.563575 28.7462 1.25938Z" fill="#FAA515"/>
<path d="M53.5179 28.7204C52.8239 28.7204 52.2617 28.1568 52.2617 27.461C52.2617 26.7652 52.8239 26.2016 53.5179 26.2016H58.7438C59.4378 26.2016 60 26.7652 60 27.461C60 28.1568 59.4378 28.7204 58.7438 28.7204H53.5179Z" fill="#FAA515"/>
<path d="M1.25621 28.7204C0.56216 28.7204 0 28.1568 0 27.461C0 26.7652 0.56216 26.2016 1.25621 26.2016H6.48206C7.17612 26.2016 7.73828 26.7652 7.73828 27.461C7.73828 28.1568 7.17612 28.7204 6.48206 28.7204H1.25621Z" fill="#FAA515"/>
<path d="M51.2093 6.1898C51.6992 6.68404 51.6992 7.48063 51.2093 7.9718L47.513 11.6776C47.268 11.9231 46.9445 12.0459 46.6242 12.0459C46.3007 12.0459 45.9803 11.9231 45.7354 11.6776C45.2454 11.1833 45.2454 10.3867 45.7354 9.89557L49.4318 6.1898C49.9248 5.69864 50.7194 5.69864 51.2093 6.1898Z" fill="#FAA515"/>
<path d="M8.78667 48.7225C8.29674 48.2283 8.29674 47.4317 8.78667 46.9405L12.4832 43.2348C12.9762 42.7436 13.7708 42.7436 14.2607 43.2348C14.7506 43.729 14.7506 44.5256 14.2607 45.0168L10.5643 48.7225C10.3193 48.9681 9.9958 49.0909 9.67546 49.0909C9.35196 49.0909 9.03163 48.9681 8.78667 48.7225Z" fill="#FAA515"/>
<path d="M8.78667 7.97171C8.29674 7.47747 8.29674 6.68088 8.78667 6.18972C9.27967 5.69855 10.0743 5.69855 10.5643 6.18972L14.2607 9.89549C14.7506 10.3897 14.7506 11.1863 14.2607 11.6775C14.0157 11.9231 13.6922 12.0459 13.3719 12.0459C13.0484 12.0459 12.7281 11.9231 12.4831 11.6775L8.78667 7.97171Z" fill="#FAA515"/>
<path d="M31.2538 1.25938V6.49842C31.2538 7.19423 30.6916 7.7578 29.9976 7.7578C29.3035 7.7578 28.7414 7.19423 28.7414 6.49842V1.25938C28.7414 0.563575 29.3035 0 29.9976 0C30.6916 0 31.2538 0.563575 31.2538 1.25938Z" fill="#FAA515"/>
</svg>
