<svg width="1505" height="485" viewBox="0 0 1505 485" fill="none" xmlns="http://www.w3.org/2000/svg">
<g opacity="0.05">
<circle cx="2.5" cy="2.5" r="2.5" fill="white"/>
<circle cx="32.5" cy="2.5" r="2.5" fill="white"/>
<circle cx="62.5" cy="2.5" r="2.5" fill="white"/>
<circle cx="92.5" cy="2.5" r="2.5" fill="white"/>
<circle cx="122.5" cy="2.5" r="2.5" fill="white"/>
<circle cx="152.5" cy="2.5" r="2.5" fill="white"/>
<circle cx="182.5" cy="2.5" r="2.5" fill="white"/>
<circle cx="212.5" cy="2.5" r="2.5" fill="white"/>
<circle cx="242.5" cy="2.5" r="2.5" fill="white"/>
<circle cx="272.5" cy="2.5" r="2.5" fill="white"/>
<circle cx="302.5" cy="2.5" r="2.5" fill="white"/>
<circle cx="332.5" cy="2.5" r="2.5" fill="white"/>
<circle cx="362.5" cy="2.5" r="2.5" fill="white"/>
<circle cx="392.5" cy="2.5" r="2.5" fill="white"/>
<circle cx="422.5" cy="2.5" r="2.5" fill="white"/>
<circle cx="452.5" cy="2.5" r="2.5" fill="white"/>
<circle cx="482.5" cy="2.5" r="2.5" fill="white"/>
<circle cx="512.5" cy="2.5" r="2.5" fill="white"/>
<circle cx="542.5" cy="2.5" r="2.5" fill="white"/>
<circle cx="572.5" cy="2.5" r="2.5" fill="white"/>
<circle cx="602.5" cy="2.5" r="2.5" fill="white"/>
<circle cx="632.5" cy="2.5" r="2.5" fill="white"/>
<circle cx="662.5" cy="2.5" r="2.5" fill="white"/>
<circle cx="692.5" cy="2.5" r="2.5" fill="white"/>
<circle cx="722.5" cy="2.5" r="2.5" fill="white"/>
<circle cx="752.5" cy="2.5" r="2.5" fill="white"/>
<circle cx="782.5" cy="2.5" r="2.5" fill="white"/>
<circle cx="812.5" cy="2.5" r="2.5" fill="white"/>
<circle cx="842.5" cy="2.5" r="2.5" fill="white"/>
<circle cx="872.5" cy="2.5" r="2.5" fill="white"/>
<circle cx="902.5" cy="2.5" r="2.5" fill="white"/>
<circle cx="932.5" cy="2.5" r="2.5" fill="white"/>
<circle cx="962.5" cy="2.5" r="2.5" fill="white"/>
<circle cx="992.5" cy="2.5" r="2.5" fill="white"/>
<circle cx="1022.5" cy="2.5" r="2.5" fill="white"/>
<circle cx="1052.5" cy="2.5" r="2.5" fill="white"/>
<circle cx="1082.5" cy="2.5" r="2.5" fill="white"/>
<circle cx="1112.5" cy="2.5" r="2.5" fill="white"/>
<circle cx="1142.5" cy="2.5" r="2.5" fill="white"/>
<circle cx="1172.5" cy="2.5" r="2.5" fill="white"/>
<circle cx="1202.5" cy="2.5" r="2.5" fill="white"/>
<circle cx="1232.5" cy="2.5" r="2.5" fill="white"/>
<circle cx="1262.5" cy="2.5" r="2.5" fill="white"/>
<circle cx="1292.5" cy="2.5" r="2.5" fill="white"/>
<circle cx="1322.5" cy="2.5" r="2.5" fill="white"/>
<circle cx="1352.5" cy="2.5" r="2.5" fill="white"/>
<circle cx="1382.5" cy="2.5" r="2.5" fill="white"/>
<circle cx="1442.5" cy="2.5" r="2.5" fill="white"/>
<circle cx="1412.5" cy="2.5" r="2.5" fill="white"/>
<circle cx="1472.5" cy="2.5" r="2.5" fill="white"/>
<circle cx="1502.5" cy="2.5" r="2.5" fill="white"/>
<circle cx="2.5" cy="32.5" r="2.5" fill="white"/>
<circle cx="32.5" cy="32.5" r="2.5" fill="white"/>
<circle cx="62.5" cy="32.5" r="2.5" fill="white"/>
<circle cx="92.5" cy="32.5" r="2.5" fill="white"/>
<circle cx="122.5" cy="32.5" r="2.5" fill="white"/>
<circle cx="152.5" cy="32.5" r="2.5" fill="white"/>
<circle cx="182.5" cy="32.5" r="2.5" fill="white"/>
<circle cx="212.5" cy="32.5" r="2.5" fill="white"/>
<circle cx="242.5" cy="32.5" r="2.5" fill="white"/>
<circle cx="272.5" cy="32.5" r="2.5" fill="white"/>
<circle cx="302.5" cy="32.5" r="2.5" fill="white"/>
<circle cx="332.5" cy="32.5" r="2.5" fill="white"/>
<circle cx="362.5" cy="32.5" r="2.5" fill="white"/>
<circle cx="392.5" cy="32.5" r="2.5" fill="white"/>
<circle cx="422.5" cy="32.5" r="2.5" fill="white"/>
<circle cx="452.5" cy="32.5" r="2.5" fill="white"/>
<circle cx="482.5" cy="32.5" r="2.5" fill="white"/>
<circle cx="512.5" cy="32.5" r="2.5" fill="white"/>
<circle cx="542.5" cy="32.5" r="2.5" fill="white"/>
<circle cx="572.5" cy="32.5" r="2.5" fill="white"/>
<circle cx="602.5" cy="32.5" r="2.5" fill="white"/>
<circle cx="632.5" cy="32.5" r="2.5" fill="white"/>
<circle cx="662.5" cy="32.5" r="2.5" fill="white"/>
<circle cx="692.5" cy="32.5" r="2.5" fill="white"/>
<circle cx="722.5" cy="32.5" r="2.5" fill="white"/>
<circle cx="752.5" cy="32.5" r="2.5" fill="white"/>
<circle cx="782.5" cy="32.5" r="2.5" fill="white"/>
<circle cx="812.5" cy="32.5" r="2.5" fill="white"/>
<circle cx="842.5" cy="32.5" r="2.5" fill="white"/>
<circle cx="872.5" cy="32.5" r="2.5" fill="white"/>
<circle cx="902.5" cy="32.5" r="2.5" fill="white"/>
<circle cx="932.5" cy="32.5" r="2.5" fill="white"/>
<circle cx="962.5" cy="32.5" r="2.5" fill="white"/>
<circle cx="992.5" cy="32.5" r="2.5" fill="white"/>
<circle cx="1022.5" cy="32.5" r="2.5" fill="white"/>
<circle cx="1052.5" cy="32.5" r="2.5" fill="white"/>
<circle cx="1082.5" cy="32.5" r="2.5" fill="white"/>
<circle cx="1112.5" cy="32.5" r="2.5" fill="white"/>
<circle cx="1142.5" cy="32.5" r="2.5" fill="white"/>
<circle cx="1172.5" cy="32.5" r="2.5" fill="white"/>
<circle cx="1202.5" cy="32.5" r="2.5" fill="white"/>
<circle cx="1232.5" cy="32.5" r="2.5" fill="white"/>
<circle cx="1262.5" cy="32.5" r="2.5" fill="white"/>
<circle cx="1292.5" cy="32.5" r="2.5" fill="white"/>
<circle cx="1322.5" cy="32.5" r="2.5" fill="white"/>
<circle cx="1352.5" cy="32.5" r="2.5" fill="white"/>
<circle cx="1382.5" cy="32.5" r="2.5" fill="white"/>
<circle cx="1442.5" cy="32.5" r="2.5" fill="white"/>
<circle cx="1412.5" cy="32.5" r="2.5" fill="white"/>
<circle cx="1472.5" cy="32.5" r="2.5" fill="white"/>
<circle cx="1502.5" cy="32.5" r="2.5" fill="white"/>
<circle cx="2.5" cy="62.5" r="2.5" fill="white"/>
<circle cx="32.5" cy="62.5" r="2.5" fill="white"/>
<circle cx="62.5" cy="62.5" r="2.5" fill="white"/>
<circle cx="92.5" cy="62.5" r="2.5" fill="white"/>
<circle cx="122.5" cy="62.5" r="2.5" fill="white"/>
<circle cx="152.5" cy="62.5" r="2.5" fill="white"/>
<circle cx="182.5" cy="62.5" r="2.5" fill="white"/>
<circle cx="212.5" cy="62.5" r="2.5" fill="white"/>
<circle cx="242.5" cy="62.5" r="2.5" fill="white"/>
<circle cx="272.5" cy="62.5" r="2.5" fill="white"/>
<circle cx="302.5" cy="62.5" r="2.5" fill="white"/>
<circle cx="332.5" cy="62.5" r="2.5" fill="white"/>
<circle cx="362.5" cy="62.5" r="2.5" fill="white"/>
<circle cx="392.5" cy="62.5" r="2.5" fill="white"/>
<circle cx="422.5" cy="62.5" r="2.5" fill="white"/>
<circle cx="452.5" cy="62.5" r="2.5" fill="white"/>
<circle cx="482.5" cy="62.5" r="2.5" fill="white"/>
<circle cx="512.5" cy="62.5" r="2.5" fill="white"/>
<circle cx="542.5" cy="62.5" r="2.5" fill="white"/>
<circle cx="572.5" cy="62.5" r="2.5" fill="white"/>
<circle cx="602.5" cy="62.5" r="2.5" fill="white"/>
<circle cx="632.5" cy="62.5" r="2.5" fill="white"/>
<circle cx="662.5" cy="62.5" r="2.5" fill="white"/>
<circle cx="692.5" cy="62.5" r="2.5" fill="white"/>
<circle cx="722.5" cy="62.5" r="2.5" fill="white"/>
<circle cx="752.5" cy="62.5" r="2.5" fill="white"/>
<circle cx="782.5" cy="62.5" r="2.5" fill="white"/>
<circle cx="812.5" cy="62.5" r="2.5" fill="white"/>
<circle cx="842.5" cy="62.5" r="2.5" fill="white"/>
<circle cx="872.5" cy="62.5" r="2.5" fill="white"/>
<circle cx="902.5" cy="62.5" r="2.5" fill="white"/>
<circle cx="932.5" cy="62.5" r="2.5" fill="white"/>
<circle cx="962.5" cy="62.5" r="2.5" fill="white"/>
<circle cx="992.5" cy="62.5" r="2.5" fill="white"/>
<circle cx="1022.5" cy="62.5" r="2.5" fill="white"/>
<circle cx="1052.5" cy="62.5" r="2.5" fill="white"/>
<circle cx="1082.5" cy="62.5" r="2.5" fill="white"/>
<circle cx="1112.5" cy="62.5" r="2.5" fill="white"/>
<circle cx="1142.5" cy="62.5" r="2.5" fill="white"/>
<circle cx="1172.5" cy="62.5" r="2.5" fill="white"/>
<circle cx="1202.5" cy="62.5" r="2.5" fill="white"/>
<circle cx="1232.5" cy="62.5" r="2.5" fill="white"/>
<circle cx="1262.5" cy="62.5" r="2.5" fill="white"/>
<circle cx="1292.5" cy="62.5" r="2.5" fill="white"/>
<circle cx="1322.5" cy="62.5" r="2.5" fill="white"/>
<circle cx="1352.5" cy="62.5" r="2.5" fill="white"/>
<circle cx="1382.5" cy="62.5" r="2.5" fill="white"/>
<circle cx="1442.5" cy="62.5" r="2.5" fill="white"/>
<circle cx="1412.5" cy="62.5" r="2.5" fill="white"/>
<circle cx="1472.5" cy="62.5" r="2.5" fill="white"/>
<circle cx="1502.5" cy="62.5" r="2.5" fill="white"/>
<circle cx="2.5" cy="92.5" r="2.5" fill="white"/>
<circle cx="32.5" cy="92.5" r="2.5" fill="white"/>
<circle cx="62.5" cy="92.5" r="2.5" fill="white"/>
<circle cx="92.5" cy="92.5" r="2.5" fill="white"/>
<circle cx="122.5" cy="92.5" r="2.5" fill="white"/>
<circle cx="152.5" cy="92.5" r="2.5" fill="white"/>
<circle cx="182.5" cy="92.5" r="2.5" fill="white"/>
<circle cx="212.5" cy="92.5" r="2.5" fill="white"/>
<circle cx="242.5" cy="92.5" r="2.5" fill="white"/>
<circle cx="272.5" cy="92.5" r="2.5" fill="white"/>
<circle cx="302.5" cy="92.5" r="2.5" fill="white"/>
<circle cx="332.5" cy="92.5" r="2.5" fill="white"/>
<circle cx="362.5" cy="92.5" r="2.5" fill="white"/>
<circle cx="392.5" cy="92.5" r="2.5" fill="white"/>
<circle cx="422.5" cy="92.5" r="2.5" fill="white"/>
<circle cx="452.5" cy="92.5" r="2.5" fill="white"/>
<circle cx="482.5" cy="92.5" r="2.5" fill="white"/>
<circle cx="512.5" cy="92.5" r="2.5" fill="white"/>
<circle cx="542.5" cy="92.5" r="2.5" fill="white"/>
<circle cx="572.5" cy="92.5" r="2.5" fill="white"/>
<circle cx="602.5" cy="92.5" r="2.5" fill="white"/>
<circle cx="632.5" cy="92.5" r="2.5" fill="white"/>
<circle cx="662.5" cy="92.5" r="2.5" fill="white"/>
<circle cx="692.5" cy="92.5" r="2.5" fill="white"/>
<circle cx="722.5" cy="92.5" r="2.5" fill="white"/>
<circle cx="752.5" cy="92.5" r="2.5" fill="white"/>
<circle cx="782.5" cy="92.5" r="2.5" fill="white"/>
<circle cx="812.5" cy="92.5" r="2.5" fill="white"/>
<circle cx="842.5" cy="92.5" r="2.5" fill="white"/>
<circle cx="872.5" cy="92.5" r="2.5" fill="white"/>
<circle cx="902.5" cy="92.5" r="2.5" fill="white"/>
<circle cx="932.5" cy="92.5" r="2.5" fill="white"/>
<circle cx="962.5" cy="92.5" r="2.5" fill="white"/>
<circle cx="992.5" cy="92.5" r="2.5" fill="white"/>
<circle cx="1022.5" cy="92.5" r="2.5" fill="white"/>
<circle cx="1052.5" cy="92.5" r="2.5" fill="white"/>
<circle cx="1082.5" cy="92.5" r="2.5" fill="white"/>
<circle cx="1112.5" cy="92.5" r="2.5" fill="white"/>
<circle cx="1142.5" cy="92.5" r="2.5" fill="white"/>
<circle cx="1172.5" cy="92.5" r="2.5" fill="white"/>
<circle cx="1202.5" cy="92.5" r="2.5" fill="white"/>
<circle cx="1232.5" cy="92.5" r="2.5" fill="white"/>
<circle cx="1262.5" cy="92.5" r="2.5" fill="white"/>
<circle cx="1292.5" cy="92.5" r="2.5" fill="white"/>
<circle cx="1322.5" cy="92.5" r="2.5" fill="white"/>
<circle cx="1352.5" cy="92.5" r="2.5" fill="white"/>
<circle cx="1382.5" cy="92.5" r="2.5" fill="white"/>
<circle cx="1442.5" cy="92.5" r="2.5" fill="white"/>
<circle cx="1412.5" cy="92.5" r="2.5" fill="white"/>
<circle cx="1472.5" cy="92.5" r="2.5" fill="white"/>
<circle cx="1502.5" cy="92.5" r="2.5" fill="white"/>
<circle cx="2.5" cy="122.5" r="2.5" fill="white"/>
<circle cx="32.5" cy="122.5" r="2.5" fill="white"/>
<circle cx="62.5" cy="122.5" r="2.5" fill="white"/>
<circle cx="92.5" cy="122.5" r="2.5" fill="white"/>
<circle cx="122.5" cy="122.5" r="2.5" fill="white"/>
<circle cx="152.5" cy="122.5" r="2.5" fill="white"/>
<circle cx="182.5" cy="122.5" r="2.5" fill="white"/>
<circle cx="212.5" cy="122.5" r="2.5" fill="white"/>
<circle cx="242.5" cy="122.5" r="2.5" fill="white"/>
<circle cx="272.5" cy="122.5" r="2.5" fill="white"/>
<circle cx="302.5" cy="122.5" r="2.5" fill="white"/>
<circle cx="332.5" cy="122.5" r="2.5" fill="white"/>
<circle cx="362.5" cy="122.5" r="2.5" fill="white"/>
<circle cx="392.5" cy="122.5" r="2.5" fill="white"/>
<circle cx="422.5" cy="122.5" r="2.5" fill="white"/>
<circle cx="452.5" cy="122.5" r="2.5" fill="white"/>
<circle cx="482.5" cy="122.5" r="2.5" fill="white"/>
<circle cx="512.5" cy="122.5" r="2.5" fill="white"/>
<circle cx="542.5" cy="122.5" r="2.5" fill="white"/>
<circle cx="572.5" cy="122.5" r="2.5" fill="white"/>
<circle cx="602.5" cy="122.5" r="2.5" fill="white"/>
<circle cx="632.5" cy="122.5" r="2.5" fill="white"/>
<circle cx="662.5" cy="122.5" r="2.5" fill="white"/>
<circle cx="692.5" cy="122.5" r="2.5" fill="white"/>
<circle cx="722.5" cy="122.5" r="2.5" fill="white"/>
<circle cx="752.5" cy="122.5" r="2.5" fill="white"/>
<circle cx="782.5" cy="122.5" r="2.5" fill="white"/>
<circle cx="812.5" cy="122.5" r="2.5" fill="white"/>
<circle cx="842.5" cy="122.5" r="2.5" fill="white"/>
<circle cx="872.5" cy="122.5" r="2.5" fill="white"/>
<circle cx="902.5" cy="122.5" r="2.5" fill="white"/>
<circle cx="932.5" cy="122.5" r="2.5" fill="white"/>
<circle cx="962.5" cy="122.5" r="2.5" fill="white"/>
<circle cx="992.5" cy="122.5" r="2.5" fill="white"/>
<circle cx="1022.5" cy="122.5" r="2.5" fill="white"/>
<circle cx="1052.5" cy="122.5" r="2.5" fill="white"/>
<circle cx="1082.5" cy="122.5" r="2.5" fill="white"/>
<circle cx="1112.5" cy="122.5" r="2.5" fill="white"/>
<circle cx="1142.5" cy="122.5" r="2.5" fill="white"/>
<circle cx="1172.5" cy="122.5" r="2.5" fill="white"/>
<circle cx="1202.5" cy="122.5" r="2.5" fill="white"/>
<circle cx="1232.5" cy="122.5" r="2.5" fill="white"/>
<circle cx="1262.5" cy="122.5" r="2.5" fill="white"/>
<circle cx="1292.5" cy="122.5" r="2.5" fill="white"/>
<circle cx="1322.5" cy="122.5" r="2.5" fill="white"/>
<circle cx="1352.5" cy="122.5" r="2.5" fill="white"/>
<circle cx="1382.5" cy="122.5" r="2.5" fill="white"/>
<circle cx="1442.5" cy="122.5" r="2.5" fill="white"/>
<circle cx="1412.5" cy="122.5" r="2.5" fill="white"/>
<circle cx="1472.5" cy="122.5" r="2.5" fill="white"/>
<circle cx="1502.5" cy="122.5" r="2.5" fill="white"/>
<circle cx="2.5" cy="152.5" r="2.5" fill="white"/>
<circle cx="32.5" cy="152.5" r="2.5" fill="white"/>
<circle cx="62.5" cy="152.5" r="2.5" fill="white"/>
<circle cx="92.5" cy="152.5" r="2.5" fill="white"/>
<circle cx="122.5" cy="152.5" r="2.5" fill="white"/>
<circle cx="152.5" cy="152.5" r="2.5" fill="white"/>
<circle cx="182.5" cy="152.5" r="2.5" fill="white"/>
<circle cx="212.5" cy="152.5" r="2.5" fill="white"/>
<circle cx="242.5" cy="152.5" r="2.5" fill="white"/>
<circle cx="272.5" cy="152.5" r="2.5" fill="white"/>
<circle cx="302.5" cy="152.5" r="2.5" fill="white"/>
<circle cx="332.5" cy="152.5" r="2.5" fill="white"/>
<circle cx="362.5" cy="152.5" r="2.5" fill="white"/>
<circle cx="392.5" cy="152.5" r="2.5" fill="white"/>
<circle cx="422.5" cy="152.5" r="2.5" fill="white"/>
<circle cx="452.5" cy="152.5" r="2.5" fill="white"/>
<circle cx="482.5" cy="152.5" r="2.5" fill="white"/>
<circle cx="512.5" cy="152.5" r="2.5" fill="white"/>
<circle cx="542.5" cy="152.5" r="2.5" fill="white"/>
<circle cx="572.5" cy="152.5" r="2.5" fill="white"/>
<circle cx="602.5" cy="152.5" r="2.5" fill="white"/>
<circle cx="632.5" cy="152.5" r="2.5" fill="white"/>
<circle cx="662.5" cy="152.5" r="2.5" fill="white"/>
<circle cx="692.5" cy="152.5" r="2.5" fill="white"/>
<circle cx="722.5" cy="152.5" r="2.5" fill="white"/>
<circle cx="752.5" cy="152.5" r="2.5" fill="white"/>
<circle cx="782.5" cy="152.5" r="2.5" fill="white"/>
<circle cx="812.5" cy="152.5" r="2.5" fill="white"/>
<circle cx="842.5" cy="152.5" r="2.5" fill="white"/>
<circle cx="872.5" cy="152.5" r="2.5" fill="white"/>
<circle cx="902.5" cy="152.5" r="2.5" fill="white"/>
<circle cx="932.5" cy="152.5" r="2.5" fill="white"/>
<circle cx="962.5" cy="152.5" r="2.5" fill="white"/>
<circle cx="992.5" cy="152.5" r="2.5" fill="white"/>
<circle cx="1022.5" cy="152.5" r="2.5" fill="white"/>
<circle cx="1052.5" cy="152.5" r="2.5" fill="white"/>
<circle cx="1082.5" cy="152.5" r="2.5" fill="white"/>
<circle cx="1112.5" cy="152.5" r="2.5" fill="white"/>
<circle cx="1142.5" cy="152.5" r="2.5" fill="white"/>
<circle cx="1172.5" cy="152.5" r="2.5" fill="white"/>
<circle cx="1202.5" cy="152.5" r="2.5" fill="white"/>
<circle cx="1232.5" cy="152.5" r="2.5" fill="white"/>
<circle cx="1262.5" cy="152.5" r="2.5" fill="white"/>
<circle cx="1292.5" cy="152.5" r="2.5" fill="white"/>
<circle cx="1322.5" cy="152.5" r="2.5" fill="white"/>
<circle cx="1352.5" cy="152.5" r="2.5" fill="white"/>
<circle cx="1382.5" cy="152.5" r="2.5" fill="white"/>
<circle cx="1442.5" cy="152.5" r="2.5" fill="white"/>
<circle cx="1412.5" cy="152.5" r="2.5" fill="white"/>
<circle cx="1472.5" cy="152.5" r="2.5" fill="white"/>
<circle cx="1502.5" cy="152.5" r="2.5" fill="white"/>
<circle cx="2.5" cy="182.5" r="2.5" fill="white"/>
<circle cx="32.5" cy="182.5" r="2.5" fill="white"/>
<circle cx="62.5" cy="182.5" r="2.5" fill="white"/>
<circle cx="92.5" cy="182.5" r="2.5" fill="white"/>
<circle cx="122.5" cy="182.5" r="2.5" fill="white"/>
<circle cx="152.5" cy="182.5" r="2.5" fill="white"/>
<circle cx="182.5" cy="182.5" r="2.5" fill="white"/>
<circle cx="212.5" cy="182.5" r="2.5" fill="white"/>
<circle cx="242.5" cy="182.5" r="2.5" fill="white"/>
<circle cx="272.5" cy="182.5" r="2.5" fill="white"/>
<circle cx="302.5" cy="182.5" r="2.5" fill="white"/>
<circle cx="332.5" cy="182.5" r="2.5" fill="white"/>
<circle cx="362.5" cy="182.5" r="2.5" fill="white"/>
<circle cx="392.5" cy="182.5" r="2.5" fill="white"/>
<circle cx="422.5" cy="182.5" r="2.5" fill="white"/>
<circle cx="452.5" cy="182.5" r="2.5" fill="white"/>
<circle cx="482.5" cy="182.5" r="2.5" fill="white"/>
<circle cx="512.5" cy="182.5" r="2.5" fill="white"/>
<circle cx="542.5" cy="182.5" r="2.5" fill="white"/>
<circle cx="572.5" cy="182.5" r="2.5" fill="white"/>
<circle cx="602.5" cy="182.5" r="2.5" fill="white"/>
<circle cx="632.5" cy="182.5" r="2.5" fill="white"/>
<circle cx="662.5" cy="182.5" r="2.5" fill="white"/>
<circle cx="692.5" cy="182.5" r="2.5" fill="white"/>
<circle cx="722.5" cy="182.5" r="2.5" fill="white"/>
<circle cx="752.5" cy="182.5" r="2.5" fill="white"/>
<circle cx="782.5" cy="182.5" r="2.5" fill="white"/>
<circle cx="812.5" cy="182.5" r="2.5" fill="white"/>
<circle cx="842.5" cy="182.5" r="2.5" fill="white"/>
<circle cx="872.5" cy="182.5" r="2.5" fill="white"/>
<circle cx="902.5" cy="182.5" r="2.5" fill="white"/>
<circle cx="932.5" cy="182.5" r="2.5" fill="white"/>
<circle cx="962.5" cy="182.5" r="2.5" fill="white"/>
<circle cx="992.5" cy="182.5" r="2.5" fill="white"/>
<circle cx="1022.5" cy="182.5" r="2.5" fill="white"/>
<circle cx="1052.5" cy="182.5" r="2.5" fill="white"/>
<circle cx="1082.5" cy="182.5" r="2.5" fill="white"/>
<circle cx="1112.5" cy="182.5" r="2.5" fill="white"/>
<circle cx="1142.5" cy="182.5" r="2.5" fill="white"/>
<circle cx="1172.5" cy="182.5" r="2.5" fill="white"/>
<circle cx="1202.5" cy="182.5" r="2.5" fill="white"/>
<circle cx="1232.5" cy="182.5" r="2.5" fill="white"/>
<circle cx="1262.5" cy="182.5" r="2.5" fill="white"/>
<circle cx="1292.5" cy="182.5" r="2.5" fill="white"/>
<circle cx="1322.5" cy="182.5" r="2.5" fill="white"/>
<circle cx="1352.5" cy="182.5" r="2.5" fill="white"/>
<circle cx="1382.5" cy="182.5" r="2.5" fill="white"/>
<circle cx="1442.5" cy="182.5" r="2.5" fill="white"/>
<circle cx="1412.5" cy="182.5" r="2.5" fill="white"/>
<circle cx="1472.5" cy="182.5" r="2.5" fill="white"/>
<circle cx="1502.5" cy="182.5" r="2.5" fill="white"/>
<circle cx="2.5" cy="212.5" r="2.5" fill="white"/>
<circle cx="32.5" cy="212.5" r="2.5" fill="white"/>
<circle cx="62.5" cy="212.5" r="2.5" fill="white"/>
<circle cx="92.5" cy="212.5" r="2.5" fill="white"/>
<circle cx="122.5" cy="212.5" r="2.5" fill="white"/>
<circle cx="152.5" cy="212.5" r="2.5" fill="white"/>
<circle cx="182.5" cy="212.5" r="2.5" fill="white"/>
<circle cx="212.5" cy="212.5" r="2.5" fill="white"/>
<circle cx="242.5" cy="212.5" r="2.5" fill="white"/>
<circle cx="272.5" cy="212.5" r="2.5" fill="white"/>
<circle cx="302.5" cy="212.5" r="2.5" fill="white"/>
<circle cx="332.5" cy="212.5" r="2.5" fill="white"/>
<circle cx="362.5" cy="212.5" r="2.5" fill="white"/>
<circle cx="392.5" cy="212.5" r="2.5" fill="white"/>
<circle cx="422.5" cy="212.5" r="2.5" fill="white"/>
<circle cx="452.5" cy="212.5" r="2.5" fill="white"/>
<circle cx="482.5" cy="212.5" r="2.5" fill="white"/>
<circle cx="512.5" cy="212.5" r="2.5" fill="white"/>
<circle cx="542.5" cy="212.5" r="2.5" fill="white"/>
<circle cx="572.5" cy="212.5" r="2.5" fill="white"/>
<circle cx="602.5" cy="212.5" r="2.5" fill="white"/>
<circle cx="632.5" cy="212.5" r="2.5" fill="white"/>
<circle cx="662.5" cy="212.5" r="2.5" fill="white"/>
<circle cx="692.5" cy="212.5" r="2.5" fill="white"/>
<circle cx="722.5" cy="212.5" r="2.5" fill="white"/>
<circle cx="752.5" cy="212.5" r="2.5" fill="white"/>
<circle cx="782.5" cy="212.5" r="2.5" fill="white"/>
<circle cx="812.5" cy="212.5" r="2.5" fill="white"/>
<circle cx="842.5" cy="212.5" r="2.5" fill="white"/>
<circle cx="872.5" cy="212.5" r="2.5" fill="white"/>
<circle cx="902.5" cy="212.5" r="2.5" fill="white"/>
<circle cx="932.5" cy="212.5" r="2.5" fill="white"/>
<circle cx="962.5" cy="212.5" r="2.5" fill="white"/>
<circle cx="992.5" cy="212.5" r="2.5" fill="white"/>
<circle cx="1022.5" cy="212.5" r="2.5" fill="white"/>
<circle cx="1052.5" cy="212.5" r="2.5" fill="white"/>
<circle cx="1082.5" cy="212.5" r="2.5" fill="white"/>
<circle cx="1112.5" cy="212.5" r="2.5" fill="white"/>
<circle cx="1142.5" cy="212.5" r="2.5" fill="white"/>
<circle cx="1172.5" cy="212.5" r="2.5" fill="white"/>
<circle cx="1202.5" cy="212.5" r="2.5" fill="white"/>
<circle cx="1232.5" cy="212.5" r="2.5" fill="white"/>
<circle cx="1262.5" cy="212.5" r="2.5" fill="white"/>
<circle cx="1292.5" cy="212.5" r="2.5" fill="white"/>
<circle cx="1322.5" cy="212.5" r="2.5" fill="white"/>
<circle cx="1352.5" cy="212.5" r="2.5" fill="white"/>
<circle cx="1382.5" cy="212.5" r="2.5" fill="white"/>
<circle cx="1442.5" cy="212.5" r="2.5" fill="white"/>
<circle cx="1412.5" cy="212.5" r="2.5" fill="white"/>
<circle cx="1472.5" cy="212.5" r="2.5" fill="white"/>
<circle cx="1502.5" cy="212.5" r="2.5" fill="white"/>
<circle cx="2.5" cy="242.5" r="2.5" fill="white"/>
<circle cx="32.5" cy="242.5" r="2.5" fill="white"/>
<circle cx="62.5" cy="242.5" r="2.5" fill="white"/>
<circle cx="92.5" cy="242.5" r="2.5" fill="white"/>
<circle cx="122.5" cy="242.5" r="2.5" fill="white"/>
<circle cx="152.5" cy="242.5" r="2.5" fill="white"/>
<circle cx="182.5" cy="242.5" r="2.5" fill="white"/>
<circle cx="212.5" cy="242.5" r="2.5" fill="white"/>
<circle cx="242.5" cy="242.5" r="2.5" fill="white"/>
<circle cx="272.5" cy="242.5" r="2.5" fill="white"/>
<circle cx="302.5" cy="242.5" r="2.5" fill="white"/>
<circle cx="332.5" cy="242.5" r="2.5" fill="white"/>
<circle cx="362.5" cy="242.5" r="2.5" fill="white"/>
<circle cx="392.5" cy="242.5" r="2.5" fill="white"/>
<circle cx="422.5" cy="242.5" r="2.5" fill="white"/>
<circle cx="452.5" cy="242.5" r="2.5" fill="white"/>
<circle cx="482.5" cy="242.5" r="2.5" fill="white"/>
<circle cx="512.5" cy="242.5" r="2.5" fill="white"/>
<circle cx="542.5" cy="242.5" r="2.5" fill="white"/>
<circle cx="572.5" cy="242.5" r="2.5" fill="white"/>
<circle cx="602.5" cy="242.5" r="2.5" fill="white"/>
<circle cx="632.5" cy="242.5" r="2.5" fill="white"/>
<circle cx="662.5" cy="242.5" r="2.5" fill="white"/>
<circle cx="692.5" cy="242.5" r="2.5" fill="white"/>
<circle cx="722.5" cy="242.5" r="2.5" fill="white"/>
<circle cx="752.5" cy="242.5" r="2.5" fill="white"/>
<circle cx="782.5" cy="242.5" r="2.5" fill="white"/>
<circle cx="812.5" cy="242.5" r="2.5" fill="white"/>
<circle cx="842.5" cy="242.5" r="2.5" fill="white"/>
<circle cx="872.5" cy="242.5" r="2.5" fill="white"/>
<circle cx="902.5" cy="242.5" r="2.5" fill="white"/>
<circle cx="932.5" cy="242.5" r="2.5" fill="white"/>
<circle cx="962.5" cy="242.5" r="2.5" fill="white"/>
<circle cx="992.5" cy="242.5" r="2.5" fill="white"/>
<circle cx="1022.5" cy="242.5" r="2.5" fill="white"/>
<circle cx="1052.5" cy="242.5" r="2.5" fill="white"/>
<circle cx="1082.5" cy="242.5" r="2.5" fill="white"/>
<circle cx="1112.5" cy="242.5" r="2.5" fill="white"/>
<circle cx="1142.5" cy="242.5" r="2.5" fill="white"/>
<circle cx="1172.5" cy="242.5" r="2.5" fill="white"/>
<circle cx="1202.5" cy="242.5" r="2.5" fill="white"/>
<circle cx="1232.5" cy="242.5" r="2.5" fill="white"/>
<circle cx="1262.5" cy="242.5" r="2.5" fill="white"/>
<circle cx="1292.5" cy="242.5" r="2.5" fill="white"/>
<circle cx="1322.5" cy="242.5" r="2.5" fill="white"/>
<circle cx="1352.5" cy="242.5" r="2.5" fill="white"/>
<circle cx="1382.5" cy="242.5" r="2.5" fill="white"/>
<circle cx="1442.5" cy="242.5" r="2.5" fill="white"/>
<circle cx="1412.5" cy="242.5" r="2.5" fill="white"/>
<circle cx="1472.5" cy="242.5" r="2.5" fill="white"/>
<circle cx="1502.5" cy="242.5" r="2.5" fill="white"/>
<circle cx="2.5" cy="272.5" r="2.5" fill="white"/>
<circle cx="32.5" cy="272.5" r="2.5" fill="white"/>
<circle cx="62.5" cy="272.5" r="2.5" fill="white"/>
<circle cx="92.5" cy="272.5" r="2.5" fill="white"/>
<circle cx="122.5" cy="272.5" r="2.5" fill="white"/>
<circle cx="152.5" cy="272.5" r="2.5" fill="white"/>
<circle cx="182.5" cy="272.5" r="2.5" fill="white"/>
<circle cx="212.5" cy="272.5" r="2.5" fill="white"/>
<circle cx="242.5" cy="272.5" r="2.5" fill="white"/>
<circle cx="272.5" cy="272.5" r="2.5" fill="white"/>
<circle cx="302.5" cy="272.5" r="2.5" fill="white"/>
<circle cx="332.5" cy="272.5" r="2.5" fill="white"/>
<circle cx="362.5" cy="272.5" r="2.5" fill="white"/>
<circle cx="392.5" cy="272.5" r="2.5" fill="white"/>
<circle cx="422.5" cy="272.5" r="2.5" fill="white"/>
<circle cx="452.5" cy="272.5" r="2.5" fill="white"/>
<circle cx="482.5" cy="272.5" r="2.5" fill="white"/>
<circle cx="512.5" cy="272.5" r="2.5" fill="white"/>
<circle cx="542.5" cy="272.5" r="2.5" fill="white"/>
<circle cx="572.5" cy="272.5" r="2.5" fill="white"/>
<circle cx="602.5" cy="272.5" r="2.5" fill="white"/>
<circle cx="632.5" cy="272.5" r="2.5" fill="white"/>
<circle cx="662.5" cy="272.5" r="2.5" fill="white"/>
<circle cx="692.5" cy="272.5" r="2.5" fill="white"/>
<circle cx="722.5" cy="272.5" r="2.5" fill="white"/>
<circle cx="752.5" cy="272.5" r="2.5" fill="white"/>
<circle cx="782.5" cy="272.5" r="2.5" fill="white"/>
<circle cx="812.5" cy="272.5" r="2.5" fill="white"/>
<circle cx="842.5" cy="272.5" r="2.5" fill="white"/>
<circle cx="872.5" cy="272.5" r="2.5" fill="white"/>
<circle cx="902.5" cy="272.5" r="2.5" fill="white"/>
<circle cx="932.5" cy="272.5" r="2.5" fill="white"/>
<circle cx="962.5" cy="272.5" r="2.5" fill="white"/>
<circle cx="992.5" cy="272.5" r="2.5" fill="white"/>
<circle cx="1022.5" cy="272.5" r="2.5" fill="white"/>
<circle cx="1052.5" cy="272.5" r="2.5" fill="white"/>
<circle cx="1082.5" cy="272.5" r="2.5" fill="white"/>
<circle cx="1112.5" cy="272.5" r="2.5" fill="white"/>
<circle cx="1142.5" cy="272.5" r="2.5" fill="white"/>
<circle cx="1172.5" cy="272.5" r="2.5" fill="white"/>
<circle cx="1202.5" cy="272.5" r="2.5" fill="white"/>
<circle cx="1232.5" cy="272.5" r="2.5" fill="white"/>
<circle cx="1262.5" cy="272.5" r="2.5" fill="white"/>
<circle cx="1292.5" cy="272.5" r="2.5" fill="white"/>
<circle cx="1322.5" cy="272.5" r="2.5" fill="white"/>
<circle cx="1352.5" cy="272.5" r="2.5" fill="white"/>
<circle cx="1382.5" cy="272.5" r="2.5" fill="white"/>
<circle cx="1442.5" cy="272.5" r="2.5" fill="white"/>
<circle cx="1412.5" cy="272.5" r="2.5" fill="white"/>
<circle cx="1472.5" cy="272.5" r="2.5" fill="white"/>
<circle cx="1502.5" cy="272.5" r="2.5" fill="white"/>
<circle cx="2.5" cy="302.5" r="2.5" fill="white"/>
<circle cx="32.5" cy="302.5" r="2.5" fill="white"/>
<circle cx="62.5" cy="302.5" r="2.5" fill="white"/>
<circle cx="92.5" cy="302.5" r="2.5" fill="white"/>
<circle cx="122.5" cy="302.5" r="2.5" fill="white"/>
<circle cx="152.5" cy="302.5" r="2.5" fill="white"/>
<circle cx="182.5" cy="302.5" r="2.5" fill="white"/>
<circle cx="212.5" cy="302.5" r="2.5" fill="white"/>
<circle cx="242.5" cy="302.5" r="2.5" fill="white"/>
<circle cx="272.5" cy="302.5" r="2.5" fill="white"/>
<circle cx="302.5" cy="302.5" r="2.5" fill="white"/>
<circle cx="332.5" cy="302.5" r="2.5" fill="white"/>
<circle cx="362.5" cy="302.5" r="2.5" fill="white"/>
<circle cx="392.5" cy="302.5" r="2.5" fill="white"/>
<circle cx="422.5" cy="302.5" r="2.5" fill="white"/>
<circle cx="452.5" cy="302.5" r="2.5" fill="white"/>
<circle cx="482.5" cy="302.5" r="2.5" fill="white"/>
<circle cx="512.5" cy="302.5" r="2.5" fill="white"/>
<circle cx="542.5" cy="302.5" r="2.5" fill="white"/>
<circle cx="572.5" cy="302.5" r="2.5" fill="white"/>
<circle cx="602.5" cy="302.5" r="2.5" fill="white"/>
<circle cx="632.5" cy="302.5" r="2.5" fill="white"/>
<circle cx="662.5" cy="302.5" r="2.5" fill="white"/>
<circle cx="692.5" cy="302.5" r="2.5" fill="white"/>
<circle cx="722.5" cy="302.5" r="2.5" fill="white"/>
<circle cx="752.5" cy="302.5" r="2.5" fill="white"/>
<circle cx="782.5" cy="302.5" r="2.5" fill="white"/>
<circle cx="812.5" cy="302.5" r="2.5" fill="white"/>
<circle cx="842.5" cy="302.5" r="2.5" fill="white"/>
<circle cx="872.5" cy="302.5" r="2.5" fill="white"/>
<circle cx="902.5" cy="302.5" r="2.5" fill="white"/>
<circle cx="932.5" cy="302.5" r="2.5" fill="white"/>
<circle cx="962.5" cy="302.5" r="2.5" fill="white"/>
<circle cx="992.5" cy="302.5" r="2.5" fill="white"/>
<circle cx="1022.5" cy="302.5" r="2.5" fill="white"/>
<circle cx="1052.5" cy="302.5" r="2.5" fill="white"/>
<circle cx="1082.5" cy="302.5" r="2.5" fill="white"/>
<circle cx="1112.5" cy="302.5" r="2.5" fill="white"/>
<circle cx="1142.5" cy="302.5" r="2.5" fill="white"/>
<circle cx="1172.5" cy="302.5" r="2.5" fill="white"/>
<circle cx="1202.5" cy="302.5" r="2.5" fill="white"/>
<circle cx="1232.5" cy="302.5" r="2.5" fill="white"/>
<circle cx="1262.5" cy="302.5" r="2.5" fill="white"/>
<circle cx="1292.5" cy="302.5" r="2.5" fill="white"/>
<circle cx="1322.5" cy="302.5" r="2.5" fill="white"/>
<circle cx="1352.5" cy="302.5" r="2.5" fill="white"/>
<circle cx="1382.5" cy="302.5" r="2.5" fill="white"/>
<circle cx="1442.5" cy="302.5" r="2.5" fill="white"/>
<circle cx="1412.5" cy="302.5" r="2.5" fill="white"/>
<circle cx="1472.5" cy="302.5" r="2.5" fill="white"/>
<circle cx="1502.5" cy="302.5" r="2.5" fill="white"/>
<circle cx="2.5" cy="332.5" r="2.5" fill="white"/>
<circle cx="32.5" cy="332.5" r="2.5" fill="white"/>
<circle cx="62.5" cy="332.5" r="2.5" fill="white"/>
<circle cx="92.5" cy="332.5" r="2.5" fill="white"/>
<circle cx="122.5" cy="332.5" r="2.5" fill="white"/>
<circle cx="152.5" cy="332.5" r="2.5" fill="white"/>
<circle cx="182.5" cy="332.5" r="2.5" fill="white"/>
<circle cx="212.5" cy="332.5" r="2.5" fill="white"/>
<circle cx="242.5" cy="332.5" r="2.5" fill="white"/>
<circle cx="272.5" cy="332.5" r="2.5" fill="white"/>
<circle cx="302.5" cy="332.5" r="2.5" fill="white"/>
<circle cx="332.5" cy="332.5" r="2.5" fill="white"/>
<circle cx="362.5" cy="332.5" r="2.5" fill="white"/>
<circle cx="392.5" cy="332.5" r="2.5" fill="white"/>
<circle cx="422.5" cy="332.5" r="2.5" fill="white"/>
<circle cx="452.5" cy="332.5" r="2.5" fill="white"/>
<circle cx="482.5" cy="332.5" r="2.5" fill="white"/>
<circle cx="512.5" cy="332.5" r="2.5" fill="white"/>
<circle cx="542.5" cy="332.5" r="2.5" fill="white"/>
<circle cx="572.5" cy="332.5" r="2.5" fill="white"/>
<circle cx="602.5" cy="332.5" r="2.5" fill="white"/>
<circle cx="632.5" cy="332.5" r="2.5" fill="white"/>
<circle cx="662.5" cy="332.5" r="2.5" fill="white"/>
<circle cx="692.5" cy="332.5" r="2.5" fill="white"/>
<circle cx="722.5" cy="332.5" r="2.5" fill="white"/>
<circle cx="752.5" cy="332.5" r="2.5" fill="white"/>
<circle cx="782.5" cy="332.5" r="2.5" fill="white"/>
<circle cx="812.5" cy="332.5" r="2.5" fill="white"/>
<circle cx="842.5" cy="332.5" r="2.5" fill="white"/>
<circle cx="872.5" cy="332.5" r="2.5" fill="white"/>
<circle cx="902.5" cy="332.5" r="2.5" fill="white"/>
<circle cx="932.5" cy="332.5" r="2.5" fill="white"/>
<circle cx="962.5" cy="332.5" r="2.5" fill="white"/>
<circle cx="992.5" cy="332.5" r="2.5" fill="white"/>
<circle cx="1022.5" cy="332.5" r="2.5" fill="white"/>
<circle cx="1052.5" cy="332.5" r="2.5" fill="white"/>
<circle cx="1082.5" cy="332.5" r="2.5" fill="white"/>
<circle cx="1112.5" cy="332.5" r="2.5" fill="white"/>
<circle cx="1142.5" cy="332.5" r="2.5" fill="white"/>
<circle cx="1172.5" cy="332.5" r="2.5" fill="white"/>
<circle cx="1202.5" cy="332.5" r="2.5" fill="white"/>
<circle cx="1232.5" cy="332.5" r="2.5" fill="white"/>
<circle cx="1262.5" cy="332.5" r="2.5" fill="white"/>
<circle cx="1292.5" cy="332.5" r="2.5" fill="white"/>
<circle cx="1322.5" cy="332.5" r="2.5" fill="white"/>
<circle cx="1352.5" cy="332.5" r="2.5" fill="white"/>
<circle cx="1382.5" cy="332.5" r="2.5" fill="white"/>
<circle cx="1442.5" cy="332.5" r="2.5" fill="white"/>
<circle cx="1412.5" cy="332.5" r="2.5" fill="white"/>
<circle cx="1472.5" cy="332.5" r="2.5" fill="white"/>
<circle cx="1502.5" cy="332.5" r="2.5" fill="white"/>
<circle cx="2.5" cy="362.5" r="2.5" fill="white"/>
<circle cx="32.5" cy="362.5" r="2.5" fill="white"/>
<circle cx="62.5" cy="362.5" r="2.5" fill="white"/>
<circle cx="92.5" cy="362.5" r="2.5" fill="white"/>
<circle cx="122.5" cy="362.5" r="2.5" fill="white"/>
<circle cx="152.5" cy="362.5" r="2.5" fill="white"/>
<circle cx="182.5" cy="362.5" r="2.5" fill="white"/>
<circle cx="212.5" cy="362.5" r="2.5" fill="white"/>
<circle cx="242.5" cy="362.5" r="2.5" fill="white"/>
<circle cx="272.5" cy="362.5" r="2.5" fill="white"/>
<circle cx="302.5" cy="362.5" r="2.5" fill="white"/>
<circle cx="332.5" cy="362.5" r="2.5" fill="white"/>
<circle cx="362.5" cy="362.5" r="2.5" fill="white"/>
<circle cx="392.5" cy="362.5" r="2.5" fill="white"/>
<circle cx="422.5" cy="362.5" r="2.5" fill="white"/>
<circle cx="452.5" cy="362.5" r="2.5" fill="white"/>
<circle cx="482.5" cy="362.5" r="2.5" fill="white"/>
<circle cx="512.5" cy="362.5" r="2.5" fill="white"/>
<circle cx="542.5" cy="362.5" r="2.5" fill="white"/>
<circle cx="572.5" cy="362.5" r="2.5" fill="white"/>
<circle cx="602.5" cy="362.5" r="2.5" fill="white"/>
<circle cx="632.5" cy="362.5" r="2.5" fill="white"/>
<circle cx="662.5" cy="362.5" r="2.5" fill="white"/>
<circle cx="692.5" cy="362.5" r="2.5" fill="white"/>
<circle cx="722.5" cy="362.5" r="2.5" fill="white"/>
<circle cx="752.5" cy="362.5" r="2.5" fill="white"/>
<circle cx="782.5" cy="362.5" r="2.5" fill="white"/>
<circle cx="812.5" cy="362.5" r="2.5" fill="white"/>
<circle cx="842.5" cy="362.5" r="2.5" fill="white"/>
<circle cx="872.5" cy="362.5" r="2.5" fill="white"/>
<circle cx="902.5" cy="362.5" r="2.5" fill="white"/>
<circle cx="932.5" cy="362.5" r="2.5" fill="white"/>
<circle cx="962.5" cy="362.5" r="2.5" fill="white"/>
<circle cx="992.5" cy="362.5" r="2.5" fill="white"/>
<circle cx="1022.5" cy="362.5" r="2.5" fill="white"/>
<circle cx="1052.5" cy="362.5" r="2.5" fill="white"/>
<circle cx="1082.5" cy="362.5" r="2.5" fill="white"/>
<circle cx="1112.5" cy="362.5" r="2.5" fill="white"/>
<circle cx="1142.5" cy="362.5" r="2.5" fill="white"/>
<circle cx="1172.5" cy="362.5" r="2.5" fill="white"/>
<circle cx="1202.5" cy="362.5" r="2.5" fill="white"/>
<circle cx="1232.5" cy="362.5" r="2.5" fill="white"/>
<circle cx="1262.5" cy="362.5" r="2.5" fill="white"/>
<circle cx="1292.5" cy="362.5" r="2.5" fill="white"/>
<circle cx="1322.5" cy="362.5" r="2.5" fill="white"/>
<circle cx="1352.5" cy="362.5" r="2.5" fill="white"/>
<circle cx="1382.5" cy="362.5" r="2.5" fill="white"/>
<circle cx="1442.5" cy="362.5" r="2.5" fill="white"/>
<circle cx="1412.5" cy="362.5" r="2.5" fill="white"/>
<circle cx="1472.5" cy="362.5" r="2.5" fill="white"/>
<circle cx="1502.5" cy="362.5" r="2.5" fill="white"/>
<circle cx="2.5" cy="392.5" r="2.5" fill="white"/>
<circle cx="32.5" cy="392.5" r="2.5" fill="white"/>
<circle cx="62.5" cy="392.5" r="2.5" fill="white"/>
<circle cx="92.5" cy="392.5" r="2.5" fill="white"/>
<circle cx="122.5" cy="392.5" r="2.5" fill="white"/>
<circle cx="152.5" cy="392.5" r="2.5" fill="white"/>
<circle cx="182.5" cy="392.5" r="2.5" fill="white"/>
<circle cx="212.5" cy="392.5" r="2.5" fill="white"/>
<circle cx="242.5" cy="392.5" r="2.5" fill="white"/>
<circle cx="272.5" cy="392.5" r="2.5" fill="white"/>
<circle cx="302.5" cy="392.5" r="2.5" fill="white"/>
<circle cx="332.5" cy="392.5" r="2.5" fill="white"/>
<circle cx="362.5" cy="392.5" r="2.5" fill="white"/>
<circle cx="392.5" cy="392.5" r="2.5" fill="white"/>
<circle cx="422.5" cy="392.5" r="2.5" fill="white"/>
<circle cx="452.5" cy="392.5" r="2.5" fill="white"/>
<circle cx="482.5" cy="392.5" r="2.5" fill="white"/>
<circle cx="512.5" cy="392.5" r="2.5" fill="white"/>
<circle cx="542.5" cy="392.5" r="2.5" fill="white"/>
<circle cx="572.5" cy="392.5" r="2.5" fill="white"/>
<circle cx="602.5" cy="392.5" r="2.5" fill="white"/>
<circle cx="632.5" cy="392.5" r="2.5" fill="white"/>
<circle cx="662.5" cy="392.5" r="2.5" fill="white"/>
<circle cx="692.5" cy="392.5" r="2.5" fill="white"/>
<circle cx="722.5" cy="392.5" r="2.5" fill="white"/>
<circle cx="752.5" cy="392.5" r="2.5" fill="white"/>
<circle cx="782.5" cy="392.5" r="2.5" fill="white"/>
<circle cx="812.5" cy="392.5" r="2.5" fill="white"/>
<circle cx="842.5" cy="392.5" r="2.5" fill="white"/>
<circle cx="872.5" cy="392.5" r="2.5" fill="white"/>
<circle cx="902.5" cy="392.5" r="2.5" fill="white"/>
<circle cx="932.5" cy="392.5" r="2.5" fill="white"/>
<circle cx="962.5" cy="392.5" r="2.5" fill="white"/>
<circle cx="992.5" cy="392.5" r="2.5" fill="white"/>
<circle cx="1022.5" cy="392.5" r="2.5" fill="white"/>
<circle cx="1052.5" cy="392.5" r="2.5" fill="white"/>
<circle cx="1082.5" cy="392.5" r="2.5" fill="white"/>
<circle cx="1112.5" cy="392.5" r="2.5" fill="white"/>
<circle cx="1142.5" cy="392.5" r="2.5" fill="white"/>
<circle cx="1172.5" cy="392.5" r="2.5" fill="white"/>
<circle cx="1202.5" cy="392.5" r="2.5" fill="white"/>
<circle cx="1232.5" cy="392.5" r="2.5" fill="white"/>
<circle cx="1262.5" cy="392.5" r="2.5" fill="white"/>
<circle cx="1292.5" cy="392.5" r="2.5" fill="white"/>
<circle cx="1322.5" cy="392.5" r="2.5" fill="white"/>
<circle cx="1352.5" cy="392.5" r="2.5" fill="white"/>
<circle cx="1382.5" cy="392.5" r="2.5" fill="white"/>
<circle cx="1442.5" cy="392.5" r="2.5" fill="white"/>
<circle cx="1412.5" cy="392.5" r="2.5" fill="white"/>
<circle cx="1472.5" cy="392.5" r="2.5" fill="white"/>
<circle cx="1502.5" cy="392.5" r="2.5" fill="white"/>
<circle cx="2.5" cy="422.5" r="2.5" fill="white"/>
<circle cx="32.5" cy="422.5" r="2.5" fill="white"/>
<circle cx="62.5" cy="422.5" r="2.5" fill="white"/>
<circle cx="92.5" cy="422.5" r="2.5" fill="white"/>
<circle cx="122.5" cy="422.5" r="2.5" fill="white"/>
<circle cx="152.5" cy="422.5" r="2.5" fill="white"/>
<circle cx="182.5" cy="422.5" r="2.5" fill="white"/>
<circle cx="212.5" cy="422.5" r="2.5" fill="white"/>
<circle cx="242.5" cy="422.5" r="2.5" fill="white"/>
<circle cx="272.5" cy="422.5" r="2.5" fill="white"/>
<circle cx="302.5" cy="422.5" r="2.5" fill="white"/>
<circle cx="332.5" cy="422.5" r="2.5" fill="white"/>
<circle cx="362.5" cy="422.5" r="2.5" fill="white"/>
<circle cx="392.5" cy="422.5" r="2.5" fill="white"/>
<circle cx="422.5" cy="422.5" r="2.5" fill="white"/>
<circle cx="452.5" cy="422.5" r="2.5" fill="white"/>
<circle cx="482.5" cy="422.5" r="2.5" fill="white"/>
<circle cx="512.5" cy="422.5" r="2.5" fill="white"/>
<circle cx="542.5" cy="422.5" r="2.5" fill="white"/>
<circle cx="572.5" cy="422.5" r="2.5" fill="white"/>
<circle cx="602.5" cy="422.5" r="2.5" fill="white"/>
<circle cx="632.5" cy="422.5" r="2.5" fill="white"/>
<circle cx="662.5" cy="422.5" r="2.5" fill="white"/>
<circle cx="692.5" cy="422.5" r="2.5" fill="white"/>
<circle cx="722.5" cy="422.5" r="2.5" fill="white"/>
<circle cx="752.5" cy="422.5" r="2.5" fill="white"/>
<circle cx="782.5" cy="422.5" r="2.5" fill="white"/>
<circle cx="812.5" cy="422.5" r="2.5" fill="white"/>
<circle cx="842.5" cy="422.5" r="2.5" fill="white"/>
<circle cx="872.5" cy="422.5" r="2.5" fill="white"/>
<circle cx="902.5" cy="422.5" r="2.5" fill="white"/>
<circle cx="932.5" cy="422.5" r="2.5" fill="white"/>
<circle cx="962.5" cy="422.5" r="2.5" fill="white"/>
<circle cx="992.5" cy="422.5" r="2.5" fill="white"/>
<circle cx="1022.5" cy="422.5" r="2.5" fill="white"/>
<circle cx="1052.5" cy="422.5" r="2.5" fill="white"/>
<circle cx="1082.5" cy="422.5" r="2.5" fill="white"/>
<circle cx="1112.5" cy="422.5" r="2.5" fill="white"/>
<circle cx="1142.5" cy="422.5" r="2.5" fill="white"/>
<circle cx="1172.5" cy="422.5" r="2.5" fill="white"/>
<circle cx="1202.5" cy="422.5" r="2.5" fill="white"/>
<circle cx="1232.5" cy="422.5" r="2.5" fill="white"/>
<circle cx="1262.5" cy="422.5" r="2.5" fill="white"/>
<circle cx="1292.5" cy="422.5" r="2.5" fill="white"/>
<circle cx="1322.5" cy="422.5" r="2.5" fill="white"/>
<circle cx="1352.5" cy="422.5" r="2.5" fill="white"/>
<circle cx="1382.5" cy="422.5" r="2.5" fill="white"/>
<circle cx="1442.5" cy="422.5" r="2.5" fill="white"/>
<circle cx="1412.5" cy="422.5" r="2.5" fill="white"/>
<circle cx="1472.5" cy="422.5" r="2.5" fill="white"/>
<circle cx="1502.5" cy="422.5" r="2.5" fill="white"/>
<circle cx="2.5" cy="452.5" r="2.5" fill="white"/>
<circle cx="32.5" cy="452.5" r="2.5" fill="white"/>
<circle cx="62.5" cy="452.5" r="2.5" fill="white"/>
<circle cx="92.5" cy="452.5" r="2.5" fill="white"/>
<circle cx="122.5" cy="452.5" r="2.5" fill="white"/>
<circle cx="152.5" cy="452.5" r="2.5" fill="white"/>
<circle cx="182.5" cy="452.5" r="2.5" fill="white"/>
<circle cx="212.5" cy="452.5" r="2.5" fill="white"/>
<circle cx="242.5" cy="452.5" r="2.5" fill="white"/>
<circle cx="272.5" cy="452.5" r="2.5" fill="white"/>
<circle cx="302.5" cy="452.5" r="2.5" fill="white"/>
<circle cx="332.5" cy="452.5" r="2.5" fill="white"/>
<circle cx="362.5" cy="452.5" r="2.5" fill="white"/>
<circle cx="392.5" cy="452.5" r="2.5" fill="white"/>
<circle cx="422.5" cy="452.5" r="2.5" fill="white"/>
<circle cx="452.5" cy="452.5" r="2.5" fill="white"/>
<circle cx="482.5" cy="452.5" r="2.5" fill="white"/>
<circle cx="512.5" cy="452.5" r="2.5" fill="white"/>
<circle cx="542.5" cy="452.5" r="2.5" fill="white"/>
<circle cx="572.5" cy="452.5" r="2.5" fill="white"/>
<circle cx="602.5" cy="452.5" r="2.5" fill="white"/>
<circle cx="632.5" cy="452.5" r="2.5" fill="white"/>
<circle cx="662.5" cy="452.5" r="2.5" fill="white"/>
<circle cx="692.5" cy="452.5" r="2.5" fill="white"/>
<circle cx="722.5" cy="452.5" r="2.5" fill="white"/>
<circle cx="752.5" cy="452.5" r="2.5" fill="white"/>
<circle cx="782.5" cy="452.5" r="2.5" fill="white"/>
<circle cx="812.5" cy="452.5" r="2.5" fill="white"/>
<circle cx="842.5" cy="452.5" r="2.5" fill="white"/>
<circle cx="872.5" cy="452.5" r="2.5" fill="white"/>
<circle cx="902.5" cy="452.5" r="2.5" fill="white"/>
<circle cx="932.5" cy="452.5" r="2.5" fill="white"/>
<circle cx="962.5" cy="452.5" r="2.5" fill="white"/>
<circle cx="992.5" cy="452.5" r="2.5" fill="white"/>
<circle cx="1022.5" cy="452.5" r="2.5" fill="white"/>
<circle cx="1052.5" cy="452.5" r="2.5" fill="white"/>
<circle cx="1082.5" cy="452.5" r="2.5" fill="white"/>
<circle cx="1112.5" cy="452.5" r="2.5" fill="white"/>
<circle cx="1142.5" cy="452.5" r="2.5" fill="white"/>
<circle cx="1172.5" cy="452.5" r="2.5" fill="white"/>
<circle cx="1202.5" cy="452.5" r="2.5" fill="white"/>
<circle cx="1232.5" cy="452.5" r="2.5" fill="white"/>
<circle cx="1262.5" cy="452.5" r="2.5" fill="white"/>
<circle cx="1292.5" cy="452.5" r="2.5" fill="white"/>
<circle cx="1322.5" cy="452.5" r="2.5" fill="white"/>
<circle cx="1352.5" cy="452.5" r="2.5" fill="white"/>
<circle cx="1382.5" cy="452.5" r="2.5" fill="white"/>
<circle cx="1442.5" cy="452.5" r="2.5" fill="white"/>
<circle cx="1412.5" cy="452.5" r="2.5" fill="white"/>
<circle cx="1472.5" cy="452.5" r="2.5" fill="white"/>
<circle cx="1502.5" cy="452.5" r="2.5" fill="white"/>
<circle cx="2.5" cy="482.5" r="2.5" fill="white"/>
<circle cx="32.5" cy="482.5" r="2.5" fill="white"/>
<circle cx="62.5" cy="482.5" r="2.5" fill="white"/>
<circle cx="92.5" cy="482.5" r="2.5" fill="white"/>
<circle cx="122.5" cy="482.5" r="2.5" fill="white"/>
<circle cx="152.5" cy="482.5" r="2.5" fill="white"/>
<circle cx="182.5" cy="482.5" r="2.5" fill="white"/>
<circle cx="212.5" cy="482.5" r="2.5" fill="white"/>
<circle cx="242.5" cy="482.5" r="2.5" fill="white"/>
<circle cx="272.5" cy="482.5" r="2.5" fill="white"/>
<circle cx="302.5" cy="482.5" r="2.5" fill="white"/>
<circle cx="332.5" cy="482.5" r="2.5" fill="white"/>
<circle cx="362.5" cy="482.5" r="2.5" fill="white"/>
<circle cx="392.5" cy="482.5" r="2.5" fill="white"/>
<circle cx="422.5" cy="482.5" r="2.5" fill="white"/>
<circle cx="452.5" cy="482.5" r="2.5" fill="white"/>
<circle cx="482.5" cy="482.5" r="2.5" fill="white"/>
<circle cx="512.5" cy="482.5" r="2.5" fill="white"/>
<circle cx="542.5" cy="482.5" r="2.5" fill="white"/>
<circle cx="572.5" cy="482.5" r="2.5" fill="white"/>
<circle cx="602.5" cy="482.5" r="2.5" fill="white"/>
<circle cx="632.5" cy="482.5" r="2.5" fill="white"/>
<circle cx="662.5" cy="482.5" r="2.5" fill="white"/>
<circle cx="692.5" cy="482.5" r="2.5" fill="white"/>
<circle cx="722.5" cy="482.5" r="2.5" fill="white"/>
<circle cx="752.5" cy="482.5" r="2.5" fill="white"/>
<circle cx="782.5" cy="482.5" r="2.5" fill="white"/>
<circle cx="812.5" cy="482.5" r="2.5" fill="white"/>
<circle cx="842.5" cy="482.5" r="2.5" fill="white"/>
<circle cx="872.5" cy="482.5" r="2.5" fill="white"/>
<circle cx="902.5" cy="482.5" r="2.5" fill="white"/>
<circle cx="932.5" cy="482.5" r="2.5" fill="white"/>
<circle cx="962.5" cy="482.5" r="2.5" fill="white"/>
<circle cx="992.5" cy="482.5" r="2.5" fill="white"/>
<circle cx="1022.5" cy="482.5" r="2.5" fill="white"/>
<circle cx="1052.5" cy="482.5" r="2.5" fill="white"/>
<circle cx="1082.5" cy="482.5" r="2.5" fill="white"/>
<circle cx="1112.5" cy="482.5" r="2.5" fill="white"/>
<circle cx="1142.5" cy="482.5" r="2.5" fill="white"/>
<circle cx="1172.5" cy="482.5" r="2.5" fill="white"/>
<circle cx="1202.5" cy="482.5" r="2.5" fill="white"/>
<circle cx="1232.5" cy="482.5" r="2.5" fill="white"/>
<circle cx="1262.5" cy="482.5" r="2.5" fill="white"/>
<circle cx="1292.5" cy="482.5" r="2.5" fill="white"/>
<circle cx="1322.5" cy="482.5" r="2.5" fill="white"/>
<circle cx="1352.5" cy="482.5" r="2.5" fill="white"/>
<circle cx="1382.5" cy="482.5" r="2.5" fill="white"/>
<circle cx="1442.5" cy="482.5" r="2.5" fill="white"/>
<circle cx="1412.5" cy="482.5" r="2.5" fill="white"/>
<circle cx="1472.5" cy="482.5" r="2.5" fill="white"/>
<circle cx="1502.5" cy="482.5" r="2.5" fill="white"/>
</g>
</svg>
