<svg width="19" height="18" viewBox="0 0 19 18" fill="none" xmlns="http://www.w3.org/2000/svg">
<path fill-rule="evenodd" clip-rule="evenodd" d="M9.01433 0C6.56639 0 6.25918 0.0106875 5.29773 0.054375C4.33816 0.09825 3.68317 0.249938 3.11006 0.4725C2.51723 0.702375 2.01435 1.00988 1.51334 1.51031C1.01196 2.01056 0.703998 2.51269 0.473025 3.10444C0.249563 3.67688 0.0974593 4.33106 0.0542692 5.28881C0.011267 6.24881 0 6.55575 0 9C0 11.4443 0.0108914 11.7501 0.054457 12.7101C0.098586 13.6682 0.250502 14.3222 0.473213 14.8944C0.703622 15.4864 1.01159 15.9885 1.51278 16.4888C2.0136 16.9894 2.51648 17.2976 3.10893 17.5275C3.68242 17.7501 4.3376 17.9018 5.29698 17.9456C6.25843 17.9893 6.56545 18 9.0132 18C11.4613 18 11.7676 17.9893 12.729 17.9456C13.6886 17.9018 14.3444 17.7501 14.9178 17.5275C15.5105 17.2976 16.0126 16.9894 16.5134 16.4888C17.0148 15.9885 17.3228 15.4864 17.5538 14.8946C17.7753 14.3222 17.9274 13.668 17.9725 12.7103C18.0157 11.7503 18.027 11.4443 18.027 9C18.027 6.55575 18.0157 6.249 17.9725 5.289C17.9274 4.33087 17.7753 3.67688 17.5538 3.10463C17.3228 2.51269 17.0148 2.01056 16.5134 1.51031C16.0121 1.00969 15.5107 0.702188 14.9173 0.4725C14.3427 0.249938 13.6873 0.09825 12.7277 0.054375C11.7663 0.0106875 11.4602 0 9.01151 0H9.01433ZM8.20569 1.62185C8.44568 1.62147 8.71346 1.62185 9.01429 1.62185C11.4209 1.62185 11.7062 1.63047 12.6565 1.6736C13.5353 1.71372 14.0123 1.86035 14.33 1.98354C14.7507 2.14666 15.0506 2.34166 15.3659 2.65666C15.6813 2.97166 15.8766 3.27166 16.0404 3.69166C16.1637 4.00854 16.3108 4.48479 16.3508 5.36229C16.394 6.31104 16.4034 6.59604 16.4034 8.99791C16.4034 11.3998 16.394 11.6848 16.3508 12.6335C16.3106 13.511 16.1637 13.9873 16.0404 14.3042C15.877 14.7242 15.6813 15.0232 15.3659 15.338C15.0504 15.653 14.7509 15.848 14.33 16.0112C14.0127 16.1349 13.5353 16.2812 12.6565 16.3213C11.7063 16.3644 11.4209 16.3738 9.01429 16.3738C6.60748 16.3738 6.32223 16.3644 5.37205 16.3213C4.49323 16.2808 4.01626 16.1342 3.69834 16.011C3.27771 15.8479 2.97726 15.6529 2.66178 15.3379C2.34631 15.0229 2.15101 14.7236 1.98727 14.3034C1.86389 13.9865 1.71686 13.5103 1.67686 12.6328C1.63367 11.684 1.62503 11.399 1.62503 8.99566C1.62503 6.59229 1.63367 6.30879 1.67686 5.36004C1.71705 4.48254 1.86389 4.00629 1.98727 3.68904C2.15064 3.26904 2.34631 2.96904 2.66178 2.65404C2.97726 2.33904 3.27771 2.14404 3.69834 1.98054C4.01607 1.85679 4.49323 1.71054 5.37205 1.67022C6.20355 1.63272 6.52579 1.62147 8.20569 1.6196V1.62185ZM13.8257 3.11623C13.2285 3.11623 12.744 3.59942 12.744 4.19585C12.744 4.7921 13.2285 5.27585 13.8257 5.27585C14.4228 5.27585 14.9073 4.7921 14.9073 4.19585C14.9073 3.5996 14.4228 3.11623 13.8257 3.11623ZM9.01434 4.3781C6.45805 4.3781 4.3855 6.44754 4.3855 8.99998C4.3855 11.5524 6.45805 13.6209 9.01434 13.6209C11.5706 13.6209 13.6424 11.5524 13.6424 8.99998C13.6424 6.44754 11.5706 4.3781 9.01434 4.3781ZM9.01431 5.99998C10.6736 5.99998 12.0188 7.34304 12.0188 8.99998C12.0188 10.6567 10.6736 12 9.01431 12C7.35487 12 6.00978 10.6567 6.00978 8.99998C6.00978 7.34304 7.35487 5.99998 9.01431 5.99998Z" fill="#142A63"/>
</svg>
