<svg width="19" height="18" viewBox="0 0 19 18" fill="none" xmlns="http://www.w3.org/2000/svg">
<path d="M4.28749 5.84902V17.9985H0.235816V5.84902H4.28749ZM4.54508 2.09815C4.54583 2.1199 4.54659 2.14539 4.54659 2.17164C4.54659 2.73329 4.30777 3.23871 3.92625 3.59265L3.92475 3.5934C3.51546 3.96684 2.96797 4.19555 2.36642 4.19555C2.32962 4.19555 2.29207 4.1948 2.25527 4.1933H2.26053H2.23574C2.20495 4.1948 2.1689 4.19555 2.13285 4.19555C1.54407 4.19555 1.00935 3.96609 0.612069 3.59265L0.61282 3.5934C0.234314 3.22746 0 2.71605 0 2.14989C0 2.13189 0 2.1139 0.000751005 2.09515V2.09815C0 2.0824 0 2.06441 0 2.04641C0 1.475 0.243326 0.96059 0.631595 0.5999L0.633097 0.59915C1.04164 0.227962 1.58762 0 2.18618 0C2.22072 0 2.25452 0.000749875 2.28906 0.00224962H2.28456C2.31685 0.000749875 2.35365 0 2.39195 0C2.98149 0 3.51846 0.227212 3.9195 0.5984L3.91799 0.5969C4.30476 0.969588 4.54508 1.4915 4.54508 2.06965V2.10115V2.09965V2.09815ZM18.8607 11.0367V17.9985H14.8218V11.5008C14.8256 11.4416 14.8271 11.3726 14.8271 11.3036C14.8271 10.6317 14.6401 10.0041 14.3149 9.46867L14.3239 9.48442C14.0032 9.03749 13.485 8.75029 12.9 8.75029C12.855 8.75029 12.8099 8.75179 12.7648 8.75554H12.7708C12.7506 8.75479 12.7273 8.75404 12.704 8.75404C12.2384 8.75404 11.8103 8.91376 11.4716 9.18147L11.4761 9.17847C11.1359 9.45367 10.8693 9.80536 10.7011 10.2095L10.6951 10.2268C10.6079 10.493 10.5584 10.7989 10.5584 11.1169C10.5584 11.1529 10.5591 11.1889 10.5606 11.2249V11.2196V18H6.52173C6.53825 14.739 6.54651 12.095 6.54651 10.0678C6.54651 8.04066 6.54251 6.83111 6.5345 6.43918L6.52248 5.85052H10.5614V7.61573H10.5366C10.6973 7.35702 10.8633 7.13281 11.0458 6.92284L11.0398 6.92959C11.2508 6.69788 11.4776 6.48867 11.7217 6.3012L11.7337 6.2922C12.0371 6.05899 12.3931 5.87602 12.7791 5.76429L12.8016 5.75904C13.2057 5.63831 13.6705 5.56857 14.1512 5.56857H14.2105H14.2075C14.2608 5.56632 14.3232 5.56482 14.3855 5.56482C15.6479 5.56482 16.785 6.10023 17.5818 6.95659L17.584 6.95959C18.4362 7.88743 18.8622 9.24621 18.8622 11.0359L18.8607 11.0367Z" fill="#142A63"/>
</svg>
