<svg width="243" height="70" viewBox="0 0 243 70" fill="none" xmlns="http://www.w3.org/2000/svg">
<path d="M211.089 52.6372L211.041 52.7326C211.041 50.1091 211.429 47.7241 212.204 45.5776C212.93 43.4789 214.044 41.6663 215.497 40.0922C216.902 38.5658 218.598 37.421 220.535 36.5625C222.473 35.7516 224.604 35.3223 226.881 35.3223C229.109 35.3223 231.24 35.7516 233.226 36.5625C235.212 37.421 236.908 38.5658 238.264 40.0445C239.669 41.5709 240.783 43.4312 241.606 45.5299C242.381 47.6287 242.817 50.0137 242.817 52.6849C242.817 55.356 242.381 57.741 241.606 59.8398C240.783 61.9862 239.669 63.7988 238.264 65.3252C236.908 66.8516 235.212 67.9964 233.226 68.8073C231.192 69.6182 229.06 69.9997 226.929 69.9997C224.701 69.9997 222.57 69.6182 220.584 68.8073C218.646 67.9964 216.951 66.8039 215.546 65.2775C214.093 63.7511 212.979 61.8908 212.252 59.7921C211.477 57.6933 211.089 55.3083 211.089 52.6372ZM218.016 52.4941L217.919 52.6372C217.919 54.3066 218.113 55.833 218.598 57.2163C218.985 58.5519 219.615 59.6967 220.438 60.6507C221.213 61.6046 222.134 62.3201 223.296 62.7971C224.362 63.2741 225.621 63.5126 227.026 63.5126C228.431 63.5126 229.69 63.2741 230.756 62.7494C231.918 62.2247 232.839 61.5093 233.614 60.5553C234.389 59.6013 235.018 58.4565 235.454 57.1209C235.89 55.7376 236.132 54.2112 236.132 52.5418C236.132 49.0597 235.309 46.3408 233.662 44.4329C232.015 42.5249 229.787 41.5709 227.074 41.5709C224.313 41.5709 222.134 42.5249 220.487 44.4329C218.84 46.3408 218.016 49.0597 218.016 52.4941Z" fill="#142A63"/>
<path d="M182.732 35.7998H208.744V41.953H198.959V69.1894H192.371V41.953H182.732V35.7998Z" fill="#142A63"/>
<path d="M180.394 44.0508L174.145 45.7203L174.339 45.6726C173.854 44.0508 173.079 42.8106 171.965 41.9997C170.754 41.1888 169.495 40.7595 168.139 40.7595C166.734 40.7595 165.62 41.0934 164.796 41.7135C163.973 42.3336 163.585 43.1445 163.585 44.1462C163.585 44.814 163.779 45.3387 164.167 45.8157C164.554 46.2927 165.087 46.722 165.765 47.1036C166.395 47.4852 167.218 47.8668 168.187 48.2484C168.381 48.3438 168.817 48.5346 169.495 48.8207C170.173 49.1069 170.706 49.2977 171.093 49.4408C172.304 50.0132 173.467 50.5379 174.533 51.0149C175.695 51.5873 176.712 52.3028 177.681 53.1137C178.601 53.9723 179.376 54.8786 179.958 55.928C180.539 56.9774 180.83 58.2175 180.83 59.6485C180.83 61.0795 180.539 62.4151 179.958 63.6553C179.376 64.8955 178.553 65.9448 177.487 66.8511C176.422 67.8051 175.114 68.5206 173.661 68.9976C172.111 69.4746 170.464 69.7131 168.72 69.7131C167.025 69.7131 165.426 69.5223 163.924 69.0453C162.471 68.5683 161.212 67.9005 160.098 67.0419C159.032 66.231 158.063 65.1817 157.288 63.9415C156.513 62.749 155.932 61.4134 155.544 59.9347L161.842 58.2652C161.938 58.9807 162.229 59.6962 162.665 60.4594C163.053 61.2226 163.537 61.8427 164.118 62.3197C164.699 62.8921 165.378 63.2737 166.153 63.5599C166.928 63.8461 167.8 63.9892 168.768 63.9892C170.318 63.9892 171.529 63.6553 172.45 62.8921C173.322 62.2243 173.758 61.318 173.758 60.1732C173.758 59.41 173.515 58.7422 173.031 58.1698C172.547 57.6451 171.917 57.1681 171.142 56.7389C170.221 56.2619 169.35 55.8326 168.478 55.4987C167.412 55.1171 166.346 54.6878 165.281 54.2108L162.181 52.6844C161.163 52.2074 160.243 51.5873 159.371 50.7287C158.548 49.9655 157.87 49.1069 157.337 48.0576C156.804 47.1036 156.562 45.9111 156.562 44.4801C156.562 43.2876 156.852 42.1428 157.434 41.0457C158.015 39.901 158.838 38.947 159.807 38.0884C160.873 37.2298 162.084 36.5143 163.488 35.9896C164.942 35.4649 166.54 35.1787 168.284 35.1787C169.737 35.1787 171.142 35.4172 172.498 35.8465C173.758 36.2758 174.969 36.8959 176.083 37.6591C177.148 38.4223 178.02 39.3763 178.795 40.4733C179.522 41.5704 180.055 42.7629 180.394 44.0508Z" fill="#142A63"/>
<path d="M135.655 63.0362H151.398V69.1894H129.067V35.7998H151.107V41.953H135.655V49.1079H147.716V54.9273H135.655V63.0362Z" fill="#142A63"/>
<path d="M115.485 35.7998H122.072L122.024 55.6428C122.024 58.0277 121.685 60.0311 121.103 61.7483C120.425 63.5609 119.553 65.0396 118.439 66.232C117.277 67.4722 115.824 68.4262 114.177 68.9986C112.481 69.571 110.592 69.8572 108.509 69.8572C104.247 69.8572 100.953 68.6647 98.5792 66.1843C96.1573 63.704 94.9463 60.1742 94.9463 55.5474V35.7998H101.582V55.5474C101.582 58.3616 102.164 60.4127 103.326 61.7483C104.489 63.0839 106.184 63.7517 108.509 63.7517C110.834 63.7517 112.578 63.0839 113.741 61.7483C114.903 60.4127 115.485 58.3616 115.485 55.5474V35.7998Z" fill="#142A63"/>
<path d="M67.0044 35.7515H78.1454H78.0485C79.9861 35.7515 81.7299 36.0377 83.28 36.5147C84.83 37.087 86.1379 37.8025 87.2035 38.7088C88.2692 39.6628 89.0927 40.8553 89.6739 42.1909C90.2552 43.6219 90.5458 45.196 90.5458 46.9131C90.5458 48.678 90.2552 50.2521 89.6739 51.6354C89.0927 53.0187 88.2692 54.1634 87.2035 55.1174C86.1379 56.0714 84.83 56.7869 83.28 57.3116C81.7299 57.8363 80.0345 58.0748 78.1454 58.0748H73.5921V69.1411H67.0044V35.7515ZM73.5921 52.017H78.0485V51.9693C79.8408 51.9693 81.2455 51.54 82.2627 50.6337C83.2315 49.7751 83.7643 48.5349 83.7643 46.9131C83.7643 45.2914 83.2315 44.0512 82.2627 43.1926C81.2455 42.334 79.8408 41.9047 78.0485 41.9047H73.5921V52.017Z" fill="#142A63"/>
<path d="M53.2921 35.7998H59.4923L59.2016 69.1894H52.7592V58.4093C52.7592 57.1691 52.7592 55.5474 52.8561 53.6394C52.9045 52.1607 52.953 50.9205 53.0014 49.9665C53.0499 48.9171 53.0983 48.154 53.1467 47.5816L53.1952 46.723H53.0983L52.7592 47.3431C52.5655 47.6293 52.3233 48.154 51.9842 48.8217L51.1123 50.5389C51.0154 50.7297 50.9185 50.9682 50.7732 51.2544L50.4341 51.9222L45.6387 60.8897H42.2964L37.4524 51.9222L37.1134 51.2544C36.9196 50.9682 36.8227 50.7297 36.7743 50.5389L35.9024 48.8217C35.5149 48.154 35.2727 47.6293 35.1274 47.3431L34.7883 46.723H34.6914L34.7399 47.5816C34.7399 48.154 34.7883 48.9171 34.8852 49.9665C34.8852 50.9205 34.9336 52.1607 35.0305 53.6394C35.0789 55.5474 35.1274 57.1691 35.1274 58.4093V69.1894H28.7334V35.7998H34.9336L41.376 47.3431C42.0542 48.6787 42.4901 49.5372 42.6839 49.8234C42.7323 50.0142 42.8292 50.205 42.9745 50.4435C43.0714 50.682 43.1683 50.8728 43.2651 51.0159L43.5073 51.4452C43.6042 51.7314 43.7495 52.0653 43.9433 52.3515L44.0886 52.6377H44.1371L44.2339 52.3515C44.2339 52.3038 44.3792 52.0176 44.6214 51.4452L45.4449 49.8234C45.5902 49.5372 46.0746 48.6787 46.8496 47.3431L53.2921 35.7998Z" fill="#142A63"/>
<path d="M21.2743 69.1894H14.6865V35.7998H21.2743V69.1894Z" fill="#142A63"/>
<path d="M21.6532 32.4321V33.3297C21.6532 33.408 21.6489 33.4862 21.6404 33.564C21.5816 34.0801 21.3317 34.5568 20.9386 34.903C20.5455 35.2493 20.0366 35.4408 19.5092 35.441H16.2212C15.9394 35.4415 15.6604 35.3873 15.4 35.2814C15.1396 35.1755 14.903 35.02 14.7038 34.8239C14.5046 34.6277 14.3467 34.3947 14.2392 34.1383C14.1316 33.8819 14.0766 33.6071 14.0772 33.3297V32.4321C14.3696 32.5602 14.6862 32.6262 15.0063 32.6258H20.724C21.0441 32.6262 21.3607 32.5602 21.6532 32.4321Z" fill="#C3C9D7"/>
<path d="M17.7578 4.63067C17.6874 4.63073 17.6176 4.61712 17.5525 4.5906C17.4874 4.56407 17.4282 4.52517 17.3784 4.47611C17.3286 4.42705 17.2891 4.3688 17.2621 4.30469C17.2352 4.24058 17.2214 4.17187 17.2214 4.10249V0.54417C17.2193 0.473495 17.2315 0.403109 17.2575 0.337186C17.2835 0.271264 17.3226 0.211146 17.3726 0.160397C17.4226 0.109648 17.4824 0.0693015 17.5486 0.0417492C17.6147 0.014197 17.6858 0 17.7576 0C17.8294 0 17.9004 0.014197 17.9666 0.0417492C18.0327 0.0693015 18.0925 0.109648 18.1425 0.160397C18.1925 0.211146 18.2317 0.271264 18.2576 0.337186C18.2836 0.403109 18.2959 0.473495 18.2937 0.54417V4.10249C18.2938 4.17183 18.2799 4.2405 18.253 4.30458C18.2261 4.36866 18.1867 4.42689 18.1369 4.47594C18.0871 4.52499 18.028 4.56391 17.963 4.59046C17.8979 4.61701 17.8282 4.63067 17.7578 4.63067Z" fill="#FFE7C9"/>
<path d="M8.13576 8.55529C8.06533 8.55533 7.99558 8.54167 7.93053 8.51508C7.86548 8.4885 7.80641 8.44951 7.75671 8.40037L5.20021 5.88291C5.14851 5.83432 5.10719 5.77604 5.07869 5.7115C5.05018 5.64695 5.03506 5.57745 5.03422 5.50707C5.03337 5.4367 5.04682 5.36686 5.07377 5.30167C5.10072 5.23649 5.14063 5.17726 5.19116 5.12748C5.24168 5.07769 5.3018 5.03836 5.36798 5.01177C5.43416 4.98519 5.50507 4.9719 5.57654 4.97269C5.64801 4.97347 5.7186 4.98832 5.78416 5.01635C5.84972 5.04438 5.90893 5.08503 5.95831 5.13591L8.51481 7.65336C8.58973 7.72723 8.64074 7.8213 8.6614 7.9237C8.68206 8.0261 8.67144 8.13223 8.63088 8.22869C8.59032 8.32515 8.52164 8.4076 8.43352 8.46565C8.34539 8.52369 8.24178 8.55472 8.13576 8.5548" fill="#FFE7C9"/>
<path d="M4.14988 18.0305H0.53588C0.393756 18.0305 0.257453 17.9749 0.156956 17.8759C0.0564587 17.777 0 17.6427 0 17.5028C0 17.3628 0.0564587 17.2286 0.156956 17.1297C0.257453 17.0307 0.393756 16.9751 0.53588 16.9751H4.14988C4.292 16.9751 4.42831 17.0307 4.5288 17.1297C4.6293 17.2286 4.68576 17.3628 4.68576 17.5028C4.68576 17.6427 4.6293 17.777 4.5288 17.8759C4.42831 17.9749 4.292 18.0305 4.14988 18.0305Z" fill="#FFE7C9"/>
<path d="M5.57987 30.0217C5.47385 30.0217 5.37024 29.9906 5.28211 29.9326C5.19399 29.8745 5.12531 29.7921 5.08475 29.6956C5.04419 29.5992 5.03357 29.493 5.05423 29.3906C5.07489 29.2882 5.1259 29.1942 5.20082 29.1203L7.75732 26.6029C7.85785 26.5039 7.99419 26.4482 8.13637 26.4482C8.27854 26.4482 8.41489 26.5039 8.51542 26.6029C8.61595 26.7018 8.67242 26.8361 8.67242 26.9761C8.67242 27.1161 8.61595 27.2504 8.51542 27.3494L5.95892 29.8668C5.90922 29.916 5.85015 29.955 5.7851 29.9815C5.72005 30.0081 5.6503 30.0218 5.57987 30.0217Z" fill="#FFE7C9"/>
<path d="M29.9348 30.0217C29.8644 30.0218 29.7947 30.0081 29.7296 29.9815C29.6646 29.955 29.6055 29.916 29.5558 29.8668L26.9993 27.3494C26.9495 27.3004 26.91 27.2422 26.8831 27.1781C26.8562 27.1141 26.8423 27.0454 26.8423 26.9761C26.8423 26.9068 26.8562 26.8382 26.8831 26.7741C26.91 26.7101 26.9495 26.6519 26.9993 26.6029C27.0491 26.5538 27.1082 26.515 27.1732 26.4884C27.2382 26.4619 27.3079 26.4482 27.3783 26.4482C27.4487 26.4482 27.5184 26.4619 27.5835 26.4884C27.6485 26.515 27.7076 26.5538 27.7574 26.6029L30.3139 29.1203C30.3888 29.1942 30.4398 29.2882 30.4605 29.3906C30.4811 29.493 30.4705 29.5992 30.43 29.6956C30.3894 29.7921 30.3207 29.8745 30.2326 29.9326C30.1445 29.9906 30.0409 30.0217 29.9348 30.0217Z" fill="#FFE7C9"/>
<path d="M34.9795 18.0305H31.3664C31.2243 18.0305 31.088 17.9749 30.9875 17.8759C30.887 17.777 30.8306 17.6427 30.8306 17.5028C30.8306 17.3628 30.887 17.2286 30.9875 17.1297C31.088 17.0307 31.2243 16.9751 31.3664 16.9751H34.9804C35.1226 16.9751 35.2589 17.0307 35.3594 17.1297C35.4599 17.2286 35.5163 17.3628 35.5163 17.5028C35.5163 17.6427 35.4599 17.777 35.3594 17.8759C35.2589 17.9749 35.1226 18.0305 34.9804 18.0305" fill="#FFE7C9"/>
<path d="M27.3797 8.55578C27.2737 8.55569 27.17 8.52467 27.0819 8.46662C26.9938 8.40858 26.9251 8.32612 26.8846 8.22966C26.844 8.13321 26.8334 8.02708 26.854 7.92468C26.8747 7.82228 26.9257 7.7282 27.0006 7.65434L29.5571 5.13688C29.6065 5.086 29.6657 5.04535 29.7313 5.01732C29.7968 4.98929 29.8674 4.97445 29.9389 4.97367C30.0104 4.97288 30.0813 4.98617 30.1475 5.01275C30.2136 5.03933 30.2738 5.07867 30.3243 5.12845C30.3748 5.17824 30.4147 5.23746 30.4417 5.30265C30.4686 5.36784 30.4821 5.43767 30.4812 5.50805C30.4804 5.57843 30.4653 5.64793 30.4367 5.71247C30.4082 5.77701 30.3669 5.83529 30.3152 5.88389L27.7587 8.40134C27.709 8.45049 27.65 8.48947 27.5849 8.51606C27.5199 8.54265 27.4501 8.55631 27.3797 8.55626" fill="#FFE7C9"/>
<path d="M17.8652 31.9229C17.8652 31.9229 14.3608 32.5575 14.0771 32.4331V33.3307C14.0772 33.409 14.0815 33.4872 14.0899 33.565C14.1488 34.0811 14.3986 34.5578 14.7918 34.904C15.1849 35.2503 15.6937 35.4418 16.2212 35.442H17.1503C16.7075 35.4419 16.2755 35.307 15.9137 35.0556C15.5518 34.8043 15.2778 34.4488 15.1292 34.038C15.1175 34.006 15.1137 33.9718 15.1183 33.9381C15.1228 33.9044 15.1354 33.8723 15.1552 33.8444C15.175 33.8166 15.2012 33.7938 15.2318 33.778C15.2623 33.7623 15.2963 33.754 15.3308 33.7538H20.724C21.0394 33.7545 21.3514 33.6907 21.6404 33.5665C21.6489 33.4886 21.6532 33.4104 21.6532 33.3321V32.4331C21.3695 32.5575 17.8652 31.9229 17.8652 31.9229Z" fill="#9DA3B1"/>
<path d="M23.0109 30.3741C23.0111 30.67 22.9522 30.9629 22.8373 31.2363C22.7225 31.5097 22.554 31.758 22.3416 31.9672C22.1292 32.1764 21.8769 32.3423 21.5993 32.4554C21.3217 32.5685 21.0242 32.6265 20.7238 32.6263H15.0061C14.7057 32.6265 14.4082 32.5685 14.1306 32.4554C13.853 32.3423 13.6007 32.1764 13.3883 31.9672C13.1759 31.758 13.0074 31.5097 12.8926 31.2363C12.7777 30.9629 12.7188 30.67 12.719 30.3741C12.719 30.3741 12.6851 27.0821 12.6787 26.9983V26.9959L17.865 26.292L22.9917 26.9959L23.0109 30.3741Z" fill="#C3C9D7"/>
<path d="M16.2209 32.626H15.0061C14.7057 32.6262 14.4082 32.5682 14.1306 32.4551C13.853 32.342 13.6007 32.1761 13.3883 31.9669C13.1759 31.7577 13.0074 31.5094 12.8926 31.236C12.7777 30.9626 12.7188 30.6697 12.719 30.3738C12.719 30.3738 12.6851 27.0818 12.6787 26.998V26.9956H13.894V26.998C13.9004 27.0842 13.9339 30.3738 13.9339 30.3738C13.9336 30.6697 13.9926 30.9626 14.1074 31.236C14.2223 31.5094 14.3907 31.7577 14.6031 31.9669C14.8156 32.1761 15.0678 32.342 15.3454 32.4551C15.623 32.5682 15.9205 32.6262 16.2209 32.626Z" fill="#9DA3B1"/>
<path d="M23.0111 30.3386H21.1896C21.0502 30.3344 20.9179 30.277 20.8208 30.1784C20.7237 30.0799 20.6694 29.948 20.6694 29.8107C20.6694 29.6733 20.7237 29.5414 20.8208 29.4429C20.9179 29.3443 21.0502 29.2869 21.1896 29.2827H23.0062L23.0091 29.8109L23.0111 30.3386Z" fill="#9DA3B1"/>
<path d="M19.2231 29.8109C19.2231 29.9508 19.1667 30.0851 19.0662 30.184C18.9657 30.283 18.8294 30.3386 18.6873 30.3386H12.7183L12.7061 29.2827H18.6873C18.8294 29.2828 18.9657 29.3385 19.0662 29.4376C19.1667 29.5366 19.2231 29.6709 19.2231 29.8109Z" fill="#9DA3B1"/>
<path d="M17.767 6.38586C12.2469 6.30211 7.60489 11.0398 7.7042 16.4358C7.69733 19.0728 8.73841 21.6078 10.6048 23.4987C11.6619 24.5691 12.5768 25.5587 12.6781 26.996L22.991 27.0125C23.0491 25.5335 23.903 24.5338 24.9669 23.4397C26.7983 21.5546 27.8174 19.0446 27.8105 16.4358C27.8105 10.8882 23.3145 6.39118 17.7665 6.38586" fill="#FAD207"/>
<path d="M22.9915 27.0101L12.6785 26.9936C12.5772 25.5562 11.6623 24.5667 10.6053 23.4963C8.73887 21.6053 7.69779 19.0704 7.70466 16.4334C7.60633 11.0373 12.2474 6.29966 17.7674 6.38342C17.9454 6.38342 18.1224 6.38874 18.2984 6.39746C13.0836 6.69665 8.82411 11.2639 8.91899 16.4353C8.91213 19.0723 9.9532 21.6073 11.8196 23.4982C12.8766 24.5686 13.7916 25.5582 13.8933 26.9955L22.9915 27.0101Z" fill="#FAA515"/>
<path d="M18.0101 21.4656C17.9044 21.5996 17.7702 21.7091 17.6169 21.7866C17.4635 21.864 17.2949 21.9075 17.1227 21.9139H17.0784C16.9136 21.9138 16.7506 21.8797 16.6 21.8139C16.4494 21.748 16.3144 21.6518 16.2038 21.5314L12.8445 17.8714C12.7347 17.7593 12.6488 17.6266 12.5921 17.4812C12.5354 17.3358 12.509 17.1806 12.5144 17.025C12.5198 16.8693 12.5569 16.7163 12.6236 16.575C12.6902 16.4337 12.785 16.3071 12.9024 16.2027C13.0197 16.0982 13.1572 16.0181 13.3066 15.967C13.4561 15.9159 13.6144 15.8949 13.7723 15.9053C13.9301 15.9157 14.0842 15.9572 14.2254 16.0274C14.3666 16.0976 14.492 16.1951 14.5942 16.314L17.0106 18.9452L20.865 14.0555C20.9577 13.9291 21.0754 13.8223 21.2109 13.7415C21.3465 13.6608 21.4971 13.6077 21.6539 13.5855C21.8107 13.5634 21.9705 13.5725 22.1236 13.6124C22.2768 13.6523 22.4202 13.7222 22.5453 13.8179C22.6704 13.9136 22.7747 14.0331 22.8519 14.1693C22.9292 14.3055 22.9777 14.4556 22.9948 14.6107C23.0118 14.7658 22.9969 14.9227 22.9511 15.072C22.9052 15.2213 22.8293 15.36 22.7278 15.4798L18.0101 21.4656Z" fill="#FAA515"/>
</svg>
