<svg width="147" height="101" viewBox="0 0 147 101" fill="none" xmlns="http://www.w3.org/2000/svg">
<path d="M21.433 28.8759C-7.14589 45.3743 -7.1428 72.1279 21.433 88.6263C50.0089 105.125 96.3452 105.125 124.924 88.6263C153.503 72.1279 153.5 45.3743 124.924 28.8759C96.3483 12.3776 50.012 12.3776 21.433 28.8759Z" fill="#FAA515"/>
<path d="M33.6117 82.6958L35.4864 81.613L24.5195 80.5952L26.286 86.9248L28.1607 85.8451L51.1897 99.0549C55.7795 99.8821 60.4132 100.444 65.0677 100.738L33.6117 82.6958Z" fill="#D58C12"/>
<path d="M65.3777 36.8049L137.954 78.4358C139.192 77.0762 140.329 75.6287 141.357 74.1048L70.8287 33.6741L72.7034 32.5914L61.7334 31.5581L63.4999 37.8877L65.3777 36.8049Z" fill="#D58C12"/>
<path d="M21.9306 59.6019L10.9668 58.5811L12.7302 64.9199L14.6049 63.8371L79.172 100.855C82.3677 100.707 85.548 100.438 88.6942 100.045L20.0559 60.6847L21.9306 59.6019Z" fill="#D58C12"/>
<path d="M134.742 53.5632L136.599 52.4835L125.635 51.4626L127.411 57.8046L129.282 56.7218L145.307 65.913C145.859 64.0584 146.196 62.1462 146.309 60.2145L134.742 53.5632Z" fill="#D58C12"/>
<path d="M133.143 82.9772L111.058 70.3088L112.93 69.2261L101.966 68.2083L103.732 74.5378L105.604 73.4581L128.351 86.504C130.01 85.4134 131.609 84.2362 133.143 82.9772Z" fill="#D58C12"/>
<path d="M26.7754 55.7287L50.0147 69.1705L50.0982 69.1179L50.7479 68.7467L51.3666 68.3878C54.4603 66.5966 56.6475 65.2756 56.4804 64.2671C56.3567 63.503 54.9738 63.0699 53.8323 62.9337C53.2143 62.8842 52.6131 62.7083 52.0658 62.4171C51.86 62.3237 51.6838 62.1757 51.5562 61.9892C51.4285 61.8026 51.3544 61.5847 51.3419 61.3591C51.3419 60.8889 51.6884 60.3939 52.3597 60.0041C53.5971 59.2925 55.4533 59.2152 56.5361 59.837C56.9449 60.0602 57.2615 60.4207 57.4301 60.8548C57.6684 61.5169 58.4201 62.315 59.7442 62.3831C61.5725 62.4821 63.6205 61.3003 66.9956 59.3451L67.7969 58.8811L44.5947 45.4517L26.7754 55.7287ZM88.7191 70.9648C87.989 71.3794 87.2837 71.7722 86.5907 72.1559C83.8064 73.7027 81.8017 74.8102 81.9502 75.7228C82.0007 75.9497 82.1328 76.1501 82.3215 76.2858C82.835 76.7035 83.7755 76.9572 84.5984 77.0531C85.216 77.1026 85.817 77.2774 86.3648 77.5666C86.5707 77.662 86.7469 77.8113 86.8748 77.9986C87.0028 78.186 87.0778 78.4044 87.0919 78.6308C87.0806 78.8907 86.9862 79.1401 86.8227 79.3423C86.6144 79.6026 86.3569 79.8191 86.0648 79.9796C84.8273 80.6943 82.9711 80.7654 81.8915 80.1498C81.4842 79.9256 81.1688 79.5653 81.0005 79.132C80.7592 78.4699 80.0105 77.6718 78.6834 77.6006C77.1366 77.514 75.5433 78.4792 73.1148 79.9487C72.4683 80.3416 71.7351 80.784 70.9493 81.2573L72.1527 81.9472L100.082 98.0588C107.24 96.4757 114.188 94.0563 120.781 90.8506C121.219 90.6444 121.652 90.4248 122.081 90.1917L88.7191 70.9648Z" fill="#0D1E42"/>
<path opacity="0.2" d="M26.7754 55.7287L50.0147 69.1705L50.0982 69.1179L50.7479 68.7467L51.3666 68.3878C54.4603 66.5966 56.6475 65.2756 56.4804 64.2671C56.3567 63.503 54.9738 63.0699 53.8323 62.9337C53.2143 62.8842 52.6131 62.7083 52.0658 62.4171C51.86 62.3237 51.6838 62.1757 51.5562 61.9892C51.4285 61.8026 51.3544 61.5847 51.3419 61.3591C51.3419 60.8889 51.6884 60.3939 52.3597 60.0041C53.5971 59.2925 55.4533 59.2152 56.5361 59.837C56.9449 60.0602 57.2615 60.4207 57.4301 60.8548C57.6684 61.5169 58.4201 62.315 59.7442 62.3831C61.5725 62.4821 63.6205 61.3003 66.9956 59.3451L67.7969 58.8811L44.5947 45.4517L26.7754 55.7287ZM88.7191 70.9648C87.989 71.3794 87.2837 71.7722 86.5907 72.1559C83.8064 73.7027 81.8017 74.8102 81.9502 75.7228C82.0007 75.9497 82.1328 76.1501 82.3215 76.2858C82.835 76.7035 83.7755 76.9572 84.5984 77.0531C85.216 77.1026 85.817 77.2774 86.3648 77.5666C86.5707 77.662 86.7469 77.8113 86.8748 77.9986C87.0028 78.186 87.0778 78.4044 87.0919 78.6308C87.0806 78.8907 86.9862 79.1401 86.8227 79.3423C86.6144 79.6026 86.3569 79.8191 86.0648 79.9796C84.8273 80.6943 82.9711 80.7654 81.8915 80.1498C81.4842 79.9256 81.1688 79.5653 81.0005 79.132C80.7592 78.4699 80.0105 77.6718 78.6834 77.6006C77.1366 77.514 75.5433 78.4792 73.1148 79.9487C72.4683 80.3416 71.7351 80.784 70.9493 81.2573L72.1527 81.9472L100.082 98.0588C107.24 96.4757 114.188 94.0563 120.781 90.8506C121.219 90.6444 121.652 90.4248 122.081 90.1917L88.7191 70.9648Z" fill="#1E408C"/>
<path d="M50.6921 15.3258L35.6756 0L20.6592 32.6656L26.7753 29.1358V55.7317L44.576 45.4516V18.8557L50.6921 15.3258Z" fill="#1E408C"/>
<path d="M73.7452 58.2131C74.4282 59.1155 75.851 59.7281 76.9246 59.5863C77.3272 59.5396 77.7073 59.3641 78.0076 59.0863C78.3341 58.8032 78.729 58.6111 79.1502 58.5305C79.5715 58.4498 80.0035 58.4836 80.4005 58.6282C81.6305 59.0261 82.5014 60.229 83.8177 62.0504C84.168 62.5496 84.5696 63.0946 85.0071 63.6852C89.0169 63.3241 93.1555 62.8789 93.6323 62.1214L93.6525 62.0846C93.8792 61.6318 93.1304 61.1165 92.3978 60.7991C91.9034 60.6236 91.4654 60.3247 91.125 59.9304C90.5313 59.1553 91.3429 58.3506 92.9284 58.1295C94.5138 57.9084 96.2652 58.3773 96.8528 59.1493C96.9648 59.2881 97.0376 59.4546 97.0643 59.6324C97.0909 59.8102 97.0704 59.9932 97.0047 60.1634C96.8347 60.6096 96.9439 61.2351 97.8028 61.5413C99.207 62.0399 102.167 61.5046 105.93 60.8138L105.916 60.7938L105.556 60.3198C105.446 60.1625 105.339 60.0103 105.232 59.858C103.512 57.5867 102.328 55.9371 102.855 55.2408C103.246 54.7051 104.486 54.7893 105.428 55.0287C105.929 55.1742 106.456 55.224 106.981 55.1754C107.176 55.1666 107.368 55.1089 107.538 55.0077C107.708 54.9064 107.851 54.7648 107.954 54.596C108.134 54.2402 108.062 53.7715 107.694 53.285C107.009 52.3801 105.587 51.7633 104.514 51.9119C104.111 51.9587 103.729 52.1339 103.427 52.4112C103.101 52.6945 102.707 52.8868 102.287 52.9676C101.866 53.0484 101.435 53.0146 101.038 52.8699C99.5702 52.4168 98.4477 50.899 96.5813 48.4248L96.1369 47.8353C92.4994 48.1751 89.1166 48.5884 88.6206 49.3895L88.6012 49.422C88.371 49.8697 89.1233 50.3901 89.8524 50.7025C90.346 50.8837 90.7841 51.1836 91.1287 51.5761C91.713 52.3542 90.9064 53.1553 89.3218 53.372C87.7372 53.5888 85.9799 53.1278 85.3991 52.3548C85.288 52.2155 85.2156 52.0491 85.189 51.8714C85.1624 51.6938 85.1825 51.511 85.2472 51.3406C85.4147 50.8963 85.308 50.2689 84.4457 49.9689C83.1678 49.519 79.9799 49.9807 76.2933 50.5237C75.9429 50.5706 75.5745 50.6303 75.2044 50.6875C75.6136 51.216 76.0087 51.7244 76.4002 52.2168C77.9629 54.2035 79.0904 55.6355 78.6225 56.2745C78.2316 56.8103 76.99 56.7236 76.0493 56.4866C75.5416 56.34 75.0074 56.2928 74.4758 56.3477C74.2797 56.3548 74.0873 56.4117 73.9168 56.5132C73.7464 56.6146 73.6036 56.7571 73.5022 56.9271C73.2997 57.2505 73.377 57.7267 73.7452 58.2131Z" fill="#102551"/>
<path opacity="0.3" d="M73.7452 58.2131C74.4282 59.1155 75.851 59.7281 76.9246 59.5863C77.3272 59.5396 77.7073 59.3641 78.0076 59.0863C78.3341 58.8032 78.729 58.6111 79.1502 58.5305C79.5715 58.4498 80.0035 58.4836 80.4005 58.6282C81.6305 59.0261 82.5014 60.229 83.8177 62.0504C84.168 62.5496 84.5696 63.0946 85.0071 63.6852C89.0169 63.3241 93.1555 62.8789 93.6323 62.1214L93.6525 62.0846C93.8792 61.6318 93.1304 61.1165 92.3978 60.7991C91.9034 60.6236 91.4654 60.3247 91.125 59.9304C90.5313 59.1553 91.3429 58.3506 92.9284 58.1295C94.5138 57.9084 96.2652 58.3773 96.8528 59.1493C96.9648 59.2881 97.0376 59.4546 97.0643 59.6324C97.0909 59.8102 97.0704 59.9932 97.0047 60.1634C96.8347 60.6096 96.9439 61.2351 97.8028 61.5413C99.207 62.0399 102.167 61.5046 105.93 60.8138L105.916 60.7938L105.556 60.3198C105.446 60.1625 105.339 60.0103 105.232 59.858C103.512 57.5867 102.328 55.9371 102.855 55.2408C103.246 54.7051 104.486 54.7893 105.428 55.0287C105.929 55.1742 106.456 55.224 106.981 55.1754C107.176 55.1666 107.368 55.1089 107.538 55.0077C107.708 54.9064 107.851 54.7648 107.954 54.596C108.134 54.2402 108.062 53.7715 107.694 53.285C107.009 52.3801 105.587 51.7633 104.514 51.9119C104.111 51.9587 103.729 52.1339 103.427 52.4112C103.101 52.6945 102.707 52.8868 102.287 52.9676C101.866 53.0484 101.435 53.0146 101.038 52.8699C99.5702 52.4168 98.4477 50.899 96.5813 48.4248L96.1369 47.8353C92.4994 48.1751 89.1166 48.5884 88.6206 49.3895L88.6012 49.422C88.371 49.8697 89.1233 50.3901 89.8524 50.7025C90.346 50.8837 90.7841 51.1836 91.1287 51.5761C91.713 52.3542 90.9064 53.1553 89.3218 53.372C87.7372 53.5888 85.9799 53.1278 85.3991 52.3548C85.288 52.2155 85.2156 52.0491 85.189 51.8714C85.1624 51.6938 85.1825 51.511 85.2472 51.3406C85.4147 50.8963 85.308 50.2689 84.4457 49.9689C83.1678 49.519 79.9799 49.9807 76.2933 50.5237C75.9429 50.5706 75.5745 50.6303 75.2044 50.6875C75.6136 51.216 76.0087 51.7244 76.4002 52.2168C77.9629 54.2035 79.0904 55.6355 78.6225 56.2745C78.2316 56.8103 76.99 56.7236 76.0493 56.4866C75.5416 56.34 75.0074 56.2928 74.4758 56.3477C74.2797 56.3548 74.0873 56.4117 73.9168 56.5132C73.7464 56.6146 73.6036 56.7571 73.5022 56.9271C73.2997 57.2505 73.377 57.7267 73.7452 58.2131Z" fill="#102551"/>
</svg>
