<svg width="208" height="36" viewBox="0 0 208 36" fill="none" xmlns="http://www.w3.org/2000/svg">
<path d="M0.12207 0.551758H207.959V35.1773H0.12207V0.551758Z" fill="#004C8F"/>
<path d="M34.7891 0.551758H208V35.1773H34.7891V0.551758Z" fill="#004C8F"/>
<path d="M45.8057 26.032V9.65452H51.2094V15.183H56.2806V9.65452H61.6844V26.032H56.2806V19.6722H51.2094V26.032H45.8057ZM70.1641 13.7281H71.5774C72.575 13.7281 73.3232 13.8528 73.7805 14.0606C74.113 14.2269 74.404 14.4348 74.6534 14.7673C74.8612 15.0998 75.0691 15.5155 75.1938 16.0559C75.3185 16.5963 75.4016 17.1366 75.4016 17.7186C75.4016 18.6746 75.2769 19.4644 74.9859 20.1295C74.695 20.7946 74.3209 21.2518 73.8221 21.5428C73.3232 21.8337 72.575 21.9584 71.5359 21.9584H70.1641V13.7281ZM72.2425 26.032C73.5311 26.032 74.5703 25.9073 75.4432 25.6995C76.3161 25.4917 77.0227 25.2007 77.5631 24.8266C78.1035 24.4525 78.6023 23.9953 79.0595 23.3717C79.5168 22.7482 79.8909 21.9584 80.2234 21.0024C80.556 20.0464 80.6807 18.9656 80.6807 17.7186C80.6807 15.9312 80.3481 14.3932 79.6415 13.1046C78.9348 11.8576 77.9788 10.9431 76.7733 10.4443C75.5679 9.90391 74.113 9.65452 72.4088 9.65452H64.9266V26.032H72.2425ZM83.1747 26.032V9.65452H95.9774V13.6866H88.4953V16.3053H94.481V20.2542H88.4953V26.032H83.1747ZM114.018 15.9312H108.905C108.822 15.0998 108.531 14.4763 108.032 14.0191C107.533 13.5619 106.91 13.354 106.161 13.354C105.205 13.354 104.416 13.7281 103.834 14.4763C103.252 15.2245 102.919 16.43 102.919 18.0511C102.919 19.215 103.044 20.0464 103.293 20.6699C103.543 21.2934 103.917 21.7091 104.374 22C104.831 22.291 105.413 22.4157 106.078 22.4157C106.91 22.4157 107.575 22.2079 108.032 21.7091C108.531 21.2518 108.822 20.5867 108.905 19.6722H114.101C113.976 20.7114 113.768 21.5428 113.477 22.2494C113.186 22.9561 112.688 23.6211 112.022 24.3278C111.316 25.0344 110.484 25.5748 109.528 25.9489C108.572 26.323 107.492 26.4893 106.203 26.4893C104.956 26.4893 103.792 26.323 102.753 25.9489C101.672 25.5748 100.799 25.0344 100.093 24.3693C99.3444 23.6627 98.804 22.9145 98.3884 22.0416C97.8064 20.7946 97.5154 19.4644 97.5154 17.9264C97.5154 16.6794 97.7233 15.4739 98.139 14.3516C98.5546 13.2709 99.1366 12.3148 99.8432 11.5666C100.591 10.8184 101.381 10.278 102.254 9.90392C103.376 9.40511 104.623 9.19727 105.995 9.19727C107.201 9.19727 108.281 9.36356 109.321 9.73766C110.36 10.0702 111.233 10.6106 111.898 11.2756C112.563 11.9407 113.103 12.7721 113.436 13.645C113.727 14.2685 113.893 15.0167 114.018 15.9312ZM131.268 13.354C132.016 13.354 132.515 13.3956 132.765 13.4787C133.056 13.5619 133.346 13.7281 133.513 13.9775C133.721 14.2269 133.804 14.5179 133.804 14.8504C133.804 15.2661 133.637 15.5987 133.305 15.8896C132.972 16.1806 132.39 16.3053 131.559 16.3053H129.522V13.4371L131.268 13.354ZM132.64 26.032C133.928 26.032 134.801 25.9905 135.342 25.8658C135.882 25.7411 136.422 25.5332 136.921 25.2838C137.462 24.9929 137.877 24.7435 138.127 24.4525C138.542 24.0784 138.875 23.5796 139.083 23.0392C139.291 22.4573 139.415 21.8337 139.415 21.1271C139.415 20.1295 139.166 19.3397 138.667 18.6746C138.168 18.0096 137.503 17.5523 136.672 17.3445C138.085 16.43 138.792 15.3077 138.792 13.8944C138.792 12.4395 138.168 11.3172 136.921 10.569C135.965 9.98707 134.469 9.69608 132.432 9.69608H124.285V26.0736H132.64V26.032ZM131.767 19.1734C132.848 19.1734 133.513 19.2981 133.887 19.5891C134.219 19.8385 134.386 20.2126 134.386 20.7114C134.386 21.2102 134.219 21.5843 133.845 21.8753C133.513 22.1663 132.806 22.291 131.767 22.291H129.564V19.1734H131.767ZM151.262 20.5452H147.853L149.558 14.601L151.262 20.5452ZM146.232 26.032L146.856 23.8706H152.218L152.842 26.032H158.204L152.343 9.65452H146.856L140.953 26.032H146.232ZM160.448 26.032V9.65452H165.478L171.131 18.4252V9.65452H176.286V26.032H171.173L165.644 17.4692V26.032H160.448ZM179.902 26.032V9.65452H185.139V15.0583L190.003 9.65452H196.321L190.335 15.8065L196.945 26.032H190.502L186.553 19.506L185.139 20.9193V26.032H179.902Z" fill="white"/>
<path d="M0.12207 0.551758H34.7477V35.1773H0.12207V0.551758Z" fill="#ED232A"/>
<path d="M6.19043 6.5791H28.7199V29.1086H6.19043V6.5791Z" fill="white"/>
<path d="M15.71 0.551758H19.1601V35.1773H15.71V0.551758Z" fill="white"/>
<path d="M0.12207 16.1401H34.7477V19.5902H0.12207V16.1401Z" fill="white"/>
<path d="M12.2598 12.6484H22.6516V23.0403H12.2598V12.6484Z" fill="#004C8F"/>
</svg>
