<svg width="208" height="42" viewBox="0 0 208 42" fill="none" xmlns="http://www.w3.org/2000/svg">
<path fill-rule="evenodd" clip-rule="evenodd" d="M37.8506 41.6793H44.9191L50.366 21.1807H43.3806L37.8506 41.6793Z" fill="#005B76"/>
<path fill-rule="evenodd" clip-rule="evenodd" d="M73.8994 41.6793H80.8848L86.4148 21.1807H79.4295L73.8994 41.6793Z" fill="#005B76"/>
<path fill-rule="evenodd" clip-rule="evenodd" d="M109.949 41.6793H116.935L122.465 21.1807H115.438L109.949 41.6793Z" fill="#005B76"/>
<path fill-rule="evenodd" clip-rule="evenodd" d="M67.3715 28.208H74.3984C75.3547 23.5927 72.361 21.2227 65.4589 21.2227C57.4756 21.2227 52.0703 25.0895 50.2824 31.9086C48.6608 38.0623 51.8624 41.8044 59.3883 41.8044C66.9557 41.8044 71.4463 39.4344 73.3589 34.1954H66.332C65.3757 36.5239 63.5046 37.7297 61.0099 37.7297C57.6004 37.7297 56.3114 35.5675 57.3509 31.6591C58.4319 27.5843 61.0099 25.339 64.4194 25.339C66.5399 25.2974 67.5378 26.2953 67.3715 28.208Z" fill="#005B76"/>
<path fill-rule="evenodd" clip-rule="evenodd" d="M103.421 28.208H110.448C111.405 23.5927 108.411 21.2227 101.509 21.2227C93.5254 21.2227 88.1201 25.0895 86.3322 31.9086C84.7106 38.0623 87.9122 41.8044 95.4381 41.8044C103.006 41.8044 107.496 39.4344 109.409 34.1954H102.382C101.426 36.5239 99.5544 37.7297 97.0597 37.7297C93.6502 37.7297 92.3612 35.5675 93.4007 31.6591C94.4817 27.5843 97.0597 25.339 100.469 25.339C102.548 25.2974 103.546 26.2953 103.421 28.208Z" fill="#005B76"/>
<path fill-rule="evenodd" clip-rule="evenodd" d="M10.7822 9.78785C20.1791 0.474079 31.5303 -1.93752 36.0625 4.42412C40.5946 10.7858 36.603 23.5922 27.2061 32.8644C17.8091 42.1782 6.45796 44.5898 1.92581 38.2281C-2.56476 31.9081 1.38527 19.1016 10.7822 9.78785Z" fill="#F99D28"/>
<path fill-rule="evenodd" clip-rule="evenodd" d="M17.0196 4.83989C16.0217 5.58832 14.9406 6.50306 13.9011 7.50096C5.66841 15.6089 2.25891 26.7522 6.2921 32.3654C10.4916 37.937 20.5954 35.8997 28.9529 27.667C33.4434 23.3011 36.5203 18.1869 37.7677 13.4052C38.1419 9.91257 37.6429 6.8357 36.0629 4.46568C32.4455 -0.482267 24.7533 -0.108055 17.0196 4.83989Z" fill="#AF2A30"/>
<path fill-rule="evenodd" clip-rule="evenodd" d="M21.6346 37.5212C17.2272 40.806 12.6951 42.4692 8.24609 41.8039C10.1172 41.8871 11.614 39.8081 12.8614 37.0639C14.1088 34.2365 14.8572 31.5754 15.4809 29.1222C16.3541 25.2137 16.4372 22.4279 15.9799 21.8458C15.2314 20.8479 13.5267 21.0974 11.5724 22.22C10.6161 22.7606 9.41032 22.3863 10.8656 20.64C12.3625 18.8521 18.1836 14.5694 20.3041 13.9042C22.6326 13.2389 25.2521 14.1536 24.3789 16.69C23.7136 18.4363 15.6056 39.7249 21.6346 37.5212ZM28.2873 4.5488C29.41 5.67144 28.7031 8.04146 26.8736 9.91253C25.0026 11.7836 22.5494 12.4489 21.4683 11.3678C20.3041 10.2867 21.011 7.87515 22.882 5.96249C24.7531 4.04984 27.2479 3.46774 28.2873 4.5488Z" fill="white"/>
<path fill-rule="evenodd" clip-rule="evenodd" d="M132.984 38.4781L134.564 32.4907H139.179C142.713 32.4907 144.293 33.1143 143.67 35.526C143.087 37.7297 141.341 38.4781 138.14 38.4781H132.984ZM136.767 24.3827H141.133C144.418 24.3827 145.915 24.7569 145.416 26.8359C144.875 28.8733 143.087 29.4138 139.678 29.4138H135.395L136.767 24.3827ZM127.703 41.7213H138.223C141.216 41.7213 143.462 41.4718 145.582 40.0165C146.996 39.0602 148.077 37.5633 148.493 35.9417C149.241 33.1143 147.952 31.2433 144.751 30.7859C147.786 30.2454 149.699 28.6238 150.322 26.2122C150.863 24.3411 150.405 22.969 149.075 22.0958C147.952 21.3474 146.123 21.2227 143.67 21.2227H133.192L127.703 41.7213Z" fill="#005B76"/>
<path fill-rule="evenodd" clip-rule="evenodd" d="M161.716 35.1509L161.633 35.4004C160.926 38.0615 158.805 39.6831 156.144 39.6831C154.232 39.6831 153.442 38.9347 153.774 37.5625C154.315 35.6915 155.936 35.1509 158.972 35.1509H161.716ZM160.053 41.7205H164.294C164.377 40.7642 164.627 39.7247 164.959 38.5189L166.498 32.7809C167.496 28.9972 165.624 27.043 160.884 27.043C156.311 27.043 153.275 28.623 152.402 31.3256H156.477C157.018 29.9535 158.182 29.3298 160.136 29.3298C162.34 29.3298 163.088 30.2862 162.548 32.3651L162.464 32.6146H160.261C153.982 32.6146 150.573 33.7788 149.616 37.3546C148.868 40.182 150.614 41.97 154.356 41.97C156.768 41.97 158.889 41.1799 160.593 39.6415L160.053 41.7205Z" fill="#005B76"/>
<path fill-rule="evenodd" clip-rule="evenodd" d="M167.911 41.7213H172.194L174.19 34.4033C174.938 31.7423 177.35 29.9128 179.886 29.9128C182.381 29.9128 183.254 31.368 182.464 34.2786L180.468 41.7629H184.626L186.996 32.9896C187.994 29.2891 186.081 27.127 181.965 27.127C179.304 27.127 177.1 28.0417 175.271 29.9543L175.811 27.418H171.612C171.196 29.6633 170.863 31.077 170.739 31.6175L167.911 41.7213Z" fill="#005B76"/>
<path fill-rule="evenodd" clip-rule="evenodd" d="M188.284 41.7213H192.401L194.48 33.9875L200.051 41.7213H205.748L199.427 33.5717L207.951 27.418H202.629L194.687 33.1975L197.931 21.2227H193.814L188.284 41.7213Z" fill="#005B76"/>
</svg>
