<svg width="162" height="47" viewBox="0 0 162 47" fill="none" xmlns="http://www.w3.org/2000/svg">
<mask id="mask0_1_1626" style="mask-type:alpha" maskUnits="userSpaceOnUse" x="0" y="22" width="29" height="25">
<path fill-rule="evenodd" clip-rule="evenodd" d="M28.9011 46.1292H0.295898V22.3613H28.9011V46.1292Z" fill="white"/>
</mask>
<g mask="url(#mask0_1_1626)">
<path fill-rule="evenodd" clip-rule="evenodd" d="M22.5059 45.4548L3.38926 33.0127C3.38926 33.0127 0.993883 31.6406 0.435734 29.0591C-0.331722 25.4544 2.2032 22.3613 2.2032 22.3613L27.0176 38.5011C28.9246 39.757 29.4595 42.2919 28.2269 44.2222C26.9711 46.2222 24.3664 46.6641 22.5059 45.4548Z" fill="#38D200"/>
</g>
<mask id="mask1_1_1626" style="mask-type:alpha" maskUnits="userSpaceOnUse" x="1" y="0" width="28" height="35">
<path fill-rule="evenodd" clip-rule="evenodd" d="M28.9256 34.4359H1.45996V0.52832H28.9256V34.4359Z" fill="white"/>
</mask>
<g mask="url(#mask1_1_1626)">
<path fill-rule="evenodd" clip-rule="evenodd" d="M4.39025 19.715C4.39025 19.715 1.45996 17.9475 1.45996 13.8544C1.45996 9.78459 4.39025 8.04037 4.39025 8.04037L14.8556 1.20305C16.7626 -0.0527872 19.344 0.505351 20.5766 2.41236C21.8324 4.31937 21.2743 6.87757 19.3673 8.1334L10.5532 13.8777L25.5767 23.6453C25.5767 23.6453 28.2744 25.2035 28.8093 27.8082C29.5535 31.4594 27.0418 34.4595 27.0418 34.4595L4.39025 19.715Z" fill="#0473EA"/>
</g>
<path fill-rule="evenodd" clip-rule="evenodd" d="M24.3552 9.91602C23.3352 9.91602 22.6066 10.2149 21.8781 10.6517L16.5352 13.9395L21.8781 17.2272C22.6066 17.664 23.3595 17.9629 24.3552 17.9629C26.711 17.9629 28.6053 16.1696 28.6053 13.9395C28.6296 11.7323 26.711 9.91602 24.3552 9.91602Z" fill="#38D200"/>
<path fill-rule="evenodd" clip-rule="evenodd" d="M4.21942 46.1275C5.1261 46.1275 5.77373 45.8286 6.42135 45.3917L11.1706 42.104L6.42135 38.8163C5.77373 38.3795 5.10451 38.0806 4.21942 38.0806C2.12544 38.0806 0.441609 39.8739 0.441609 42.104C0.420021 44.3342 2.12544 46.1275 4.21942 46.1275Z" fill="#0473EA"/>
<path fill-rule="evenodd" clip-rule="evenodd" d="M158.627 24.7275L161.116 26.2213V44.2626H158.627V41.6962C157.439 43.4582 155.486 44.569 153.187 44.569C148.859 44.569 145.756 41.3515 145.756 36.9465C145.756 32.4649 148.859 29.1707 153.187 29.1707C155.524 29.1707 157.439 30.2816 158.627 32.0819V24.7275ZM95.6545 24.7275L98.1059 26.2213V39.3213C98.1059 41.3898 99.37 42.1942 100.979 42.1942C102.166 42.1942 103.392 41.8494 104.426 41.1216V43.4965C103.392 44.2626 101.975 44.569 100.749 44.569C97.5697 44.569 95.6545 43.1518 95.6545 39.1681V24.7275ZM136.985 29.1707C141.275 29.1707 144.071 32.35 144.071 36.5634C144.071 36.9848 144.033 37.4061 143.994 37.7892H132.273C132.618 40.4705 134.763 42.2325 137.712 42.2325C139.628 42.2325 141.466 41.6962 142.998 40.5854V42.9219C141.39 43.9945 139.589 44.5307 137.712 44.5307C133.039 44.5307 129.707 41.5047 129.707 36.9848C129.669 32.5415 132.465 29.1707 136.985 29.1707ZM74.2424 29.1707C76.579 29.1707 78.4559 30.2433 79.6816 32.0436V29.4389H82.1714V44.2626H79.6816V41.7345C78.4559 43.4965 76.5407 44.5307 74.2424 44.5307C69.9141 44.5307 66.8114 41.3132 66.8114 36.9082C66.7731 32.4649 69.8758 29.1707 74.2424 29.1707ZM43.5991 29.1707C45.3611 29.1707 47.0465 29.6687 48.3488 30.6646V33.4225C47.1614 32.1585 45.5526 31.5073 43.7523 31.5073C40.5731 31.5073 38.3514 33.6906 38.3514 36.8699C38.3514 40.0491 40.6114 42.2708 43.7906 42.2708C45.5526 42.2708 47.238 41.7728 48.5403 40.662V43.1518C47.0848 44.1477 45.3611 44.569 43.5608 44.569C39.0026 44.569 35.8617 41.3898 35.8617 36.8699C35.8234 32.3117 39.0792 29.1707 43.5991 29.1707ZM111.857 29.1707C116.147 29.1707 118.943 32.35 118.943 36.5634C118.943 36.9848 118.905 37.4061 118.867 37.7892H107.146C107.49 40.4705 109.635 42.2325 112.585 42.2325C114.5 42.2325 116.339 41.6962 117.871 40.5854V42.9219C116.262 43.9945 114.462 44.5307 112.585 44.5307C107.912 44.5307 104.579 41.5047 104.579 36.9848C104.503 32.5415 107.337 29.1707 111.857 29.1707ZM51.2216 24.7275L53.6731 26.2213V31.9669C54.7839 30.2433 56.5842 29.1707 58.8441 29.1707C62.5979 29.1707 64.5515 31.9286 64.5515 35.5675V44.3009H62.0617V35.9889C62.0617 33.1161 60.7977 31.5456 58.193 31.5456C55.4351 31.5456 53.6348 33.8822 53.6348 36.8316V44.2626H51.1833V24.7275H51.2216ZM93.8159 29.1707V31.9669C90.8664 31.5456 88.3767 33.5374 88.3767 37.2146V44.3009H85.9252V29.4389H88.3767V32.6181C89.5641 30.3965 91.4793 29.1707 93.8159 29.1707ZM129.477 29.1707V31.9669C126.528 31.5456 124.038 33.5374 124.038 37.2146V44.3009H121.586V29.4389H124.038V32.6181C125.225 30.3965 127.102 29.1707 129.477 29.1707ZM153.417 31.5073C150.391 31.5073 148.246 33.8056 148.246 36.9082C148.246 39.9725 150.391 42.2325 153.417 42.2325C156.443 42.2325 158.627 39.9725 158.627 36.9082C158.627 33.8056 156.443 31.5073 153.417 31.5073ZM74.4723 31.469C71.4462 31.469 69.3012 33.7673 69.3012 36.8699C69.3012 39.9342 71.4462 42.1942 74.4723 42.1942C77.4983 42.1942 79.6816 39.9342 79.6816 36.8699C79.6816 33.7673 77.5366 31.469 74.4723 31.469ZM111.857 31.4307C109.138 31.4307 107.529 33.3459 107.107 35.8357H116.3C116.109 33.3076 114.5 31.4307 111.857 31.4307ZM136.985 31.4307C134.265 31.4307 132.656 33.3459 132.235 35.8357H141.428C141.236 33.3076 139.628 31.4307 136.985 31.4307ZM99.9828 29.2091C100.596 28.826 101.4 28.826 102.013 29.2091L104.464 30.8561L102.051 32.4266C101.438 32.8096 100.634 32.8096 100.021 32.4266L99.9828 32.3883C98.8337 31.6605 98.8337 29.9751 99.9828 29.2091ZM65.5474 7.45227C67.8839 7.45227 69.7609 8.52479 70.9866 10.3251V7.72041H73.4764V22.5441H70.9866V20.0161C69.7609 21.7781 67.8456 22.8123 65.5474 22.8123C61.219 22.8123 58.1164 19.5947 58.1164 15.1897C58.1164 10.7464 61.219 7.45227 65.5474 7.45227ZM51.0301 2.9707V17.6029C51.0301 19.6713 52.2941 20.4757 53.9029 20.4757C55.0903 20.4757 56.3161 20.131 57.3503 19.4032V21.778C56.3161 22.5441 54.8988 22.8506 53.6731 22.8506C50.4939 22.8506 48.5787 21.4333 48.5787 17.4497V4.50287L51.0301 2.9707ZM153.417 2.9707V22.5824H150.927V19.9777C149.74 21.7397 147.786 22.8506 145.488 22.8506C141.16 22.8506 138.057 19.633 138.057 15.228C138.057 10.7464 141.16 7.45227 145.488 7.45227C147.825 7.45227 149.74 8.56311 150.927 10.3634V4.46455L153.417 2.9707ZM118.331 7.45227C120.667 7.45227 122.544 8.52479 123.77 10.3251V7.72041H126.259V22.5441H123.77V20.0161C122.544 21.7781 120.629 22.8123 118.331 22.8123C114.002 22.8123 110.9 19.5947 110.9 15.1897C110.861 10.7464 113.964 7.45227 118.331 7.45227ZM41.1476 7.45227C42.9096 7.45227 44.5184 7.95023 45.6675 8.79292V11.3593C44.3269 10.1719 42.6415 9.44409 41.1859 9.44409C39.6155 9.44409 38.5046 10.1719 38.5046 11.3593C38.5046 12.2786 38.926 12.8149 40.1134 13.2745L43.6374 14.6918C45.5526 15.4962 46.3953 16.6453 46.3953 18.2541C46.3953 21.0886 44.097 22.8123 40.8795 22.8123C38.926 22.8123 37.1257 22.276 35.8617 21.3184V18.6754C37.4321 20.1693 39.1941 20.8204 40.9178 20.8204C42.6798 20.8204 43.9438 20.0544 43.9438 18.7137C43.9438 17.9093 43.5225 17.2581 42.4117 16.7985L38.8877 15.3812C37.0874 14.6152 36.0915 13.5809 36.0915 11.6657C36.0532 9.09935 38.1216 7.45227 41.1476 7.45227ZM108.218 2.9707V22.5824H105.728V19.9777C104.541 21.7397 102.588 22.8506 100.289 22.8506C95.9609 22.8506 92.8583 19.633 92.8583 15.228C92.8583 10.7464 95.9609 7.45227 100.289 7.45227C102.626 7.45227 104.541 8.56311 105.728 10.3634V4.46455L108.218 2.9707ZM137.904 7.45227V10.2485C134.955 9.82715 132.465 11.8189 132.465 15.4961V22.5824H130.013V7.75872H132.465V10.938C133.652 8.67802 135.567 7.45227 137.904 7.45227ZM84.8527 7.45227C88.6065 7.45227 90.56 10.2102 90.56 13.8491V22.5824H88.0702V14.2704C88.0702 11.3976 86.8062 9.82714 84.2015 9.82714C81.4436 9.82714 79.6433 12.1637 79.6433 15.1131V22.5441H77.1918V7.72041H79.6433V10.2485C80.8308 8.56311 82.5927 7.45227 84.8527 7.45227ZM65.7772 9.78884C62.7512 9.78884 60.6062 12.0871 60.6062 15.1897C60.6062 18.2541 62.7512 20.514 65.7772 20.514C68.8033 20.514 70.9866 18.2541 70.9866 15.1897C71.0249 12.0488 68.8416 9.78884 65.7772 9.78884ZM100.557 9.78884C97.5314 9.78884 95.3863 12.0871 95.3863 15.1897C95.3863 18.2541 97.5314 20.514 100.557 20.514C103.583 20.514 105.767 18.2541 105.767 15.1897C105.767 12.0488 103.583 9.78884 100.557 9.78884ZM145.756 9.78884C142.73 9.78884 140.585 12.0871 140.585 15.1897C140.585 18.2541 142.73 20.514 145.756 20.514C148.782 20.514 150.966 18.2541 150.966 15.1897C150.966 12.0488 148.782 9.78884 145.756 9.78884ZM118.56 9.78884C115.534 9.78884 113.389 12.0871 113.389 15.1897C113.389 18.2541 115.534 20.514 118.56 20.514C121.586 20.514 123.77 18.2541 123.77 15.1897C123.77 12.0488 121.586 9.78884 118.56 9.78884ZM54.4392 7.72041C55.052 7.33736 55.8564 7.33736 56.4693 7.72041L56.5076 7.75872C57.6567 8.4865 57.6567 10.2102 56.5076 10.938C55.8947 11.321 55.0904 11.321 54.4775 10.938L52.026 9.29089L54.4392 7.72041Z" fill="#525355"/>
</svg>
