<svg width="156" height="41" viewBox="0 0 156 41" fill="none" xmlns="http://www.w3.org/2000/svg">
<path fill-rule="evenodd" clip-rule="evenodd" d="M23.7947 40.7946C10.5754 40.7946 0 31.6205 0 20.3841C0 9.14773 10.5754 0 23.7947 0C37.0139 0 47.5893 9.14773 47.5893 20.3841C47.5893 31.6205 37.0139 40.7946 23.7947 40.7946Z" fill="#004A8F"/>
<path fill-rule="evenodd" clip-rule="evenodd" d="M38.9969 22.4463L41.6407 22.5785C40.0809 33.5505 29.6377 34.3436 24.4028 23.7682L25.0902 22.6314C30.5366 26.0684 36.8818 27.3903 38.9969 22.4992" fill="white"/>
<path fill-rule="evenodd" clip-rule="evenodd" d="M21.0714 6.45093L26.3591 4.73242L26.597 34.6608L20.8599 36.6173L21.0978 6.45093" fill="#ED1C24"/>
<path fill-rule="evenodd" clip-rule="evenodd" d="M39.129 18.4806H41.535C40.6096 13.4573 38.0451 10.2847 33.1275 9.83523C29.0207 9.83523 25.4956 12.2147 22.5521 16.9736C20.6485 19.8554 17.6081 24.4029 13.9331 24.9052C13.0653 25.1501 12.1441 25.13 11.2879 24.8473C10.4316 24.5646 9.67942 24.0324 9.12799 23.3189C8.57656 22.6055 8.25107 21.7435 8.19335 20.8436C8.13563 19.9437 8.34831 19.0472 8.80406 18.2691C9.57432 17.3052 10.5796 16.5557 11.7233 16.0927C12.867 15.6297 14.1105 15.4687 15.3344 15.6253C17.2604 15.7825 19.1285 16.3601 20.8072 17.3173V12.9814C19.9138 12.0901 18.9097 11.317 17.8196 10.6813C16.3942 9.9234 14.7596 9.65405 13.1664 9.91455C6.45104 11.3951 5.23487 16.8679 6.50392 24.1649C9.14777 32.6517 17.238 33.3126 21.8911 27.8663C25.3017 24.0327 33.2597 11.0778 39.129 18.4806Z" fill="white"/>
<path fill-rule="evenodd" clip-rule="evenodd" d="M74.9531 25.6717C75.8806 25.7751 76.8195 25.6832 77.7094 25.402C78.5993 25.1209 79.4205 24.6566 80.1202 24.039C80.8199 23.4215 81.3826 22.6644 81.7722 21.8163C82.1618 20.9683 82.3697 20.0481 82.3824 19.115C82.192 17.2736 81.3258 15.5682 79.9512 14.3283C78.5766 13.0885 76.7911 12.4022 74.9399 12.4022C73.0887 12.4022 71.3033 13.0885 69.9287 14.3283C68.554 15.5682 67.6878 17.2736 67.4975 19.115C67.5098 20.0506 67.7183 20.9733 68.1095 21.8233C68.5007 22.6734 69.0659 23.4319 69.7685 24.0498C70.4712 24.6678 71.2957 25.1314 72.1888 25.4108C73.0818 25.6902 74.0236 25.7791 74.9531 25.6717ZM74.9531 22.6049C72.9703 22.6049 72.0978 20.8599 72.0978 19.115C72.0978 17.37 72.9703 15.3607 74.9531 15.3607C76.936 15.3607 77.8085 17.1321 77.8085 19.115C77.8085 21.0979 76.936 22.6049 74.9531 22.6049ZM81.9593 15.8366H84.3652V20.8599C84.3652 23.9268 85.4757 25.6717 89.415 25.6717C90.499 25.6717 91.16 25.4602 92.0589 25.4602L91.8474 22.6049C91.3979 22.6049 90.9749 22.8164 90.5254 22.8164C89.2035 22.8164 88.7805 21.9439 88.7805 20.4105V15.8366H91.8474V12.7433H88.7541V8.35449L84.6032 9.91436V12.7433H81.9593V15.8366ZM107.155 25.4866H111.465V19.115H111.703L115.219 25.4602H120.507L115.695 18.4804L120.084 12.7697H115.272L111.756 18.0574H111.465V8.35449L107.102 9.91436L107.155 25.4866ZM55.9438 25.4602H60.3327V19.115L63.8754 25.4602H69.1631L64.4306 18.4804L68.8194 12.7697H64.0076L60.2798 18.0574V8.35449L55.9438 9.67642V25.4602ZM105.675 25.4602C105.478 24.4504 105.399 23.4214 105.437 22.3933V17.5815C105.437 13.6158 102.608 12.2938 99.3295 12.2938C97.585 12.2416 95.8484 12.5476 94.2268 13.1927V16.2596C95.5167 15.6267 96.9415 15.3182 98.3777 15.3607C99.9375 15.3607 101.233 15.8102 101.233 17.5815C100.604 17.371 99.9381 17.2901 99.2766 17.3436C96.8442 17.3436 92.4819 17.793 92.4819 21.7324C92.4819 24.5877 94.8878 25.6717 97.2937 25.6717C98.1241 25.7231 98.9527 25.5456 99.6892 25.1587C100.426 24.7718 101.042 24.1902 101.471 23.4773C101.471 24.1383 101.682 24.7992 101.682 25.4602H105.675ZM96.6856 21.3094C96.6856 20.1989 98.0075 19.7759 99.541 19.7759H101.286C101.33 20.5277 101.078 21.2667 100.584 21.835C100.09 22.4032 99.3926 22.7555 98.6421 22.8164C97.5316 22.8164 96.6592 22.1818 96.6592 21.3094" fill="#ED1C24"/>
<path fill-rule="evenodd" clip-rule="evenodd" d="M122.04 9.01562C122.391 9.02868 122.734 9.11896 123.045 9.28001C123.362 9.4599 123.625 9.72164 123.806 10.0379C123.988 10.3541 124.081 10.7133 124.076 11.0778C124.08 11.4387 123.989 11.7943 123.812 12.1089C123.633 12.4316 123.368 12.6974 123.045 12.8756C122.745 13.0701 122.398 13.1797 122.04 13.1929C121.679 13.1991 121.323 13.1077 121.009 12.9285C120.692 12.743 120.428 12.4789 120.242 12.1618C120.058 11.8492 119.957 11.4938 119.952 11.1307C119.961 10.7681 120.061 10.4136 120.242 10.0996C120.428 9.78249 120.692 9.51846 121.009 9.33289C121.326 9.15291 121.678 9.04461 122.04 9.01562ZM122.04 9.35933C121.742 9.36015 121.449 9.44242 121.194 9.59727C120.911 9.72236 120.685 9.94864 120.56 10.2318C120.405 10.4869 120.323 10.7794 120.322 11.0778C120.326 11.3724 120.398 11.662 120.533 11.9239C120.68 12.1983 120.9 12.4271 121.168 12.5848C121.439 12.7202 121.737 12.7925 122.04 12.7963C122.334 12.7886 122.623 12.7164 122.886 12.5848C123.155 12.4271 123.374 12.1983 123.521 11.9239C123.66 11.6635 123.732 11.3729 123.732 11.0778C123.732 10.7827 123.66 10.4922 123.521 10.2318C123.378 9.9522 123.145 9.72874 122.86 9.59727C122.613 9.4458 122.33 9.36361 122.04 9.35933ZM121.141 12.2147V10.0203H121.882C122.074 9.98724 122.271 9.98724 122.463 10.0203C122.52 10.0354 122.572 10.062 122.618 10.0984C122.663 10.1348 122.701 10.1802 122.728 10.2318C122.762 10.3348 122.762 10.4461 122.728 10.5491C122.731 10.7052 122.674 10.8567 122.569 10.9721C122.439 11.0941 122.271 11.1687 122.093 11.1836C122.093 11.1836 122.252 11.1836 122.278 11.1836C122.409 11.3145 122.516 11.4664 122.596 11.633L122.886 12.0561H122.463L122.252 11.7124C122.164 11.5217 122.038 11.3508 121.882 11.21C121.882 11.21 121.723 11.21 121.591 11.21H121.379V12.1354L121.141 12.2147ZM121.485 10.9721H121.908C122.056 11.0101 122.21 11.0101 122.358 10.9721C122.383 10.8857 122.383 10.794 122.358 10.7077C122.369 10.6554 122.369 10.6013 122.358 10.5491H122.199H121.432V11.21" fill="#004A8F"/>
<path d="M61.3904 37.3311H60.2007L57.2396 33.8677L57.0545 33.6033V37.3311H56.2085V29.7697H57.0545V33.3125L57.2396 33.0745L60.1214 29.7697H61.2318L57.9534 33.3918L61.3904 37.3311ZM61.787 34.6873C61.7472 33.9125 62.013 33.153 62.5273 32.5722C62.7898 32.3107 63.1043 32.1074 63.4505 31.9753C63.7966 31.8432 64.1667 31.7853 64.5366 31.8055C64.8807 31.784 65.2252 31.8393 65.5453 31.9674C65.8653 32.0954 66.1529 32.2929 66.3873 32.5457C66.8713 33.1305 67.1168 33.8764 67.0747 34.6344C67.1021 35.0067 67.0503 35.3807 66.9227 35.7316C66.7951 36.0824 66.5946 36.4023 66.3345 36.6701C65.818 37.1631 65.1316 37.4381 64.4177 37.4381C63.7038 37.4381 63.0173 37.1631 62.5009 36.6701C62.0234 36.1217 61.7687 35.4142 61.787 34.6873ZM62.6331 34.6873C62.6023 35.239 62.7713 35.7833 63.109 36.2207C63.279 36.4084 63.4874 36.5575 63.72 36.6578C63.9526 36.7582 64.204 36.8074 64.4573 36.8023C64.7051 36.8141 64.9524 36.7703 65.1811 36.6743C65.4098 36.5782 65.6142 36.4323 65.7792 36.2471C66.0983 35.7903 66.2648 35.2444 66.2551 34.6873C66.2933 34.1102 66.1246 33.5384 65.7792 33.0745C65.6166 32.8863 65.4127 32.7382 65.1834 32.6419C64.9541 32.5456 64.7056 32.5036 64.4573 32.5193C64.2033 32.5087 63.9502 32.5555 63.7167 32.6562C63.4833 32.7569 63.2756 32.9089 63.109 33.1009C62.7775 33.5516 62.6096 34.1019 62.6331 34.6608V34.6873ZM70.9347 37.3311C70.6898 37.4575 70.4172 37.5211 70.1416 37.5162C69.2163 37.5162 68.7403 36.9874 68.7403 35.9299V32.6251H67.815V31.9377H68.7403V30.5893L69.56 30.3249V31.9377H70.9347V32.6251H69.56V35.7448C69.5448 36.0214 69.609 36.2966 69.745 36.538C69.9119 36.6858 70.1304 36.7619 70.3531 36.7495C70.5633 36.7623 70.7706 36.6963 70.9347 36.5644V37.3311ZM72.2302 32.3607C72.7751 32.0161 73.4101 31.8413 74.0545 31.8583C75.3235 31.8583 75.9316 32.5193 75.9316 33.8677V37.384H75.112V36.538C74.9688 36.7819 74.775 36.9924 74.5436 37.1552C74.3123 37.3181 74.0488 37.4295 73.7708 37.4821C73.4928 37.5347 73.2068 37.5272 72.932 37.4601C72.6571 37.393 72.3998 37.2679 72.1774 37.0932C72.0285 36.9446 71.9118 36.767 71.8345 36.5715C71.7571 36.3759 71.7209 36.1665 71.7279 35.9563C71.7279 34.9516 72.336 34.37 73.4993 34.2114L75.1385 33.9734C75.1385 33.0216 74.7683 32.5457 74.028 32.5457C73.3728 32.5475 72.7416 32.7924 72.2567 33.2331L72.2302 32.3607ZM73.7901 34.8195C73.441 34.8532 73.1054 34.9712 72.8119 35.1632C72.7146 35.2585 72.6403 35.3746 72.5945 35.5029C72.5487 35.6311 72.5326 35.7681 72.5475 35.9034C72.546 36.028 72.5712 36.1514 72.6213 36.2654C72.6715 36.3794 72.7455 36.4814 72.8383 36.5644C73.0596 36.7282 73.3299 36.8121 73.605 36.8023C73.8075 36.8102 74.0092 36.7741 74.1964 36.6966C74.3835 36.619 74.5516 36.5017 74.689 36.3529C74.8327 36.1964 74.944 36.0131 75.0166 35.8134C75.0892 35.6138 75.1216 35.4018 75.112 35.1896V34.6344L73.7901 34.8195ZM82.0125 37.4633H80.8492L78.4169 34.8195V37.4633H77.6237V29.5318H78.4169V34.3436L80.7434 31.8848H81.801L79.1571 34.5286L82.0125 37.4633ZM92.3764 37.4633V32.2285C92.3764 31.8319 92.3764 31.356 92.3764 30.7479C92.3141 30.9912 92.2346 31.2298 92.1385 31.4618L89.4946 37.3311H89.1245L86.4806 31.5146C86.3947 31.2636 86.3241 31.0075 86.2691 30.7479C86.2691 31.0387 86.2691 31.5146 86.2691 32.202V37.3311H85.4495V29.7697H86.5335L88.9129 35.0574C89.0446 35.3412 89.1594 35.6325 89.2566 35.9299C89.2566 35.6655 89.4682 35.3747 89.6004 35.0045L92.0327 29.7168H93.0638V37.2782L92.3764 37.4633ZM95.2053 32.44C95.7502 32.0954 96.3851 31.9206 97.0296 31.9377C98.2986 31.9377 98.9067 32.5986 98.9067 33.947V37.4633H98.0871V36.6173C97.9339 36.924 97.695 37.1798 97.3994 37.3534C97.1037 37.527 96.764 37.6111 96.4215 37.5955C96.1966 37.6113 95.9709 37.582 95.7575 37.5094C95.5441 37.4368 95.3474 37.3222 95.1789 37.1725C95.0211 37.0294 94.8968 36.8534 94.8145 36.657C94.7323 36.4605 94.6942 36.2484 94.703 36.0356C94.703 35.031 95.3111 34.4493 96.5008 34.2907L98.1135 34.0527C98.1135 33.101 97.7434 32.6251 97.0031 32.6251C96.3479 32.6268 95.7166 32.8717 95.2318 33.3125L95.2053 32.44ZM96.7652 34.8988C96.4243 34.9325 96.0972 35.0506 95.8134 35.2425C95.7129 35.3365 95.6347 35.4517 95.5844 35.5798C95.5341 35.7078 95.513 35.8455 95.5226 35.9827C95.5211 36.1073 95.5462 36.2307 95.5964 36.3447C95.6466 36.4587 95.7206 36.5607 95.8134 36.6437C96.0347 36.8075 96.305 36.8914 96.5801 36.8817C96.7828 36.8914 96.9851 36.8561 97.1725 36.7784C97.3599 36.7007 97.5278 36.5825 97.6641 36.4322C97.8077 36.2757 97.9191 36.0924 97.9916 35.8928C98.0642 35.6931 98.0967 35.4811 98.0871 35.2689V34.7137L96.7652 34.8988ZM105.014 37.5426H104.194V34.3436C104.194 33.2067 103.771 32.6251 102.925 32.6251C102.714 32.6178 102.504 32.6593 102.311 32.7465C102.119 32.8336 101.949 32.9639 101.815 33.1274C101.523 33.4841 101.372 33.9358 101.392 34.3964V37.4633H100.572V29.5318H101.392V33.0216C101.57 32.7026 101.831 32.4381 102.148 32.2564C102.464 32.0747 102.825 31.9828 103.19 31.9905C104.406 31.9905 105.014 32.7308 105.014 34.1849V37.5426ZM106.547 30.1927C106.543 30.1229 106.555 30.0531 106.583 29.9889C106.611 29.9246 106.653 29.8677 106.706 29.8226C106.748 29.7643 106.804 29.7171 106.869 29.6849C106.933 29.6527 107.004 29.6364 107.076 29.6375C107.221 29.644 107.359 29.7045 107.462 29.8073C107.564 29.91 107.625 30.0475 107.631 30.1927C107.629 30.3322 107.572 30.4652 107.473 30.5629C107.421 30.6154 107.36 30.6567 107.291 30.684C107.223 30.7113 107.15 30.7241 107.076 30.7215C107.009 30.7255 106.941 30.7158 106.878 30.6931C106.814 30.6704 106.756 30.6351 106.706 30.5893C106.618 30.5182 106.555 30.4208 106.527 30.3114C106.498 30.2019 106.505 30.0862 106.547 29.9812V30.1927ZM106.547 37.5426V32.2549H107.341V37.5426H106.547ZM113.58 37.5426H112.76V34.3436C112.76 33.1803 112.337 32.5986 111.465 32.5986C111.257 32.5892 111.05 32.6299 110.862 32.7174C110.673 32.8048 110.508 32.9364 110.381 33.1009C110.087 33.4564 109.936 33.909 109.958 34.37V37.4369H109.138V32.1492H109.958V33.0481C110.133 32.7271 110.394 32.4609 110.711 32.2789C111.029 32.097 111.39 32.0063 111.756 32.017C112.011 32.0003 112.266 32.0443 112.5 32.1454C112.734 32.2465 112.942 32.4019 113.104 32.5986C113.451 33.0717 113.62 33.6524 113.58 34.2378V37.5426ZM119.793 37.5426H118.974V36.6173C118.8 36.9536 118.533 37.2325 118.205 37.4202C117.876 37.6079 117.501 37.6963 117.123 37.6748C116.811 37.6894 116.499 37.6299 116.214 37.5012C115.93 37.3726 115.679 37.1784 115.484 36.9345C115.057 36.3744 114.841 35.6815 114.876 34.9781C114.843 34.1972 115.087 33.4298 115.563 32.8101C115.783 32.5504 116.059 32.344 116.371 32.2066C116.682 32.0692 117.021 32.0044 117.361 32.017C117.685 31.9953 118.008 32.0657 118.293 32.2201C118.579 32.3745 118.814 32.6066 118.974 32.8894V29.3467H119.793V37.5426ZM118.974 34.2907C118.984 34.0841 118.949 33.8778 118.871 33.6861C118.793 33.4943 118.675 33.3217 118.524 33.1803C118.385 33.0246 118.214 32.9013 118.022 32.8191C117.83 32.7369 117.622 32.6977 117.414 32.7044C117.169 32.6992 116.927 32.7516 116.707 32.8572C116.486 32.9628 116.294 33.1188 116.145 33.3125C115.803 33.7784 115.635 34.3487 115.669 34.9252C115.643 35.4558 115.802 35.979 116.118 36.4058C116.251 36.595 116.43 36.7476 116.638 36.8493C116.846 36.951 117.077 36.9985 117.308 36.9874C117.533 36.992 117.756 36.9469 117.962 36.8556C118.167 36.7642 118.35 36.6287 118.498 36.4586C118.825 36.0881 118.996 35.6045 118.974 35.1103V34.2907ZM124.261 32.9688C123.999 32.8171 123.69 32.771 123.395 32.8398C123.1 32.9085 122.843 33.087 122.675 33.3389C122.401 33.7725 122.272 34.2814 122.305 34.793V37.4369H121.485V32.1492H122.305V33.2596C122.406 32.9092 122.608 32.5965 122.886 32.3607C123.109 32.1542 123.402 32.0407 123.706 32.0434C123.88 32.0071 124.06 32.0071 124.235 32.0434L124.261 32.9688ZM125.345 32.5193C125.894 32.0296 126.593 31.7407 127.328 31.6997C128.571 31.6997 129.205 32.3607 129.205 33.709V37.2254H128.386V36.3793C128.242 36.6233 128.049 36.8337 127.817 36.9966C127.586 37.1594 127.322 37.2709 127.044 37.3235C126.766 37.3761 126.48 37.3686 126.206 37.3015C125.931 37.2344 125.673 37.1093 125.451 36.9345C125.297 36.7901 125.176 36.6132 125.098 36.4166C125.021 36.22 124.988 36.0086 125.002 35.7977C125.002 34.793 125.583 34.2114 126.773 34.0527L128.412 33.8148C128.412 32.863 128.042 32.3871 127.275 32.3871C126.629 32.3953 126.008 32.6398 125.53 33.0745L125.345 32.5193ZM126.905 34.9781C126.555 35.0075 126.218 35.1258 125.927 35.3218C125.835 35.4211 125.765 35.5378 125.719 35.665C125.674 35.7922 125.655 35.9272 125.662 36.0621C125.661 36.1866 125.686 36.31 125.736 36.424C125.786 36.5381 125.86 36.64 125.953 36.723C126.173 36.8908 126.444 36.9751 126.72 36.961C126.922 36.9689 127.124 36.9328 127.311 36.8552C127.498 36.7776 127.667 36.6603 127.804 36.5115C128.082 36.1885 128.233 35.7747 128.227 35.3482V34.793L126.905 34.9781ZM133.33 37.6219V29.7697H135.445C135.988 29.743 136.522 29.9119 136.952 30.2456C137.142 30.3904 137.294 30.5791 137.395 30.7955C137.496 31.0118 137.544 31.2495 137.533 31.4882C137.545 31.8862 137.424 32.2767 137.19 32.5986C136.945 32.9207 136.616 33.1679 136.238 33.3125C136.703 33.3439 137.138 33.5521 137.454 33.8941C137.76 34.2443 137.921 34.6983 137.904 35.1632C137.916 35.4584 137.861 35.7526 137.741 36.0231C137.622 36.2935 137.442 36.533 137.216 36.723C136.727 37.129 136.107 37.3449 135.471 37.3311L133.33 37.6219ZM134.149 30.8272V33.3125H135.26C135.674 33.324 136.081 33.2037 136.423 32.9688C136.567 32.8404 136.68 32.6808 136.754 32.5021C136.827 32.3234 136.859 32.1304 136.846 31.9377C136.846 31.1974 136.37 30.8272 135.365 30.8272H134.149ZM134.149 34.0792V36.8552H135.365C135.809 36.8746 136.247 36.7442 136.608 36.4851C136.752 36.3567 136.865 36.1971 136.939 36.0184C137.012 35.8398 137.044 35.6467 137.031 35.454C137.031 34.5286 136.423 34.0792 135.18 34.0792H134.149ZM139.437 32.5986C139.974 32.2576 140.599 32.0829 141.235 32.0963C142.504 32.0963 143.138 32.7572 143.138 34.1056V37.6219H142.319V36.7759C142.175 37.0199 141.982 37.2303 141.75 37.3932C141.519 37.556 141.255 37.6675 140.978 37.7201C140.7 37.7727 140.414 37.7652 140.139 37.6981C139.864 37.631 139.607 37.5059 139.384 37.3311C139.226 37.188 139.102 37.012 139.02 36.8156C138.937 36.6191 138.899 36.407 138.908 36.1943C138.908 35.1896 139.516 34.6079 140.706 34.4493L142.345 34.2114C142.345 33.2596 141.949 32.7837 141.208 32.7837C140.562 32.7919 139.941 33.0364 139.463 33.4711L139.437 32.5986ZM140.97 35.0574C140.63 35.0911 140.302 35.2093 140.019 35.4011C139.921 35.4964 139.847 35.6126 139.801 35.7408C139.755 35.869 139.739 36.006 139.754 36.1414C139.747 36.2667 139.769 36.392 139.82 36.5069C139.871 36.6218 139.948 36.723 140.045 36.8023C140.256 36.9662 140.518 37.0505 140.785 37.0403C140.988 37.05 141.19 37.0147 141.378 36.937C141.565 36.8593 141.733 36.7411 141.869 36.5908C142.167 36.2774 142.328 35.8594 142.319 35.4275V34.8723L140.97 35.0574ZM149.219 37.7013H148.4V34.3436C148.4 33.1803 147.977 32.5986 147.131 32.5986C146.919 32.5914 146.709 32.6329 146.517 32.72C146.324 32.8071 146.154 32.9375 146.02 33.1009C145.815 33.4809 145.75 33.9204 145.835 34.3436V37.4104H145.015V32.1227H145.835V33.0216C146.004 32.7008 146.259 32.4339 146.573 32.2515C146.886 32.0692 147.244 31.9787 147.606 31.9905C147.861 31.9716 148.117 32.0147 148.352 32.1159C148.587 32.2172 148.794 32.3737 148.955 32.5722C149.302 33.0453 149.471 33.6259 149.431 34.2114L149.219 37.7013ZM155.3 37.7013H154.137L151.704 35.0574V37.7013H151.123V29.7697H151.916V34.3436L154.243 31.8848H155.3L152.656 34.5286L155.3 37.3047" fill="#003974"/>
</svg>
