<svg width="209" height="76" viewBox="0 0 209 76" fill="none" xmlns="http://www.w3.org/2000/svg">
<path fill-rule="evenodd" clip-rule="evenodd" d="M0.597656 16.8154H100.795L68.1581 60.844H60.3834L56.1427 60.7193L56.2675 60.844H0.597656V16.8154ZM108.071 16.8154H208.476V60.844H83.2085L108.071 16.8154Z" fill="#0066B3"/>
<path fill-rule="evenodd" clip-rule="evenodd" d="M156.631 36.0647C156.881 36.231 159.957 39.5154 160.248 39.8065C160.83 40.4301 161.454 41.0537 162.036 41.6774C163.491 43.2157 165.113 44.8371 166.526 46.3754L170.06 50.0757C170.767 50.7409 170.601 50.7824 171.141 50.7824V27.999H167.399V42.01L162.036 36.3973C161.703 36.1063 161.454 35.7736 161.121 35.441C160.83 35.1084 160.539 34.859 160.248 34.5264C158.253 32.3229 156.007 30.1193 154.012 27.9574C153.846 27.7911 153.721 27.6664 153.596 27.4585C153.388 27.2091 153.388 27.2091 152.931 27.2506L152.972 50.0341H156.631V36.0647ZM114.64 46.9575V40.0975C116.261 39.8065 119.171 40.0144 120.419 41.0122C121.708 42.01 121.874 44.6708 120.46 46.0012C119.338 47.0406 115.97 47.3317 114.64 46.9575ZM114.64 37.1456L114.681 30.9093C116.012 30.743 118.88 30.8261 120.003 31.6576C120.627 32.115 121.001 32.8218 121.001 33.9443C120.918 37.0209 116.926 37.6445 114.64 37.1456ZM121.375 38.2266C122.996 37.4782 124.285 36.6467 124.659 34.6511C125.034 32.406 124.285 30.5767 123.08 29.5789C121.791 28.4563 119.92 28.0406 117.758 27.999C115.513 27.9574 113.226 27.999 110.939 27.999V50.0757C113.226 50.1172 116.136 50.1588 118.381 49.9925C120.543 49.8262 122.29 49.2857 123.703 47.9137C124.95 46.708 125.533 44.2551 124.992 42.01C124.327 38.975 121.915 38.6008 121.375 38.2266ZM185.651 38.5176C186.275 37.9771 187.563 36.4389 188.187 35.8984L194.382 29.3294C194.756 28.9137 195.255 28.4563 195.587 27.999H191.596C191.222 27.999 191.264 27.9574 191.056 28.1653L187.355 32.0734C187.148 32.3229 186.981 32.4476 186.773 32.697C185.194 34.4016 183.572 36.1478 181.909 37.8524C181.784 34.859 181.951 31.1587 181.909 28.0406H178.126V50.1172H181.909V49.7846C181.951 47.1654 181.909 43.9225 181.909 41.2616L181.951 39.8481L191.388 49.7015C191.763 50.0757 191.555 50.1172 192.22 50.1172H196.668L193.924 47.2485C193.426 46.7912 193.051 46.2507 192.594 45.7934L187.73 40.7627C187.48 40.5133 187.272 40.347 187.023 40.0975C186.732 39.7233 185.817 38.8087 185.651 38.5176ZM134.887 42.9662C135.053 42.3426 138.338 34.9421 138.504 34.7758L141.996 42.9662H134.887ZM131.603 50.0341C132.018 49.5768 133.224 46.1676 133.515 46.0844H143.368L145.156 49.9925H149.147L143.951 38.5176C143.077 36.6051 142.204 34.7342 141.373 32.7802L139.086 27.7495C138.837 27.2091 138.92 27.1675 138.67 27.1675C138.421 27.2506 138.504 27.2091 138.379 27.4585L135.843 32.8218C134.929 34.6927 134.056 36.6467 133.182 38.5592L128.484 48.5374C128.318 48.9116 127.944 49.5768 127.861 49.9509H131.603" fill="white"/>
<path fill-rule="evenodd" clip-rule="evenodd" d="M19.4313 39.5569C19.5145 39.6401 19.5145 39.4322 19.5145 39.7648V50.034H24.5867C24.6698 47.3316 24.5867 43.5482 24.5867 40.6379V39.6401C24.6283 39.3491 24.5867 39.5154 24.6698 39.3906C25.2103 38.476 30.9062 30.9924 31.9872 29.4956C32.3613 28.9967 32.7355 28.5394 33.0266 28.0821L27.497 28.0405L22.5079 34.9836C22.0922 34.5679 18.1009 28.1236 17.9346 28.0821H11.6982L13.6107 30.9924C14.2759 31.9486 14.9411 32.9048 15.5232 33.8611L19.4313 39.5569ZM48.8253 45.4607H40.3854V41.0537H47.578V36.5635H40.3854V32.5722H48.7837V28.0405H35.3964L35.3548 50.0756H48.8253V45.4607ZM54.1886 49.743C59.1361 51.5723 66.2871 51.4892 67.7422 45.4191C68.74 41.3031 66.495 38.8502 63.1273 37.0208L59.8844 35.2331C57.2236 33.6532 58.4293 31.0339 61.5475 31.5744C62.4621 31.7407 63.2936 32.0318 64.0836 32.4059C64.8735 32.7801 65.5387 33.1959 66.2455 33.57V28.4147C65.414 28.2068 64.5825 27.8742 63.6262 27.6663C53.9807 25.5044 51.1951 34.1105 55.6853 38.1018C56.3089 38.6838 56.8078 39.058 57.5978 39.5569C59.0529 40.43 60.2586 41.0121 61.7138 42.0515C64.1667 43.7145 62.9194 46.9158 58.3877 46.0012C56.1842 45.5854 54.3133 44.1303 53.7728 43.964L54.1886 49.743Z" fill="white"/>
<path fill-rule="evenodd" clip-rule="evenodd" d="M115.221 0.43457L72.7726 75.6449L60.5078 62.6733L68.8645 62.9643L115.221 0.43457Z" fill="#ED1C24"/>
</svg>
