<svg width="209" height="51" viewBox="0 0 209 51" fill="none" xmlns="http://www.w3.org/2000/svg">
<path d="M192.4 33.9404V16.146H195.768V23.5049L203.168 16.146H207.284L199.094 24.0454L208.241 33.9404H203.917L195.768 24.8353V33.9404H192.4Z" fill="#B62059"/>
<path d="M171.488 33.9401V15.439L184.626 26.3318C185 26.6228 185.333 26.9554 185.707 27.3296C186.081 27.6622 186.456 28.078 186.871 28.4937V16.1458H189.989V34.6469L176.561 23.5462C176.186 23.2552 175.854 22.9226 175.521 22.59C175.189 22.2574 174.856 21.9248 174.565 21.5506V33.9401H171.488Z" fill="#B62059"/>
<path d="M166.249 33.9401L163.921 29.3668H155.73L153.319 33.9401H149.785L159.805 15.439L169.783 33.9401H166.249ZM156.978 26.9554H162.715L160.595 22.881C160.47 22.6316 160.345 22.3405 160.221 21.9663C160.096 21.6337 159.971 21.2596 159.805 20.8438C159.68 21.218 159.555 21.5922 159.431 21.9248C159.306 22.2574 159.181 22.5484 159.057 22.8394L156.978 26.9554Z" fill="#B62059"/>
<path d="M136.647 33.9404V16.146H141.844C143.341 16.146 144.422 16.2291 145.129 16.3539C145.836 16.4786 146.459 16.728 146.958 17.0191C147.582 17.4348 148.081 17.9753 148.455 18.5989C148.788 19.2642 148.995 19.9709 148.995 20.7609C148.995 21.7171 148.746 22.5071 148.247 23.1307C147.748 23.7543 147 24.2117 146.044 24.4611C147.249 24.6274 148.205 25.0847 148.871 25.8747C149.577 26.6646 149.91 27.6625 149.91 28.8266C149.91 29.5334 149.785 30.2401 149.453 30.8638C149.162 31.529 148.746 32.0695 148.205 32.5268C147.623 33.0257 146.958 33.3583 146.127 33.5662C145.295 33.7741 143.882 33.8572 141.928 33.8572H136.647V33.9404ZM139.974 31.529H141.138C142.302 31.529 143.175 31.4874 143.757 31.4043C144.339 31.3211 144.796 31.1964 145.129 30.9885C145.545 30.7391 145.877 30.448 146.085 30.0322C146.293 29.6165 146.418 29.2008 146.418 28.7018C146.418 28.1198 146.293 27.6209 146.002 27.2051C145.711 26.7894 145.337 26.4568 144.838 26.2073C144.505 26.0826 144.173 25.9579 143.757 25.9163C143.341 25.8331 142.801 25.8331 142.135 25.8331H139.974V31.529ZM139.974 23.6712H141.262C142.842 23.6712 144.006 23.4633 144.672 23.0891C145.337 22.715 145.669 22.0913 145.669 21.1766C145.669 20.2204 145.378 19.5136 144.755 19.1394C144.131 18.7653 142.967 18.5574 141.262 18.5574H139.974V23.6712Z" fill="#B62059"/>
<path d="M111.369 30.365L113.947 29.284C114.196 30.0739 114.654 30.6976 115.277 31.1133C115.942 31.5291 116.774 31.7369 117.772 31.7369C118.728 31.7369 119.476 31.4875 120.058 31.0302C120.641 30.5312 120.89 29.9076 120.89 29.1177C120.89 28.0783 119.934 27.122 117.98 26.3321C117.689 26.2074 117.522 26.1242 117.356 26.0826C115.194 25.1264 113.739 24.2533 112.991 23.505C112.284 22.715 111.91 21.8004 111.91 20.6778C111.91 19.2227 112.45 18.0585 113.573 17.1439C114.654 16.2292 116.109 15.8135 117.897 15.8135C119.352 15.8135 120.599 16.0629 121.555 16.5618C122.553 17.0607 123.218 17.8091 123.592 18.7653L121.056 19.9295C120.641 19.389 120.225 18.9732 119.767 18.7238C119.31 18.4743 118.77 18.3496 118.146 18.3496C117.273 18.3496 116.608 18.5575 116.067 18.9732C115.568 19.389 115.319 19.9295 115.319 20.5947C115.319 21.6756 116.441 22.6734 118.686 23.5881C118.853 23.6713 118.977 23.7128 119.102 23.7544C121.056 24.5859 122.387 25.3759 123.135 26.1242C123.883 26.9142 124.216 27.8704 124.216 29.0345C124.216 30.7391 123.634 32.0696 122.428 33.0674C121.264 34.0652 119.643 34.5641 117.647 34.5641C115.942 34.5641 114.57 34.2315 113.49 33.5247C112.409 32.6516 111.702 31.6538 111.369 30.365Z" fill="#B62059"/>
<path d="M105.466 33.9404V16.146H108.667V33.9404H105.466Z" fill="#B62059"/>
<path d="M86.1328 33.9404L92.577 24.6274L86.8812 16.146H90.2488L93.1175 20.5114C93.2838 20.7193 93.5749 21.2182 93.9906 21.925L94.1985 22.2992C94.3232 22.0497 94.4895 21.8003 94.6974 21.5092C94.8637 21.2182 95.0716 20.9272 95.2795 20.5946L98.3145 16.2292H101.599L95.8199 24.669L102.056 34.0235H98.4808L95.1547 28.9929L95.1132 28.9097C94.739 28.2861 94.4064 27.7456 94.1153 27.2051C93.949 27.4961 93.7827 27.7872 93.6164 28.0782C93.4501 28.3692 93.2423 28.6603 93.0344 28.9929L89.5836 34.0651H86.1328" fill="#B62059"/>
<path d="M82.016 33.9401L79.7709 29.3668H71.9131L69.6264 33.9401H66.2588L75.8628 15.439L85.4252 33.9401H82.016ZM73.1188 26.9554H78.6483L76.6111 22.881C76.4864 22.6316 76.3617 22.3405 76.2369 21.9663C76.1122 21.6337 75.9875 21.2596 75.8628 20.8438C75.738 21.218 75.6549 21.5922 75.5302 21.9248C75.4054 22.2574 75.2807 22.5484 75.156 22.8394L73.1188 26.9554Z" fill="#B62059"/>
<path fill-rule="evenodd" clip-rule="evenodd" d="M0.362305 50.1549L29.2158 0.846191L38.113 15.7718L18.8635 49.947L0.362305 50.1549Z" fill="#B62059"/>
<path fill-rule="evenodd" clip-rule="evenodd" d="M29.4658 31.4047L47.2602 31.1553L58.0699 49.9059H39.7766L29.4658 31.4047Z" fill="#B62059"/>
</svg>
